<?xml version="1.0" encoding="iso-8859-1"?>
<!-- Generator: Adobe Illustrator 19.0.0, SVG Export Plug-In . SVG Version: 6.00 Build 0)  -->
<svg version="1.1" id="Layer_1" xmlns="http://www.w3.org/2000/svg" xmlns:xlink="http://www.w3.org/1999/xlink" x="0px" y="0px"
	 viewBox="0 0 800 800" style="enable-background:new 0 0 800 800;" xml:space="preserve">
<g>
	<polygon style="fill:#103B9B;" points="91.761,153.839 172.613,153.839 172.613,207.741 	"/>
	<polygon style="fill:#103B9B;" points="171.613,154.839 95.064,154.839 171.613,205.872 	"/>
	<polygon style="fill:#103B9B;" points="240.291,153.839 321.142,153.839 240.291,207.741 	"/>
	<polygon style="fill:#103B9B;" points="317.839,154.839 241.291,154.839 241.291,205.872 	"/>
	<path style="fill:#103B9B;" d="M644.161,659.064v-1c0-6.563-5.34-11.903-11.903-11.903H24.807V399h50.6l97.206-64.805V399h67.678
		v-64.805L337.497,399H399v-40.335l-80.787-53.858H399v-67.678h-80.787L399,183.271v-29.432h376.193v492.322h-91.322
		c-6.563,0-11.903,5.34-11.903,11.903v1H644.161z M593.549,530.032c-13.679,0-24.807,11.128-24.807,24.807
		s11.128,24.807,24.807,24.807c13.678,0,24.806-11.128,24.806-24.807S607.227,530.032,593.549,530.032z M206.452,478.419
		c-27.908,0-50.613,22.705-50.613,50.613s22.705,50.613,50.613,50.613s50.613-22.705,50.613-50.613
		C257.065,501.124,234.36,478.419,206.452,478.419z M632.258,416.054c-8.935,0-16.204,7.27-16.204,16.204s7.27,16.204,16.204,16.204
		c8.936,0,16.205-7.27,16.205-16.204S641.193,416.054,632.258,416.054z M516.129,349.387c-13.679,0-24.807,11.128-24.807,24.806
		S502.45,399,516.129,399s24.807-11.128,24.807-24.807S529.808,349.387,516.129,349.387z M670.968,284.871
		c-13.679,0-24.807,11.128-24.807,24.806s11.128,24.807,24.807,24.807s24.807-11.128,24.807-24.807S684.646,284.871,670.968,284.871
		z M593.549,220.355c-13.679,0-24.807,11.128-24.807,24.806c0,13.678,11.128,24.807,24.807,24.807
		c13.678,0,24.806-11.128,24.806-24.807S607.227,220.355,593.549,220.355z"/>
	<path style="fill:#103B9B;" d="M683.871,645.161h90.322V154.839H400v28.967l-78.484,52.323H400v16.129v37.419v16.129h-78.484
		L400,358.13v14.551V400h-62.806l-95.904-63.937V400h-16.129h-37.419h-16.129v-63.937L75.709,400H54.773H25.807v245.161h606.451
		c7.128,0,12.903,5.777,12.903,12.903h25.807C670.968,650.938,676.743,645.161,683.871,645.161z M206.452,580.646
		c-28.506,0-51.613-23.107-51.613-51.613c0-28.506,23.107-51.613,51.613-51.613s51.613,23.107,51.613,51.613
		C258.065,557.539,234.958,580.646,206.452,580.646z M593.549,219.355c14.252,0,25.806,11.554,25.806,25.806
		c0,14.252-11.554,25.807-25.806,25.807s-25.807-11.555-25.807-25.807S579.297,219.355,593.549,219.355z M516.129,400
		c-14.252,0-25.807-11.554-25.807-25.807c0-14.252,11.555-25.806,25.807-25.806s25.807,11.554,25.807,25.806
		C541.936,388.446,530.381,400,516.129,400z M593.549,580.646c-14.252,0-25.807-11.555-25.807-25.807s11.555-25.807,25.807-25.807
		s25.806,11.555,25.806,25.807S607.801,580.646,593.549,580.646z M632.258,449.462c-9.502,0-17.204-7.702-17.204-17.204
		s7.702-17.204,17.204-17.204s17.205,7.702,17.205,17.204S641.76,449.462,632.258,449.462z M645.161,309.677
		c0-14.252,11.555-25.806,25.807-25.806s25.807,11.554,25.807,25.806s-11.555,25.807-25.807,25.807S645.161,323.93,645.161,309.677z
		"/>
	<polygon style="fill:#103B9B;" points="24.807,237.129 24.807,190.539 94.69,237.129 	"/>
	<polygon style="fill:#103B9B;" points="25.807,192.408 25.807,236.129 91.388,236.129 	"/>
	<polygon style="fill:#103B9B;" points="24.807,304.807 94.69,304.807 24.807,351.396 	"/>
	<polygon style="fill:#103B9B;" points="25.807,305.807 25.807,349.528 91.388,305.807 	"/>
	<polygon style="fill:#ED1F34;" points="255.407,304.807 300.227,304.807 401,372.146 401,401.868 	"/>
	<polygon style="fill:#ED1F34;" points="258.709,305.807 400,400 400,372.681 299.924,305.807 	"/>
	<polygon style="fill:#ED1F34;" points="24.807,401 24.807,390.863 153.891,304.807 172.613,304.807 172.613,322.643 55.076,401 	
		"/>
	<polygon style="fill:#ED1F34;" points="171.613,322.107 171.613,305.807 154.193,305.807 25.807,391.398 25.807,400 54.773,400 	
		"/>
	<polygon style="fill:#ED1F34;" points="111.752,237.129 24.807,179.028 24.807,153.839 32.561,153.839 157.496,237.129 	"/>
	<polygon style="fill:#ED1F34;" points="154.193,236.129 32.258,154.839 25.807,154.839 25.807,178.493 112.055,236.129 	"/>
	<polygon style="fill:#ED1F34;" points="240.291,237.129 240.291,219.301 338.474,153.839 383.948,153.839 259.012,237.129 	"/>
	<polygon style="fill:#ED1F34;" points="241.291,236.129 258.709,236.129 380.646,154.839 338.776,154.839 241.291,219.836 	"/>
	<polygon style="fill:#FFFFFF;" points="187.742,252.258 187.742,154.839 171.613,154.839 171.613,205.872 95.064,154.839 
		32.258,154.839 154.193,236.129 112.055,236.129 25.807,178.493 25.807,192.408 91.388,236.129 25.807,236.129 25.807,252.258 	"/>
	<polygon style="fill:#FFFFFF;" points="225.161,252.258 400,252.258 400,236.129 321.516,236.129 400,183.806 400,154.839 
		380.646,154.839 258.709,236.129 241.291,236.129 241.291,219.836 338.776,154.839 317.839,154.839 241.291,205.872 
		241.291,154.839 225.161,154.839 	"/>
	<polygon style="fill:#FFFFFF;" points="225.161,289.677 225.161,400 241.291,400 241.291,336.063 337.194,400 400,400 
		258.709,305.807 299.924,305.807 400,372.681 400,358.13 321.516,305.807 400,305.807 400,289.677 	"/>
	<polygon style="fill:#FFFFFF;" points="171.613,305.807 171.613,322.107 54.773,400 75.709,400 171.613,336.063 171.613,400 
		187.742,400 187.742,289.677 25.807,289.677 25.807,305.807 91.388,305.807 25.807,349.528 25.807,391.398 154.193,305.807 	"/>
	<polygon style="fill:#ED1F34;" points="186.742,401 186.742,290.677 24.807,290.677 24.807,251.258 186.742,251.258 
		186.742,153.839 226.161,153.839 226.161,251.258 401,251.258 401,290.677 226.161,290.677 226.161,401 	"/>
	<polygon style="fill:#ED1F34;" points="187.742,289.677 187.742,400 225.161,400 225.161,289.677 400,289.677 400,252.258 
		225.161,252.258 225.161,154.839 187.742,154.839 187.742,252.258 25.807,252.258 25.807,289.677 	"/>
	<circle style="fill:#FFFFFF;" cx="206.452" cy="529.032" r="51.613"/>
	<circle style="fill:#FFFFFF;" cx="593.549" cy="245.161" r="25.806"/>
	<circle style="fill:#FFFFFF;" cx="593.549" cy="554.839" r="25.807"/>
	<circle style="fill:#FFFFFF;" cx="670.968" cy="309.677" r="25.806"/>
	<circle style="fill:#FFFFFF;" cx="516.129" cy="374.194" r="25.806"/>
	<circle style="fill:#FFFFFF;" cx="632.258" cy="432.258" r="17.204"/>
	<path d="M787.097,129.032H12.903C5.775,129.032,0,134.81,0,141.936v516.129c0,7.126,5.775,12.903,12.903,12.903h619.354
		c7.128,0,12.903-5.777,12.903-12.903s-5.775-12.903-12.903-12.903H25.807V400v-8.602v-41.87v-43.721v-16.129v-37.419V236.13
		v-43.721v-13.917V154.84h6.451h62.806h76.549h16.129h37.419h16.129h76.548h20.938h41.869H400h374.193v490.322h-90.322
		c-7.128,0-12.903,5.777-12.903,12.903s5.775,12.903,12.903,12.903h103.226c7.128,0,12.903-5.777,12.903-12.903V141.936
		C800,134.81,794.225,129.032,787.097,129.032z"/>
</g>
<g>
</g>
<g>
</g>
<g>
</g>
<g>
</g>
<g>
</g>
<g>
</g>
<g>
</g>
<g>
</g>
<g>
</g>
<g>
</g>
<g>
</g>
<g>
</g>
<g>
</g>
<g>
</g>
<g>
</g>
</svg>
