<?xml version="1.0" encoding="utf-8"?>
<!-- Generator: Adobe Illustrator 16.0.0, SVG Export Plug-In . SVG Version: 6.00 Build 0)  -->
<!DOCTYPE svg PUBLIC "-//W3C//DTD SVG 1.1//EN" "http://www.w3.org/Graphics/SVG/1.1/DTD/svg11.dtd">
<svg version="1.1" id="Capa_1" xmlns="http://www.w3.org/2000/svg" xmlns:xlink="http://www.w3.org/1999/xlink" x="0px" y="0px"
	 width="800px" height="800px" viewBox="0 0 800 800" enable-background="new 0 0 800 800" xml:space="preserve">
<g>
	<path fill="#ED1F34" d="M45.78,646.161l281.11-234.258h305.368c6.563,0,11.903-5.34,11.903-11.903v-1h27.807v1
		c0,6.563,5.34,11.903,11.903,11.903h91.322v234.258H45.78z"/>
	<path fill="#ED1F34" d="M683.871,412.903c-7.126,0-12.903-5.777-12.903-12.903h-25.807c0,7.126-5.777,12.903-12.903,12.903H327.252
		L48.542,645.161h725.651V412.903H683.871z"/>
	<path fill="#FFFFFF" d="M683.871,387.097h90.322V154.839H48.542l278.71,232.258h305.006c7.126,0,12.903,5.777,12.903,12.903h25.807
		C670.968,392.874,676.745,387.097,683.871,387.097z"/>
	<polygon fill="#103B9B" points="24.807,167.35 303.988,400 24.807,632.65 	"/>
	<polygon fill="#103B9B" points="302.426,400 25.807,169.485 25.807,630.516 	"/>
	<path d="M787.097,129.032H12.903c-0.14,0-0.273,0.017-0.411,0.021c-0.274,0.009-0.549,0.016-0.821,0.042
		c-0.224,0.021-0.444,0.06-0.664,0.093c-0.193,0.029-0.385,0.052-0.576,0.088c-0.241,0.046-0.473,0.108-0.709,0.168
		c-0.17,0.043-0.342,0.081-0.511,0.131c-0.229,0.069-0.449,0.149-0.672,0.23c-0.174,0.062-0.349,0.121-0.521,0.191
		c-0.201,0.083-0.396,0.177-0.592,0.269c-0.188,0.087-0.376,0.172-0.561,0.27c-0.172,0.091-0.337,0.194-0.506,0.292
		c-0.196,0.115-0.393,0.227-0.583,0.354c-0.155,0.103-0.301,0.217-0.451,0.325c-0.189,0.138-0.378,0.272-0.561,0.419
		c-0.16,0.131-0.311,0.274-0.464,0.412c-0.157,0.141-0.316,0.275-0.468,0.426c-0.208,0.205-0.401,0.425-0.594,0.644
		c-0.081,0.091-0.168,0.174-0.246,0.267c-0.007,0.007-0.012,0.016-0.017,0.024c-0.273,0.33-0.533,0.672-0.774,1.03
		c-0.024,0.036-0.043,0.074-0.067,0.11c-0.208,0.316-0.408,0.638-0.588,0.974c-0.089,0.165-0.162,0.337-0.244,0.506
		c-0.102,0.21-0.21,0.418-0.301,0.635c-0.084,0.203-0.151,0.41-0.225,0.616c-0.069,0.19-0.145,0.376-0.205,0.573
		c-0.076,0.244-0.131,0.492-0.191,0.74c-0.04,0.162-0.088,0.32-0.122,0.483c-0.079,0.394-0.139,0.79-0.181,1.186
		c-0.001,0.022-0.009,0.044-0.01,0.068c-0.043,0.429-0.063,0.859-0.065,1.289c0.002,0.008,0,0.017,0,0.027v516.129
		c0,0.011,0.002,0.019,0.002,0.027c0,0.431,0.021,0.86,0.065,1.289c0.003,0.027,0.009,0.053,0.012,0.079
		c0.043,0.394,0.1,0.786,0.179,1.175c0.032,0.165,0.083,0.325,0.122,0.488c0.06,0.246,0.115,0.492,0.189,0.735
		c0.061,0.195,0.138,0.385,0.207,0.576c0.074,0.204,0.139,0.409,0.224,0.61c0.091,0.219,0.201,0.429,0.305,0.642
		c0.081,0.167,0.151,0.336,0.239,0.499c0.184,0.341,0.385,0.67,0.599,0.991c0.021,0.031,0.036,0.062,0.057,0.093
		c0.241,0.356,0.5,0.7,0.774,1.03c0.007,0.007,0.012,0.016,0.018,0.024c0.044,0.054,0.095,0.098,0.139,0.149
		c0.244,0.284,0.497,0.56,0.766,0.821c0.131,0.127,0.267,0.244,0.401,0.364c0.198,0.178,0.396,0.352,0.604,0.517
		c0.16,0.127,0.323,0.246,0.487,0.364c0.2,0.143,0.402,0.28,0.609,0.413c0.17,0.108,0.339,0.213,0.513,0.312
		c0.224,0.127,0.453,0.246,0.685,0.359c0.163,0.081,0.323,0.163,0.49,0.235c0.265,0.117,0.537,0.221,0.81,0.32
		c0.141,0.052,0.279,0.108,0.421,0.155c0.32,0.103,0.647,0.188,0.978,0.268c0.103,0.024,0.207,0.058,0.31,0.079
		c0.382,0.081,0.772,0.142,1.167,0.188c0.057,0.007,0.112,0.019,0.168,0.025c0.451,0.047,0.905,0.072,1.366,0.072h774.193
		c7.126,0,12.903-5.777,12.903-12.903V141.936C800,134.81,794.223,129.032,787.097,129.032z M302.426,400L25.807,630.516V169.485
		L302.426,400z M48.542,645.161l278.71-232.258h305.006c7.126,0,12.903-5.777,12.903-12.903s-5.777-12.903-12.903-12.903H327.252
		L48.542,154.839h725.651v232.258h-90.322c-7.126,0-12.903,5.777-12.903,12.903s5.777,12.903,12.903,12.903h90.322v232.258H48.542z"
		/>
</g>
</svg>
