<?xml version="1.0" encoding="utf-8"?>
<!-- Generator: Adobe Illustrator 16.0.0, SVG Export Plug-In . SVG Version: 6.00 Build 0)  -->
<!DOCTYPE svg PUBLIC "-//W3C//DTD SVG 1.1//EN" "http://www.w3.org/Graphics/SVG/1.1/DTD/svg11.dtd">
<svg version="1.1" id="Capa_1" xmlns="http://www.w3.org/2000/svg" xmlns:xlink="http://www.w3.org/1999/xlink" x="0px" y="0px"
	 width="800px" height="800px" viewBox="0 0 800 800" enable-background="new 0 0 800 800" xml:space="preserve">
<g>
	<path fill="#FFFFFF" d="M632.258,326.882H25.807v146.236h748.387V326.882h-90.322c-7.128,0-12.903-5.777-12.903-12.903h-25.807
		C645.161,321.104,639.386,326.882,632.258,326.882z"/>
	<path fill="#B21727" d="M644.161,314.979v-1c0-6.563-5.34-11.903-11.903-11.903H24.807V153.839h750.387v148.236h-91.322
		c-6.563,0-11.903,5.34-11.903,11.903v1H644.161z"/>
	<path fill="#B21727" d="M632.258,301.075c7.128,0,12.903,5.777,12.903,12.903h25.807c0-7.126,5.775-12.903,12.903-12.903h90.322
		V154.839H25.807v146.236H632.258z"/>
	<rect x="24.807" y="497.925" fill="#103B9B" width="750.387" height="148.236"/>
	<rect x="25.807" y="498.925" fill="#103B9B" width="748.387" height="146.236"/>
	<path d="M787.097,129.032H12.903C5.777,129.032,0,134.81,0,141.936v516.129c0,7.126,5.777,12.903,12.903,12.903h774.193
		c7.128,0,12.903-5.777,12.903-12.903V141.936C800,134.81,794.225,129.032,787.097,129.032z M774.193,154.839v146.236h-90.322
		c-7.128,0-12.903,5.777-12.903,12.903s5.775,12.903,12.903,12.903h90.322v146.236H25.807V326.882h606.451
		c7.128,0,12.903-5.777,12.903-12.903s-5.775-12.903-12.903-12.903H25.807V154.839H774.193z M25.807,645.161V498.925h748.387
		v146.236H25.807z"/>
</g>
</svg>
