<?xml version="1.0" encoding="utf-8"?>
<!-- Generator: Adobe Illustrator 16.0.0, SVG Export Plug-In . SVG Version: 6.00 Build 0)  -->
<!DOCTYPE svg PUBLIC "-//W3C//DTD SVG 1.1//EN" "http://www.w3.org/Graphics/SVG/1.1/DTD/svg11.dtd">
<svg version="1.1" id="Capa_1" xmlns="http://www.w3.org/2000/svg" xmlns:xlink="http://www.w3.org/1999/xlink" x="0px" y="0px"
	 width="800px" height="800px" viewBox="0 0 800 800" enable-background="new 0 0 800 800" xml:space="preserve">
<g>
	<path fill="#ED1F34" d="M24.807,646.161V411.903h91.322c6.563,0,11.903-5.34,11.903-11.903v-1h27.807v1
		c0,6.563,5.34,11.903,11.903,11.903h607.451v234.258H24.807z"/>
	<path fill="#ED1F34" d="M167.742,412.903c-7.126,0-12.903-5.777-12.903-12.903h-25.807c0,7.126-5.777,12.903-12.903,12.903H25.807
		v232.258h748.387V412.903H167.742z"/>
	<path fill="#FFFFFF" d="M167.742,387.097h606.451V154.839H25.807v232.258h90.322c7.126,0,12.903,5.777,12.903,12.903h25.807
		C154.839,392.874,160.616,387.097,167.742,387.097z"/>
	<path d="M787.097,129.032H12.903C5.777,129.032,0,134.81,0,141.936v516.129c0,7.126,5.777,12.903,12.903,12.903h774.193
		c7.126,0,12.903-5.777,12.903-12.903V141.936C800,134.81,794.223,129.032,787.097,129.032z M25.807,645.161V412.903h90.322
		c7.126,0,12.903-5.777,12.903-12.903s-5.777-12.903-12.903-12.903H25.807V154.839h748.387v232.258H167.742
		c-7.126,0-12.903,5.777-12.903,12.903s5.777,12.903,12.903,12.903h606.451v232.258H25.807z"/>
</g>
</svg>
