<svg width="64" height="64" viewBox="0 0 64 64" fill="none" xmlns="http://www.w3.org/2000/svg">
<mask id="mask0" mask-type="alpha" maskUnits="userSpaceOnUse" x="0" y="0" width="64" height="64">
<rect width="64" height="64" fill="#C4C4C4"/>
</mask>
<g mask="url(#mask0)">
<path d="M56.4019 26.5689C54.1363 16.398 45.7995 8.6992 35.4811 7.24815C27.8988 6.17011 20.242 8.6412 14.7203 13.9484C10.9352 17.531 8.38607 22.2237 7.44004 27.3489C7.14553 28.878 6.99802 30.432 7.00002 31.9891C7.00002 45.7966 18.1934 56.99 32.001 56.99C45.8085 56.99 57.0019 45.7966 57.0019 31.9891C57.0054 30.1655 56.8039 28.3474 56.4019 26.5689ZM49.2616 16.7885C51.0467 18.8236 52.4552 21.1602 53.4217 23.6888H51.6617C50.2201 23.6883 48.9126 24.5338 48.3216 25.8488C47.3095 28.0129 47.4365 30.5375 48.6616 32.5891C49.7621 34.0161 49.9706 35.9392 49.2016 37.5693C48.9411 38.0293 48.6016 38.3498 48.3616 38.3093C48.1215 38.2693 47.561 37.8493 47.1215 36.6687C45.8815 33.4491 44.4014 33.1891 42.8814 33.1686C41.9613 33.1686 41.3618 33.1686 40.5013 30.949C39.6407 28.7289 40.6613 27.9089 42.2013 27.0889C43.3009 26.5089 45.1214 25.5488 44.2014 23.4487C43.8624 22.1447 42.5303 21.3617 41.2258 21.7002C40.9528 21.7712 40.6943 21.8892 40.4613 22.0487C39.6352 22.5232 38.6467 22.6252 37.7417 22.3287C36.6291 21.8897 35.9836 20.7241 36.2016 19.5486C36.4411 18.1486 37.7212 17.3085 39.6217 17.3085C42.5603 17.4445 45.4855 16.8325 48.122 15.5285C48.4616 15.9285 48.8621 16.3485 49.2616 16.7885ZM35.2611 9.20822L36.4011 9.42823C36.3226 10.1558 36.0456 10.8473 35.6011 11.4283C34.7871 12.4568 33.5315 13.0359 32.221 12.9884C29.4839 12.6388 26.8523 11.7113 24.5007 10.2683C26.9113 9.42473 29.4469 8.99171 32.001 8.98821C33.0725 8.99171 34.1415 9.07171 35.2011 9.22822L35.2611 9.20822ZM21.9206 32.7086C22.1506 32.9401 22.4791 33.0446 22.8006 32.9891C24.6487 32.5476 26.5958 33.0326 28.0208 34.2892C28.4773 34.6212 28.9513 34.9282 29.4409 35.2092C30.0329 35.5227 30.6484 35.7902 31.2809 36.0097C33.161 36.7092 34.161 37.1693 34.161 39.0098C33.9945 40.4799 33.404 41.8699 32.461 43.01C30.9804 44.896 30.1209 47.1951 30.0009 49.5902C30.0329 50.0272 29.9204 50.4628 29.6809 50.8298C29.4989 51.0003 29.2398 51.0618 29.0008 50.9898C26.8098 50.3833 25.3907 48.2672 25.6607 46.0096C25.9592 43.8045 24.6502 41.6984 22.5406 40.9894C21.3406 40.4494 20.5405 40.0894 20.5405 37.8098C20.559 37.1573 20.6945 36.5137 20.9405 35.9092C21.1635 35.4037 20.934 34.8137 20.429 34.5907C20.368 34.5642 20.305 34.5432 20.2405 34.5292C19.0405 34.2487 17.7204 32.5291 16.4404 30.889C15.9404 30.249 15.4403 29.589 14.9203 28.989C13.4303 27.7149 11.5897 26.9199 9.64012 26.7089V26.4889C9.85463 25.6068 10.1216 24.7388 10.4401 23.8888L10.6202 23.4487C10.9697 22.6052 11.3702 21.7837 11.8202 20.9887L11.9402 20.7887C12.3867 19.9926 12.8807 19.2246 13.4203 18.4886L13.6003 18.1886C14.1638 17.4525 14.7718 16.751 15.4203 16.0885L15.6203 15.8885C17.1724 16.76 18.876 17.33 20.6405 17.5685C21.8806 17.5685 24.6407 17.8485 24.6407 20.4686C24.6407 21.6487 23.6806 22.3087 22.1006 23.2287C20.9705 23.7698 20.019 24.6233 19.3605 25.6888C18.0204 28.4689 19.8805 30.669 21.9206 32.7086ZM32.001 54.9899C19.3025 54.9794 9.01109 44.6875 9.00009 31.9891C9.01059 30.877 9.1041 29.767 9.2801 28.6689C10.7877 28.813 12.2232 29.3815 13.4203 30.309C13.9203 30.889 14.4003 31.5091 14.8803 32.1291C15.9324 33.7171 17.2924 35.0777 18.8805 36.1292C18.729 36.6837 18.6485 37.2553 18.6405 37.8293C18.3594 40.0444 19.696 42.1449 21.8206 42.8295C23.0206 43.3695 23.8206 43.73 23.8206 45.9896C23.7206 50.0897 26.5407 52.9899 29.0008 52.9899C29.8154 53.0034 30.5939 52.6508 31.1209 52.0298C31.6804 51.3123 31.9644 50.4183 31.9209 49.5097C32.06 47.5076 32.8065 45.5961 34.061 44.0295C35.2071 42.597 35.9036 40.8569 36.0611 39.0293C36.0611 35.7087 33.6405 34.8097 31.8809 34.1686C31.3454 33.9881 30.8239 33.7671 30.3209 33.5091C29.8939 33.2646 29.4799 32.9976 29.0808 32.7086C27.3913 31.297 25.1797 30.6715 23.0006 30.989C21.0005 28.989 20.5805 27.8689 21.1805 26.6289C21.7066 25.9223 22.4011 25.3583 23.2006 24.9888C24.7807 24.0688 26.7208 22.9887 26.7208 20.5086C26.7208 16.8885 23.4406 15.6085 20.7205 15.6085C19.5155 15.4355 18.3504 15.0494 17.2804 14.4684C18.755 13.1899 20.3885 12.1078 22.1406 11.2483C24.0207 12.3683 28.7008 14.9084 32.141 14.9084C34.0785 14.9854 35.9336 14.1209 37.1211 12.5883C37.7327 11.8003 38.1382 10.8723 38.3007 9.88824C41.2538 10.7238 44.0089 12.1453 46.401 14.0684C44.2254 14.9769 41.8758 15.3934 39.5207 15.2884C36.9851 14.9879 34.644 16.685 34.14 19.1886C33.7365 21.3317 34.9486 23.4503 37.0006 24.1888C38.3757 24.6493 39.8787 24.5263 41.1608 23.8488C41.3923 23.7398 41.6333 23.6528 41.8803 23.5888C41.8803 23.5888 42.0403 23.5888 42.3003 24.2488C42.5608 24.9088 42.4803 24.6288 41.2203 25.2888C39.6407 26.1288 37.0011 27.5289 38.6012 31.6491C39.8407 34.8692 41.3213 35.1287 42.8409 35.1492C43.7609 35.1492 44.3614 35.1492 45.2209 37.3688C46.0815 39.5889 47.341 40.2294 48.2016 40.2889H48.3616C49.5051 40.2364 50.5236 39.5494 51.0012 38.5088C52.1577 36.2037 51.9012 33.4416 50.3411 31.3885C49.5591 29.955 49.4926 28.2384 50.1616 26.7484C50.4056 26.1013 51.0297 25.6773 51.7212 25.6883H54.1413C54.2613 26.1283 54.4218 26.5484 54.5218 27.0084C54.8678 28.6449 55.0288 30.3155 55.0018 31.9886C54.9913 44.6875 44.6994 54.9794 32.001 54.9899Z" fill="url(#paint0_linear)"/>
</g>
<defs>
<linearGradient id="paint0_linear" x1="57.002" y1="57.1391" x2="23.9402" y2="34.7726" gradientUnits="userSpaceOnUse">
<stop stop-color="#FF4747"/>
<stop offset="1" stop-color="#0D1042"/>
</linearGradient>
</defs>
</svg>
