<svg width="64" height="64" viewBox="0 0 64 64" fill="none" xmlns="http://www.w3.org/2000/svg">
<mask id="mask0" mask-type="alpha" maskUnits="userSpaceOnUse" x="0" y="0" width="64" height="64">
<rect width="64" height="64" fill="#C4C4C4"/>
</mask>
<g mask="url(#mask0)">
<path d="M31.342 36.4443V39.5163H33.1587V36.4443L34.4731 35.7876L33.661 34.1616L32.2504 34.8674L30.8397 34.1616L30.0276 35.7876L31.342 36.4443Z" fill="url(#paint0_linear)"/>
<path d="M19.4817 48.2247C18.4289 48.8624 17.7168 50.0069 17.7168 51.3249C17.7168 53.3287 19.3464 54.9583 21.3502 54.9583V55.8666C21.3502 57.8704 22.9798 59.5 24.9836 59.5H39.5171C41.5209 59.5 43.1504 57.8704 43.1504 55.8666V54.9583C45.1542 54.9583 46.7838 53.3287 46.7838 51.3249C46.7838 50.0069 46.0717 48.8624 45.0189 48.2247L45.3287 45.6587C50.0112 40.6037 53.1422 32.8673 53.1422 26.3009V25.0501C53.1422 19.7209 50.9876 14.7041 47.0754 10.9227C42.9851 6.96864 37.3116 4.81132 31.49 5.01297C20.3892 5.38994 11.3584 14.5842 11.3584 25.5079V26.3009C11.3584 32.8673 14.4895 40.6046 19.172 45.6596L19.4817 48.2247ZM41.3338 55.8666C41.3338 56.8685 40.519 57.6833 39.5171 57.6833H24.9836C23.9817 57.6833 23.1669 56.8685 23.1669 55.8666V54.9583H41.3338V55.8666ZM43.1504 53.1416H21.3502C20.3483 53.1416 19.5335 52.3268 19.5335 51.3249C19.5335 50.323 20.3483 49.5082 21.3502 49.5082H26.8002V50.4166C26.8002 50.918 27.2072 51.3249 27.7086 51.3249H36.792C37.2934 51.3249 37.7004 50.918 37.7004 50.4166V49.5082H43.1504C44.1523 49.5082 44.9671 50.323 44.9671 51.3249C44.9671 52.3268 44.1523 53.1416 43.1504 53.1416ZM30.4681 31.5666C29.8605 31.0343 29.5253 30.3095 29.5253 29.5246C29.5253 28.0222 30.7479 26.7996 32.2503 26.7996C33.7527 26.7996 34.9753 28.0222 34.9753 29.5246C34.9753 30.3095 34.6402 31.0343 34.0325 31.5666C33.7473 31.8155 33.6473 32.2152 33.78 32.5694C33.9126 32.9237 34.2523 33.158 34.6311 33.158H35.8837C36.8856 33.158 37.7004 33.9728 37.7004 34.9747V39.8634L36.386 40.5211C36.0781 40.6746 35.8837 40.9889 35.8837 41.3331V49.5082H28.6169V41.3331C28.6169 40.9889 28.4226 40.6746 28.1146 40.5201L26.8002 39.8634V34.9747C26.8002 33.9728 27.615 33.158 28.6169 33.158H29.8695C30.2483 33.158 30.5871 32.9237 30.7198 32.5694C30.8524 32.2152 30.7534 31.8146 30.4681 31.5666ZM13.1751 25.5079C13.1751 15.5525 21.4192 7.17211 31.5527 6.82784C36.9555 6.64618 42.0196 8.56187 45.8137 12.228C49.3681 15.6642 51.3255 20.2168 51.3255 25.0492V26.3C51.3255 32.4313 48.2326 39.9679 43.8045 44.6277C43.67 44.7694 43.5846 44.9501 43.561 45.1445L43.2531 47.7006C43.2177 47.7006 43.185 47.6915 43.1504 47.6915H37.7004V41.8945L39.0147 41.2368C39.3227 41.0833 39.5171 40.769 39.5171 40.4248V34.9747C39.5171 33.1426 38.1545 31.6229 36.3887 31.3768C36.6521 30.7981 36.792 30.1677 36.792 29.5246C36.792 27.0203 34.7546 24.9829 32.2503 24.9829C29.746 24.9829 27.7086 27.0203 27.7086 29.5246C27.7086 30.1677 27.8485 30.7981 28.1119 31.3768C26.3461 31.6229 24.9836 33.1426 24.9836 34.9747V40.4248C24.9836 40.769 25.1779 41.0833 25.4859 41.2377L26.8002 41.8945V47.6915H21.3502C21.3157 47.6915 21.283 47.7006 21.2484 47.7015L20.9405 45.1454C20.9169 44.951 20.8315 44.7694 20.6971 44.6286C16.268 39.9688 13.1751 32.4323 13.1751 26.3009V25.5079Z" fill="url(#paint1_linear)"/>
<path d="M28.4199 18.8605L26.8912 23.8065C26.7749 24.1843 26.9157 24.594 27.2391 24.8202C27.5625 25.0463 27.9967 25.0364 28.31 24.7975L32.2504 21.7863L36.1899 24.7956C36.3525 24.9201 36.5469 24.9828 36.7413 24.9828C36.9229 24.9828 37.1046 24.9283 37.2608 24.8193C37.5842 24.5931 37.7259 24.1834 37.6087 23.8055L36.08 18.8596L40.0676 15.813C40.3774 15.5769 40.5018 15.1699 40.3765 14.8002C40.2511 14.4305 39.905 14.1826 39.5163 14.1826H34.6348L33.117 9.27113C33.0007 8.89235 32.6483 8.63257 32.2504 8.63257C31.8526 8.63257 31.5001 8.89235 31.382 9.27295L29.8642 14.1844H24.9837C24.594 14.1844 24.2479 14.4323 24.1235 14.802C23.999 15.1717 24.1235 15.5778 24.4323 15.8148L28.4199 18.8605ZM30.5346 16.0001C30.9324 16.0001 31.2849 15.7404 31.4029 15.3598L32.2504 12.6175L33.0979 15.3607C33.216 15.7413 33.5675 16.0011 33.9663 16.0011H36.8321L34.475 17.8023C34.1725 18.033 34.0462 18.4282 34.1579 18.7924L35.0345 21.6282L32.8018 19.9233C32.6392 19.7988 32.4448 19.7362 32.2504 19.7362C32.056 19.7362 31.8617 19.7979 31.6991 19.9233L29.4664 21.6282L30.3429 18.7924C30.4555 18.4291 30.3284 18.0339 30.0259 17.8023L27.6687 16.0011H30.5346V16.0001Z" fill="url(#paint2_linear)"/>
<path d="M57.684 54.0493H55.8673V55.866H57.684V54.0493Z" fill="url(#paint3_linear)"/>
<path d="M57.684 57.6829H55.8673V59.4995H57.684V57.6829Z" fill="url(#paint4_linear)"/>
<path d="M59.5006 55.8665H57.684V57.6831H59.5006V55.8665Z" fill="url(#paint5_linear)"/>
<path d="M55.8673 55.8665H54.0506V57.6831H55.8673V55.8665Z" fill="url(#paint6_linear)"/>
<path d="M8.63334 54.0493H6.81665V55.866H8.63334V54.0493Z" fill="url(#paint7_linear)"/>
<path d="M8.63334 57.6829H6.81665V59.4995H8.63334V57.6829Z" fill="url(#paint8_linear)"/>
<path d="M10.4501 55.8665H8.63336V57.6831H10.4501V55.8665Z" fill="url(#paint9_linear)"/>
<path d="M6.81669 55.8665H5V57.6831H6.81669V55.8665Z" fill="url(#paint10_linear)"/>
<path d="M58.5923 24.0742H54.9589V25.8909H58.5923V24.0742Z" fill="url(#paint11_linear)"/>
<path d="M9.5417 24.0742H5.90833V25.8909H9.5417V24.0742Z" fill="url(#paint12_linear)"/>
<path d="M50.2342 5.7138L47.665 8.28296L48.9496 9.56754L51.5188 6.99838L50.2342 5.7138Z" fill="url(#paint13_linear)"/>
<path d="M14.2658 5.71395L12.9812 6.99854L15.5504 9.5677L16.8349 8.28312L14.2658 5.71395Z" fill="url(#paint14_linear)"/>
</g>
<defs>
<linearGradient id="paint0_linear" x1="34.4731" y1="39.5323" x2="31.2155" y2="37.7032" gradientUnits="userSpaceOnUse">
<stop offset="0.15625" stop-color="#FF4747"/>
<stop offset="1" stop-color="#0D1042"/>
</linearGradient>
<linearGradient id="paint1_linear" x1="53.1423" y1="59.6625" x2="21.404" y2="43.2051" gradientUnits="userSpaceOnUse">
<stop offset="0.15625" stop-color="#FF4747"/>
<stop offset="1" stop-color="#0D1042"/>
</linearGradient>
<linearGradient id="paint2_linear" x1="40.4247" y1="25.0322" x2="29.6122" y2="17.7201" gradientUnits="userSpaceOnUse">
<stop offset="0.15625" stop-color="#FF4747"/>
<stop offset="1" stop-color="#0D1042"/>
</linearGradient>
<linearGradient id="paint3_linear" x1="57.684" y1="55.8714" x2="56.4826" y2="55.0589" gradientUnits="userSpaceOnUse">
<stop offset="0.15625" stop-color="#FF4747"/>
<stop offset="1" stop-color="#0D1042"/>
</linearGradient>
<linearGradient id="paint4_linear" x1="57.684" y1="59.505" x2="56.4826" y2="58.6924" gradientUnits="userSpaceOnUse">
<stop offset="0.15625" stop-color="#FF4747"/>
<stop offset="1" stop-color="#0D1042"/>
</linearGradient>
<linearGradient id="paint5_linear" x1="59.5006" y1="57.6886" x2="58.2993" y2="56.876" gradientUnits="userSpaceOnUse">
<stop offset="0.15625" stop-color="#FF4747"/>
<stop offset="1" stop-color="#0D1042"/>
</linearGradient>
<linearGradient id="paint6_linear" x1="55.8673" y1="57.6886" x2="54.6659" y2="56.876" gradientUnits="userSpaceOnUse">
<stop offset="0.15625" stop-color="#FF4747"/>
<stop offset="1" stop-color="#0D1042"/>
</linearGradient>
<linearGradient id="paint7_linear" x1="8.63334" y1="55.8714" x2="7.43195" y2="55.0589" gradientUnits="userSpaceOnUse">
<stop offset="0.15625" stop-color="#FF4747"/>
<stop offset="1" stop-color="#0D1042"/>
</linearGradient>
<linearGradient id="paint8_linear" x1="8.63334" y1="59.505" x2="7.43195" y2="58.6924" gradientUnits="userSpaceOnUse">
<stop offset="0.15625" stop-color="#FF4747"/>
<stop offset="1" stop-color="#0D1042"/>
</linearGradient>
<linearGradient id="paint9_linear" x1="10.4501" y1="57.6886" x2="9.24866" y2="56.876" gradientUnits="userSpaceOnUse">
<stop offset="0.15625" stop-color="#FF4747"/>
<stop offset="1" stop-color="#0D1042"/>
</linearGradient>
<linearGradient id="paint10_linear" x1="6.81669" y1="57.6886" x2="5.6153" y2="56.876" gradientUnits="userSpaceOnUse">
<stop offset="0.15625" stop-color="#FF4747"/>
<stop offset="1" stop-color="#0D1042"/>
</linearGradient>
<linearGradient id="paint11_linear" x1="58.5923" y1="25.8963" x2="57.3548" y2="24.2223" gradientUnits="userSpaceOnUse">
<stop offset="0.15625" stop-color="#FF4747"/>
<stop offset="1" stop-color="#0D1042"/>
</linearGradient>
<linearGradient id="paint12_linear" x1="9.54171" y1="25.8963" x2="8.30418" y2="24.2223" gradientUnits="userSpaceOnUse">
<stop offset="0.15625" stop-color="#FF4747"/>
<stop offset="1" stop-color="#0D1042"/>
</linearGradient>
<linearGradient id="paint13_linear" x1="51.5226" y1="7.00221" x2="49.4639" y2="6.69358" gradientUnits="userSpaceOnUse">
<stop offset="0.15625" stop-color="#FF4747"/>
<stop offset="1" stop-color="#0D1042"/>
</linearGradient>
<linearGradient id="paint14_linear" x1="16.8426" y1="8.29078" x2="15.3558" y2="9.02609" gradientUnits="userSpaceOnUse">
<stop offset="0.15625" stop-color="#FF4747"/>
<stop offset="1" stop-color="#0D1042"/>
</linearGradient>
</defs>
</svg>
