<svg width="64" height="64" viewBox="0 0 64 64" fill="none" xmlns="http://www.w3.org/2000/svg">
<mask id="mask0" mask-type="alpha" maskUnits="userSpaceOnUse" x="0" y="0" width="64" height="64">
<rect width="64" height="64" fill="#C4C4C4"/>
</mask>
<g mask="url(#mask0)">
<path d="M56.9922 23.7543L56.1158 20.926C55.5764 19.2081 54.6791 17.624 53.4831 16.2782C52.287 14.9323 50.8193 13.8551 49.1766 13.1177C47.534 12.3803 45.7538 11.9994 43.9532 12C42.1527 12.0006 40.3727 12.3828 38.7306 13.1214L35.1138 14.7467C34.1351 15.1862 33.0743 15.4134 32.0014 15.4134C30.9285 15.4134 29.8678 15.1862 28.8891 14.7467L25.2723 13.1214C23.6302 12.3828 21.8502 12.0006 20.0497 12C18.2491 11.9994 16.4689 12.3803 14.8262 13.1177C13.1836 13.8551 11.7159 14.9323 10.5198 16.2782C9.32375 17.624 8.42647 19.2081 7.88712 20.926L7.0397 23.6316L3.11566 45.5264C2.94661 46.3664 2.96305 47.2333 3.16382 48.0664C3.36459 48.8994 3.74484 49.6786 4.27802 50.3494C4.8112 51.0203 5.48443 51.5666 6.25067 51.9502C7.01692 52.3339 7.8577 52.5455 8.71425 52.5705C8.84566 52.5773 8.97707 52.5802 9.10752 52.5802C10.1266 52.5816 11.1348 52.3704 12.0675 51.9599C13.0003 51.5494 13.8371 50.9488 14.5245 50.1964L21.1135 44.534C22.2004 43.5968 23.5503 43.018 24.9786 42.8768L25.5583 42.8189C29.8422 42.3927 34.1578 42.3927 38.4417 42.8189L39.0214 42.8768C40.4514 43.0171 41.8031 43.5959 42.8913 44.534L49.4804 50.1964C50.2135 50.996 51.1144 51.6235 52.1186 52.034C53.1228 52.4444 54.2053 52.6276 55.2886 52.5705C56.1449 52.5451 56.9854 52.3331 57.7513 51.9493C58.5172 51.5655 59.19 51.0191 59.7229 50.3484C60.2558 49.6776 60.6358 48.8985 60.8364 48.0657C61.037 47.2328 61.0533 46.3662 60.8843 45.5264L56.9922 23.7543ZM58.2164 49.1412C57.8494 49.5934 57.3893 49.9613 56.8674 50.2199C56.3456 50.4785 55.7741 50.6217 55.192 50.6399C54.3849 50.6863 53.5776 50.55 52.8305 50.2412C52.0833 49.9323 51.4154 49.4589 50.8766 48.8561L44.1533 43.0672C42.7649 41.8707 41.0407 41.1326 39.2166 40.9539L38.6368 40.896C34.2258 40.4563 29.7819 40.4563 25.3709 40.896L24.7911 40.9539C22.9674 41.1328 21.2435 41.8709 19.8554 43.0672L13.2209 48.7682L13.1321 48.8552C12.5928 49.459 11.924 49.9332 11.1758 50.2422C10.4275 50.5513 9.61907 50.6872 8.81087 50.6399C8.22824 50.6292 7.65518 50.4899 7.13268 50.2318C6.61018 49.9738 6.15117 49.6035 5.7885 49.1474C5.42582 48.6913 5.16845 48.1607 5.03479 47.5935C4.90113 47.0263 4.89449 46.4365 5.01535 45.8665L8.9075 24.1543L9.7356 21.5038C10.1934 20.0466 10.9548 18.7029 11.9696 17.5613C12.9844 16.4196 14.2295 15.506 15.6231 14.8805C17.0166 14.2551 18.5268 13.932 20.0543 13.9326C21.5817 13.9331 23.0917 14.2574 24.4848 14.8839L28.1016 16.5092C29.3295 17.0605 30.6603 17.3455 32.0063 17.3455C33.3523 17.3455 34.6831 17.0605 35.911 16.5092L39.5277 14.8839C40.9208 14.2574 42.4308 13.9331 43.9583 13.9326C45.4857 13.932 46.9959 14.2551 48.3895 14.8805C49.783 15.506 51.0282 16.4196 52.043 17.5613C53.0578 18.7029 53.8191 20.0466 54.2769 21.5038L55.105 24.1543L58.9895 45.8665C59.1032 46.4358 59.093 47.023 58.9596 47.588C58.8262 48.1531 58.5728 48.6828 58.2164 49.1412Z" fill="url(#paint0_linear)"/>
<path d="M23.7881 21.6596H22.3387V20.2102C22.3387 19.8257 22.186 19.4571 21.9142 19.1853C21.6424 18.9134 21.2737 18.7607 20.8893 18.7607H17.9905C17.6061 18.7607 17.2374 18.9134 16.9656 19.1853C16.6938 19.4571 16.5411 19.8257 16.5411 20.2102V21.6596H15.0917C14.7073 21.6596 14.3386 21.8123 14.0668 22.0841C13.795 22.3559 13.6423 22.7246 13.6423 23.109V26.0078C13.6423 26.3922 13.795 26.7609 14.0668 27.0327C14.3386 27.3045 14.7073 27.4572 15.0917 27.4572H16.5411V28.9066C16.5411 29.291 16.6938 29.6597 16.9656 29.9315C17.2374 30.2033 17.6061 30.356 17.9905 30.356H20.8893C21.2737 30.356 21.6424 30.2033 21.9142 29.9315C22.186 29.6597 22.3387 29.291 22.3387 28.9066V27.4572H23.7881C24.1726 27.4572 24.5412 27.3045 24.813 27.0327C25.0849 26.7609 25.2376 26.3922 25.2376 26.0078V23.109C25.2376 22.7246 25.0849 22.3559 24.813 22.0841C24.5412 21.8123 24.1726 21.6596 23.7881 21.6596ZM23.305 25.5247H21.8556C21.4712 25.5247 21.1025 25.6774 20.8307 25.9492C20.5589 26.221 20.4062 26.5897 20.4062 26.9741V28.4235H18.4736V26.9741C18.4736 26.5897 18.3209 26.221 18.0491 25.9492C17.7773 25.6774 17.4086 25.5247 17.0242 25.5247H15.5748V23.5921H17.0242C17.4086 23.5921 17.7773 23.4394 18.0491 23.1676C18.3209 22.8958 18.4736 22.5271 18.4736 22.1427V20.6933H20.4062V22.1427C20.4062 22.5271 20.5589 22.8958 20.8307 23.1676C21.1025 23.4394 21.4712 23.5921 21.8556 23.5921H23.305V25.5247Z" fill="url(#paint1_linear)"/>
<path d="M44.563 22.6258C45.6304 22.6258 46.4956 21.7606 46.4956 20.6933C46.4956 19.626 45.6304 18.7607 44.563 18.7607C43.4957 18.7607 42.6305 19.626 42.6305 20.6933C42.6305 21.7606 43.4957 22.6258 44.563 22.6258Z" fill="url(#paint2_linear)"/>
<path d="M44.563 30.3558C45.6304 30.3558 46.4956 29.4906 46.4956 28.4233C46.4956 27.356 45.6304 26.4907 44.563 26.4907C43.4957 26.4907 42.6305 27.356 42.6305 28.4233C42.6305 29.4906 43.4957 30.3558 44.563 30.3558Z" fill="url(#paint3_linear)"/>
<path d="M40.6977 26.4906C41.7651 26.4906 42.6303 25.6254 42.6303 24.558C42.6303 23.4907 41.7651 22.6255 40.6977 22.6255C39.6304 22.6255 38.7652 23.4907 38.7652 24.558C38.7652 25.6254 39.6304 26.4906 40.6977 26.4906Z" fill="url(#paint4_linear)"/>
<path d="M48.4281 26.4906C49.4954 26.4906 50.3606 25.6254 50.3606 24.558C50.3606 23.4907 49.4954 22.6255 48.4281 22.6255C47.3608 22.6255 46.4955 23.4907 46.4955 24.558C46.4955 25.6254 47.3608 26.4906 48.4281 26.4906Z" fill="url(#paint5_linear)"/>
</g>
<defs>
<linearGradient id="paint0_linear" x1="61.0001" y1="52.7017" x2="32.1021" y2="24.767" gradientUnits="userSpaceOnUse">
<stop stop-color="#FF4747"/>
<stop offset="1" stop-color="#0D1042"/>
</linearGradient>
<linearGradient id="paint1_linear" x1="19.4399" y1="18.7607" x2="19.4399" y2="30.356" gradientUnits="userSpaceOnUse">
<stop stop-color="#FF4747"/>
<stop offset="1" stop-color="#0D1042"/>
</linearGradient>
<linearGradient id="paint2_linear" x1="44.563" y1="18.7607" x2="44.563" y2="22.6258" gradientUnits="userSpaceOnUse">
<stop stop-color="#FF4747"/>
<stop offset="1" stop-color="#0D1042"/>
</linearGradient>
<linearGradient id="paint3_linear" x1="44.563" y1="26.4907" x2="44.563" y2="30.3558" gradientUnits="userSpaceOnUse">
<stop stop-color="#FF4747"/>
<stop offset="1" stop-color="#0D1042"/>
</linearGradient>
<linearGradient id="paint4_linear" x1="40.6977" y1="22.6255" x2="40.6977" y2="26.4906" gradientUnits="userSpaceOnUse">
<stop stop-color="#FF4747"/>
<stop offset="1" stop-color="#0D1042"/>
</linearGradient>
<linearGradient id="paint5_linear" x1="48.4281" y1="22.6255" x2="48.4281" y2="26.4906" gradientUnits="userSpaceOnUse">
<stop stop-color="#FF4747"/>
<stop offset="1" stop-color="#0D1042"/>
</linearGradient>
</defs>
</svg>
