<svg width="1000" height="164" viewBox="0 0 1000 164" fill="none" xmlns="http://www.w3.org/2000/svg">
<g clip-path="url(#clip0)">
<path d="M402.062 110.804H406.953V123.976H409.656V110.804H414.547V108.479H402.062V110.804ZM416.348 123.976H418.922V111.964L423.169 123.974H425.358L429.6 111.964V123.974H432.174V108.479H428.57L424.452 120.618L420.21 108.479H416.348V123.976Z" fill="white"/>
<path d="M124.71 70.6399L69.8839 123.975H0L87.0016 37.3214C119.305 5.29482 134.878 0 189.961 0H407.725L360.489 46.4908H196.268C155.086 46.4908 146.332 49.5901 124.71 70.6374V70.6399ZM353.41 53.8518H197.168C155.727 53.8518 149.164 57.0805 130.373 75.9347L82.4927 123.979H147.362L162.806 108.482C172.977 98.2753 177.607 97.2459 198.07 97.2459H310.166L353.41 53.8518ZM370.265 123.975L494.208 0H417.245L293.694 123.975H370.265Z" fill="white"/>
<path d="M534.493 142.572H525.098V139.473H547.363V142.572H538.097V162.976H534.494L534.493 142.572Z" fill="white"/>
<path d="M550.709 139.473H554.182V149.287H569.112V139.473H572.715V162.976H569.112V152.645H554.182V162.976H550.709V139.473Z" fill="white"/>
<path d="M578.246 139.473H597.036V142.572H581.85V149.418H597.036V152.646H581.85V159.878H597.036V162.977H578.246V139.473Z" fill="white"/>
<path d="M622.268 163.365H619.178C611.971 163.365 608.883 159.362 608.883 153.159V149.417C608.883 143.09 611.971 139.087 619.178 139.087H622.267C629.474 139.087 632.562 143.09 632.562 149.417V153.163C632.562 159.361 629.474 163.369 622.267 163.369L622.268 163.365ZM618.663 160.27H622.782C627.029 160.27 628.702 158.204 628.702 154.071V148.519C628.702 144.257 627.029 142.32 622.782 142.32H618.663C614.416 142.32 612.743 144.386 612.743 148.519V153.943C612.743 158.205 614.416 160.271 618.663 160.271" fill="white"/>
<path d="M637.064 139.473H655.854V142.572H640.668V149.418H655.854V152.646H640.668V162.977H637.064V139.473Z" fill="white"/>
<path d="M660.1 139.473H678.889V142.572H663.703V149.418H678.889V152.646H663.703V162.977H660.1V139.473Z" fill="white"/>
<path d="M686.998 139.473H683.395V162.976H686.998V139.473Z" fill="white"/>
<path d="M712.355 162.976H702.059C694.723 162.976 691.764 158.973 691.764 152.645V149.804C691.764 143.605 694.723 139.473 702.059 139.473H712.231V142.572H701.548C697.172 142.572 695.628 144.638 695.628 148.771V153.419C695.628 157.681 697.172 159.618 701.548 159.618H712.355V162.978V162.976Z" fill="white"/>
<path d="M720.334 139.473H716.73V162.976H720.334V139.473Z" fill="white"/>
<path d="M743.373 156.65H730.245L727.542 162.978H723.682L732.562 142.961C733.591 140.636 734.364 139.087 736.809 139.087C739.254 139.087 740.158 140.636 740.927 142.572L749.807 162.976H745.947L743.373 156.65ZM731.661 153.29H741.957L737.71 143.346C737.452 142.57 737.195 142.313 736.809 142.313C736.423 142.313 736.165 142.437 735.909 143.216L731.661 153.29Z" fill="white"/>
<path d="M753.021 139.473H756.625V159.877H770.525V162.976H753.021V139.473Z" fill="white"/>
<path d="M790.991 158.586C791.248 159.361 791.506 159.619 791.891 159.619C792.277 159.619 792.535 159.495 792.792 158.715L799.871 139.473H803.733L796.268 159.619C795.367 161.944 794.465 163.364 792.149 163.364C789.705 163.364 788.546 161.815 787.902 159.879L780.438 139.473H784.556L790.991 158.586Z" fill="white"/>
<path d="M811.192 139.473H807.588V162.976H811.192V139.473Z" fill="white"/>
<path d="M838.609 149.287V153.032C838.609 159.231 834.877 162.846 827.541 162.846H817.121V139.473H827.675C834.752 139.473 838.614 143.089 838.614 149.287H838.609ZM820.725 142.566V159.742H828.06C832.437 159.742 834.759 158.063 834.759 153.802V148.507C834.759 144.245 832.442 142.695 828.194 142.695H820.729L820.725 142.566Z" fill="white"/>
<path d="M842.469 139.473H861.258V142.572H846.072V149.418H861.258V152.646H846.072V159.878H861.258V162.977H842.469V139.473Z" fill="white"/>
<path d="M878.508 163.365H875.419C868.212 163.365 865.123 159.362 865.123 153.159V149.417C865.123 143.09 868.212 139.087 875.419 139.087H878.507C885.714 139.087 888.803 143.09 888.803 149.417V153.163C888.803 159.361 885.585 163.369 878.507 163.369L878.508 163.365ZM874.904 160.27H879.022C883.269 160.27 884.942 158.204 884.942 154.071V148.519C884.942 144.257 883.269 142.32 879.022 142.32H874.904C870.657 142.32 868.983 144.386 868.983 148.519V153.943C868.983 158.205 870.528 160.271 874.904 160.271" fill="white"/>
<path d="M913.641 142.572H901.929C897.553 142.572 896.009 144.638 896.009 148.771V153.807C896.009 158.068 897.553 160.134 901.8 160.134H905.273C909.777 160.134 911.065 159.359 911.065 156.649V152.775H903.214V149.804H914.668V156.132C914.668 162.072 911.836 163.363 904.887 163.363H902.449C895.37 163.363 892.277 159.36 892.277 153.032V149.804C892.277 143.605 895.237 139.473 902.573 139.473H913.77V142.572H913.641Z" fill="white"/>
<path d="M935.91 156.65H922.782L920.079 162.978H916.219L925.099 142.961C926.128 140.636 926.901 139.087 929.346 139.087C931.791 139.087 932.695 140.636 933.464 142.572L942.344 162.976H938.484L935.91 156.65ZM924.198 153.29H934.494L930.246 143.346C929.988 142.57 929.732 142.313 929.346 142.313C928.96 142.313 928.702 142.437 928.445 143.216L924.198 153.29Z" fill="white"/>
<path d="M947.748 143.219C948.263 140.507 949.421 139.087 951.739 139.087C954.312 139.087 955.471 141.023 955.986 143.478L959.847 159.62C959.971 160.137 960.105 160.524 960.362 160.524C960.748 160.524 960.748 160.266 960.877 159.62L964.738 143.478C965.382 140.895 966.668 139.087 969.114 139.087C971.688 139.087 972.847 140.507 973.362 143.219L976.835 162.978H972.973L969.756 143.091C969.632 142.445 969.499 142.187 969.112 142.187C968.725 142.187 968.468 142.445 968.339 143.091L964.483 159.233C963.839 161.945 962.809 163.365 960.235 163.365C957.533 163.365 956.632 161.557 956.117 159.362L952.385 143.22C952.261 142.445 951.999 142.317 951.612 142.317C951.225 142.317 950.968 142.575 950.968 143.22L947.619 163.109H944.016L947.748 143.219Z" fill="white"/>
<path d="M981.207 139.473H999.997V142.572H984.81V149.418H999.997V152.646H984.81V159.878H999.997V162.977H981.207V139.473Z" fill="white"/>
<path d="M684.812 88.5894H755.469V35.3835H684.812V88.5894ZM702.444 53.0753H737.708V70.7682H702.444V53.0753Z" fill="white"/>
<path d="M1000 88.5905V70.8988H990.347V35.3847C990.333 26.0047 986.613 17.0128 980.003 10.38C973.394 3.74721 964.433 0.0145059 955.085 2.0897e-05H692.793C685.949 -0.00666079 679.198 1.58907 673.076 4.66033C666.954 7.73159 661.631 12.1937 657.53 17.6917C653.392 12.2013 648.043 7.74694 641.903 4.67755C635.763 1.60815 628.998 0.00716306 622.138 2.0897e-05H525.098V17.6917H622.138C629.138 17.7398 635.835 20.5638 640.768 25.5476C645.701 30.5314 648.469 37.2705 648.469 44.2946C648.469 51.3188 645.701 58.0579 640.768 63.0417C635.835 68.0255 629.138 70.8495 622.138 70.8976H560.365V88.5905H649.551C650.843 95.0177 653.571 101.067 657.531 106.282H542.858V79.6799C542.853 76.1849 543.535 72.7232 544.866 69.4932C546.196 66.2632 548.149 63.3284 550.612 60.8571C553.075 58.3857 556 56.4263 559.219 55.0911C562.438 53.756 565.887 53.0713 569.371 53.0764H631.143V35.3847H525.098V53.0764H533.978C528.22 60.7426 525.103 70.0802 525.098 79.6799V123.975H657.53V106.283C661.641 111.771 666.966 116.225 673.086 119.295C679.205 122.365 685.952 123.967 692.793 123.975H745.688C755.252 123.949 764.551 120.824 772.201 115.065V123.975H1000V106.283H789.834V79.6799C789.829 76.1848 790.511 72.723 791.842 69.4929C793.172 66.2628 795.125 63.328 797.588 60.8566C800.051 58.3852 802.976 56.4259 806.195 55.0908C809.414 53.7557 812.864 53.0712 816.348 53.0764H878.12V35.3847H788.934C787.643 28.9575 784.915 22.9083 780.955 17.693H869.243C876.243 17.741 882.94 20.565 887.873 25.5488C892.806 30.5326 895.574 37.2717 895.574 44.2959C895.574 51.3201 892.806 58.0592 887.873 63.043C882.94 68.0268 876.243 70.8508 869.243 70.8988H807.47V88.5905H955.085V35.3847H912.871C912.528 29.0975 910.578 23.0047 907.208 17.693H954.956C957.273 17.6857 959.569 18.1384 961.711 19.025C963.854 19.9115 965.8 21.2144 967.439 22.8586C969.077 24.5029 970.376 26.4561 971.259 28.6058C972.143 30.7555 972.594 33.0594 972.587 35.3847V88.4611H1000V88.5905ZM745.69 106.283H692.793C689.31 106.288 685.861 105.604 682.642 104.268C679.423 102.933 676.498 100.974 674.036 98.5024C671.573 96.031 669.62 93.0963 668.29 89.8664C666.959 86.6365 666.277 83.1749 666.282 79.6799V44.2953C666.277 40.8002 666.959 37.3385 668.29 34.1085C669.62 30.8785 671.573 27.9438 674.036 25.4724C676.499 23.001 679.424 21.0416 682.643 19.7065C685.862 18.3713 689.311 17.6867 692.795 17.6917H745.69C749.173 17.6868 752.622 18.3716 755.841 19.7068C759.06 21.042 761.985 23.0015 764.448 25.4728C766.91 27.9442 768.863 30.8789 770.193 34.1088C771.524 37.3387 772.206 40.8003 772.201 44.2953V79.6799C772.206 83.175 771.524 86.6367 770.193 89.8667C768.863 93.0967 766.91 96.0314 764.447 98.5028C761.984 100.974 759.059 102.934 755.84 104.269C752.622 105.604 749.172 106.289 745.688 106.283H745.69ZM937.457 70.8988H907.337C910.579 65.5279 912.519 59.4679 913 53.2071H937.581V70.8988H937.457Z" fill="white"/>
</g>
<defs>
<clipPath id="clip0">
<rect width="1000" height="163.846" fill="white"/>
</clipPath>
</defs>
</svg>
