<svg width="329" height="104" viewBox="0 0 329 104" fill="none" xmlns="http://www.w3.org/2000/svg">
<g clip-path="url(#clip0_1837_2557)">
<path d="M51.928 2.09406e-07C41.6566 2.50816e-07 31.6158 3.05 23.0754 8.7643C14.5351 14.4786 7.8788 22.6005 3.9483 32.103C0.0177982 41.6054 -1.01036 52.0616 0.993836 62.1492C2.99804 72.2368 7.94458 81.5027 15.2079 88.7752C22.4713 96.0477 31.7252 101 41.7994 103.006C51.8736 105.012 62.3156 103.982 71.8049 100.045C81.2942 96.1083 89.4047 89.4423 95.1105 80.8899C100.816 72.3376 103.861 62.283 103.86 51.9977C103.86 45.1689 102.517 38.4069 99.9072 32.098C97.2973 25.789 93.4719 20.0566 88.6495 15.2281C83.8271 10.3996 78.102 6.5696 71.8013 3.95675C65.5006 1.34389 58.7477 -0.000612626 51.928 2.09406e-07" fill="white"/>
<path d="M86.0817 60.369H87.4052V60.6023H86.8786V61.7269H86.613V60.6023H86.0817V60.369ZM24.144 65.5954H21.1522C20.4812 65.5954 20.1503 65.2221 20.1503 64.4894V63.3042C20.1337 63.0024 20.232 62.7056 20.4252 62.4736C20.512 62.3652 20.623 62.2787 20.7493 62.2212C20.8756 62.1636 21.0136 62.1366 21.1522 62.1422H23.4823C23.7311 62.1267 23.9774 62.1996 24.1778 62.3481C24.3782 62.4967 24.5197 62.7113 24.5774 62.9542L24.899 64.0975H27.0519V62.8375C27.0644 62.4488 26.9958 62.0617 26.8506 61.701C26.7054 61.3402 26.4867 61.0137 26.2085 60.7423C25.9344 60.471 25.6089 60.2574 25.2512 60.1139C24.8935 59.9705 24.5107 59.9001 24.1254 59.907H20.6676C19.8827 59.9095 19.1307 60.2231 18.5762 60.7793C18.0216 61.3355 17.7096 62.0889 17.7084 62.8749V64.9001C17.7047 65.2931 17.7791 65.683 17.9273 66.047C18.0755 66.411 18.2946 66.7418 18.5717 67.0201C18.8488 67.2985 19.1785 67.5189 19.5415 67.6685C19.9046 67.818 20.2937 67.8937 20.6862 67.8912H23.678C24.3397 67.8912 24.6753 68.2739 24.6753 69.0252V70.5651C24.684 70.8621 24.5883 71.1527 24.405 71.3864C24.3175 71.4939 24.2063 71.5798 24.0802 71.6373C23.9541 71.6947 23.8165 71.7223 23.678 71.7177H21.3013C21.0488 71.7487 20.7936 71.6854 20.5847 71.5399C20.3758 71.3944 20.2278 71.177 20.1689 70.9291L19.852 69.6365H17.7084V71.0364C17.6988 71.4247 17.7681 71.8109 17.9119 72.1716C18.0558 72.5323 18.2713 72.86 18.5453 73.1348C18.8194 73.4097 19.1463 73.626 19.5063 73.7706C19.8663 73.9152 20.2518 73.9852 20.6396 73.9762H24.1627C24.554 73.9769 24.9416 73.8998 25.303 73.7494C25.6644 73.599 25.9924 73.3783 26.2681 73.1001C26.5437 72.8219 26.7615 72.4918 26.9089 72.1287C27.0562 71.7656 27.1302 71.3769 27.1265 70.9851V68.5959C27.131 68.205 27.056 67.8173 26.9062 67.4563C26.7564 67.0953 26.5349 66.7686 26.2551 66.496C25.9861 66.2119 25.6614 65.9864 25.3013 65.8339C24.9413 65.6813 24.5536 65.6049 24.1627 65.6094L24.144 65.5954ZM38.4972 60.7983C38.7769 61.0671 38.9986 61.3904 39.1485 61.7484C39.2984 62.1064 39.3733 62.4914 39.3686 62.8795V65.796C39.3752 66.1886 39.3012 66.5783 39.1513 66.9411C39.0015 67.3039 38.7788 67.6321 38.4972 67.9052C38.2185 68.1927 37.8843 68.4203 37.515 68.5743C37.1457 68.7284 36.7489 68.8055 36.3489 68.8012H32.4903V73.9342H30.0111V59.8884H36.3489C36.744 59.8826 37.1361 59.9574 37.5015 60.1082C37.8668 60.259 38.1976 60.4827 38.4739 60.7657L38.4972 60.7983ZM36.8662 63.3088C36.8767 63.0078 36.7754 62.7135 36.5819 62.4829C36.4956 62.3778 36.3866 62.2938 36.263 62.2372C36.1395 62.1806 36.0047 62.1529 35.8689 62.1562H32.4903V66.5147H35.8829C36.0183 66.5153 36.1522 66.4865 36.2753 66.4301C36.3985 66.3737 36.5079 66.2911 36.5959 66.188C36.7897 65.9557 36.8909 65.6599 36.8801 65.3574L36.8662 63.3088ZM61.5415 68.1339L64.002 73.9342H61.3737L59.0903 68.4372H56.7602V73.9342H54.2764V59.8884H60.479C61.2652 59.8883 62.0196 60.1991 62.5781 60.7532C63.1366 61.3072 63.4541 62.0597 63.4615 62.8469V65.3294C63.4691 65.945 63.2868 66.5479 62.9395 67.056C62.5902 67.5421 62.1171 67.9256 61.5695 68.1666L61.5415 68.1339ZM60.973 63.3415C60.987 63.0431 60.8926 62.7497 60.7073 62.5156C60.6237 62.4099 60.5165 62.3252 60.3943 62.2685C60.2721 62.2118 60.1383 62.1845 60.0037 62.1889H56.7416V66.2067H60.0037C60.1365 66.2112 60.2686 66.1859 60.3904 66.1326C60.5121 66.0793 60.6204 65.9994 60.7073 65.8987C60.8926 65.6645 60.987 65.3711 60.973 65.0727V63.3415ZM65.0273 62.1889H68.5876V73.9669H71.0714V62.1749H74.6737V59.907H65.0273V62.1889ZM82.9268 65.6094H79.9397C79.2779 65.6094 78.9424 65.2361 78.9424 64.5034V63.3182C78.9307 63.0179 79.0265 62.7233 79.2127 62.4876C79.3002 62.38 79.4113 62.2941 79.5374 62.2367C79.6635 62.1792 79.8012 62.1517 79.9397 62.1562H82.2697C82.5185 62.1407 82.7649 62.2136 82.9652 62.3621C83.1656 62.5107 83.3071 62.7253 83.3649 62.9682L83.6911 64.1115H85.844V62.8515C85.8536 62.4627 85.7833 62.0761 85.6374 61.7157C85.4915 61.3553 85.2731 61.0287 84.9959 60.7563C84.7209 60.4837 84.394 60.2692 84.0345 60.1257C83.675 59.9822 83.2904 59.9126 82.9035 59.921H79.4364C78.6493 59.9235 77.8949 60.2363 77.3367 60.7919C76.7784 61.3474 76.4612 62.1008 76.4539 62.8889V64.9141C76.4491 65.3082 76.5243 65.6992 76.6749 66.0633C76.8255 66.4275 77.0484 66.7573 77.33 67.0326C77.6025 67.3151 77.9301 67.5383 78.2925 67.6884C78.6549 67.8386 79.0443 67.9124 79.4364 67.9052H82.4282C83.0946 67.9052 83.4254 68.2879 83.4254 69.0392V70.5791C83.4354 70.8755 83.3415 71.1661 83.1598 71.4004C83.0702 71.5067 82.958 71.5916 82.8314 71.649C82.7049 71.7063 82.5671 71.7346 82.4282 71.7317H80.0515C79.7995 71.7561 79.5473 71.6875 79.3422 71.5389C79.1372 71.3902 78.9933 71.1717 78.9377 70.9244L78.6162 69.6318H76.4539V71.0317C76.4456 71.4205 76.516 71.8069 76.6609 72.1676C76.8058 72.5283 77.0222 72.8559 77.297 73.1306C77.5718 73.4054 77.8993 73.6215 78.2598 73.766C78.6203 73.9106 79.0062 73.9805 79.3944 73.9716H82.9035C83.2979 73.9775 83.6895 73.9028 84.054 73.7519C84.4186 73.6011 84.7486 73.3773 85.0239 73.0943C85.3052 72.8202 85.5273 72.4911 85.6764 72.1275C85.8255 71.7638 85.8984 71.3734 85.8906 70.9804V68.5959C85.8763 67.8075 85.5568 67.0555 84.9995 66.4984C84.4423 65.9413 83.6908 65.6226 82.9035 65.6094H82.9268ZM89.0083 60.369L88.4724 61.1903L87.9411 60.369H87.7127V61.7269H87.9411V60.8917C87.9411 60.8403 87.9131 60.7983 87.9131 60.7423L87.9924 60.8777L88.4584 61.5589H88.5003L88.9337 60.8917C88.961 60.8445 88.9829 60.7944 88.9989 60.7423C88.9951 60.792 88.9951 60.842 88.9989 60.8917V61.7269H89.2459V60.369H89.0083ZM50.3292 60.775C50.6136 61.0426 50.8389 61.3669 50.9906 61.7269C51.1423 62.087 51.217 62.4748 51.21 62.8655V70.9291C51.2218 71.3273 51.1495 71.7236 50.9977 72.0919C50.8459 72.4602 50.6181 72.7923 50.3292 73.0663C50.0561 73.3495 49.7278 73.5735 49.3647 73.7244C49.0015 73.8753 48.6113 73.9499 48.2182 73.9436H44.8909C44.4956 73.9448 44.1041 73.8676 43.7388 73.7164C43.3735 73.5653 43.0418 73.3431 42.7627 73.0628C42.4837 72.7825 42.2628 72.4497 42.113 72.0834C41.9632 71.7172 41.8873 71.3248 41.8898 70.9291V62.8562C41.8854 62.4677 41.961 62.0824 42.1117 61.7244C42.2624 61.3663 42.4851 61.0432 42.7659 60.775C43.0408 60.4903 43.3714 60.2654 43.737 60.1145C44.1027 59.9635 44.4955 59.8897 44.8909 59.8977H48.2415C48.6339 59.8907 49.0235 59.9641 49.3865 60.1134C49.7496 60.2626 50.0783 60.4846 50.3525 60.7657L50.3292 60.775ZM48.7588 63.3182C48.7717 63.016 48.6683 62.7203 48.4699 62.4922C48.3845 62.3872 48.2763 62.3032 48.1535 62.2466C48.0308 62.19 47.8967 62.1623 47.7615 62.1656H45.3849C45.2455 62.1614 45.1071 62.1886 44.9797 62.2452C44.8522 62.3017 44.7391 62.3861 44.6486 62.4922C44.4655 62.7276 44.3714 63.0201 44.3829 63.3182V70.5184C44.3728 70.8134 44.4669 71.1026 44.6486 71.335C44.7353 71.4467 44.8473 71.5363 44.9753 71.5963C45.1033 71.6563 45.2436 71.6851 45.3849 71.6804H47.7615C47.8983 71.6822 48.0336 71.6519 48.1566 71.5919C48.2796 71.532 48.3869 71.444 48.4699 71.335C48.6664 71.1096 48.7698 70.8175 48.7588 70.5184V63.3182ZM59.2161 24.0551H32.5229L28.4267 30.5647H55.1105L59.2161 24.0551ZM69.3286 43.542H65.3255L61.2199 50.0749H73.4295L77.535 56.5706H85.3268L64.6731 23.8405L48.0831 50.0703H29.9319L34.098 43.5653H45.3709L49.4811 37.0604H24.3164L20.2295 43.5653H26.2877L18.0439 56.5706H51.8484L64.6731 36.1737L69.3286 43.542Z" fill="black"/>
<path d="M120.035 11.4373H157.237L155.35 22.3613H131.923L130.316 31.5355H149.194L147.306 42.4595H128.358L125.068 61.3631H111.223L120.035 11.4373Z" fill="white"/>
<path d="M162.084 11.4373H175.859L167.047 61.3631H153.271L162.084 11.4373Z" fill="white"/>
<path d="M180.687 11.4373H217.889L215.997 22.3613H192.575L190.962 31.5355H209.845L207.958 42.4595H189.005L185.72 61.3631H171.875L180.687 11.4373Z" fill="white"/>
<path d="M229.437 11.3671H244.89L252.933 61.3629H239.228L238.133 52.6088H220.834L216.64 61.3629H203.354L229.437 11.3671ZM236.776 42.1654L234.47 24.1671H234.19L225.802 42.1654H236.776Z" fill="white"/>
<path d="M111.223 64.4196H118.577L124.859 80.0287H124.933L131.061 64.4196H138.378V91.7646H132.748V73.9297H132.669L127.002 88.3488H122.594L116.89 74.0043H116.815V91.7646H111.223V64.4196Z" fill="white"/>
<path d="M143.471 82.4831V74.1956C143.471 67.4807 149.026 63.9529 154.655 63.9529C160.667 63.9529 166.068 67.518 166.068 74.079V81.9792C166.068 88.8061 160.401 92.2172 154.847 92.2172C148.835 92.2172 143.471 89.0721 143.471 82.4785V82.4831ZM160.131 82.2498V73.813C160.131 70.7471 157.563 69.0206 154.693 69.0206C152.167 69.0206 149.408 70.3645 149.408 73.9296V82.2918C149.408 85.395 151.859 87.1589 154.847 87.1589C157.335 87.1589 160.131 85.759 160.131 82.2545" fill="white"/>
<path d="M171.161 64.4196H183.991C189.317 64.4196 192.262 66.9861 192.262 71.3958C192.314 72.6882 191.955 73.9637 191.237 75.0393C190.52 76.1149 189.481 76.9353 188.269 77.3828V77.4621C191.372 78.2694 192.98 80.9526 192.98 83.9438C192.98 88.7361 189.224 91.7693 184.475 91.7693H171.147L171.161 64.4196ZM182.728 75.4649C185.105 75.4649 186.405 74.2003 186.405 72.2451C186.405 70.2106 184.913 69.2119 182.574 69.2119H177.136V75.4649H182.728ZM183.035 86.8929C185.487 86.8929 186.978 85.591 186.978 83.4398C186.978 81.2886 185.58 80.1733 183.035 80.1733H177.136V86.8836L183.035 86.8929Z" fill="white"/>
<path d="M203.829 64.4196H197.897V91.7646H203.829V64.4196Z" fill="white"/>
<path d="M209.118 64.4196H215.055V86.7389H228.192V91.7646H209.118V64.4196Z" fill="white"/>
<path d="M233.286 64.4196H252.816V69.4406H239.223V75.3856H250.98V80.4113H239.223V86.7389H252.933V91.7646H233.286V64.4196Z" fill="white"/>
<g clip-path="url(#clip1_1837_2557)">
<path d="M329 11.7313H264.242V92.2575H329V11.7313Z" fill="white"/>
<path d="M264 93H329V11H264V93ZM328.297 92.2797H264.703V52.3878H328.297V92.2797ZM328.297 51.6343H264.703V11.7424H328.297V51.6343Z" fill="black"/>
<path d="M277.659 62.4716C277.653 62.0957 277.709 61.7213 277.823 61.3635C277.921 61.0502 278.086 60.7625 278.307 60.5214C278.532 60.2822 278.811 60.1 279.119 59.9895C279.471 59.86 279.843 59.7962 280.217 59.8011C280.591 59.7971 280.963 59.8609 281.315 59.9895C281.62 60.1 281.895 60.2824 282.116 60.5214C282.344 60.7595 282.513 61.0479 282.611 61.3635C282.725 61.7213 282.781 62.0957 282.775 62.4716C282.78 62.8476 282.724 63.2217 282.611 63.5798C282.51 63.8941 282.341 64.1819 282.116 64.4219C281.891 64.6611 281.612 64.8433 281.304 64.9538C280.593 65.202 279.819 65.202 279.108 64.9538C278.803 64.8432 278.528 64.6609 278.307 64.4219C278.082 64.1819 277.913 63.8941 277.812 63.5798C277.699 63.2217 277.643 62.8476 277.648 62.4716H277.659ZM279.053 62.4716C279.052 62.6803 279.074 62.8885 279.119 63.0922C279.157 63.2806 279.227 63.4607 279.328 63.6241C279.413 63.777 279.538 63.9034 279.69 63.9898C279.849 64.0868 280.031 64.1367 280.217 64.1338C280.402 64.135 280.585 64.0852 280.744 63.9898C280.892 63.8984 281.016 63.7731 281.106 63.6241C281.198 63.4578 281.265 63.2785 281.304 63.0922C281.349 62.8885 281.371 62.6803 281.37 62.4716C281.371 62.2593 281.349 62.0475 281.304 61.84C281.267 61.6567 281.2 61.4807 281.106 61.3192C281.016 61.1702 280.892 61.0449 280.744 60.9535C280.584 60.8615 280.401 60.8155 280.217 60.8206C280.032 60.8143 279.85 60.8604 279.69 60.9535C279.538 61.0398 279.413 61.1663 279.328 61.3192C279.226 61.4777 279.155 61.6545 279.119 61.84C279.074 62.0475 279.052 62.2593 279.053 62.4716" fill="black"/>
<path d="M283.884 59.9008H287.31V60.876H285.257V62.0062H287.233V62.9814H285.257V65.0646H283.884V59.9008Z" fill="black"/>
<path d="M288.331 59.9008H291.768V60.876H289.704V62.0062H291.68V62.9814H289.704V65.0646H288.331V59.9008Z" fill="black"/>
<path d="M294.249 59.9008H292.888V65.0757H294.249V59.9008Z" fill="black"/>
<path d="M299.915 64.9427C299.717 64.9427 299.497 65.0424 299.267 65.0868C298.976 65.1353 298.682 65.1575 298.388 65.1532C298.039 65.1537 297.692 65.1052 297.356 65.0092C297.014 64.9241 296.693 64.7695 296.412 64.5549C296.119 64.3462 295.882 64.0685 295.72 63.7459C295.526 63.3625 295.431 62.9354 295.446 62.5049C295.438 62.0987 295.513 61.6952 295.665 61.3192C295.803 60.9942 296.013 60.7059 296.28 60.477C296.551 60.2412 296.87 60.0673 297.213 59.9673C297.598 59.8521 297.998 59.7961 298.399 59.8011C298.657 59.8044 298.914 59.8303 299.168 59.8787L299.915 60.067L299.805 61.1751C299.596 61.0595 299.375 60.9666 299.146 60.8981C298.924 60.84 298.695 60.8103 298.465 60.8095C298.239 60.8063 298.014 60.8516 297.806 60.9424C297.616 61.0198 297.444 61.1369 297.301 61.2859C297.166 61.4437 297.058 61.6236 296.983 61.8178C296.829 62.2551 296.829 62.7325 296.983 63.1697C297.067 63.3636 297.187 63.5401 297.334 63.6905C297.493 63.8295 297.675 63.9383 297.872 64.0119C298.096 64.0827 298.329 64.12 298.564 64.1227C298.789 64.1194 299.014 64.0934 299.234 64.0451C299.443 63.9936 299.649 63.927 299.849 63.8457L299.915 64.9427Z" fill="black"/>
<path d="M302.33 59.9008H300.969V65.0757H302.33V59.9008Z" fill="black"/>
<path d="M305.251 59.8897H306.92L308.896 65.0646H307.403L307.019 63.9565H305.097L304.691 65.0646H303.308L305.251 59.8897ZM306.086 60.9978L305.427 63.0257H306.711L306.086 60.9978Z" fill="black"/>
<path d="M309.796 59.9008H311.169V64.0451H313.277V65.0646H309.796V59.9008Z" fill="black"/>
<path d="M277.659 68.666H279.02V72.8214H281.139V73.8408H277.659V68.666Z" fill="black"/>
<path d="M283.533 68.666H282.171V73.8408H283.533V68.666Z" fill="black"/>
<path d="M289.198 73.7189L288.551 73.8519C288.261 73.906 287.967 73.9282 287.672 73.9184C287.324 73.9171 286.977 73.8725 286.64 73.7854C286.3 73.6954 285.979 73.5413 285.696 73.3311C285.404 73.117 285.167 72.8359 285.004 72.5111C284.808 72.1281 284.714 71.7006 284.73 71.27C284.723 70.8675 284.798 70.4678 284.949 70.0954C285.09 69.7689 285.3 69.4776 285.564 69.2422C285.839 69.0138 286.156 68.8442 286.497 68.7435C286.879 68.6294 287.275 68.5734 287.672 68.5773C287.931 68.5751 288.188 68.6011 288.441 68.6549C288.693 68.6549 288.935 68.7657 289.188 68.8433L289.078 69.9514C288.871 69.831 288.649 69.7379 288.419 69.6743C288.197 69.6163 287.968 69.5865 287.738 69.5857C287.513 69.5844 287.29 69.6257 287.079 69.7076C286.891 69.7932 286.719 69.9134 286.574 70.0622C286.434 70.2165 286.326 70.3973 286.256 70.5941C286.179 70.8068 286.141 71.0323 286.146 71.2589C286.144 71.4935 286.185 71.7265 286.267 71.946C286.352 72.1364 286.471 72.3092 286.618 72.4557C286.771 72.6022 286.955 72.712 287.156 72.777C287.379 72.8533 287.613 72.8907 287.848 72.8878C288.074 72.8901 288.299 72.864 288.518 72.8103C288.728 72.7675 288.934 72.7044 289.133 72.6219L289.198 73.7189Z" fill="black"/>
<path d="M290.154 68.666H293.766V69.6522H291.515V70.716H293.634V71.6911H291.515V72.8657H293.843V73.8408H290.154V68.666Z" fill="black"/>
<path d="M295.062 68.666H296.796L298.531 72.1787H298.542L298.52 68.666H299.772V73.8408H298.081L296.291 70.306H296.269L296.313 73.8408H295.062V68.666Z" fill="black"/>
<path d="M301.133 72.5665C301.566 72.7974 302.05 72.9119 302.539 72.8989H302.857L303.121 72.8214C303.2 72.789 303.268 72.7353 303.318 72.6662C303.377 72.5647 303.398 72.4458 303.377 72.3302C303.357 72.2147 303.298 72.11 303.209 72.0346C303.068 71.945 302.917 71.8742 302.758 71.8241L302.177 71.6357C301.974 71.5731 301.778 71.4876 301.595 71.3808C301.39 71.2566 301.223 71.0786 301.11 70.8659C300.998 70.6531 300.946 70.4136 300.958 70.173C300.95 69.8994 301.023 69.6296 301.166 69.3973C301.297 69.1857 301.478 69.0105 301.693 68.8876C301.917 68.7686 302.158 68.6863 302.407 68.6438C302.667 68.5905 302.932 68.5645 303.198 68.5662C303.435 68.5493 303.674 68.5493 303.911 68.5662C304.115 68.6027 304.317 68.6508 304.515 68.7103L304.427 69.8184C304.251 69.7276 304.062 69.6641 303.867 69.63C303.674 69.6131 303.479 69.6131 303.285 69.63H303H302.704C302.615 69.6619 302.533 69.7108 302.462 69.7741C302.4 69.8525 302.369 69.951 302.374 70.0511C302.371 70.1143 302.386 70.1771 302.417 70.2321C302.448 70.287 302.494 70.3319 302.55 70.3614C302.69 70.4492 302.841 70.5164 303 70.5608L303.582 70.727C303.787 70.7822 303.984 70.8681 304.164 70.9819C304.343 71.1014 304.496 71.2559 304.614 71.4362C304.742 71.6654 304.803 71.9268 304.79 72.1897C304.803 72.4787 304.739 72.766 304.603 73.0208C304.482 73.2352 304.308 73.4146 304.098 73.5416C303.875 73.6781 303.63 73.772 303.373 73.8186C303.097 73.8632 302.818 73.8855 302.539 73.8851C302.282 73.8876 302.025 73.8691 301.77 73.8297C301.514 73.7984 301.261 73.7466 301.013 73.6746L301.133 72.5665Z" fill="black"/>
<path d="M305.932 68.666H309.544V69.6522H307.293V70.716H309.412V71.6911H307.293V72.8657H309.621V73.8408H305.932V68.666Z" fill="black"/>
<path d="M312.19 72.8103H312.673C313.099 72.8364 313.52 72.6977 313.848 72.4224C313.994 72.2665 314.107 72.0815 314.179 71.8793C314.251 71.6772 314.28 71.4621 314.265 71.2478C314.274 71.0443 314.241 70.8411 314.169 70.6506C314.097 70.4602 313.988 70.2864 313.848 70.1397C313.522 69.8595 313.101 69.7166 312.673 69.7408H312.146L312.19 72.8103ZM310.818 68.666H312.673C313.086 68.6598 313.499 68.7006 313.903 68.7878C314.247 68.8534 314.573 68.9932 314.858 69.1978C315.132 69.4002 315.347 69.6715 315.484 69.9846C315.64 70.3789 315.715 70.8012 315.704 71.2257C315.716 71.6477 315.638 72.0675 315.473 72.4557C315.331 72.7683 315.116 73.042 314.847 73.2535C314.557 73.4646 314.229 73.6152 313.881 73.6968C313.485 73.7884 313.08 73.8331 312.673 73.8297H310.807L310.818 68.666Z" fill="black"/>
<path d="M277.659 77.4422H279.284C279.894 77.3938 280.503 77.537 281.029 77.8522C281.22 78.003 281.37 78.1997 281.466 78.4243C281.562 78.6488 281.601 78.8941 281.578 79.1376C281.591 79.3681 281.549 79.5983 281.458 79.8099C281.366 80.0215 281.227 80.2086 281.051 80.3565C280.617 80.6778 280.085 80.8347 279.547 80.7997H279.02V82.6059H277.659V77.4422ZM279.02 79.8246H279.372C279.481 79.8366 279.591 79.8366 279.701 79.8246C279.8 79.8044 279.894 79.7628 279.975 79.7027C280.051 79.6444 280.111 79.5683 280.151 79.4811C280.195 79.3757 280.217 79.2628 280.217 79.1487C280.217 79.0345 280.195 78.9216 280.151 78.8162C280.115 78.727 280.054 78.6502 279.975 78.5946C279.893 78.5381 279.799 78.5003 279.701 78.4838C279.591 78.4718 279.481 78.4718 279.372 78.4838H279.02V79.8246Z" fill="black"/>
<path d="M282.545 77.4421H284.982C285.197 77.4386 285.411 77.4647 285.619 77.5197C285.809 77.5604 285.988 77.6396 286.146 77.7524C286.297 77.8583 286.422 77.9988 286.509 78.1624C286.596 78.3413 286.637 78.5394 286.629 78.7386C286.644 79.0421 286.559 79.3419 286.388 79.5919C286.207 79.8303 285.945 79.9923 285.652 80.0462V80.0462C285.747 80.0715 285.834 80.1211 285.905 80.1902C285.978 80.2597 286.038 80.3424 286.08 80.434C286.141 80.5389 286.188 80.6505 286.223 80.7665C286.265 80.9101 286.316 81.0508 286.377 81.1875L286.871 82.5948H285.455L285.158 81.664C285.107 81.478 285.041 81.2964 284.96 81.1211C284.918 80.9945 284.851 80.8777 284.763 80.7776C284.701 80.6962 284.617 80.6346 284.521 80.6003C284.412 80.581 284.301 80.581 284.192 80.6003H283.906V82.6392H282.545V77.4421ZM283.906 79.5808H284.609C284.722 79.5824 284.835 79.5597 284.938 79.5143C285.028 79.4746 285.107 79.4138 285.169 79.337C285.242 79.2383 285.277 79.1163 285.268 78.9935C285.275 78.8898 285.244 78.7872 285.18 78.7054C285.122 78.6291 285.047 78.5682 284.96 78.5281C284.862 78.4893 284.758 78.4632 284.653 78.4505C284.525 78.4392 284.397 78.4392 284.269 78.4505H283.906V79.5808Z" fill="black"/>
<path d="M287.65 80.0241C287.646 79.6482 287.701 79.274 287.815 78.916C287.92 78.6035 288.088 78.3166 288.309 78.0738C288.531 77.8348 288.805 77.6525 289.111 77.5419C289.463 77.4174 289.835 77.3573 290.209 77.3646C290.582 77.3585 290.954 77.4185 291.307 77.5419C291.61 77.6554 291.885 77.8373 292.108 78.0738C292.326 78.3172 292.491 78.6041 292.591 78.916C292.809 79.6384 292.809 80.4097 292.591 81.1322C292.491 81.4457 292.323 81.7328 292.099 81.9724C291.874 82.212 291.6 82.3982 291.296 82.5173C290.582 82.7488 289.814 82.7488 289.1 82.5173C288.797 82.3957 288.524 82.2106 288.298 81.9743C288.077 81.7315 287.909 81.4447 287.804 81.1322C287.69 80.7743 287.634 80.4 287.639 80.0241H287.65ZM289.056 80.0241C289.055 80.2327 289.078 80.4408 289.122 80.6446C289.158 80.8301 289.228 81.0069 289.33 81.1654C289.415 81.3153 289.536 81.4412 289.682 81.5311C289.839 81.6304 290.023 81.6806 290.209 81.6751C290.398 81.6814 290.585 81.6313 290.747 81.5311C290.893 81.4412 291.013 81.3153 291.098 81.1654C291.2 81.0069 291.271 80.8301 291.307 80.6446C291.395 80.2319 291.395 79.8051 291.307 79.3924C291.269 79.204 291.198 79.0239 291.098 78.8605C291.009 78.7168 290.889 78.5955 290.747 78.506C290.582 78.416 290.396 78.3702 290.209 78.373C290.025 78.3721 289.844 78.4178 289.682 78.506C289.539 78.5955 289.419 78.7168 289.33 78.8605C289.23 79.0239 289.159 79.204 289.122 79.3924C289.077 79.5999 289.055 79.8117 289.056 80.0241" fill="black"/>
<path d="M293.92 77.4422H295.786C296.199 77.437 296.611 77.4741 297.016 77.553C297.359 77.6232 297.684 77.7627 297.971 77.963C298.243 78.1723 298.458 78.4465 298.597 78.7608C298.755 79.1547 298.83 79.5773 298.817 80.0019C298.83 80.4204 298.751 80.8365 298.586 81.2208C298.448 81.5389 298.233 81.817 297.96 82.0297C297.671 82.2408 297.342 82.3914 296.994 82.473C296.598 82.5646 296.193 82.6093 295.786 82.6059H293.92V77.4422ZM295.292 81.5865H295.819C296.246 81.6149 296.667 81.4759 296.994 81.1986C297.264 80.8676 297.411 80.4525 297.411 80.0241C297.411 79.5956 297.264 79.1805 296.994 78.8495C296.665 78.5761 296.245 78.4377 295.819 78.4616H295.292V81.5865Z" fill="black"/>
<path d="M304.416 80.6446C304.424 80.9593 304.368 81.2722 304.252 81.5643C304.158 81.8103 304.002 82.0278 303.801 82.196C303.592 82.371 303.349 82.4994 303.088 82.5727C302.791 82.6549 302.484 82.6959 302.176 82.6946C301.865 82.6959 301.555 82.6549 301.254 82.5727C301.01 82.4903 300.786 82.3583 300.595 82.1849C300.391 82.017 300.233 81.7997 300.134 81.5533C300.018 81.2612 299.962 80.9482 299.969 80.6335V77.4311H301.331V80.4008C301.319 80.5631 301.319 80.7261 301.331 80.8884C301.356 81.0284 301.405 81.1631 301.474 81.2873C301.535 81.4024 301.626 81.4982 301.737 81.5643C301.872 81.636 302.024 81.6704 302.176 81.6641C302.317 81.6745 302.457 81.6447 302.582 81.578C302.706 81.5114 302.809 81.4106 302.879 81.2873C302.944 81.1625 302.989 81.0277 303.011 80.8884C303.029 80.7264 303.029 80.5628 303.011 80.4008V77.4311H304.372L304.416 80.6446Z" fill="black"/>
<path d="M309.939 82.4841C309.741 82.4841 309.522 82.5838 309.291 82.6281C309.005 82.6767 308.714 82.6989 308.424 82.6946C308.054 82.6987 307.685 82.654 307.326 82.5616C306.987 82.467 306.668 82.3132 306.382 82.1073C306.092 81.8906 305.856 81.6101 305.69 81.2873C305.505 80.901 305.414 80.4753 305.426 80.0462C305.416 79.6409 305.487 79.2377 305.635 78.8605C305.776 78.5373 305.986 78.2497 306.25 78.0184C306.526 77.7921 306.843 77.6226 307.183 77.5197C307.564 77.4027 307.96 77.343 308.358 77.3424C308.617 77.344 308.874 77.3737 309.127 77.4311C309.379 77.4769 309.629 77.5398 309.873 77.6195L309.763 78.7276C309.556 78.6106 309.335 78.5213 309.105 78.4616C308.887 78.3974 308.661 78.3675 308.435 78.373C308.206 78.3708 307.979 78.4122 307.765 78.4949C307.577 78.5766 307.409 78.6974 307.271 78.8495C307.126 78.998 307.014 79.1754 306.942 79.3703C306.865 79.5872 306.828 79.8161 306.832 80.0462C306.828 80.2784 306.873 80.5088 306.964 80.7222C307.037 80.9219 307.158 81.1006 307.315 81.243C307.469 81.388 307.653 81.4977 307.853 81.5643C308.075 81.6423 308.309 81.6798 308.545 81.6751C308.767 81.6767 308.988 81.6506 309.203 81.5976C309.413 81.5496 309.618 81.4867 309.818 81.4092L309.939 82.4841Z" fill="black"/>
<path d="M311.806 78.4616H310.543V77.4422H314.441V78.4616H313.178V82.617H311.806V78.4616Z" fill="black"/>
<path fill-rule="evenodd" clip-rule="evenodd" d="M273.454 23.3V38.1486H278.032V32.7854H281.326L282.501 29.5386H278.032V26.5357H283.588L284.752 23.3H273.454Z" fill="black"/>
<path d="M290.736 23.3H286.157V38.1486H290.736V23.3Z" fill="black"/>
<path fill-rule="evenodd" clip-rule="evenodd" d="M293.887 23.3V38.1486H298.465V32.7854H301.759L302.934 29.5386H298.465V26.5357H304.01L305.185 23.3H293.887Z" fill="black"/>
<path fill-rule="evenodd" clip-rule="evenodd" d="M318.295 38.1486H313.672L313.069 36.154H307.897L307.326 38.1486H302.792L308.15 23.3H312.915L318.295 38.1486ZM312.311 33.2951L310.477 27.1119L308.71 33.2951H312.311Z" fill="black"/>
<path d="M318.251 27.7546C317.953 27.7526 317.659 27.6924 317.384 27.5773C317.126 27.4618 316.892 27.3004 316.692 27.1008C316.486 26.8947 316.323 26.6495 316.212 26.3794C316.101 26.1094 316.044 25.8198 316.044 25.5273C316.041 25.2263 316.1 24.9279 316.22 24.6519C316.326 24.388 316.487 24.15 316.692 23.9538C316.89 23.7517 317.125 23.5899 317.384 23.4773C317.657 23.3569 317.953 23.2965 318.251 23.3C318.546 23.2957 318.838 23.3562 319.107 23.4773C319.508 23.646 319.85 23.9308 320.091 24.2957C320.331 24.6606 320.459 25.0892 320.458 25.5273C320.457 25.8244 320.398 26.1183 320.282 26.3916C320.168 26.6545 320.008 26.8946 319.81 27.1008C319.604 27.2981 319.366 27.4592 319.107 27.5773C318.837 27.6938 318.545 27.754 318.251 27.7546ZM318.251 27.3225C318.471 27.3247 318.689 27.2806 318.892 27.1928C319.094 27.105 319.276 26.9756 319.426 26.8127C319.584 26.6513 319.707 26.4589 319.788 26.2476C319.877 26.0181 319.922 25.7737 319.92 25.5273C319.923 25.2809 319.878 25.0362 319.788 24.807C319.704 24.5937 319.581 24.3983 319.426 24.2308C319.274 24.077 319.095 23.953 318.899 23.8652C318.694 23.7756 318.474 23.7303 318.251 23.7322C318.025 23.7313 317.801 23.7765 317.592 23.8652C317.396 23.953 317.217 24.077 317.065 24.2308C316.917 24.4016 316.798 24.5964 316.714 24.807C316.624 25.0362 316.579 25.2809 316.582 25.5273C316.58 25.7737 316.625 26.0181 316.714 26.2476C316.799 26.4444 316.918 26.6245 317.065 26.7795C317.214 26.9401 317.393 27.0683 317.592 27.1562C317.801 27.2449 318.025 27.2901 318.251 27.2892V27.3225ZM317.395 24.2197H318.328C318.57 24.2059 318.81 24.2636 319.02 24.386C319.1 24.457 319.163 24.5461 319.203 24.6463C319.243 24.7464 319.259 24.8546 319.25 24.9622C319.257 25.0514 319.245 25.141 319.214 25.225C319.184 25.3091 319.136 25.3857 319.075 25.4498C318.937 25.562 318.768 25.6279 318.591 25.6381L319.272 26.7462H318.789L318.163 25.6714H317.889V26.7795H317.417L317.395 24.2197ZM317.867 25.3279H318.273H318.471C318.521 25.339 318.574 25.339 318.624 25.3279C318.674 25.3031 318.716 25.2647 318.745 25.217C318.759 25.1475 318.759 25.076 318.745 25.0065C318.758 24.9481 318.758 24.8876 318.745 24.8292C318.713 24.787 318.672 24.7528 318.624 24.7295L318.46 24.6741H317.867V25.3279Z" fill="black"/>
</g>
</g>
<defs>
<clipPath id="clip0_1837_2557">
<rect width="329" height="104" fill="white"/>
</clipPath>
<clipPath id="clip1_1837_2557">
<rect width="65" height="82" fill="white" transform="translate(264 11)"/>
</clipPath>
</defs>
</svg>
