<svg width="630" height="296" viewBox="0 0 630 296" fill="none" xmlns="http://www.w3.org/2000/svg">
<path d="M491.739 187.631C487.712 190.318 480.553 194.348 471.157 191.661C454.602 187.631 450.127 173.301 450.127 173.301C450.127 173.301 445.205 187.631 429.097 191.661C419.701 193.9 412.094 190.318 408.515 187.631H405.383V263.758C405.383 265.549 405.83 269.579 408.962 273.162C412.989 277.64 419.254 280.775 428.202 282.118C435.361 283.014 440.731 285.253 444.31 288.835C446.995 291.522 449.68 296 449.68 296C449.68 296 452.364 291.522 455.049 288.835C458.629 285.253 463.998 283.014 471.157 282.118C480.106 280.775 486.817 277.64 490.397 273.162C493.529 269.579 493.977 265.549 493.977 263.758V187.631H491.739ZM492.187 263.758C492.187 266.445 491.292 276.744 471.604 279.879C463.998 281.222 458.181 283.461 453.707 287.492C452.364 288.835 451.022 290.626 450.127 291.97C449.232 290.626 447.89 289.283 446.548 287.492C442.521 283.461 436.704 280.775 428.65 279.879C408.962 277.192 408.067 266.445 408.067 263.758V190.766C408.067 190.766 417.016 197.93 429.545 194.796C444.31 191.213 450.127 180.018 450.127 180.018C450.127 180.018 455.944 191.213 470.709 194.796C483.238 197.93 492.187 190.766 492.187 190.766V263.758Z" fill="white"/>
<path d="M487.265 263.758V225.247H412.989V263.758C412.989 264.206 412.542 272.266 429.545 274.953C444.31 277.192 450.127 284.357 450.127 284.357C450.127 284.357 455.944 277.192 470.71 274.953C487.712 272.266 487.265 264.206 487.265 263.758ZM440.731 234.203L438.494 235.546V272.714L433.124 270.923L425.07 247.189V262.862L427.755 264.654V269.579L416.569 266.893V262.862L419.254 261.967V235.546L416.569 234.203V229.277H425.07L433.124 253.458V235.098L430.887 233.755V228.829H441.178V234.203H440.731ZM462.208 239.129H458.181L456.839 235.098H451.917V246.293H455.496L456.839 244.054H459.971V253.906H456.839L455.496 252.115H451.917V270.475L454.154 273.162V278.088L442.968 274.057V270.027L445.205 269.132V235.994L442.968 234.651V229.725H462.208V239.129ZM483.685 266.893L463.998 272.266V267.34L466.683 265.101V235.546L464.445 234.203V229.277H475.631V234.203L473.394 235.546V263.31L478.316 261.967L479.211 254.802H483.685V266.893Z" fill="white"/>
<path d="M414.779 217.634L411.199 214.947H415.226L416.569 210.917L417.911 214.947H421.938L418.358 217.634L419.701 221.664L416.569 219.425L413.436 221.664L414.779 217.634Z" fill="white"/>
<path d="M429.544 217.634L426.412 214.947H430.439L431.781 210.917L433.124 214.947H437.151L433.571 217.634L434.914 221.664L431.781 219.425L428.649 221.664L429.544 217.634Z" fill="white"/>
<path d="M414.779 204.647L411.199 201.961H415.226L416.569 197.93L417.911 201.961H421.938L418.358 204.647L419.701 208.678L416.569 206.439L413.436 208.678L414.779 204.647Z" fill="white"/>
<path d="M429.544 204.647L426.412 201.961H430.439L431.781 197.93L433.124 201.961H437.151L433.571 204.647L434.914 208.678L431.781 206.439L428.649 208.678L429.544 204.647Z" fill="white"/>
<path d="M486.371 221.664L483.238 219.425L480.106 221.664L481.449 217.634L477.869 214.947H481.896L483.238 210.917L484.581 214.947H488.608L485.028 217.634L486.371 221.664Z" fill="white"/>
<path d="M471.605 221.664L468.473 219.425L465.341 221.664L466.683 217.634L463.104 214.947H467.131L468.473 210.917L469.815 214.947H473.842L470.263 217.634L471.605 221.664Z" fill="white"/>
<path d="M486.371 208.23L483.238 205.991L480.106 208.23L481.449 204.2L477.869 201.513H481.896L483.238 197.483L484.581 201.513H488.608L485.028 204.2L486.371 208.23Z" fill="white"/>
<path d="M471.605 208.23L468.473 205.991L465.341 208.23L466.683 204.2L463.104 201.513H467.131L468.473 197.483L469.815 201.513H473.842L470.263 204.2L471.605 208.23Z" fill="white"/>
<path d="M459.075 193.9C459.075 193.9 457.285 194.796 455.048 197.035C455.496 197.483 456.391 197.93 456.391 197.93C455.943 198.378 455.496 198.378 455.496 198.826C453.706 197.483 452.363 197.035 451.021 196.587C451.469 196.139 451.916 196.139 452.364 195.691C452.811 195.691 453.706 196.139 453.706 196.139C456.391 193.9 458.628 193.005 458.628 193.005C458.628 193.005 458.18 193.005 457.733 193.005C446.994 193.005 437.15 201.065 438.94 214.947C438.94 216.29 439.835 218.977 440.283 220.321C440.73 218.082 441.177 213.156 443.862 207.334C442.967 206.887 442.072 206.887 442.072 206.887C442.52 206.439 442.52 205.543 442.52 205.543C444.31 205.991 446.099 206.887 447.442 207.782C446.994 208.23 446.994 208.678 446.547 209.126C446.099 208.678 445.652 208.23 444.757 208.23C442.072 213.156 440.73 218.082 439.835 220.321C439.835 220.321 440.283 220.769 440.283 220.321C451.916 218.977 457.733 212.708 459.523 206.439C460.417 201.961 460.417 197.483 458.628 193.9C459.97 194.348 459.523 193.9 459.075 193.9ZM449.231 206.887C447.889 205.543 446.099 204.647 444.31 204.647C444.31 204.647 444.757 203.752 445.204 203.304C447.442 203.752 449.231 204.647 450.126 205.543C449.679 205.991 449.231 206.439 449.231 206.887ZM451.021 204.2C449.679 202.856 447.889 201.961 446.099 201.513C446.547 201.065 446.547 200.617 446.994 200.169C448.337 200.617 450.574 201.065 451.916 202.408C451.469 203.304 451.469 203.752 451.021 204.2ZM453.258 201.513C451.916 200.169 450.126 199.274 448.337 199.274C448.784 198.826 449.231 198.378 449.679 198.378C451.916 198.826 453.258 199.722 454.601 200.617C453.706 201.065 453.706 201.065 453.258 201.513Z" fill="white"/>
<path d="M0 187.183H30.8736L37.1378 235.994L43.8494 187.183H72.9332V291.522H50.5611V234.651L41.1648 291.522H31.7685L21.9247 234.203V291.522H0V187.183Z" fill="white"/>
<path d="M114.545 276.297H102.464L101.122 291.522H78.75L93.5156 186.735H125.284L141.839 291.522H116.783L114.545 276.297ZM105.149 255.697H112.308L108.729 223.903L105.149 255.697Z" fill="white"/>
<path d="M147.209 187.183H183.899C198.218 187.183 207.167 193.452 207.167 210.469V267.788C207.167 284.357 199.113 291.97 183.899 291.97H146.762V187.183H147.209ZM172.713 271.371H176.293C179.873 271.371 181.215 269.579 181.215 265.101V212.708C181.215 208.23 180.32 206.439 176.74 206.439H172.713V271.371Z" fill="white"/>
<path d="M212.982 187.183H250.12C264.438 187.183 273.387 193.452 273.387 210.469V267.788C273.387 284.357 265.333 291.97 250.12 291.97H212.982V187.183ZM238.487 271.371H242.066C245.646 271.371 246.988 269.579 246.988 265.101V212.708C246.988 208.23 246.093 206.439 242.514 206.439H238.487V271.371V271.371Z" fill="white"/>
<path d="M328.424 187.183V208.678H304.71V226.59H322.607V248.98H304.262V269.579H327.977V291.522H278.758V187.183H328.424Z" fill="white"/>
<path d="M358.85 187.183L372.273 237.785V187.183H394.198V291.522H371.378L356.165 236.89V291.522H333.793V187.183H358.85Z" fill="white"/>
<path d="M529.772 208.678V223.008H505.61V206.439C505.61 195.691 512.322 185.84 530.667 185.84H536.036C553.934 185.84 563.778 193.452 563.778 207.782V213.156C563.778 223.903 563.33 229.277 553.487 239.576C549.907 243.159 546.327 247.637 541.853 251.667C526.64 267.34 527.087 269.132 527.087 271.371H540.511H564.673V291.522H503.82V278.088C503.82 267.34 504.268 262.415 519.481 242.711C523.06 238.233 526.64 232.859 529.772 229.277C535.589 221.216 536.484 218.53 536.484 214.947V209.126C536.484 206.439 535.141 205.095 532.904 205.095C530.667 204.648 529.772 205.991 529.772 208.678Z" fill="white"/>
<path d="M595.098 208.678V223.008H570.936V206.439C570.936 195.691 577.648 185.84 595.993 185.84H601.362C619.26 185.84 629.104 193.452 629.104 207.782V213.156C629.104 223.903 628.656 229.277 618.813 239.576C615.233 243.159 611.654 247.637 607.179 251.667C591.966 267.34 592.414 269.132 592.414 271.371H605.837H629.999V291.522H569.146V278.088C569.146 267.34 569.594 262.415 584.807 242.711C588.387 238.233 591.966 232.859 595.098 229.277C600.915 221.216 601.81 218.53 601.81 214.947V209.126C601.81 206.439 600.468 205.095 598.23 205.095C595.993 204.648 595.098 205.991 595.098 208.678Z" fill="white"/>
<path d="M315 166.584C360.963 166.584 398.224 129.293 398.224 83.292C398.224 37.2911 360.963 0 315 0C269.036 0 231.775 37.2911 231.775 83.292C231.775 129.293 269.036 166.584 315 166.584Z" fill="white"/>
<path d="M369.588 96.7262H371.826V97.174H370.931V98.9652H370.483V97.174L369.588 96.7262ZM270.256 105.234H265.334C264.439 105.234 263.544 104.787 263.544 103.443V101.652C263.544 101.204 263.544 100.756 263.992 100.309C264.439 99.8608 264.887 99.8608 265.334 99.8608H268.914C269.809 99.8608 270.256 100.309 270.703 101.204L271.151 102.995H274.73V100.756C274.73 99.413 274.283 98.5174 273.388 97.174C272.493 96.2784 271.151 95.8306 270.256 95.8306H264.887C263.544 95.8306 262.65 96.2784 261.307 97.174C260.412 98.0696 259.965 99.413 259.965 100.309V103.443C259.965 104.787 260.412 105.682 261.307 107.026C262.202 107.921 263.544 108.369 264.887 108.369H269.809C270.703 108.369 271.598 108.817 271.598 110.16V112.847C271.598 113.295 271.598 113.743 271.151 114.191C270.703 114.638 270.256 114.638 269.809 114.638H265.782C264.887 114.638 264.439 114.191 263.992 113.295L263.544 111.056H259.965V113.295C259.965 114.638 260.412 115.982 261.307 116.877C262.202 117.773 263.544 118.221 264.887 118.221H270.703C272.046 118.221 272.941 117.773 274.283 116.877C275.178 115.982 275.625 114.638 275.625 113.295V109.265C275.625 107.921 275.178 107.026 274.283 105.682C272.941 105.682 271.598 105.234 270.256 105.234ZM293.523 97.6218C294.418 98.5174 294.865 99.8608 294.865 100.756V105.682C294.865 107.026 294.418 107.921 293.523 109.265C292.628 110.16 291.286 110.608 289.944 110.608H283.679V118.669H279.652V96.2784H289.944C291.286 96.2784 292.181 96.7262 293.523 97.6218ZM290.838 101.652C290.838 101.204 290.838 100.756 290.391 100.309C289.944 99.8608 289.496 99.8608 289.049 99.8608H283.679V107.026H289.049C289.496 107.026 289.944 107.026 290.391 106.578C290.838 106.13 290.838 105.682 290.838 105.234V101.652ZM330.213 109.265L334.24 118.669H330.213L326.634 109.713H322.607V118.669H318.58V96.2784H328.424C329.766 96.2784 331.108 96.7262 332.003 97.6218C332.898 98.5174 333.346 99.8608 333.346 100.756V104.787C333.346 105.682 332.898 106.578 332.451 107.474C332.003 108.369 331.108 109.265 330.213 109.265ZM329.319 101.652C329.319 101.204 329.319 100.756 328.871 100.309C328.424 99.8608 328.424 99.8608 327.529 99.8608H322.607V106.13H327.976C328.424 106.13 328.871 106.13 329.319 105.682C329.766 105.234 329.766 104.787 329.766 104.339V101.652H329.319ZM336.03 99.8608H341.847V118.669H345.874V99.8608H351.691V96.2784H336.03V99.8608ZM364.667 105.234H359.745C358.85 105.234 357.955 104.787 357.955 103.443V101.652C357.955 101.204 357.955 100.756 358.402 100.309C358.85 99.8608 359.297 99.8608 359.745 99.8608H363.324C364.219 99.8608 364.667 100.309 365.114 101.204L365.561 102.995H369.141V100.756C369.141 99.413 368.694 98.5174 367.799 97.174C366.904 96.2784 365.561 95.8306 364.219 95.8306H358.85C357.507 95.8306 356.165 96.2784 355.27 97.174C354.375 98.0696 353.928 99.413 353.928 100.309V103.443C353.928 104.787 354.375 105.682 355.27 107.026C356.165 107.921 357.507 108.369 358.85 108.369H363.772C364.667 108.369 365.561 108.817 365.561 110.16V112.847C365.561 113.295 365.561 113.743 365.114 114.191C364.667 114.638 364.219 114.638 363.772 114.638H359.745C358.85 114.638 358.402 114.191 357.955 113.295L357.508 111.056H353.928V113.295C353.928 114.638 354.375 115.982 355.27 116.877C356.165 117.773 357.507 118.221 358.85 118.221H364.667C366.009 118.221 367.351 117.773 368.246 116.877C369.141 115.982 369.588 114.638 369.588 113.295V109.265C369.588 107.921 369.141 107.026 368.246 105.682C366.904 105.682 366.009 105.234 364.667 105.234ZM374.51 96.7262L373.615 98.0696L372.721 96.7262H372.273V98.9652H372.721V97.6218C372.721 97.6218 372.721 97.6218 372.721 97.174L373.615 98.0696L374.51 97.174C374.51 97.174 374.51 97.174 374.51 96.7262C374.51 96.7262 374.51 96.7262 374.51 97.174V98.9652H374.958L374.51 96.7262ZM312.316 97.6218C313.211 98.5174 313.658 99.8608 313.658 101.204V114.191C313.658 115.534 313.211 116.877 312.316 117.773C311.421 118.669 310.079 119.116 308.736 119.116H303.367C302.025 119.116 300.682 118.669 299.787 117.773C298.892 116.877 298.445 115.534 298.445 114.191V101.204C298.445 99.8608 298.892 98.9652 299.787 98.0696C300.682 97.174 302.025 96.7262 303.367 96.7262H309.184C310.526 96.2784 311.421 96.7262 312.316 97.6218ZM309.631 101.652C309.631 101.204 309.631 100.756 309.184 100.309C308.736 99.8608 308.289 99.8608 307.841 99.8608H303.814C303.367 99.8608 302.919 99.8608 302.472 100.309C302.025 100.756 302.025 101.204 302.025 101.652V113.295C302.025 113.743 302.025 114.191 302.472 114.638C302.919 115.086 303.367 115.086 303.814 115.086H307.841C308.289 115.086 308.736 115.086 309.184 114.638C309.631 114.191 309.631 113.743 309.631 113.295V101.652ZM326.634 38.5113H283.679L276.968 48.8109H319.922L326.634 38.5113ZM342.742 69.8578H336.478L329.766 80.1573H349.454L356.165 90.4569H368.694L335.583 38.0635L308.736 80.1573H279.652L286.364 69.8578H304.262L310.973 59.5582H270.703L263.992 69.8578H273.836L260.412 90.9047H314.553L335.135 58.2148L342.742 69.8578Z" fill="black"/>
</svg>
