<svg width="241" height="102" viewBox="0 0 241 102" fill="none" xmlns="http://www.w3.org/2000/svg">
<g clip-path="url(#clip0_1528_17414)">
<g clip-path="url(#clip1_1528_17414)">
<path d="M89.8682 67.8765V100.057H76.9996V88.6602H62.2864V100.057H49.4092V67.8765H62.2864V78.8139H76.9996V67.8765H89.8682Z" fill="white"/>
<path d="M125.919 90.4961V100.057H93.2715V67.8765H106.149V90.4961H125.919Z" fill="white"/>
<path d="M33.5963 67.8765V83.369L19.1602 67.8765H19.1256H0.96582L5.5469 71.3318V100.057H17.9565V82.5376L34.6961 100.057H46.0059V67.8765H33.5963Z" fill="white"/>
<path d="M184.365 66.8633C192.41 66.8633 201.148 69.6691 201.148 77.0733C201.148 82.5896 196.185 85.8977 189.517 87.7423C185.516 88.8421 181.42 90.3142 180.459 91.0503H201.702V100.065H165.885V94.6355C166.577 88.0107 172.042 82.6849 181.697 80.1562C185.196 79.2383 188.184 78.5455 188.184 77.3071C188.184 76.2506 186.071 75.6098 183.681 75.6098C180.052 75.6098 175.913 77.1252 172.327 80.1649L165.893 73.4015C169.712 69.721 176.605 66.8719 184.373 66.8719" fill="white"/>
<path d="M221.472 92.2453C224.096 92.2453 227.404 91.743 227.404 89.6213C227.404 87.4997 224.373 87.4564 221.793 87.4564H216.138V79.827H221.793C224.088 79.827 226.616 79.368 226.616 77.8006C226.616 76.1032 223.811 75.6876 221.325 75.6876C217.827 75.6876 214.752 76.9259 211.808 79.5499L204.456 73.9383C208.084 69.5217 214.804 66.8545 222.252 66.8545C230.99 66.8545 239.727 69.3832 239.727 76.008C239.727 79.4113 237.381 82.858 232.418 83.5508C237.337 84.4687 240.974 86.7203 240.974 91.0415C240.974 97.6664 232.696 101.061 222.26 101.061C214.718 101.061 207.963 98.3938 204.187 93.9772L211.539 88.3656C214.484 90.7991 217.749 92.228 221.472 92.228V92.2453Z" fill="white"/>
<path d="M160.515 75.0898L161.728 72.336L158.861 71.496C157.987 71.2362 157.346 70.5607 156.948 69.4869L155.683 66.0229L152.86 68.3611C152.107 68.976 151.353 69.2964 150.608 69.2964C149.613 69.2964 148.469 68.8114 147.707 68.058L145.889 66.2568L144.07 68.058C143.308 68.8114 142.174 69.2964 141.169 69.2964C140.424 69.2964 139.662 68.9846 138.918 68.3611L136.095 66.0229L134.83 69.4869C134.44 70.5607 133.791 71.2362 132.925 71.496L130.059 72.336L131.271 75.0898C131.834 76.3629 132.12 77.6965 132.12 79.0388C132.12 82.7625 130.214 83.6198 130.214 87.7593C130.214 93.7259 134.83 97.6315 139.117 98.7313C141.282 99.2596 141.94 99.2942 143.888 99.7792C144.044 99.9524 145.88 101.927 145.88 101.927C145.88 101.927 147.716 99.9524 147.872 99.7792C149.829 99.3029 150.487 99.2596 152.652 98.7313C156.939 97.6315 161.555 93.7259 161.555 87.7593C161.555 83.6198 159.649 82.7712 159.649 79.0388C159.649 77.6965 159.935 76.3629 160.498 75.0898H160.515Z" fill="black"/>
<path d="M161.104 87.7421C161.104 85.7849 160.663 84.5899 160.204 83.4381C159.71 82.2084 159.199 81.0307 159.199 79.0216C159.199 77.4368 159.58 76.0252 160.082 74.8821L161.078 72.6133L158.731 71.9205C157.71 71.6174 156.965 70.8466 156.515 69.6256L155.475 66.7852L153.163 68.699C152.401 69.3312 151.535 69.7382 150.609 69.7382C149.37 69.7382 148.149 69.1233 147.378 68.3613L145.889 66.8891L144.399 68.3699C143.637 69.1233 142.408 69.7468 141.169 69.7468C140.243 69.7468 139.377 69.3312 138.615 68.7076L136.302 66.7938L135.263 69.6343C134.813 70.8553 134.068 71.626 133.046 71.9291L130.691 72.6219L131.695 74.8908C132.198 76.0339 132.579 77.4368 132.579 79.0302C132.579 82.9099 130.682 83.6806 130.682 87.7507C130.682 88.9891 130.89 90.1495 131.271 91.2233C132.553 94.8432 135.765 97.3805 139.229 98.2725C141.446 98.8354 142.486 98.8873 144.14 99.355C144.356 99.5801 145.889 101.234 145.889 101.234C145.889 101.234 147.422 99.5715 147.63 99.3463C149.284 98.8873 150.323 98.8267 152.54 98.2638C157.034 97.1034 161.087 93.1978 161.087 87.7421H161.104ZM152.289 97.216C149.907 97.8135 148.27 97.9694 147.058 98.4024C146.902 98.5496 145.898 99.6494 145.898 99.6494C145.898 99.6494 144.893 98.5583 144.737 98.411C143.525 97.9781 141.888 97.8222 139.507 97.2246C134.501 95.9603 131.765 91.7429 131.765 87.7421C131.765 84.4946 133.28 83.2476 133.601 80.182V80.1647C133.635 79.8096 133.661 79.4372 133.661 79.0302C133.661 75.9387 132.18 73.3234 132.18 73.3234C132.18 73.3234 135.809 73.0029 136.796 68.5951C136.796 68.5951 138.97 70.838 141.178 70.838C144.027 70.838 145.898 68.4132 145.898 68.4132C145.898 68.4132 147.768 70.8293 150.617 70.8293C152.825 70.8293 154.999 68.5864 154.999 68.5864C155.986 72.9943 159.615 73.3147 159.615 73.3147C159.615 73.3147 158.143 75.93 158.143 79.0216C158.143 82.9878 160.039 84.1136 160.039 87.7421C160.039 91.7429 157.303 95.943 152.297 97.2073L152.289 97.216Z" fill="white"/>
<path d="M158.87 97.5103C158.03 97.5103 157.346 98.1944 157.346 99.0344C157.346 99.8744 158.021 100.559 158.87 100.559C159.719 100.559 160.386 99.8744 160.386 99.0344C160.386 98.1944 159.701 97.5103 158.87 97.5103ZM158.87 100.229C158.212 100.229 157.675 99.6925 157.675 99.0344C157.675 98.3762 158.212 97.8393 158.87 97.8393C159.528 97.8393 160.065 98.3762 160.065 99.0344C160.065 99.6925 159.528 100.229 158.87 100.229Z" fill="white"/>
<path d="M159.493 98.6794C159.493 98.3936 159.26 98.1685 158.974 98.1685H158.238V99.9004H158.567V99.199H158.801L159.13 99.9004H159.485L159.138 99.1643C159.338 99.0951 159.485 98.9045 159.485 98.6794H159.493ZM158.974 98.8699H158.567V98.4889H158.974C159.078 98.4889 159.164 98.5755 159.164 98.6794C159.164 98.7833 159.078 98.8699 158.974 98.8699Z" fill="white"/>
<path d="M141.602 87.9931L139.706 85.0834L137.601 86.6681C137.601 86.6681 138.337 86.6855 138.337 87.4648V92.9465L139.827 91.8294V87.9585L141.524 90.5564L143.092 89.3787V82.5547L141.602 83.6718V88.0104V87.9931Z" fill="white"/>
<path d="M147.638 81.6455L145.958 82.9098V80.3898L143.689 82.0958C143.689 82.0958 144.425 82.1131 144.425 82.8925V88.3742L145.958 87.2224V84.7284L147.638 83.4641V85.9668L149.093 84.8756V78.043L147.638 79.1341V81.6541V81.6455Z" fill="white"/>
<path d="M151.899 81.0135V75.9302L149.63 77.6362C149.63 77.6362 150.366 77.6535 150.366 78.4329V83.9146L154.592 80.7451C154.497 79.6539 154.592 79.0044 154.592 79.0044L151.899 81.0308V81.0135Z" fill="white"/>
<path d="M157.069 79.0215C157.069 76.1897 158.143 74.0074 158.143 74.0074C158.143 74.0074 155.675 73.5051 154.523 70.3789C154.523 70.3789 152.886 71.9117 150.617 71.9117C147.785 71.9117 145.897 69.9199 145.897 69.9199C145.897 69.9199 144.018 71.9117 141.178 71.9117C138.918 71.9117 137.281 70.3789 137.281 70.3789C136.129 73.5051 133.661 74.0074 133.661 74.0074C133.661 74.0074 134.735 76.1897 134.735 79.0215C134.735 83.2215 132.838 84.4339 132.838 87.742C132.838 92.3663 136.441 95.3107 139.784 96.1594C142.434 96.8348 144.157 96.9041 145.326 97.467C145.326 97.467 145.75 97.8567 145.906 98.0299C146.062 97.8567 146.486 97.467 146.486 97.467C147.647 96.9041 149.379 96.8262 152.029 96.1594C155.371 95.3107 158.974 92.3663 158.974 87.742C158.974 84.4339 157.077 83.2215 157.077 79.0215H157.069ZM135.947 79.0215C135.947 77.2202 135.558 75.6701 135.22 74.6655C135.999 74.2412 136.978 73.4791 137.757 72.1802C138.597 72.6478 139.784 73.1241 141.178 73.1241C143.3 73.1241 144.945 72.1975 145.897 71.5047C146.841 72.1975 148.495 73.1241 150.617 73.1241C150.955 73.1241 151.284 73.0981 151.587 73.0461L134.259 86.0619C134.761 84.1048 135.939 82.4854 135.939 79.0215H135.947ZM138.311 94.3148C136.095 93.1717 134.155 90.9894 134.059 87.9844L154.393 72.7084C155.103 73.6956 155.917 74.3018 156.584 74.6655C156.246 75.6701 155.856 77.2202 155.856 79.0215C155.856 79.7662 155.908 80.4244 156.004 81.0219L138.303 94.3148H138.311ZM151.734 94.9903C149.639 95.5272 147.075 95.7957 146.296 96.2373C146.123 96.3672 145.906 96.5924 145.906 96.5924C145.906 96.5924 145.69 96.3672 145.516 96.2373C144.746 95.7957 142.174 95.5185 140.087 94.9903C140.009 94.973 139.922 94.947 139.844 94.921L156.341 82.5374C156.904 84.5032 157.762 85.7848 157.762 87.742C157.762 91.6649 154.635 94.2455 151.734 94.9816V94.9903Z" fill="white"/>
<path d="M122.62 62.3512C139.838 62.3512 153.795 48.3934 153.795 31.1756C153.795 13.9578 139.838 0 122.62 0C105.402 0 91.4443 13.9578 91.4443 31.1756C91.4443 48.3934 105.402 62.3512 122.62 62.3512Z" fill="white"/>
<path d="M143.127 36.1982H143.923V36.3368H143.603V37.0122H143.447V36.3368H143.127V36.1982V36.1982ZM105.941 39.3331H104.148C103.741 39.3331 103.542 39.1079 103.542 38.6663V37.9562C103.542 37.757 103.594 37.5925 103.707 37.4539C103.811 37.324 103.958 37.2547 104.14 37.2547H105.551C105.88 37.2547 106.106 37.4106 106.209 37.7397L106.409 38.4238H107.699V37.6704C107.699 37.1681 107.534 36.7524 107.197 36.4147C106.85 36.077 106.435 35.9124 105.95 35.9124H103.863C103.369 35.9124 102.945 36.0856 102.59 36.4407C102.243 36.7871 102.07 37.2114 102.07 37.6964V38.9088C102.07 39.4024 102.243 39.8267 102.59 40.1818C102.945 40.5282 103.369 40.7013 103.863 40.7013H105.655C106.054 40.7013 106.253 40.9352 106.253 41.3855V42.3034C106.253 42.4939 106.201 42.6671 106.097 42.797C105.984 42.9269 105.837 42.9962 105.664 42.9962H104.235C103.871 42.9962 103.655 42.8317 103.568 42.5113L103.378 41.7405H102.079V42.5805C102.079 43.0915 102.243 43.5072 102.581 43.8449C102.919 44.1826 103.334 44.3472 103.837 44.3472H105.95C106.435 44.3472 106.868 44.174 107.214 43.8189C107.56 43.4725 107.734 43.0482 107.734 42.5546V41.1257C107.734 40.6407 107.56 40.2164 107.205 39.8613C106.859 39.5063 106.435 39.3331 105.95 39.3331H105.941ZM114.549 36.4493C114.895 36.7957 115.069 37.2114 115.069 37.6964V39.463C115.069 39.9566 114.895 40.3809 114.549 40.7273C114.194 41.0737 113.77 41.2556 113.276 41.2556H110.955V44.3472H109.466V35.9298H113.276C113.77 35.9298 114.194 36.1029 114.549 36.458V36.4493ZM113.579 37.9735C113.579 37.7656 113.518 37.6098 113.406 37.4799C113.293 37.35 113.146 37.2894 112.973 37.2894H110.946V39.9046H112.973C113.146 39.9046 113.293 39.8354 113.406 39.7055C113.518 39.5756 113.579 39.411 113.579 39.2118V37.9821V37.9735ZM128.396 40.8659L129.877 44.3472H128.292L126.924 41.0477H125.512V44.3472H124.023V35.9298H127.747C128.249 35.9298 128.665 36.1029 129.011 36.458C129.357 36.8044 129.539 37.2287 129.539 37.705V39.1772C129.539 39.5582 129.435 39.9046 129.227 40.2164C129.011 40.5195 128.734 40.736 128.405 40.8832L128.396 40.8659ZM128.041 37.9735C128.041 37.7743 127.989 37.6098 127.885 37.4799C127.781 37.35 127.634 37.2894 127.461 37.2894H125.512V39.6968H127.461C127.634 39.6968 127.773 39.6362 127.885 39.5063C127.989 39.3764 128.041 39.2118 128.041 39.0127V37.9735ZM130.474 37.2807H132.613V44.3385H134.103V37.2807H136.259V35.9211H130.466V37.2807H130.474ZM141.221 39.3331H139.429C139.03 39.3331 138.831 39.1079 138.831 38.6663V37.9562C138.831 37.757 138.883 37.5925 138.996 37.4539C139.1 37.324 139.256 37.2547 139.429 37.2547H140.84C141.169 37.2547 141.395 37.4106 141.499 37.7397L141.698 38.4238H142.988V37.6704C142.988 37.1681 142.815 36.7524 142.477 36.4147C142.131 36.077 141.715 35.9124 141.221 35.9124H139.143C138.649 35.9124 138.216 36.0856 137.879 36.4407C137.532 36.7871 137.35 37.2114 137.35 37.6964V38.9088C137.35 39.4024 137.532 39.8267 137.879 40.1818C138.225 40.5282 138.649 40.7013 139.143 40.7013H140.936C141.334 40.7013 141.533 40.9352 141.533 41.3855V42.3034C141.533 42.4939 141.481 42.6671 141.377 42.797C141.265 42.9269 141.117 42.9962 140.936 42.9962H139.507C139.152 42.9962 138.927 42.8317 138.84 42.5113L138.649 41.7405H137.35V42.5805C137.35 43.0915 137.524 43.5072 137.853 43.8449C138.19 44.1826 138.606 44.3472 139.108 44.3472H141.213C141.715 44.3472 142.131 44.174 142.486 43.8189C142.832 43.4725 143.005 43.0482 143.005 42.5546V41.1257C143.005 40.6407 142.832 40.2164 142.468 39.8613C142.122 39.5063 141.698 39.3331 141.213 39.3331H141.221ZM144.893 36.1982L144.573 36.6918L144.252 36.1982H144.114V37.0122H144.252V36.51C144.252 36.51 144.235 36.458 144.235 36.4234C144.252 36.4493 144.27 36.484 144.287 36.5013L144.555 36.9083H144.581L144.841 36.51C144.841 36.51 144.867 36.458 144.885 36.4234C144.885 36.4667 144.885 36.4926 144.885 36.51V37.0122H145.032V36.1982H144.911H144.893ZM121.676 36.4407C122.031 36.7784 122.204 37.2028 122.204 37.6964V42.5372C122.204 43.0482 122.031 43.4725 121.676 43.8189C121.321 44.1653 120.914 44.3472 120.412 44.3472H118.403C117.9 44.3472 117.476 44.174 117.13 43.8189C116.783 43.4725 116.601 43.0482 116.601 42.5372V37.6964C116.601 37.2114 116.783 36.7871 117.13 36.4493C117.476 36.103 117.9 35.9211 118.403 35.9211H120.412C120.914 35.9211 121.33 36.0943 121.676 36.4407V36.4407ZM120.715 37.9735C120.715 37.7743 120.663 37.6098 120.542 37.4799C120.429 37.35 120.29 37.2894 120.117 37.2894H118.688C118.507 37.2894 118.359 37.35 118.247 37.4799C118.143 37.6098 118.091 37.7743 118.091 37.9735V42.2861C118.091 42.4853 118.143 42.6412 118.247 42.7797C118.359 42.9183 118.498 42.9876 118.688 42.9876H120.117C120.29 42.9876 120.438 42.9183 120.542 42.7797C120.654 42.6498 120.715 42.4853 120.715 42.2861V37.9735V37.9735ZM126.993 14.4359H110.964L108.513 18.3329H124.534L126.993 14.4359ZM133.064 26.1181H130.665L128.197 30.0237H135.523L137.983 33.9207H142.659L130.258 14.2974L120.299 30.0237H109.405L111.908 26.1181H118.671L121.139 22.2212H106.045L103.577 26.1181H107.197L102.261 33.9207H122.559L130.258 21.6842L133.055 26.1094L133.064 26.1181Z" fill="black"/>
</g>
</g>
<defs>
<clipPath id="clip0_1528_17414">
<rect width="240" height="101.918" fill="white" transform="translate(0.96582)"/>
</clipPath>
<clipPath id="clip1_1528_17414">
<rect width="240.009" height="101.927" fill="white" transform="translate(0.96582)"/>
</clipPath>
</defs>
</svg>
