<svg width="280" height="158" viewBox="0 0 280 158" fill="none" xmlns="http://www.w3.org/2000/svg">
<g id="TS4-KIT-14_Game-Box_LOGO" clip-path="url(#clip0_3432_47988)">
<path id="Union" fill-rule="evenodd" clip-rule="evenodd" d="M229.916 65.9987H250.044V37.8308L229.916 65.9987ZM269.944 5.68865V65.9987H279.602V86.3142H269.974V101.563H250.044V86.3142H213.999C215.641 85.4408 217.18 84.3856 218.585 83.1684C223.778 78.6359 226.522 72.2783 226.522 64.7801C226.522 56.0391 222.971 50.7141 218.434 47.2561L251.29 5.68865H269.944ZM221.034 22.4982H220.24V19.7786H219.229V19.0942H222.051V19.7786H221.034V22.4982ZM224.434 21.6877L223.483 20.1929L223.489 22.4982H222.755V19.0762H223.573L224.476 20.517L225.372 19.0762H226.167V22.4982H225.439V20.1929L224.494 21.6877H224.434ZM56.7021 27.511C56.7021 33.1722 62.7678 35.0452 69.7902 37.2065V37.2305C80.5374 40.5384 92.7168 44.2905 92.7168 61.4722C92.7168 69.6668 89.666 76.4146 83.8892 80.9832C78.6239 85.1556 71.114 87.4549 62.6895 87.4549C59.9752 87.4538 57.2658 87.2248 54.59 86.7705C47.6879 85.4678 40.5632 82.0818 31.9883 75.0218L41.7487 60.9799C41.8292 61.0565 41.916 61.1395 42.0089 61.2284C44.58 63.6876 51.8353 70.6274 61.8651 70.6274C66.2639 70.6274 73.2382 68.6763 73.2382 62.877C73.2382 57.3299 67.1665 55.3667 60.1321 53.1275L60.1285 53.1263C49.3942 49.6927 37.2295 45.8015 37.2295 29.0599C37.2295 13.451 51.8942 5.04628 65.7344 5.04628C74.3854 5.12668 82.7877 7.94332 89.7321 13.0908L90.4001 13.5951L80.5254 26.0942L79.8755 25.5719C75.9581 22.3661 72.3476 20.3729 66.3301 20.3729C62.4428 20.3729 56.7021 22.6422 56.7021 27.511ZM194.792 37.7768C194.792 41.0547 198.36 42.3094 204.185 44.1104H204.137C212.278 46.6138 223.393 50.0357 223.393 64.75C223.393 78.1676 213.488 86.8365 198.119 86.8365C192.164 86.905 186.281 85.5374 180.969 82.8503L180.813 82.7782L181.613 86.2842H162.664L159.601 62.3427L155.088 86.2842H138.239L133.973 62.5348L130.314 86.2842H112.153L124.64 12.0763H140.05L146.946 46.5838L153.259 19.3464H168.989L179.02 73.2929L185.38 65.2003L185.982 65.9207C188.72 69.0965 192.679 70.7714 197.415 70.7714C199.894 70.7714 205.015 69.5708 205.015 65.8667C205.015 62.6428 201.435 61.3401 195.598 59.467C187.486 56.8856 176.39 53.3376 176.39 38.9835C176.39 25.692 188.804 18.4879 200.49 18.4879C208.144 18.5432 215.55 21.1961 221.491 26.0101L222.093 26.4964L212.465 38.7133L211.863 38.179C208.319 35.0933 205.665 33.5264 200.996 33.5264C198.462 33.5264 194.792 35.0453 194.792 37.7768ZM111.365 86.2842V19.3584H92.2956V47.4903C94.4499 51.0203 95.7978 55.5408 95.7978 61.4482C95.8815 66.4455 94.6755 71.3802 92.2956 75.7783V86.2842H111.365ZM121.456 14.6697C120.011 15.8237 118.228 16.4769 116.378 16.5308H116.39C115.612 16.5593 114.836 16.4276 114.112 16.144C113.387 15.8604 112.729 15.4309 112.178 14.8823C111.627 14.3337 111.195 13.6778 110.909 12.9554C110.623 12.233 110.49 11.4596 110.517 10.6835C110.517 7.30957 112.924 4.84217 116.534 4.84217C118.761 4.84217 120.469 5.89877 121.878 8.09602L114.657 12.7366C115.174 13.1894 115.84 13.4353 116.528 13.427C117.681 13.3235 118.779 12.8876 119.687 12.1723L121.456 14.6697ZM117.864 8.01196C117.482 7.79092 117.048 7.67298 116.606 7.66976C116.245 7.65714 115.885 7.71889 115.549 7.85118C115.213 7.98346 114.908 8.18344 114.653 8.43862C114.397 8.6938 114.198 8.9987 114.066 9.33433C113.934 9.66995 113.873 10.0291 113.886 10.3893V10.5634L117.864 8.01196ZM103.554 16.4107H100.293L100.275 1H103.229V6.22895C103.613 5.78086 104.091 5.42152 104.628 5.17583C105.165 4.93014 105.749 4.80399 106.34 4.80615C108.35 4.80615 109.71 6.09088 109.71 8.27611V16.4107H106.425V9.29069C106.425 8.21608 106.058 7.69979 105.221 7.69979C104.198 7.69979 103.554 8.39017 103.554 9.65688V16.4107ZM92.3678 16.4107H96.0144L96.0204 4.75212H99.5407V1.31217H89.4674L88.4745 4.74611H92.3678V16.4107ZM39.7484 50.3295L30.2259 50.2995L14.9264 87.0323L27.2758 49.8904L19.9538 48.895L12.6341 47.89L14.5678 86.9849L9.68163 47.4942L0.500977 44.9682L10.0216 44.9976L25.3217 8.26416L12.9729 45.4061L20.295 46.4021L27.6146 47.4077L25.681 8.31282L30.5671 47.8035L39.7484 50.3295ZM14.4357 89.2969L40.25 50.3979L25.8143 6L0 44.899L14.4357 89.2969Z" fill="white"/>
<g id="Group 132">
<path id="Exclude" fill-rule="evenodd" clip-rule="evenodd" d="M280 111.283L0 103L18.6944 158.391L280 153.17V111.283ZM172.063 137.478C170.883 138.641 169.292 139.291 167.635 139.287C164.02 139.287 161.098 136.465 161.098 132.462C161.063 130.69 161.731 128.977 162.956 127.698C164.182 126.418 165.864 125.677 167.635 125.638C168.453 125.634 169.264 125.791 170.02 126.102C170.777 126.412 171.465 126.869 172.045 127.446L170.081 129.255C169.43 128.701 168.604 128.395 167.749 128.393C165.695 128.393 164.014 130.304 164.014 132.414C163.992 132.924 164.072 133.434 164.249 133.913C164.425 134.392 164.695 134.831 165.042 135.205C165.39 135.579 165.808 135.881 166.273 136.092C166.737 136.303 167.239 136.42 167.749 136.435C168.534 136.435 169.295 136.172 169.912 135.688L172.063 137.478ZM73.1748 132.469C73.1939 133.842 72.8045 135.19 72.056 136.341C71.3074 137.492 70.2337 138.394 68.9714 138.932C67.7091 139.471 66.3152 139.621 64.9671 139.365C63.619 139.108 62.3777 138.456 61.401 137.492C60.4243 136.527 59.7564 135.294 59.4823 133.948C59.2083 132.603 59.3403 131.206 59.8618 129.936C60.3832 128.666 61.2705 127.58 62.4106 126.815C63.5508 126.051 64.8923 125.644 66.2646 125.645C68.0851 125.634 69.8356 126.346 71.1313 127.626C72.4271 128.906 73.1621 130.648 73.1748 132.469ZM70.277 132.469C70.2592 131.678 70.0083 130.909 69.5558 130.26C69.1033 129.611 68.4694 129.109 67.7334 128.819C66.9974 128.529 66.1921 128.462 65.4185 128.628C64.6449 128.793 63.9373 129.184 63.3846 129.75C62.8319 130.317 62.4585 131.034 62.3113 131.812C62.1641 132.59 62.2497 133.393 62.5572 134.123C62.8647 134.852 63.3806 135.475 64.0401 135.912C64.6996 136.349 65.4735 136.582 66.2646 136.581C66.7989 136.576 67.327 136.466 67.8186 136.257C68.3102 136.047 68.7558 135.743 69.1296 135.361C69.5035 134.979 69.7983 134.527 69.9973 134.031C70.1963 133.535 70.2954 133.004 70.289 132.469H70.277ZM46.2148 125.964H48.9078L51.2213 134.404L53.5227 125.964H56.2277L58.4689 139.052H55.5952L54.5288 132.421L52.6913 139.052H49.7453L47.8957 132.421L46.8534 139.052H43.9917L46.2148 125.964ZM87.1155 136.335C87.8639 135.186 88.2539 133.841 88.2359 132.469C88.2232 130.648 87.4882 128.906 86.1924 127.626C84.8967 126.346 83.1462 125.634 81.3257 125.645C79.9552 125.645 78.6156 126.053 77.4774 126.817C76.3391 127.581 75.4536 128.666 74.9333 129.935C74.413 131.204 74.2816 132.599 74.5556 133.942C74.8297 135.286 75.4968 136.518 76.4723 137.481C77.4478 138.445 78.6875 139.096 80.0338 139.353C81.3802 139.609 82.7724 139.459 84.0334 138.922C85.2944 138.385 86.3672 137.484 87.1155 136.335ZM84.6182 130.262C85.0699 130.911 85.3203 131.679 85.3381 132.469H85.32C85.3264 133.003 85.2277 133.533 85.0295 134.028C84.8313 134.523 84.5375 134.975 84.1649 135.357C83.7923 135.739 83.3482 136.043 82.8579 136.253C82.3677 136.463 81.8409 136.575 81.3076 136.581C80.5173 136.578 79.7452 136.343 79.0881 135.903C78.4309 135.464 77.9179 134.84 77.6131 134.11C77.3083 133.381 77.2253 132.577 77.3746 131.801C77.5238 131.024 77.8986 130.309 78.452 129.744C79.0055 129.179 79.7131 128.791 80.4862 128.626C81.2593 128.462 82.0637 128.53 82.7987 128.821C83.5336 129.111 84.1666 129.613 84.6182 130.262ZM101.816 125.964V139.052H98.7557L92.9419 130.226V139.052H90.1405V125.964H92.9419L99.0147 134.917V125.964H101.816ZM111.13 139.052L111.914 136.339H107.226V125.964H104.425V139.052H111.13ZM116.1 139.052H113.298V125.964H116.1V139.052ZM130.295 138.092V131.346L124.807 131.358L124.114 133.769H127.476V136.253C126.816 136.564 126.096 136.724 125.367 136.723C122.861 136.723 120.824 134.915 120.824 132.503C120.824 129.441 124.584 126.619 128.355 129.549L130.072 127.457C128.714 126.335 127.014 125.71 125.252 125.685C121.162 125.685 118.023 128.723 118.023 132.503C118.023 136.283 120.842 139.327 125.252 139.327C127.002 139.281 128.722 138.859 130.295 138.092ZM143.343 125.963V139.051H140.541V133.565H135.589V139.027H132.818V125.963H135.619V131.154H140.572V125.957L143.343 125.963ZM150.923 128.677H154.189V125.964H145.411L144.664 128.677H148.116V139.052H150.923V128.677ZM184.142 139.051V125.963L181.341 125.957V131.154H176.394V125.963H173.587V139.027H176.394V133.565H181.341V139.051H184.142ZM189.594 139.052H186.793V125.964H189.594V139.052ZM198.113 139.287C199.77 139.291 201.361 138.641 202.541 137.478L200.391 135.688C199.773 136.172 199.012 136.435 198.228 136.435C197.718 136.42 197.216 136.303 196.751 136.092C196.286 135.881 195.868 135.579 195.521 135.205C195.173 134.831 194.903 134.392 194.727 133.913C194.55 133.434 194.471 132.924 194.492 132.414C194.492 130.304 196.173 128.393 198.228 128.393C199.083 128.392 199.91 128.698 200.559 129.255L202.523 127.446C201.944 126.869 201.256 126.412 200.499 126.102C199.742 125.791 198.931 125.634 198.113 125.638C196.343 125.677 194.66 126.418 193.435 127.698C192.209 128.977 191.541 130.69 191.577 132.462C191.577 136.465 194.499 139.287 198.113 139.287ZM220.778 139.052H217.374L212.952 133.024V139.052H210.144V125.964H212.946V132.264L217.277 125.964H220.639L215.892 132.595L220.778 139.052ZM222.11 139.052H224.911V125.964H222.11V139.052ZM235.726 128.677H232.454V139.052H229.653V128.677H226.201L226.948 125.964H235.726V128.677Z" fill="white"/>
</g>
</g>
<defs>
<clipPath id="clip0_3432_47988">
<rect width="280" height="158" fill="white"/>
</clipPath>
</defs>
</svg>
