<svg width="280" height="158" viewBox="0 0 280 158" fill="none" xmlns="http://www.w3.org/2000/svg">
<g id="TS4-KIT-17_Game-Box_LOGO">
<path id="Union" fill-rule="evenodd" clip-rule="evenodd" d="M229.916 65.9987H250.044V37.8308L229.916 65.9987ZM269.944 5.68865V65.9987H279.602V86.3142H269.974V101.563H250.044V86.3142H213.999C215.641 85.4408 217.18 84.3856 218.585 83.1684C223.778 78.6359 226.522 72.2783 226.522 64.7801C226.522 56.0391 222.971 50.7141 218.434 47.2561L251.29 5.68865H269.944ZM221.034 22.4982H220.24V19.7786H219.229V19.0942H222.051V19.7786H221.034V22.4982ZM224.434 21.6877L223.483 20.1929L223.489 22.4982H222.755V19.0762H223.573L224.476 20.517L225.372 19.0762H226.167V22.4982H225.439V20.1929L224.494 21.6877H224.434ZM56.7021 27.511C56.7021 33.1722 62.7678 35.0452 69.7902 37.2065V37.2305C80.5374 40.5384 92.7168 44.2905 92.7168 61.4722C92.7168 69.6668 89.666 76.4146 83.8892 80.9832C78.6239 85.1556 71.114 87.4549 62.6895 87.4549C59.9752 87.4538 57.2658 87.2248 54.59 86.7705C47.6879 85.4678 40.5632 82.0818 31.9883 75.0218L41.7487 60.9799C41.8292 61.0565 41.916 61.1395 42.0089 61.2284C44.58 63.6876 51.8353 70.6274 61.8651 70.6274C66.2639 70.6274 73.2382 68.6763 73.2382 62.877C73.2382 57.3299 67.1665 55.3667 60.1321 53.1275L60.1285 53.1263C49.3942 49.6927 37.2295 45.8015 37.2295 29.0599C37.2295 13.451 51.8942 5.04628 65.7344 5.04628C74.3854 5.12668 82.7877 7.94332 89.7321 13.0908L90.4001 13.5951L80.5254 26.0942L79.8755 25.5719C75.9581 22.3661 72.3476 20.3729 66.3301 20.3729C62.4428 20.3729 56.7021 22.6422 56.7021 27.511ZM194.792 37.7768C194.792 41.0547 198.36 42.3094 204.185 44.1104H204.137C212.278 46.6138 223.393 50.0357 223.393 64.75C223.393 78.1676 213.488 86.8365 198.119 86.8365C192.164 86.905 186.281 85.5374 180.969 82.8503L180.813 82.7782L181.613 86.2842H162.664L159.601 62.3427L155.088 86.2842H138.239L133.973 62.5348L130.314 86.2842H112.153L124.64 12.0763H140.05L146.946 46.5838L153.259 19.3464H168.989L179.02 73.2929L185.38 65.2003L185.982 65.9207C188.72 69.0965 192.679 70.7714 197.415 70.7714C199.894 70.7714 205.015 69.5708 205.015 65.8667C205.015 62.6428 201.435 61.3401 195.598 59.467C187.486 56.8856 176.39 53.3376 176.39 38.9835C176.39 25.692 188.804 18.4879 200.49 18.4879C208.144 18.5432 215.55 21.1961 221.491 26.0101L222.093 26.4964L212.465 38.7133L211.863 38.179C208.319 35.0933 205.665 33.5264 200.996 33.5264C198.462 33.5264 194.792 35.0453 194.792 37.7768ZM111.365 86.2842V19.3584H92.2956V47.4903C94.4499 51.0203 95.7978 55.5408 95.7978 61.4482C95.8815 66.4455 94.6755 71.3802 92.2956 75.7783V86.2842H111.365ZM121.456 14.6697C120.011 15.8237 118.228 16.4769 116.378 16.5308H116.39C115.612 16.5593 114.836 16.4276 114.112 16.144C113.387 15.8604 112.729 15.4309 112.178 14.8823C111.627 14.3337 111.195 13.6778 110.909 12.9554C110.623 12.233 110.49 11.4596 110.517 10.6835C110.517 7.30957 112.924 4.84217 116.534 4.84217C118.761 4.84217 120.469 5.89877 121.878 8.09602L114.657 12.7366C115.174 13.1894 115.84 13.4353 116.528 13.427C117.681 13.3235 118.779 12.8876 119.687 12.1723L121.456 14.6697ZM117.864 8.01196C117.482 7.79092 117.048 7.67298 116.606 7.66976C116.245 7.65714 115.885 7.71889 115.549 7.85118C115.213 7.98346 114.908 8.18344 114.653 8.43862C114.397 8.6938 114.198 8.9987 114.066 9.33433C113.934 9.66995 113.873 10.0291 113.886 10.3893V10.5634L117.864 8.01196ZM103.554 16.4107H100.293L100.275 1H103.229V6.22895C103.613 5.78086 104.091 5.42152 104.628 5.17583C105.165 4.93014 105.749 4.80399 106.34 4.80615C108.35 4.80615 109.71 6.09088 109.71 8.27611V16.4107H106.425V9.29069C106.425 8.21608 106.058 7.69979 105.221 7.69979C104.198 7.69979 103.554 8.39017 103.554 9.65688V16.4107ZM92.3678 16.4107H96.0144L96.0204 4.75212H99.5407V1.31217H89.4674L88.4745 4.74611H92.3678V16.4107ZM39.7484 50.3295L30.2259 50.2995L14.9264 87.0323L27.2758 49.8904L19.9538 48.895L12.6341 47.89L14.5678 86.9849L9.68163 47.4942L0.500977 44.9682L10.0216 44.9976L25.3217 8.26416L12.9729 45.4061L20.295 46.4021L27.6146 47.4077L25.681 8.31282L30.5671 47.8035L39.7484 50.3295ZM14.4357 89.2969L40.25 50.3979L25.8143 6L0 44.899L14.4357 89.2969Z" fill="white"/>
<g id="Frame">
<path id="Subtract" fill-rule="evenodd" clip-rule="evenodd" d="M280 109.374L1 101L19.6336 157L280 151.722V109.374ZM67.1301 136.229C70.8991 136.229 73.96 133.116 73.9617 129.296C73.96 125.469 70.8931 122.363 67.1301 122.363H62.5438V136.229H67.1301ZM66.4938 125.032C68.913 125.032 70.8821 126.836 70.8821 129.293C70.8821 131.749 68.913 133.553 66.4938 133.553H65.4793V125.032H66.4938ZM84.6412 133.449L83.8608 136.222H76.0567V122.357H83.5666L84.347 125.13H78.9802V127.805H82.6902V130.579H78.9802V133.449H84.6412ZM89.5097 126.087C89.5097 124.417 92.2591 124.063 93.8199 125.806L93.8259 125.818L95.5428 123.618C95.5428 123.618 94.024 122.034 91.1725 122.034C88.3211 122.034 86.196 123.96 86.196 126.312C86.196 128.665 87.5407 129.402 89.6297 130.213C90.0269 130.371 90.3773 130.5 90.6846 130.613C92.0406 131.113 92.5593 131.304 92.5593 132.273C92.5593 133.461 91.0525 133.62 90.7043 133.62C90.6785 133.62 90.6481 133.62 90.6136 133.621C90.1506 133.63 88.9355 133.652 87.7568 132.529L85.9198 134.906C85.9198 134.906 87.5767 136.588 90.8364 136.588C93.1956 136.588 95.927 135.278 95.927 131.791C95.927 131.791 96.1611 129.073 92.3191 127.927C92.2362 127.902 92.154 127.877 92.0728 127.852L91.9789 127.823C90.5944 127.403 89.5097 127.074 89.5097 126.087ZM106.619 133.449L105.838 136.222H98.0341V122.357H105.544L106.324 125.13H100.958V127.805H104.668V130.579H100.958V133.449H106.619ZM111.625 130.78H112.52L115.875 136.229H119.429L115.407 130.286C116.89 129.713 118.06 128.622 118.06 126.818C118.06 123.35 115.407 122.363 112.988 122.363H108.696V136.229H111.625V130.78ZM112.7 128.799H111.625V125.136H112.7C113.498 125.136 115.041 125.233 115.041 126.818C115.041 128.403 113.498 128.799 112.7 128.799ZM129.574 125.233H126.159V136.229H123.229V125.233H119.621L120.402 122.363H129.574V125.233ZM144.594 136.222L145.393 133.352H140.5V122.357H137.57V136.222H144.594ZM146.827 131.572V122.363H149.871V130.981C149.871 130.981 149.715 133.638 152.326 133.638C155.178 133.638 154.997 130.981 154.997 130.981V122.363H158.041V131.377C158.041 135.912 154.469 136.527 152.326 136.527C150.183 136.527 146.821 135.912 146.821 131.578L146.827 131.572ZM166.013 131.347L169.153 136.222H169.159H172.713L167.76 128.915L172.208 122.357H168.655L166.019 126.379L163.366 122.357H159.812L164.278 128.915L159.32 136.222H162.874L166.013 131.347ZM182.822 133.449L182.041 136.222H174.237V122.357H181.747L182.528 125.13H177.161V127.805H180.871V130.579H177.161V133.449H182.822ZM202.201 136.222H202.212L202.206 136.229L202.201 136.222ZM202.201 136.222H198.658L194.036 129.841V136.222H191.106V122.357H194.036V129.03L198.562 122.357H202.074L197.115 129.372L202.201 136.222ZM206.606 136.222H203.677V122.357H206.606V136.222ZM214.578 125.233H217.994V122.363H208.821L208.041 125.233H211.649V136.229H214.578V125.233Z" fill="white"/>
</g>
</g>
</svg>
