<svg fill="none" height="148" viewBox="0 0 280 148" width="280" xmlns="http://www.w3.org/2000/svg" xmlns:xlink="http://www.w3.org/1999/xlink"><clipPath id="a"><path d="m21 103h247v42.8266h-247z"/></clipPath><g fill="#fff"><path clip-rule="evenodd" d="m31.941 50.3193 9.4327.0297-9.0947-2.5021-4.8402-39.11866 1.9155 38.72646-7.2507-.9961-7.2531-.9866 12.2325-36.79196-15.156 36.38736-9.43091-.0292 9.09421 2.5022 4.8401 39.1186-1.9155-38.7265 7.2507.9956 7.2531.986-12.2331 36.7919zm9.9298.0976-25.5711 38.5325-14.2997-43.9796 25.5711-38.53251zm54.8789-44.702h3.4843v-3.40905l-9.9662.00358-.9866 3.40785h3.8566l.0035 11.58202 3.612-.0065zm4.2343-3.7149h2.925l.003 5.18646c.83-.91935 1.862-1.41205 3.081-1.41205 1.986 0 3.333 1.27757 3.333 3.44534l.003 8.06825h-3.251l-.006-7.0626c0-1.06754-.381-1.57928-1.207-1.57928-1.015 0-1.654.68371-1.652 1.93988v6.7056h-3.225zm16.148 6.61874c-1.54 0-2.688 1.10918-2.688 2.69916l-.003.1714 3.936-2.53376c-.384-.21541-.793-.3368-1.245-.3368zm-.213 8.78656c-3.351 0-5.813-2.413-5.815-5.7994 0-3.34835 2.367-5.7952 5.962-5.79758 2.203 0 3.896 1.05383 5.288 3.22934l-7.142 4.60454c.552.4659 1.161.6837 1.857.6837.898 0 1.93-.4297 3.123-1.2407l1.754 2.4766c-1.646 1.2133-3.312 1.8405-5.027 1.8435zm-23.8389 2.8092v27.9079c2.138 3.5012 3.4673 7.9861 3.4673 13.8515 0 5.3365-1.1877 10.129-3.4673 14.2152v10.4247h18.8769v-66.3993zm110.7489 24.5565c8.03 2.4844 19.032 5.8791 19.032 20.4763 0 13.3095-9.827 21.9122-25.043 21.9122-6.229 0-12.059-1.3823-16.975-3.9565l-.154-.0679.797 3.4787h-18.758l-3.029-23.7532-4.462 23.7532h-16.682l-4.221-23.5652-3.623 23.5652h-17.973l12.36-73.6321 15.25.0041 6.826 34.238 6.247-27.0254h15.591l9.927 53.5236 6.295-8.0254.616.7111c2.72 3.1484 6.642 4.8139 11.326 4.8139 2.455 0 7.525-1.193 7.525-4.8657 0-3.1966-3.544-4.4932-9.324-6.348-8.025-2.5641-19.011-6.0814-19.011-20.3239 0-13.2102 12.286-20.3365 23.853-20.3365 7.424 0 15.003 2.7164 20.789 7.4667l.588.4808-9.548 12.1188-.617-.5314c-3.51-3.0573-6.136-4.6116-10.76-4.6116-2.504 0-6.139 1.5031-6.139 4.2153 0 3.2526 3.534 4.5075 9.297 6.2849zm-133.024-6.8484c10.6401 3.2793 22.6929 6.9996 22.6929 24.0513 0 8.1278-3.0211 14.8239-8.736 19.3535-5.2096 4.1385-12.6615 6.4206-20.982 6.4206-2.7432 0-5.4227-.2369-8.0178-.6802-6.8317-1.293-13.8825-4.6491-22.3715-11.6546l9.6625-13.9278c2.2879 2.1767 9.6261 9.5678 19.9109 9.5678 4.354 0 11.2542-1.938 11.2542-7.6868 0-5.5304-6.0112-7.4518-12.9709-9.6773-10.6234-3.4055-22.6702-7.2608-22.6702-23.877 0-15.4606 14.5424-23.80027 28.2179-23.80027 8.3325 0 16.9863 2.91278 23.7496 7.98197l.6629.5011-9.7761 12.4038-.6426-.523c-3.8649-3.1812-7.4685-5.155-13.4083-5.155-3.8482 0-9.5262 2.2499-9.5262 7.0829 0 5.6155 6.0023 7.4703 12.9507 9.619zm152.129-14.6132h-.727l.002-3.3811h.813l.889 1.4299.888-1.4281.789.0012v3.3781l-.725.0011v-2.2808l-.932 1.4811-.061-.0036-.938-1.4828zm-3.217-2.7004-1.004-.0012v-.6789h2.788l-.003.6789-1.009.0042-.002 2.6974h-.768zm58.755 45.8754v20.1294h-9.557v15.1242h-19.723v-15.1242h-35.678c1.647-.8872 3.169-1.9274 4.538-3.1234 5.141-4.4986 7.858-10.8049 7.858-18.2431 0-8.6699-3.515-13.9581-8.008-17.3885l32.525-41.23764h18.488v59.86324zm-29.251-27.9453-19.922 27.9453h19.922z" fill-rule="evenodd"/><g clip-path="url(#a)"><path d="m138.499 127.339c.303.311.665.558 1.075.734s.855.264 1.33.264.903-.088 1.313-.264c.409-.176.772-.423 1.08-.734.309-.311.558-.675.737-1.092.178-.417.267-.864.267-1.345 0-.482-.089-.928-.267-1.345-.179-.417-.422-.781-.737-1.093-.314-.311-.671-.558-1.08-.734-.41-.176-.85-.264-1.313-.264s-.914.088-1.33.264c-.41.176-.772.423-1.075.734-.308.312-.546.676-.724 1.093s-.267.863-.267 1.345c0 .481.089.928.267 1.345s.422.781.724 1.092z"/><path d="m35.6251 145.827 205.9629-4.734-11.039-32.091-209.549-6.002zm143.6979-19.106c-.083-.141-.22-.258-.41-.358s-.433-.2-.736-.305c-.303-.106-.665-.241-1.099-.405-.421-.159-.801-.318-1.146-.488-.344-.17-.635-.364-.878-.593-.244-.229-.428-.505-.564-.822-.131-.317-.196-.711-.196-1.181s.101-.904.308-1.315c.208-.406.487-.764.844-1.069.356-.306.783-.552 1.27-.729.493-.176 1.028-.264 1.603-.264.576 0 1.087.065 1.527.194.439.129.807.276 1.116.429.344.188.647.393.902.628l-1.389 1.739c-.315-.347-.677-.588-1.081-.729s-.784-.194-1.14-.164c-.356.029-.653.141-.902.335-.25.193-.369.452-.369.775 0 .211.06.387.185.534.118.147.285.27.492.376.208.106.446.2.719.282s.57.17.885.264c.777.229 1.365.517 1.763.858.398.34.683.675.861.998.202.388.303.781.303 1.187 0 .687-.125 1.274-.38 1.75s-.576.869-.974 1.174c-.398.306-.837.523-1.33.658s-.974.206-1.449.206c-.665 0-1.241-.071-1.74-.206-.498-.135-.914-.288-1.247-.452-.391-.188-.724-.411-.997-.675l1.484-1.88c.256.241.505.417.76.541.256.123.487.205.707.252.214.047.404.071.57.071h.356c.072 0 .19-.012.357-.03.16-.023.326-.07.498-.147.167-.076.321-.188.452-.323.13-.135.196-.323.196-.563 0-.241-.042-.417-.125-.558zm-13.521-7.265h6.087l.635 2.191h-4.347v2.109h3.005v2.19h-3.005v2.267h4.585l-.636 2.191h-6.324zm-8.948 0 2.464 7.712 2.464-7.712h2.548l-3.842 10.948h-2.34l-3.859-10.948h2.559zm-8.444 0h2.375v8.681h3.967l-.647 2.267h-5.695zm-12.903 3.213c.303-.693.724-1.298 1.247-1.815s1.146-.922 1.859-1.221c.712-.3 1.472-.447 2.286-.447.813 0 1.555.147 2.268.447.712.299 1.336.704 1.864 1.221.529.517.951 1.122 1.259 1.815.303.693.458 1.439.458 2.226s-.155 1.533-.458 2.226c-.308.693-.724 1.298-1.259 1.815-.534.516-1.152.922-1.864 1.221-.713.3-1.467.447-2.268.447-.802 0-1.574-.147-2.286-.447-.713-.299-1.331-.705-1.859-1.221-.528-.517-.944-1.122-1.247-1.815-.309-.693-.457-1.439-.457-2.226s.154-1.533.457-2.226zm-11.704-3.213 1.693 6.02 1.247-6.02h2.149l1.265 6.02 1.674-6.02h2.5l-3.07 10.948h-2.137l-1.313-5.55-1.312 5.55h-2.132l-3.069-10.948h2.499zm-10.581 0h6.086l.636 2.191h-4.347v2.109h3.005v2.19h-3.005v2.267h4.584l-.635 2.191h-6.324zm-10.041 0h3.48c.486 0 .973.053 1.46.165.493.111.933.299 1.33.57.398.27.713.628.956 1.08.244.447.363 1.016.363 1.703 0 .353-.054.676-.167.964-.112.287-.261.54-.457.763s-.421.417-.689.587c-.261.165-.54.306-.837.423l3.26 4.693h-2.88l-2.719-4.299h-.725v4.299h-2.375zm-8.6991 0h6.0861l.636 2.191h-4.347v2.109h3.0046v2.19h-3.0046v2.267h4.584l-.635 2.191h-6.3241zm-12.0362 0 1.6923 6.02 1.247-6.02h2.1495l1.2648 6.02 1.6745-6.02h2.4998l-3.0699 10.948h-2.1376l-1.3123-5.55-1.3123 5.55h-2.1317l-3.0699-10.948h2.4998z"/><path d="m106.999 124.471c.219-.047.427-.129.623-.24.196-.112.362-.276.499-.476.136-.206.208-.464.208-.775 0-.312-.072-.558-.208-.734-.137-.177-.303-.312-.499-.4s-.404-.141-.623-.164c-.22-.024-.41-.03-.571-.03h-.866v2.896h.866c.161 0 .351-.024.571-.071z"/><path d="m230.549 109.003 11.039 32.085 26.405 1.891v-33.982h-37.45zm29.351 24.367s-.047.047-.077.071c-.048.041-.095.088-.149.129-.973.852-2.108 1.521-3.354 1.968-.238-1.034-.606-1.874-.666-2.05.41.352.612.534 1.129.622-1.342-1.855-.79-1.885-.992-2.971v-.018c-.012-.07-.03-.147-.053-.229-.024-.164-.054-.235-.048-.458-.059-1.545.398-1.903.463-2.032.107-.212.719-.928.719-.928l.029-.041c.084.088.089.199.185.317.059-.188.195-.576.201-.77.161.159.327.511.386.729.113-.276.137-.588.095-.881-.017-.118-.053-.247-.095-.382l-.012-.029c-.053-.182-.124-.353-.195-.5-.006-.017-.018-.035-.024-.047-.083-.152-.226-.281-.404-.446-.03-.029-.083-.023-.107.018-.101.211-.237.423-.445.569-.214.147-.683.641-.903.752-.018-.017.143-.37.143-.37.118-.223.261-.434.35-.675.071-.188.196-.611.279-.911.042-.158.054-.317.036-.481-.054-.523-.267-1.504-.547-1.557-.279-.052-.368.042-.469.1-.582.341-2.114 1.862-2.565 2.197-.035.017-.059.029-.083.035-.119-.065-.255-.129-.445-.147-.202-.058-.422-.053-.618.03l-.03.011c-.077.036-.148.065-.219.094-.309.124-.57.229-.802.341-.41.194-.73.405-1.045.787-.018.006-.036.012-.047.018-.024.005-.054.017-.078.023-.023.006-.047.012-.071.018-.03 0-.053.006-.083.011-.012 0-.024 0-.036 0h-.006c-.172 0-.368-.041-.671-.135-.421-.188-.771-.276-1.264-.422-.066-.018-.867-.453-.873-.365-.006.077.083.182.315.441.724.816.944.846 1.508 1.327-.659.194-2.102-.135-3.521-.194-.036 0-.078.141.065.253.332.264 1.87 1.133 2.155 1.362.493.37.879.594 1.455.787-.018.059-.03.212-.047.277-.048.199-.078.569-.125.822-.077.411-.629.845-.766.887.35-.018.475.035.76-.118l.018-.012c-.22.758-.695.764-1.598 1.486.386-.105.951-.135 1.259-.011-.285.082-.95.575-1.953.91-2.156-1.88-3.515-4.634-3.515-7.7 0-1.386.279-2.707.783-3.911 1.034-2.461 3.011-4.452 5.481-5.509.059-.024.119-.053.178-.077.03-.011.054-.023.083-.035 1.194-.476 2.494-.74 3.86-.74 5.392 0 9.815 4.064 10.326 9.262.006.082.018.159.024.235v.023c.018.247.035.494.035.746 0 2.966-1.27 5.633-3.301 7.506z"/><path d="m260.066 123.199c-.023-.123-.071-.241-.112-.382-.048.165-.09.294-.131.429-.048.176-.155.288-.339.329-.142.035-.273.082-.445.129.16.047.297.094.434.124.195.041.302.164.35.352.03.129.077.252.125.405.053-.17.101-.311.136-.452.042-.159.143-.253.297-.294.148-.041.297-.082.439-.129-.124-.053-.243-.094-.368-.123-.219-.047-.35-.171-.392-.394z"/><path d="m257.33 119.933c-.035-.176-.101-.347-.166-.564-.071.241-.13.435-.19.634-.071.259-.225.417-.493.482-.202.047-.403.117-.653.188.238.07.434.135.635.182.291.065.446.241.517.517.048.188.113.37.178.599.077-.253.143-.458.202-.664.059-.235.202-.37.434-.434.219-.059.433-.124.647-.188-.178-.077-.356-.135-.541-.176-.32-.071-.51-.253-.576-.576z"/><path d="m253.554 120.467c-.309.3-.737.482-1.212.464-.843-.029-1.538-.71-1.573-1.544-.03-.641.32-1.204.843-1.492.053-.03.03-.106-.024-.106h-.036c-.742 0-1.395.37-1.787.928-.012.018-.024.035-.041.059-.173.264-.285.569-.327.892-.018.118-.024.235-.018.359.012.37.125.716.309 1.022.071.111.148.217.237.317.03.029.054.059.084.088l.017.017s.054.047.078.071l.029.023s.048.042.072.059c.017.012.029.024.047.035.024.018.042.03.065.047.024.018.054.036.078.053.011.006.023.018.035.024.083.053.172.094.261.135.03.012.06.023.09.035.213.082.445.129.688.141 1.039.041 1.924-.64 2.185-1.58.018-.053-.053-.094-.095-.053z"/></g></g></svg>