<svg width="270" height="60" viewBox="0 0 270 60" fill="none" xmlns="http://www.w3.org/2000/svg">
<g clip-path="url(#clip0_3177_11522)">
<path fill-rule="evenodd" clip-rule="evenodd" d="M230.001 19.0524H225.143V47.218H230.001V30.8507C230.001 25.8187 234.397 22.0596 239.659 23.0433V18.4164C235.322 17.8383 231.852 19.8043 230.001 23.9102V19.0524ZM254.985 18.4743C246.831 18.4743 240.469 24.6625 240.469 33.1056C240.469 41.5504 246.831 47.7386 254.985 47.7386C263.141 47.7386 269.501 41.5504 269.501 33.1056C269.501 24.6625 263.141 18.4743 254.985 18.4743ZM254.985 43.3435C249.606 43.3435 245.327 39.0638 245.327 33.1056C245.327 27.1491 249.606 22.8694 254.985 22.8694C260.364 22.8694 264.644 27.1491 264.644 33.1056C264.644 39.0638 260.364 43.3435 254.985 43.3435ZM72.8242 6.73349V47.218H80.806V32.47H90.6383C98.5607 32.47 104.46 26.9762 104.46 19.5155C104.46 12.1118 98.7925 6.73349 90.9271 6.73349H72.8242ZM90.0597 25.6462H80.806V13.8479H90.0597C93.8768 13.8479 96.5372 16.2765 96.5372 19.7468C96.5372 23.2171 93.8768 25.6462 90.0597 25.6462ZM115.564 4.42072L108.219 6.73349V47.218H115.564V4.42072ZM133.434 47.6231C137.02 47.6231 140.259 46.2927 142.688 44.037V47.218H150.033V18.3593H142.688V21.539C140.374 19.2262 137.193 17.8962 133.724 17.8962C126.206 17.8962 119.381 24.1419 119.381 32.7592C119.381 41.3761 126.089 47.6231 133.434 47.6231ZM134.707 41.0298C130.254 41.0298 126.667 37.617 126.667 32.7592C126.667 27.901 130.254 24.4887 134.707 24.4887C139.218 24.4887 142.745 27.901 142.745 32.7592C142.745 37.617 139.218 41.0298 134.707 41.0298ZM184.271 18.3593H176.579L168.366 35.3622L159.98 18.3593H151.768L164.145 43.5739L155.874 60H163.856L184.271 18.3593ZM216.354 18.6517C216.354 14.315 213.115 11.3078 208.143 11.3078H198.312V26.227H208.143C213 26.227 216.354 23.0469 216.354 18.6517ZM208.143 6.73978C215.833 6.73978 221.385 11.8284 221.385 18.6517C221.385 25.533 215.833 30.6796 208.143 30.6796H198.312V47.218H193.223V6.73978H208.143ZM42.1536 35.218L39.7955 31.4535H32.9106L35.2723 27.6827H37.4477L34.8182 23.4848L27.4842 35.218H7.91795L12.6293 27.6827H9.17024L11.5216 23.912H26.6461L24.2929 27.6827H17.0797L14.7215 31.4535H25.3924L34.8182 16.3682L46.599 35.218H42.1536ZM16.2343 16.3682H31.7486L29.3905 20.1407H13.878L16.2343 16.3682ZM26.9865 0C12.0831 0 0 12.084 0 26.9879C0 41.8958 12.0831 53.9744 26.9865 53.9744C41.89 53.9744 53.9744 41.8958 53.9744 26.9879C53.9744 12.084 41.89 0 26.9865 0Z" fill="#FF4747"/>
</g>
<defs>
<clipPath id="clip0_3177_11522">
<rect width="270" height="60" fill="white"/>
</clipPath>
</defs>
</svg>
