<?xml version="1.0" encoding="UTF-8"?>
<svg width="501px" height="234px" viewBox="0 0 501 234" version="1.1" xmlns="http://www.w3.org/2000/svg" xmlns:xlink="http://www.w3.org/1999/xlink">
    <title>Group 61</title>
    <defs>
        <polygon id="path-1" points="0.29592437 0.225294118 87.4718487 0.225294118 87.4718487 1.8492437 0.29592437 1.8492437"></polygon>
        <polygon id="path-3" points="0 0.231764706 87.3356723 0.231764706 87.3356723 1.84941176 0 1.84941176"></polygon>
        <polygon id="path-5" points="0.420168067 0.210084034 0.630252101 0.210084034 0.630252101 0.420168067 0.420168067 0.420168067"></polygon>
        <polygon id="path-7" points="0.134537815 0.201722689 21.2610084 0.201722689 21.2610084 15.1260504 0.134537815 15.1260504"></polygon>
        <polygon id="path-9" points="0.420168067 232.653361 499.656723 232.653361 499.656723 0 0.420168067 0"></polygon>
    </defs>
    <g id="Production" stroke="none" stroke-width="1" fill="none" fill-rule="evenodd">
        <g id="command-and-conquer-remastered-keyart-1x1" transform="translate(-290.000000, -754.000000)">
            <g id="Group-61" transform="translate(290.000000, 754.000000)">
                <path d="M486.424748,110.323655 L486.428529,112.613571 L486.197437,112.613992 L486.192815,109.919874 L486.423908,109.919454 L487.639034,111.629958 L488.848697,109.914832 L489.07979,109.914412 L489.083571,112.60895 L488.853319,112.60937 L488.849538,110.319034 L487.716345,111.918193 L487.562563,111.919034 L486.424748,110.323655 Z M484.111303,112.617353 L484.107101,110.13458 L483.049538,110.137101 L483.048697,109.924916 L485.397017,109.921134 L485.397017,110.132899 L484.338613,110.13458 L484.342815,112.617353 L484.111303,112.617353 Z M327.838613,23.0186134 L332.97937,33.7488655 L323.324328,33.7648319 L327.838613,23.0186134 Z M319.881891,41.9589496 L336.950378,41.929958 L339.020966,46.2261765 L362.933151,46.185 L340.691975,11.7328992 L315.706261,11.7761765 L294.161303,46.3030672 L318.074748,46.2618908 L319.881891,41.9589496 Z M463.808782,123.648025 C463.349538,124.023655 462.718866,124.308109 461.923067,124.503487 C461.124748,124.699706 460.236092,124.828277 459.25416,124.889622 C458.273067,124.950966 457.260462,124.983739 456.217605,124.98542 L454.468866,124.987941 L454.459202,119.243824 L456.391975,119.240882 C457.495756,119.238782 458.539454,119.267773 459.521387,119.325336 C460.501218,119.38416 461.363403,119.517353 462.099118,119.724496 C462.835672,119.933319 463.418445,120.224076 463.849538,120.596765 C464.278529,120.970294 464.495336,121.486681 464.496597,122.144244 C464.497017,122.772395 464.268445,123.273655 463.808782,123.648025 L463.808782,123.648025 Z M479.133151,129.207269 C480.818866,128.727017 482.215924,128.140882 483.318025,127.451387 C484.421807,126.76021 485.232731,125.951807 485.752479,125.023235 C486.271387,124.096345 486.531891,122.989202 486.52937,121.701387 C486.525588,119.578697 485.75458,117.771134 484.220126,116.277017 C482.681891,114.785 480.594496,113.569454 477.955,112.631218 C475.314244,111.694244 472.244916,111.018613 468.748277,110.605588 C465.249958,110.192563 464.166765,109.985 460.241555,109.991564 L431.093235,110.041303 L431.152479,144.53542 L454.502059,144.495504 L454.48021,131.675336 L465.025168,144.477857 L491.293235,144.432479 L475.345336,130.100126 C476.741134,129.821975 478.019286,129.525336 479.133151,129.207269 L479.133151,129.207269 Z M186.990294,110.46021 L208.17937,110.424076 L208.238613,144.913571 L186.076429,144.951387 L165.699538,126.90895 L165.72979,144.986261 L144.286933,145.022815 L144.227269,110.533739 L166.476008,110.495084 L187.022227,129.30895 L186.990294,110.46021 Z M111.05416,133.398445 C108.893235,134.692983 106.063824,135.341723 102.569286,135.348071 C99.0734874,135.354328 96.242395,134.714832 94.0764286,133.427017 C91.910042,132.142143 90.8255882,130.450126 90.8222192,128.353908 C90.8205462,127.38542 91.0953361,126.474916 91.6495378,125.619034 C92.2016387,124.763992 92.9781092,124.004328 93.9764286,123.341303 C94.9726471,122.679538 96.1932353,122.16105 97.6352521,121.787101 C99.0760084,121.414412 100.712983,121.225756 102.544916,121.22236 C104.376849,121.219454 106.011723,121.402647 107.456681,121.770294 C108.898277,122.138782 110.120546,122.653908 111.119706,123.311891 C112.120966,123.971555 112.898277,124.728697 113.45542,125.581218 C114.010042,126.43542 114.289874,127.345924 114.291983,128.313571 C114.295336,130.41063 113.217185,132.105588 111.05416,133.398445 L111.05416,133.398445 Z M127.043235,114.35937 C123.90458,112.719874 120.226849,111.453067 116.008361,110.557269 C111.789874,109.66105 107.295756,109.216933 102.523908,109.225219 C97.7516387,109.233739 93.2579412,109.692983 89.0436555,110.603067 C84.8276891,111.513571 81.1541597,112.793403 78.0226471,114.443403 C74.8902941,116.092983 72.4104622,118.081218 70.5839916,120.406429 C68.7571008,122.731639 67.8457563,125.329538 67.8507775,128.200126 C67.8558403,131.13458 68.7760084,133.754328 70.6108824,136.056008 C72.444916,138.35895 74.9318908,140.314412 78.0692857,141.920714 C81.2062605,143.527857 84.8839916,144.756008 89.1033193,145.603067 C93.3209664,146.449706 97.8167647,146.869454 102.588613,146.861582 C107.360042,146.853067 111.853319,146.417773 116.068445,145.556429 C120.283151,144.695084 123.957941,143.455168 127.090294,141.836261 C130.221387,140.219454 132.702479,138.255588 134.528109,135.946345 C136.35584,133.638361 137.266765,131.015672 137.26216,128.080798 C137.256261,125.21063 136.336513,122.616092 134.501218,120.296345 C132.667185,117.978277 130.18021,115.998445 127.043235,114.35937 L127.043235,114.35937 Z M34.4264286,124.770294 C33.7533193,125.663992 33.4184454,126.632059 33.4209664,127.676176 C33.4222269,128.719874 33.7894538,129.695924 34.5243277,130.603908 C35.2583613,131.511891 36.2415546,132.292563 37.4739076,132.947185 C38.7062605,133.601807 40.1285294,134.121555 41.7419748,134.506008 C43.3541597,134.890042 45.0705462,135.081218 46.8869328,135.077857 C49.7016387,135.072815 52.2205462,134.749706 54.4491176,134.105168 C56.6751681,133.461891 58.7554202,132.600126 60.6881933,131.518193 L60.0087815,145.763151 C59.0117227,146.03416 57.7663445,146.263992 56.2730672,146.451387 C54.7776891,146.640042 53.2230672,146.801387 51.6117227,146.939622 C49.9991176,147.076176 48.4033193,147.171555 46.8205462,147.224916 C45.2373529,147.278277 43.9192857,147.305588 42.8638235,147.307375 C38.115084,147.315672 33.7016387,146.826597 29.6268487,145.840042 C25.549958,144.854748 21.9852521,143.497185 18.9348319,141.767353 C15.8823109,140.038782 13.4902941,138.006429 11.7571008,135.668193 C10.0234874,133.331639 9.15457983,130.798025 9.14952298,128.070714 C9.14533613,125.31063 10.0335714,122.707689 11.8188655,120.263151 C13.6016387,117.818613 16.0457563,115.693403 19.1507983,113.886261 C22.2545798,112.079958 25.9159244,110.650546 30.1356723,109.599706 C34.3554202,108.548866 38.8965966,108.018613 43.7634034,108.01007 C46.5192857,108.005168 49.2596218,108.136261 51.9860924,108.400546 C54.712563,108.665672 57.365084,109.047605 59.9465966,109.548445 L60.6747479,124.043403 C58.7386134,123.003067 56.5823109,122.105588 54.2071008,121.352227 C51.8310504,120.598866 49.2646639,120.223655 46.510042,120.228697 C44.6928151,120.232059 42.9928151,120.429118 41.4108824,120.818193 C39.8285294,121.207689 38.4360924,121.741723 37.2373529,122.416513 C36.0352521,123.091723 35.0982773,123.877017 34.4264286,124.770294 L34.4264286,124.770294 Z M148.964664,46.5480252 L127.515924,46.585 L137.33063,12.0841597 L160.15458,12.0455042 L168.850798,32.7971849 L177.476008,12.0156723 L200.299538,11.9765966 L210.232311,46.442563 L188.784412,46.479958 L185.23063,25.435 L175.592395,46.5022269 L175.10584,46.5026471 L162.642815,46.5244958 L162.157101,46.5253361 L152.446176,25.4913025 L148.964664,46.5480252 Z M81.0533193,27.1736555 C81.6062605,26.3190336 82.3823109,25.5593697 83.3802101,24.8959244 C84.3772689,24.2345798 85.597437,23.7152521 87.0390336,23.3417227 C88.4806303,22.9698739 90.1171849,22.7803782 91.9486975,22.7778117 C93.7802101,22.7744958 95.4159244,22.9576891 96.860042,23.324916 C98.3028992,23.6938235 99.5247479,24.2089496 100.524748,24.8660924 C101.524748,25.5265966 102.302059,26.2833193 102.859622,27.1366807 C103.414664,27.9904622 103.694076,28.9001261 103.695764,29.8690336 C103.699118,31.9656723 102.620966,33.6602101 100.458782,34.9526471 C98.2970168,36.2471849 95.467605,36.8967647 91.9730672,36.9031074 C88.4776891,36.9089496 85.6461765,36.2694538 83.4806303,34.982479 C81.3142437,33.6963445 80.2297899,32.0055882 80.2260008,29.9085294 C80.2243277,28.9408824 80.499958,28.0295378 81.0533193,27.1736555 L81.0533193,27.1736555 Z M67.4739076,43.474916 C70.6108824,45.0833193 74.2886134,46.3102101 78.5079412,47.1576891 C82.7251681,48.0043277 87.2205462,48.4244958 91.992395,48.4158084 C96.7642437,48.4076891 101.257521,47.972395 105.472647,47.1114706 C109.687773,46.2497059 113.360882,45.0097899 116.494076,43.3913025 C119.626008,41.7744958 122.106261,39.8102101 123.933151,37.5013866 C125.759622,35.1929832 126.671387,32.5702941 126.666365,29.6362605 C126.661303,26.7656723 125.740714,24.1711345 123.90542,21.8518067 C122.071387,19.5328992 119.584412,17.5534874 116.447437,15.9148319 C113.308782,14.274916 109.63105,13.0081092 105.412563,12.1118908 C101.194916,11.2160924 96.6995378,10.7719748 91.9276891,10.7802611 C87.1562605,10.7887815 82.6621429,11.247605 78.4478571,12.1581092 C74.2318908,13.0681933 70.5579412,14.3480252 67.4268487,15.9984454 C64.294916,17.6484454 61.8142437,19.6362605 59.9881933,21.9606303 C58.1608824,24.2866807 57.249958,26.8845798 57.2553957,29.7551681 C57.260042,32.6892017 58.1802101,35.3089496 60.015084,37.6106303 C61.8495378,39.9131513 64.3365126,41.8690336 67.4739076,43.474916 L67.4739076,43.474916 Z M11.355,43.3173529 C8.30289916,41.5883613 5.91046218,39.5560084 4.17726891,37.2181933 C2.44407563,34.8812185 1.5747479,32.3480252 1.57052487,29.6207143 C1.5655042,26.8602101 2.4537395,24.2572689 4.23903361,21.8127311 C6.02180672,19.3677731 8.4655042,17.2429832 11.5705462,15.4354202 C14.6751681,13.6291176 18.3360924,12.2001261 22.5562605,11.1492857 C26.7755882,10.0984454 31.3163445,9.56861345 36.1835714,9.56006872 C38.9390336,9.55516807 41.6797899,9.685 44.4066807,9.94970588 C47.1327311,10.2152521 49.7848319,10.5971849 52.3671849,11.097605 L53.094916,25.592563 C51.1592017,24.5530672 49.002479,23.6551681 46.6268487,22.9018067 C44.2512185,22.1480252 41.6848319,21.7736555 38.9306303,21.7782773 C37.1129832,21.7816387 35.4129832,21.9782773 33.8318908,22.3681933 C32.2486975,22.7581092 30.8558403,23.2913025 29.6571008,23.9656723 C28.4554202,24.6417227 27.5188655,25.4261765 26.8461765,26.3194538 C26.1730672,27.2131513 25.8390336,28.1820588 25.8407143,29.2257563 C25.842395,30.2694538 26.210042,31.2455042 26.9444958,32.1539076 C27.6785294,33.0614706 28.6621429,33.842563 29.8944958,34.4963445 C31.1264286,35.1513866 32.5482773,35.6711345 34.1621429,36.0551681 C35.7743277,36.440042 37.4902941,36.6303782 39.3071008,36.627437 C42.1218067,36.622395 44.6402941,36.2988655 46.8688655,35.6543277 C49.094916,35.0123109 51.1751681,34.1492857 53.1079412,33.0681933 L52.4289496,47.3127311 C51.4323109,47.5841597 50.1869328,47.8144118 48.6932353,48.0009664 C47.1978571,48.1887815 45.6432353,48.3513866 44.0323109,48.4887815 C42.4201261,48.6257563 40.8234874,48.7219748 39.2402941,48.774916 C37.657521,48.8282773 36.3398739,48.8555882 35.2839916,48.8569552 C30.5348319,48.8652521 26.1218067,48.3761765 22.0470168,47.3896218 C17.9697059,46.4043277 14.4054202,45.0471849 11.355,43.3173529 L11.355,43.3173529 Z M475.065084,32.0837395 C474.384412,32.8946639 473.457521,33.5690336 472.287353,34.1051681 C471.114244,34.6417227 469.723067,35.035 468.114664,35.2803782 C466.505,35.5282773 464.773487,35.6539076 462.918866,35.6572689 L461.527269,35.6593697 L461.50458,22.2770168 L462.895756,22.2748537 C466.987353,22.2681933 470.207101,22.8055882 472.55584,23.8854202 C474.902479,24.9665126 476.078529,26.7286975 476.082741,29.172395 C476.084832,30.3034874 475.745756,31.2732353 475.065084,32.0837395 L475.065084,32.0837395 Z M495.669286,21.0497059 C493.783151,18.8076891 491.202059,16.9711345 487.926429,15.5408824 C484.649958,14.1114706 480.787773,13.0711345 476.340714,12.4219748 C471.891975,11.7728151 467.078529,11.4526471 461.895756,11.4608892 L439.063403,11.4997059 L439.122647,46.0543277 L467.518866,46.0051681 C472.047017,45.997605 476.206261,45.6013866 479.997017,44.8156723 C483.787773,44.0295378 487.059202,42.9022269 489.812563,41.4312185 C492.563403,39.9593697 494.703319,38.1904622 496.227269,36.1261765 C497.750378,34.0610504 498.510882,31.7459244 498.506281,29.1795378 C498.500378,26.0026471 497.55542,23.2929832 495.669286,21.0497059 L495.669286,21.0497059 Z M389.20458,46.1396218 L367.761723,46.1761765 L367.702479,11.6866807 L389.951218,11.6484454 L410.497857,30.4627311 L410.465504,11.6135714 L431.65458,11.5770168 L431.714244,46.0669328 L409.551639,46.1047479 L389.174328,28.0623109 L389.20458,46.1396218 Z M369.744496,110.039622 L422.462143,109.949286 L422.477269,119.022395 L395.162983,119.069034 L395.167605,122.36021 L422.483151,122.313571 L422.497857,130.946345 L395.182731,130.992983 L395.188613,134.252227 L422.449538,134.205588 L422.467185,144.43416 L369.803739,144.523655 L369.744496,110.039622 Z M335.895336,110.098025 L361.113403,110.054328 L361.151236,131.751387 C361.15542,134.266092 360.391975,136.433739 358.862143,138.256008 C357.32937,140.075336 355.169706,141.587521 352.38063,142.788782 C349.589874,143.991303 346.217185,144.883319 342.260462,145.465252 C338.305,146.047605 333.901218,146.342983 329.05458,146.351552 C324.207521,146.35937 319.80458,146.079118 315.846176,145.51021 C311.888193,144.942983 308.510882,144.061891 305.718025,142.869034 C302.923067,141.677437 300.757941,140.172815 299.221387,138.358529 C297.683571,136.540882 296.912983,134.376597 296.908782,131.86105 L296.871387,110.164832 L322.090714,110.121975 L322.126008,130.636261 C322.126849,131.302647 322.173067,131.939202 322.266765,132.545084 C322.360042,133.151387 322.620966,133.687521 323.051639,134.157269 C323.48063,134.626176 324.172647,134.995924 325.124748,135.266933 C326.075168,135.539622 327.38021,135.672815 329.036092,135.669874 C330.693655,135.667353 331.996597,135.529118 332.947437,135.253487 C333.897437,134.979958 334.587353,134.607689 335.016345,134.136681 C335.443235,133.666513 335.705,133.128697 335.796597,132.521975 C335.886933,131.915672 335.931891,131.279118 335.93063,130.612311 L335.895336,110.098025 Z M251.416345,133.758134 C244.086513,133.770714 238.137353,129.041723 238.126836,123.196345 C238.116765,117.350966 244.050798,112.600126 251.38063,112.587916 C258.708782,112.575336 264.659202,117.305168 264.669298,123.150966 C264.67895,128.996345 258.744916,133.745504 251.416345,133.758134 L251.416345,133.758134 Z M260.115924,96.2883613 C272.468866,96.2194538 284.308782,96.2854202 284.308782,96.2854202 L284.28021,79.1467647 L457.420126,75.7522269 L269.793655,72.2207143 L269.821387,88.9026471 C269.821387,88.9026471 247.53021,88.9404622 246.136092,88.9434034 C244.743235,88.9455042 233.463824,88.5497059 242.90542,82.5534874 C245.669706,80.9089496 251.791134,76.8938235 259.193235,77.2997059 C241.25458,70.9917227 239.510882,66.290042 250.264664,66.3198739 C270.60458,66.3761765 272.391975,66.3160924 272.391975,66.3160924 L268.895336,59.9555882 L254.815084,59.979958 L268.452479,19.6152521 L271.467185,51.8118908 L291.983151,51.7770168 L282.294916,0.00012605042 L260.694916,0.0375210084 L251.142395,49.7446639 L244.051218,0.0656722689 L222.219706,0.103487395 L212.863403,51.9123109 L233.37895,51.8770168 L236.517605,19.6702941 L248.331891,59.9913025 L242.139874,60.0013866 C242.139874,60.0013866 214.582311,58.7106303 225.037353,72.4081092 L42.8163445,76.4623109 L223.586513,79.3866807 C221.110882,80.6820588 218.927689,82.9089496 218.939454,87.0438235 C218.966765,96.197605 228.144496,96.7711345 242.210882,96.5194538 C226.208361,99.6446639 214.420126,110.382059 214.441555,123.129958 C214.467185,138.300966 231.203739,150.569454 251.825588,150.53458 C252.523487,150.532899 253.216345,150.516513 253.905,150.487521 L266.934832,168.432059 L261.735252,149.532899 C277.538193,146.30895 289.137353,135.646765 289.115924,123.001807 C289.093655,109.953908 276.703319,99.0593697 260.115924,96.2883613 L260.115924,96.2883613 Z" id="Fill-1" fill="#FFFFFF"></path>
                <polygon id="Fill-3" fill="#FFFFFF" points="91.980084 196.932017 69.9242017 197.141681 57.1784034 197.293782 44.4334454 197.496303 57.1784034 197.697983 69.9242017 197.850924 91.980084 198.060168"></polygon>
                <polygon id="Fill-5" fill="#FFFFFF" points="442.898361 197.292689 430.152983 197.139748 408.096681 196.928824 408.096681 198.064118 430.152983 197.853193 442.898361 197.698992 455.643319 197.49605"></polygon>
                <g id="Group-9" transform="translate(412.184874, 207.863445)">
                    <mask id="mask-2" fill="white">
                        <use xlink:href="#path-1"></use>
                    </mask>
                    <g id="Clip-8"></g>
                    <polygon id="Fill-7" fill="#FFFFFF" mask="url(#mask-2)" points="71.9753361 0.833697479 56.4791176 0.680756303 25.487521 0.377394958 0.29592437 0.225294118 0.29592437 1.8492437 25.487521 1.69714286 56.4791176 1.39336134 71.9753361 1.24 87.4719748 1.03705882"></polygon>
                </g>
                <g id="Group-12" transform="translate(0.420168, 207.863445)">
                    <mask id="mask-4" fill="white">
                        <use xlink:href="#path-3"></use>
                    </mask>
                    <g id="Clip-11"></g>
                    <polygon id="Fill-10" fill="#FFFFFF" mask="url(#mask-4)" points="87.3356723 0.231764706 61.9848319 0.384285714 30.9919748 0.685966387 15.4957563 0.838067227 -4.20168067e-05 1.04058824 15.4957563 1.24226891 30.9919748 1.39521008 61.9848319 1.69563025 87.3356723 1.84941176"></polygon>
                </g>
                <g id="Group-15" transform="translate(0.000000, 232.233193)">
                    <mask id="mask-6" fill="white">
                        <use xlink:href="#path-5"></use>
                    </mask>
                    <g id="Clip-14"></g>
                    <path d="" id="Fill-13" fill="#FFFFFF" mask="url(#mask-6)"></path>
                </g>
                <polygon id="Fill-16" fill="#FFFFFF" points="250.151639 197.315252 250.036092 197.091303 249.925168 197.315252"></polygon>
                <path d="M110.101891,197.636555 L120.038025,197.636555 C121.92458,197.636555 122.684244,196.735714 122.684244,195.581513 L122.684244,195.553782 C122.684244,194.456303 121.952731,193.526891 120.038025,193.526891 L110.101891,193.526891 L110.101891,197.636555 Z M110.101891,209.712605 L103.543487,209.712605 L103.543487,188.769748 L120.432563,188.769748 C127.413235,188.769748 129.525,191.190756 129.525,194.202521 L129.525,194.540336 C129.525,197.552521 127.019538,198.678151 125.639706,199.128992 C127.779622,199.747899 129.609034,201.239496 129.609034,203.942017 L129.609034,207.010504 C129.609034,208.69916 129.806092,209.234454 130.002731,209.571849 L130.002731,209.712605 L123.331723,209.712605 C123.134664,209.459244 123.022479,209.14958 123.022479,208.389496 L123.022479,205.968908 C123.022479,203.407143 121.896008,202.281092 118.659034,202.281092 L110.101891,202.281092 L110.101891,209.712605 Z" id="Fill-18" fill="#FFFFFF"></path>
                <polygon id="Fill-20" fill="#FFFFFF" points="155.814454 188.769916 155.814454 193.526639 140.220336 193.526639 140.220336 196.623277 155.448487 196.623277 155.448487 201.408571 140.220336 201.408571 140.220336 204.842605 156.095966 204.842605 156.095966 209.712773 133.745966 209.712773 133.745966 188.769916"></polygon>
                <polygon id="Fill-22" fill="#FFFFFF" points="160.373109 188.769916 169.690756 188.769916 176.92479 201.803109 184.186975 188.769916 193.166807 188.769916 193.166807 209.712773 186.692437 209.712773 186.692437 195.216134 178.444958 209.712773 174.92605 209.712773 166.678571 195.216134 166.678571 209.712773 160.373109 209.712773"></polygon>
                <path d="M210.646387,193.301933 L206.761513,201.155294 L214.699328,201.155294 L210.646387,193.301933 Z M217.119916,205.883866 L204.424958,205.883866 L202.539244,209.712857 L195.867815,209.712857 L206.452269,188.77 L214.953109,188.77 L226.15605,209.712857 L219.090924,209.712857 L217.119916,205.883866 Z" id="Fill-24" fill="#FFFFFF"></path>
                <path d="M239.272815,210.078697 C228.294244,210.078697 227.027437,205.349286 227.027437,202.590882 L227.027437,202.280798 L233.868193,202.280798 C233.952227,203.548025 234.68416,205.603067 240.088361,205.603067 L240.482899,205.603067 C246.000126,205.603067 246.619034,204.504748 246.619034,203.379538 C246.619034,202.169034 245.971975,201.408529 241.130378,201.268193 L237.527437,201.183319 C229.702227,200.958529 227.30937,198.312311 227.30937,195.047185 L227.30937,194.793824 C227.30937,191.669874 229.167353,188.403908 238.70937,188.403908 L240.651807,188.403908 C250.55979,188.403908 252.812311,191.866513 252.812311,195.019034 L252.812311,195.300546 L246.000126,195.300546 C245.85937,194.512311 245.436681,192.795084 239.947605,192.795084 L239.497605,192.795084 C234.430798,192.795084 234.064832,193.695924 234.064832,194.596765 C234.064832,195.497605 234.627437,196.313992 238.906429,196.398025 L242.425336,196.454328 C250.306849,196.595084 253.487941,198.50937 253.487941,202.675756 L253.487941,203.069454 C253.487941,206.532059 251.742143,210.078697 241.214832,210.078697 L239.272815,210.078697 Z" id="Fill-26" fill="#FFFFFF"></path>
                <polygon id="Fill-28" fill="#FFFFFF" points="264.83084 193.724538 255.823277 193.724538 255.823277 188.769916 280.481261 188.769916 280.481261 193.724538 271.445546 193.724538 271.445546 209.712773 264.83084 209.712773"></polygon>
                <polygon id="Fill-30" fill="#FFFFFF" points="306.490252 188.769916 306.490252 193.526639 290.896134 193.526639 290.896134 196.623277 306.123866 196.623277 306.123866 201.408571 290.896134 201.408571 290.896134 204.842605 306.771345 204.842605 306.771345 209.712773 284.421765 209.712773 284.421765 188.769916"></polygon>
                <path d="M317.607059,197.636555 L327.543193,197.636555 C329.429748,197.636555 330.188992,196.735714 330.188992,195.581513 L330.188992,195.553782 C330.188992,194.456303 329.457479,193.526891 327.543193,193.526891 L317.607059,193.526891 L317.607059,197.636555 Z M317.607059,209.712605 L311.048655,209.712605 L311.048655,188.769748 L327.937311,188.769748 C334.918403,188.769748 337.029748,191.190756 337.029748,194.202521 L337.029748,194.540336 C337.029748,197.552521 334.524706,198.678151 333.144874,199.128992 C335.28437,199.747899 337.114202,201.239496 337.114202,203.942017 L337.114202,207.010504 C337.114202,208.69916 337.311261,209.234454 337.507899,209.571849 L337.507899,209.712605 L330.836471,209.712605 C330.639832,209.459244 330.527227,209.14958 330.527227,208.389496 L330.527227,205.968908 C330.527227,203.407143 329.401176,202.281092 326.164202,202.281092 L317.607059,202.281092 L317.607059,209.712605 Z" id="Fill-32" fill="#FFFFFF"></path>
                <polygon id="Fill-34" fill="#FFFFFF" points="363.319622 188.769916 363.319622 193.526639 347.725504 193.526639 347.725504 196.623277 362.953235 196.623277 362.953235 201.408571 347.725504 201.408571 347.725504 204.842605 363.600714 204.842605 363.600714 209.712773 341.251134 209.712773 341.251134 188.769916"></polygon>
                <path d="M374.436849,204.67395 L381.249034,204.67395 C388.679706,204.67395 389.66542,201.408824 389.66542,199.269748 L389.66542,199.10042 C389.66542,196.961345 388.792731,193.72437 381.249034,193.72437 L374.436849,193.72437 L374.436849,204.67395 Z M367.878445,188.769748 L381.755756,188.769748 C393.887689,188.769748 396.533487,193.977311 396.533487,198.677731 L396.533487,199.522689 C396.533487,204.026891 394.028445,209.712605 381.783487,209.712605 L367.878445,209.712605 L367.878445,188.769748 Z" id="Fill-36" fill="#FFFFFF"></path>
                <polygon id="Fill-38" fill="#FFFFFF" points="442.898361 218.347857 430.152983 218.194496 353.610966 217.98063 353.610966 219.120966 430.152983 218.907521 442.898361 218.75416 455.643319 218.550798"></polygon>
                <polygon id="Fill-40" fill="#FFFFFF" points="143.980798 217.98063 69.9244958 218.187773 57.1786975 218.340714 44.4333193 218.542815 57.1786975 218.744076 69.9244958 218.897437 143.980798 219.10458"></polygon>
                <path d="M164.92521,232.653277 C156.571429,232.653277 155.272689,227.982269 155.272689,225.423445 L155.272689,224.861681 C155.272689,222.245294 156.396639,217.728908 164.92521,217.728908 L165.720168,217.728908 C174.073109,217.728908 175.371849,221.721765 175.371849,223.407899 L175.371849,223.621345 L170.584454,223.621345 C170.468067,223.233529 169.886975,221.217983 165.312605,221.217983 C160.990756,221.217983 160.002101,223.155798 160.002101,224.958739 L160.002101,225.191092 C160.002101,226.896975 161.145378,229.144874 165.351681,229.144874 C170.022689,229.144874 170.487395,226.916303 170.604202,226.586891 L175.391176,226.586891 L175.391176,226.799916 C175.391176,228.621765 173.957143,232.653277 165.720168,232.653277 L164.92521,232.653277 Z" id="Fill-42" fill="#FFFFFF"></path>
                <g id="Group-46" transform="translate(177.310924, 217.527311)">
                    <mask id="mask-8" fill="white">
                        <use xlink:href="#path-7"></use>
                    </mask>
                    <g id="Clip-45"></g>
                    <path d="M16.5315966,7.47021008 C16.5315966,5.82273109 15.5815966,3.69079832 10.697563,3.69079832 C5.73579832,3.69079832 4.86352941,5.82273109 4.86352941,7.47021008 L4.86352941,7.70256303 C4.86352941,9.35004202 5.81352941,11.6176891 10.697563,11.6176891 C15.5433613,11.6176891 16.5315966,9.40802521 16.5315966,7.74163866 L16.5315966,7.47021008 Z M11.1244538,0.201722689 C20.195042,0.201722689 21.2610084,4.75676471 21.2610084,7.3344958 L21.2610084,7.9160084 C21.2610084,10.455084 20.2143697,15.1260924 11.1244538,15.1260924 L10.2904202,15.1260924 C1.16184874,15.1260924 0.134537815,10.455084 0.134537815,7.9160084 L0.134537815,7.3344958 C0.134537815,4.75676471 1.16184874,0.201722689 10.2904202,0.201722689 L11.1244538,0.201722689 Z" id="Fill-44" fill="#FFFFFF" mask="url(#mask-8)"></path>
                </g>
                <polygon id="Fill-47" fill="#FFFFFF" points="205.781218 217.98063 205.781218 228.815504 215.801807 228.815504 215.801807 232.401218 201.265252 232.401218 201.265252 217.98063"></polygon>
                <polygon id="Fill-49" fill="#FFFFFF" points="223.050378 217.98063 223.050378 228.815504 233.070966 228.815504 233.070966 232.401218 218.534412 232.401218 218.534412 217.98063"></polygon>
                <polygon id="Fill-51" fill="#FFFFFF" points="250.998529 217.98063 250.998529 221.256681 240.260714 221.256681 240.260714 223.388613 250.746008 223.388613 250.746008 226.683571 240.260714 226.683571 240.260714 229.048277 251.192227 229.048277 251.192227 232.401218 235.802731 232.401218 235.802731 217.98063"></polygon>
                <path d="M263.169874,232.653277 C254.816092,232.653277 253.517353,227.982269 253.517353,225.423445 L253.517353,224.861681 C253.517353,222.245294 254.641723,217.728908 263.169874,217.728908 L263.964832,217.728908 C272.317773,217.728908 273.616513,221.721765 273.616513,223.407899 L273.616513,223.621345 L268.829538,223.621345 C268.713151,223.233529 268.132059,221.217983 263.557269,221.217983 C259.23542,221.217983 258.246765,223.155798 258.246765,224.958739 L258.246765,225.191092 C258.246765,226.896975 259.390042,229.144874 263.596345,229.144874 C268.267353,229.144874 268.732059,226.916303 268.848866,226.586891 L273.636261,226.586891 L273.636261,226.799916 C273.636261,228.621765 272.201807,232.653277 263.964832,232.653277 L263.169874,232.653277 Z" id="Fill-53" fill="#FFFFFF"></path>
                <polygon id="Fill-55" fill="#FFFFFF" points="281.582605 221.392437 275.380084 221.392437 275.380084 217.980672 292.358655 217.980672 292.358655 221.392437 286.137227 221.392437 286.137227 232.401261 281.582605 232.401261"></polygon>
                <mask id="mask-10" fill="white">
                    <use xlink:href="#path-9"></use>
                </mask>
                <g id="Clip-58"></g>
                <polygon id="Fill-57" fill="#FFFFFF" mask="url(#mask-10)" points="295.071429 232.401261 299.587395 232.401261 299.587395 217.980672 295.071429 217.980672"></polygon>
                <path d="M318.678025,224.997521 C318.678025,223.350042 317.728025,221.218109 312.843571,221.218109 C307.882227,221.218109 307.009538,223.350042 307.009538,224.997521 L307.009538,225.229874 C307.009538,226.877353 307.959538,229.145 312.843571,229.145 C317.68937,229.145 318.678025,226.935336 318.678025,225.26895 L318.678025,224.997521 Z M313.270462,217.729034 C322.34105,217.729034 323.407017,222.284076 323.407017,224.861807 L323.407017,225.443319 C323.407017,227.982395 322.360378,232.653403 313.270462,232.653403 L312.436849,232.653403 C303.307857,232.653403 302.280546,227.982395 302.280546,225.443319 L302.280546,224.861807 C302.280546,222.284076 303.307857,217.729034 312.436849,217.729034 L313.270462,217.729034 Z" id="Fill-59" fill="#FFFFFF" mask="url(#mask-10)"></path>
                <polygon id="Fill-60" fill="#FFFFFF" mask="url(#mask-10)" points="331.139874 217.98063 340.346176 227.051639 340.346176 217.98063 344.80416 217.98063 344.80416 232.401218 340.346176 232.401218 330.558361 222.845756 330.558361 232.401218 326.100378 232.401218 326.100378 217.98063"></polygon>
            </g>
        </g>
    </g>
</svg>