<svg xmlns="http://www.w3.org/2000/svg" xmlns:xlink="http://www.w3.org/1999/xlink" viewBox="0 0 415.05 189.45"><defs><style>.cls-1{fill:none;}.cls-2{clip-path:url(#clip-path);}.cls-3{fill:#fff;}</style><clipPath id="clip-path" transform="translate(-752 -445.27)"><rect class="cls-1" width="1920" height="1080"/></clipPath></defs><g id="Layer_2" data-name="Layer 2"><g id="Layer_3" data-name="Layer 3"><g class="cls-2"><path class="cls-3" d="M752,528.6v16.71c0,5,2.54,7,8.65,7h33.8v-6.63H765.77q-1.71,0-1.71-1.53v-3.81h30.42v-6.64H764.06v-3.81c0-1,.57-1.52,1.71-1.52h28.71v-6.66h-33.8c-6.11,0-8.65,2-8.65,6.94m364.32-6.93v6.65h17.36v23.94h12V528.32h17.36v-6.65Zm-67.63,6.93v16.71c0,5,2.54,7,8.65,7h33.81v-6.63h-28.72c-1.14,0-1.7-.51-1.7-1.53V529.84c0-1,.56-1.52,1.7-1.52h28.72v-6.66h-33.81c-6.11,0-8.65,2-8.65,6.94m-222.51,0v23.66h12v-12h30.42v-6.64H838.24v-3.81c0-1,.57-1.52,1.71-1.52h28.71v-6.66h-33.8c-6.11,0-8.65,2-8.65,6.94m74.16,0v23.66h12v-12h30.42v-6.64H912.41v-3.81c0-1,.57-1.52,1.71-1.52h28.71v-6.66H909c-6.11,0-8.66,2-8.66,6.94m74.17,0v16.71c0,5,2.55,7,8.65,7H1017v-6.63H988.28q-1.71,0-1.71-1.53v-3.81H1017v-6.64H986.57v-3.81c0-1,.57-1.52,1.71-1.52H1017v-6.66H983.19c-6.1,0-8.65,2-8.65,6.94" transform="translate(-752 -445.27)"/><path class="cls-3" d="M916.38,470.11l3.87-6.65,3.41,5.85q12-1.24,24.4-2.11l-13.94-21.92H906.38l-18.19,28.61q13.74-2.13,28.19-3.78" transform="translate(-752 -445.27)"/><path class="cls-3" d="M777.74,499.51l-1.16-25.75,12,22.52c14.51-4.24,29.94-8.35,46.32-12.12l5.53-10.4L840,483q12.15-2.72,25-5.13v-32.6H831l-22.55,43.54-22.55-43.54H752v62.47c8.21-2.73,16.79-5.5,25.74-8.23" transform="translate(-752 -445.27)"/><path class="cls-3" d="M998.1,465.46c.52-2.88,5.29-3.54,9.35-3.6h56.6V445.28h-57.94c-15,0-34.09,3.18-34.12,20.67,8.55-.31,17.24-.49,26.11-.49" transform="translate(-752 -445.27)"/><path class="cls-3" d="M1097.13,465.46c.52-2.88,5.29-3.54,9.34-3.6h56.61V445.28h-57.94c-14.87,0-33.72,3.13-34.1,20.18Z" transform="translate(-752 -445.27)"/><path class="cls-3" d="M1133.29,470.13h-26.82l-.59,0h-34.46c2.77,13.8,19.66,16.55,33.37,16.6h26.81c4.3.06,9.4.78,9.4,4.12s-5.1,4.08-9.4,4.14H1075v16.57h57.94c15,0,34.12-3.18,34.12-20.71,0-17.38-18.8-20.65-33.77-20.71" transform="translate(-752 -445.27)"/><path class="cls-3" d="M789.82,498.67l6.85,12.88h23.64l12.76-24c-15.51,3.49-29.85,7.28-43.25,11.13" transform="translate(-752 -445.27)"/><path class="cls-3" d="M1034.26,470.13l-36.08,0q-13.23,0-25.72.38c3,13.47,19.72,16.17,33.3,16.22h26.82c4.29.06,9.39.78,9.39,4.12s-5.1,4.08-9.39,4.14H976v16.13l-25.25-39.72q-12.79.71-24.82,1.77l4.09,7H910.51l3.42-5.89q-14.65,1.53-28.23,3.51L865,510.42V481.14q-13.07,2.3-25.13,4.91l-1.14,25.51h53.56l8.6-14.77h38.79l8.59,14.77h85.67c15,0,34.12-3.18,34.12-20.71,0-17.38-18.8-20.65-33.77-20.71" transform="translate(-752 -445.27)"/><polygon class="cls-3" points="404.33 106.98 403.38 106.98 403.38 103.4 401.98 103.4 401.98 102.64 405.74 102.64 405.74 103.4 404.33 103.4 404.33 106.98"/><polygon class="cls-3" points="409.74 102.63 408.63 105.96 408.63 105.96 408.63 105.96 407.52 102.63 406.18 102.63 406.18 106.98 407.08 106.98 407.01 103.6 408.12 106.98 409.14 106.98 410.25 103.6 410.18 106.98 411.08 106.98 411.08 102.63 409.74 102.63"/><path class="cls-3" d="M752,528.6v16.71c0,5,2.54,7,8.65,7h33.8v-6.63H765.77q-1.71,0-1.71-1.53v-3.81h30.42v-6.64H764.06v-3.81c0-1,.57-1.52,1.71-1.52h28.71v-6.66h-33.8c-6.11,0-8.65,2-8.65,6.94m364.32-6.93v6.65h17.36v23.94h12V528.32h17.36v-6.65Zm-67.63,6.93v16.71c0,5,2.54,7,8.65,7h33.81v-6.63h-28.72c-1.14,0-1.7-.51-1.7-1.53V529.84c0-1,.56-1.52,1.7-1.52h28.72v-6.66h-33.81c-6.11,0-8.65,2-8.65,6.94m-222.51,0v23.66h12v-12h30.42v-6.64H838.24v-3.81c0-1,.57-1.52,1.71-1.52h28.71v-6.66h-33.8c-6.11,0-8.65,2-8.65,6.94m74.16,0v23.66h12v-12h30.42v-6.64H912.41v-3.81c0-1,.57-1.52,1.71-1.52h28.71v-6.66H909c-6.11,0-8.66,2-8.66,6.94m74.17,0v16.71c0,5,2.55,7,8.65,7H1017v-6.63H988.28q-1.71,0-1.71-1.53v-3.81H1017v-6.64H986.57v-3.81c0-1,.57-1.52,1.71-1.52H1017v-6.66H983.19c-6.1,0-8.65,2-8.65,6.94" transform="translate(-752 -445.27)"/><path class="cls-3" d="M916.38,470.11l3.87-6.65,3.41,5.85q12-1.24,24.4-2.11l-13.94-21.92H906.38l-18.19,28.61q13.74-2.13,28.19-3.78" transform="translate(-752 -445.27)"/><path class="cls-3" d="M777.74,499.51l-1.16-25.75,12,22.52c14.51-4.24,29.94-8.35,46.32-12.12l5.53-10.4L840,483q12.15-2.72,25-5.13v-32.6H831l-22.55,43.54-22.55-43.54H752v62.47c8.21-2.73,16.79-5.5,25.74-8.23" transform="translate(-752 -445.27)"/><path class="cls-3" d="M998.1,465.46c.52-2.88,5.29-3.54,9.35-3.6h56.6V445.28h-57.94c-15,0-34.09,3.18-34.12,20.67,8.55-.31,17.24-.49,26.11-.49" transform="translate(-752 -445.27)"/><path class="cls-3" d="M1097.13,465.46c.52-2.88,5.29-3.54,9.34-3.6h56.61V445.28h-57.94c-14.87,0-33.72,3.13-34.1,20.18Z" transform="translate(-752 -445.27)"/><path class="cls-3" d="M752,510.24v1.32h26.28l-.42-9.37c-9,2.71-17.61,5.42-25.86,8.05" transform="translate(-752 -445.27)"/><path class="cls-3" d="M1133.29,470.13h-26.82l-.59,0h-34.46c2.77,13.8,19.66,16.55,33.37,16.6h26.81c4.3.06,9.4.78,9.4,4.12s-5.1,4.08-9.4,4.14H1075v16.57h57.94c15,0,34.12-3.18,34.12-20.71,0-17.38-18.8-20.65-33.77-20.71" transform="translate(-752 -445.27)"/><path class="cls-3" d="M789.82,498.67l6.85,12.88h23.64l12.76-24c-15.51,3.49-29.85,7.28-43.25,11.13" transform="translate(-752 -445.27)"/><path class="cls-3" d="M1034.26,470.13l-36.08,0q-13.23,0-25.72.38c3,13.47,19.72,16.17,33.3,16.22h26.82c4.29.06,9.39.78,9.39,4.12s-5.1,4.08-9.39,4.14H976v16.13l-25.25-39.72q-12.79.71-24.82,1.77l4.09,7H910.51l3.42-5.89q-14.65,1.53-28.23,3.51L865,510.42V481.14q-13.07,2.3-25.13,4.91l-1.14,25.51h53.56l8.6-14.77h38.79l8.59,14.77h85.67c15,0,34.12-3.18,34.12-20.71,0-17.38-18.8-20.65-33.77-20.71" transform="translate(-752 -445.27)"/><path class="cls-3" d="M893.38,589h-2.15v24.55h2.15c1.93,0,2.5-.6,2.5-2.84V591.87C895.88,589.63,895.31,589,893.38,589Z" transform="translate(-752 -445.27)"/><polygon class="cls-3" points="166.31 143.91 165.9 143.91 163.75 161.93 168.46 161.93 166.31 143.91"/><path class="cls-3" d="M943.06,589H941v15.18l2.69,0c1.42-.12,1.86-.85,1.86-2.84v-9.46C945.52,589.63,945,589,943.06,589Z" transform="translate(-752 -445.27)"/><path class="cls-3" d="M1113.07,588.74c-1.3,0-2.34.7-2.34,2.84V611c0,2.15,1,2.84,2.34,2.84s2.33-.69,2.33-2.84V591.58C1115.4,589.44,1114.33,588.74,1113.07,588.74Z" transform="translate(-752 -445.27)"/><path class="cls-3" d="M1029.47,589h-2.15v24.55h2.15c1.92,0,2.49-.6,2.49-2.84V591.87C1032,589.63,1031.39,589,1029.47,589Z" transform="translate(-752 -445.27)"/><path class="cls-3" d="M752,567.88v66.85H1163.1V567.88Zm26.86,47.94H771v-29h2.65v26.79h5.2Zm22-26.79h-4.74V600.2h4.68v2.21h-4.68v11.17h4.74v2.24h-7.39v-29h7.39Zm24.55,6.88h-2.62v-4.33c0-2.14-1-2.84-2.33-2.84s-2.37.7-2.37,2.84V611c0,2.15,1,2.84,2.4,2.84s2.43-.69,2.43-2.84v-8.58H820v-2.15h5.39V611c0,3.89-2.14,5.08-4.95,5.08s-5-1.19-5-5.08V591.58c0-3.88,2.15-5.08,5-5.08s4.95,1.2,4.95,5.08ZM847.56,589h-4.74V600.2h4.67v2.21h-4.67v11.17h4.74v2.24h-7.39v-29h7.39Zm26.25,26.79h-3.63L865,590.92h-.23l.07,2.68v22.22h-2.46v-29H866l5.24,24.9h.22l-.07-2.65V586.79h2.46Zm24.72-5.11c0,3.5-.73,5.11-4.61,5.11h-5.34v-29h5.34c3.88,0,4.61,1.6,4.61,5.11Zm23,5.11-.76-6.37h-5.27l-.75,6.37h-2.56l3.57-29h4.76l3.57,29Zm24.65,0L944,606.23h-3v9.59h-2.65v-29h5.24c3.85,0,4.55,1.6,4.55,5.11v9.34c0,2.21-.6,3.6-1.93,4.36l2.37,10.22Zm21.68-11.58v11.58h-2.59V604.24l-4.51-17.45h2.59l3.12,13.31h.19l3.13-13.31h2.58ZM1009.9,589h-4.73V600.2h4.67v2.21h-4.67v11.17h4.73v2.24h-7.38v-29h7.38Zm24.71,21.68c0,3.5-.72,5.11-4.61,5.11h-5.33v-29H1030c3.89,0,4.61,1.6,4.61,5.11Zm17.42,5.11h-2.65v-29H1052Zm24.3-26.79h-3.66v26.79H1070V589h-3.66v-2.24h10Zm17,26.79h-2.65v-29h2.65ZM1118,611c0,3.89-2.14,5.08-5,5.08s-5-1.19-5-5.08V591.58c0-3.88,2.15-5.08,5-5.08s5,1.2,5,5.08Zm26.26,4.8h-3.63l-5.24-24.9h-.22l.06,2.68v22.22h-2.46v-29h3.63l5.24,24.9h.22l-.06-2.65V586.79h2.46Z" transform="translate(-752 -445.27)"/></g></g></g></svg>