<svg id="Layer_1" xmlns="http://www.w3.org/2000/svg" width="280" height="180" viewBox="0 0 280 180"><style>.st0{fill:#fff}.st1,.st2{fill:#1c1b1a}.st2{fill-rule:evenodd;clip-rule:evenodd}</style><path class="st0" d="M138.94 1c-30.63 0-55.56 24.92-55.56 55.56s24.92 55.56 55.56 55.56c30.63 0 55.56-24.93 55.56-55.56C194.5 25.92 169.57 1 138.94 1zm0 103.42c-26.43 0-47.85-21.42-47.85-47.86 0-26.43 21.42-47.85 47.85-47.85s47.85 21.41 47.85 47.85c0 26.43-21.42 47.86-47.85 47.86z"/><path id="EA_9_" class="st0" d="M118.18 26.71h28.56l-4.38 6.93-28.55.02 4.37-6.95zm20.68 34.73h-8.36v.01h-27.82l8.8-13.9h-6.46l4.39-6.95h26.9l-4.4 6.95h-12.06l-4.46 6.95h19.42l17.75-28.03 22.1 34.97h-8.34l-4.39-6.94h-13.06l4.39-6.96h4.28l-4.98-7.89-13.7 21.79z"/><path class="st0" d="M176.9 65.75h-.57v1.21h-.28v-1.21h-.57v-.24h1.42zM178.85 66.96h-.26v-.9c0-.04 0-.08.01-.16-.03.06-.03.11-.07.16l-.46.71h-.05l-.47-.73c-.03-.04-.06-.1-.09-.15 0 .06.03.11.03.16v.9h-.24V65.5h.24l.57.88.57-.88h.22v1.46zM112.38 76.82c0 .89-.31 1.64-.92 2.26-.62.62-1.38.94-2.26.94h-3.77c-.89 0-1.64-.3-2.24-.9-.6-.6-.9-1.34-.9-2.25v-1.49h2.32l.34 1.38c.15.57.55.86 1.19.86h2.55c.32 0 .58-.11.78-.35.19-.23.28-.53.28-.88v-1.64c0-.8-.35-1.21-1.06-1.21h-3.2c-.87 0-1.63-.31-2.26-.93-.61-.63-.93-1.38-.93-2.26v-2.17c0-.87.31-1.62.93-2.23.63-.63 1.39-.93 2.26-.93h3.72c.87 0 1.62.3 2.23.89.61.6.9 1.34.9 2.24v1.35h-2.3l-.35-1.22c-.18-.58-.59-.87-1.17-.87h-2.51c-.32 0-.59.12-.78.35-.2.24-.3.53-.3.89v1.26c0 .79.35 1.18 1.07 1.18h3.2c.87 0 1.62.32 2.24.95.63.63.93 1.38.93 2.25v2.53zM121.76 67.43h-3.61v4.66h3.61c.31 0 .57-.12.76-.35.2-.24.3-.52.3-.89v-2.19c0-.37-.1-.65-.3-.88a.95.95 0 0 0-.76-.35zm3.72 3.9c0 .88-.31 1.63-.93 2.25-.63.62-1.4.93-2.27.93h-4.13v5.51h-2.65V65.01h6.79c.88 0 1.64.31 2.27.93.62.61.93 1.36.93 2.23v3.16zM147.56 67.43h-3.47v4.29h3.47c.3 0 .56-.11.75-.33.19-.23.29-.52.29-.88v-1.85c0-.36-.09-.65-.29-.88a.943.943 0 0 0-.75-.35zm1.49 12.59l-2.45-5.87h-2.51v5.87h-2.66V65.01h6.63c.89 0 1.64.31 2.26.93.62.61.93 1.37.93 2.23v2.62c0 .68-.19 1.3-.56 1.85-.39.54-.88.93-1.46 1.18l2.63 6.2h-2.81zM163.25 67.43h-3.85v12.59h-2.66V67.43h-3.81v-2.42h10.32zM175.28 76.82c0 .89-.31 1.64-.93 2.26-.63.62-1.38.94-2.27.94h-3.75c-.9 0-1.64-.3-2.24-.9-.6-.6-.9-1.34-.9-2.25v-1.49h2.31l.35 1.38c.16.57.55.86 1.19.86h2.55c.32 0 .59-.11.78-.35.19-.23.29-.53.29-.88v-1.64c0-.8-.35-1.21-1.07-1.21h-3.19c-.88 0-1.64-.31-2.26-.93-.61-.63-.94-1.38-.94-2.26v-2.17c0-.87.32-1.62.94-2.23.62-.63 1.38-.93 2.26-.93h3.7c.89 0 1.63.3 2.24.89.6.6.91 1.34.91 2.24v1.35h-2.31l-.35-1.22c-.19-.58-.58-.87-1.17-.87h-2.52c-.32 0-.59.12-.78.35-.19.24-.29.53-.29.89v1.26c0 .79.36 1.18 1.07 1.18h3.19c.88 0 1.62.32 2.24.95.65.63.95 1.38.95 2.25v2.53zM138.19 76.8c0 .91-.3 1.67-.94 2.28-.63.62-1.37.94-2.26.94h-3.59c-.9 0-1.65-.31-2.27-.94-.62-.61-.94-1.37-.94-2.28v-8.63c0-.86.32-1.61.94-2.23.62-.63 1.38-.93 2.27-.93h3.6c.89 0 1.63.31 2.26.92.64.61.94 1.37.94 2.24v8.63zm-3.71-9.37h-2.54c-.33 0-.59.11-.79.35-.19.23-.28.53-.28.88v7.69c0 .35.09.64.28.87.2.24.46.37.79.37h2.54c.31 0 .56-.13.76-.37.21-.23.31-.53.31-.87v-7.69c0-.36-.1-.65-.31-.88a.963.963 0 0 0-.76-.35z"/><g><path class="st0" d="M124.5 120.77h-12.14c-7.2 0-12.54 5.34-12.54 12.55v44.52h13.76v-42.49c0-1.46.97-3.24 3.24-3.24h3.23c2.27 0 3.24 1.38 3.24 3.24v11.73h-7.28v11.33h7.28v19.43h13.76v-44.52c0-7.21-5.35-12.55-12.55-12.55zM59.8 133.4v44.43h13.86V155h15.49v-11.41H73.66v-8.15c0-1.47.98-3.26 3.26-3.26h17.94v-11.41H72.44c-7.26 0-12.64 5.37-12.64 12.63zM40.99 120.77h13.85v57.06H40.99zM.99 133.4v44.43h13.86V155h15.49v-11.41h-15.5v-8.15c0-1.47.98-3.26 3.26-3.26h17.93v-11.41H13.62c-7.25 0-12.63 5.37-12.63 12.63zM198.46 177.83c-7.04 0-12.26-5.29-12.26-12.43v-32.07c0-7.13 5.22-12.57 12.26-12.57h11.87c7.04 0 12.26 5.43 12.26 12.57v32.07c0 7.13-5.22 12.43-12.26 12.43h-11.87zm7.52-11.31c2.21 0 3.16-1.76 3.16-3.21v-28.06c0-1.44-.95-3.16-3.16-3.16h-3.16c-2.21 0-3.16 1.71-3.16 3.16v28.06c0 1.44.95 3.21 3.16 3.21h3.16zM181.24 133.39c0-7.03-5.03-12.3-11.92-12.62h-10.58c-7 0-12.23 5.09-12.46 12.03v5.32h11.33v-2.83c.02-1.44.99-3.18 3.22-3.18h3.33c2.28 0 3.25 1.79 3.25 3.26V137.72c-.25 1.69-1.99 3.85-3.73 5.62-1.8 1.83-3.56 3.24-3.56 3.24l-10.57 9.65c-3.45 3.01-3.25 8.56-3.25 10.19v11.41h34.93v-11.41h-21.11v-1.29c.09-.55.4-1.12.95-1.8l7.6-7.7.04-.01.01-.01 8.07-8.17c4.47-5.24 4.39-8.85 4.39-10.48.01.24.06-3.57.06-3.57z"/></g><g><path class="st1" d="M231.24 120.77v57.06h45.65v-57.06h-45.65z"/><path class="st0" d="M231.74 149.54h44.66v27.79h-44.66zM231.74 121.26h44.66v27.79h-44.66z"/><path class="st1" d="M240.84 156.59c0-.29.04-.55.12-.78.08-.23.19-.43.34-.59.15-.16.34-.28.56-.37.22-.09.48-.13.78-.13.3 0 .56.04.78.13.22.09.41.21.56.37.15.16.27.36.34.59.08.23.12.49.12.78 0 .29-.04.54-.12.77-.08.23-.19.43-.35.59-.15.16-.34.29-.57.37-.23.09-.48.13-.78.13-.3 0-.55-.04-.78-.13-.22-.09-.41-.21-.56-.37-.15-.16-.27-.36-.35-.59-.06-.23-.09-.48-.09-.77zm.98 0c0 .15.02.29.05.43s.08.26.14.37c.06.11.15.19.25.25s.23.1.37.1c.14 0 .27-.03.37-.1.1-.06.19-.15.25-.25.07-.11.11-.23.14-.37.03-.14.05-.28.05-.43 0-.15-.02-.3-.05-.44-.03-.14-.08-.26-.14-.37a.747.747 0 0 0-.25-.25.724.724 0 0 0-.37-.09c-.14 0-.27.03-.37.09-.1.06-.19.15-.25.25-.07.1-.11.23-.14.37-.03.14-.05.28-.05.44zM245.21 154.79h2.41v.68h-1.45v.79h1.39v.68h-1.39v1.45h-.96v-3.6zM248.33 154.79h2.41v.68h-1.45v.79h1.39v.68h-1.39v1.45h-.96v-3.6zM251.53 154.79h.96v3.6h-.96v-3.6zM256.46 158.31c-.14.03-.29.07-.45.1-.16.03-.37.05-.61.05s-.48-.03-.73-.1a2.01 2.01 0 0 1-.66-.31c-.2-.14-.36-.33-.48-.57-.13-.24-.19-.52-.19-.86 0-.31.05-.59.15-.82.1-.24.25-.43.43-.59.18-.16.4-.27.65-.35.25-.08.53-.12.82-.12.19 0 .37.02.54.05.18.04.35.08.53.13l-.08.78a1.857 1.857 0 0 0-.94-.25 1.11 1.11 0 0 0-.81.33c-.1.1-.17.23-.23.37-.05.14-.08.3-.08.47 0 .18.03.33.09.47a1.014 1.014 0 0 0 .63.58c.15.05.31.08.48.08.16 0 .31-.02.47-.05.15-.04.3-.08.43-.13l.04.74zM257.21 154.79h.96v3.6h-.96v-3.6zM260.21 154.79h1.17l1.39 3.6h-1.05l-.27-.77h-1.35l-.28.77h-.97l1.36-3.6zm.59.74h-.01l-.46 1.41h.9l-.43-1.41zM263.41 154.79h.96v2.89h1.48v.71h-2.44v-3.6z"/><g><path class="st1" d="M240.84 160.9h.96v2.89h1.48v.71h-2.44v-3.6zM244 160.9h.96v3.6H244v-3.6zM248.94 164.41c-.14.03-.29.07-.45.1-.16.03-.37.05-.61.05s-.48-.03-.73-.1a2.01 2.01 0 0 1-.66-.31c-.2-.14-.36-.33-.48-.57-.13-.24-.19-.52-.19-.86 0-.31.05-.59.16-.82.1-.24.25-.43.43-.59.18-.16.4-.27.65-.35.25-.08.53-.12.82-.12.19 0 .37.02.54.05.18.04.35.08.53.13l-.08.78a1.857 1.857 0 0 0-.94-.25 1.11 1.11 0 0 0-.81.33c-.1.1-.17.23-.23.37-.05.14-.08.3-.08.47 0 .18.03.33.09.47a1.014 1.014 0 0 0 .63.58c.15.05.31.08.48.08.16 0 .31-.02.47-.05.15-.04.3-.08.43-.13l.03.74zM249.61 160.9h2.54v.68h-1.58v.74h1.49v.68h-1.49v.81h1.63v.68h-2.59v-3.59zM253.06 160.9h1.22l1.22 2.44h.01l-.02-2.44h.88v3.6h-1.19l-1.26-2.46h-.01l.03 2.46h-.88v-3.6zM257.32 163.61c.12.07.27.13.44.17.17.04.35.07.55.07.08 0 .15 0 .22-.01s.14-.03.19-.05.1-.06.13-.11.05-.11.05-.18c0-.11-.04-.2-.13-.26s-.19-.11-.31-.15c-.13-.04-.26-.09-.41-.13-.15-.04-.28-.1-.41-.18a.92.92 0 0 1-.31-.31c-.08-.13-.13-.31-.13-.53 0-.22.05-.4.14-.54.1-.14.22-.26.37-.34.15-.08.32-.14.5-.18.19-.03.37-.05.55-.05.18 0 .34.01.51.04.16.02.3.06.42.1l-.06.74c-.12-.06-.25-.1-.39-.13a1.9 1.9 0 0 0-.41-.04c-.06 0-.13 0-.2.01s-.14.02-.21.04c-.07.02-.12.06-.16.1-.05.04-.07.11-.07.19 0 .1.04.17.13.22s.19.1.31.13c.13.04.26.08.41.12.15.04.28.1.41.18.13.08.23.18.31.31.08.13.13.3.13.52 0 .23-.04.43-.13.58-.09.15-.21.27-.36.36-.15.09-.32.15-.51.19-.19.04-.39.05-.59.05-.17 0-.35-.01-.54-.04-.19-.03-.37-.06-.53-.12l.09-.77zM260.69 160.9h2.54v.68h-1.58v.74h1.49v.68h-1.49v.81h1.63v.68h-2.59v-3.59zM265.08 163.78h.37c.36 0 .64-.09.83-.27.19-.18.29-.45.29-.81 0-.36-.1-.63-.29-.81-.2-.18-.47-.27-.82-.27h-.37v2.16zm-.96-2.88h1.31c.31 0 .6.03.86.08s.49.15.67.29c.19.14.33.32.44.55.1.23.16.52.16.87 0 .34-.05.62-.16.85-.11.23-.25.42-.44.56-.19.14-.41.25-.67.31-.26.06-.54.1-.85.1h-1.31v-3.61z"/></g><g><path class="st1" d="M240.84 167h1.14c.55 0 .96.1 1.22.29.26.19.39.49.39.89 0 .36-.13.65-.38.85-.25.2-.6.31-1.05.31h-.37v1.26h-.96V167zm.95 1.66h.25c.08 0 .16-.01.23-.02a.64.64 0 0 0 .19-.08c.05-.04.1-.09.13-.15s.05-.14.05-.23-.02-.17-.05-.23a.374.374 0 0 0-.13-.15.545.545 0 0 0-.19-.08c-.07-.02-.15-.02-.23-.02h-.25v.96zM244.27 167h1.71c.16 0 .31.02.45.05.14.04.26.09.37.17.11.08.19.17.25.28.06.11.09.25.09.4 0 .24-.06.44-.17.59-.11.15-.29.26-.52.31v.01c.08.02.14.05.18.1.05.04.09.1.12.17s.07.14.1.23.07.19.11.3l.35.98h-1l-.21-.65c-.05-.15-.09-.28-.14-.38a.894.894 0 0 0-.14-.24.382.382 0 0 0-.17-.12.755.755 0 0 0-.23-.03h-.2v1.42h-.96V167zm.96 1.49h.25c.08 0 .16 0 .24-.01.08-.01.16-.02.23-.05.07-.03.12-.07.17-.12.05-.06.07-.13.07-.24 0-.08-.02-.15-.06-.2a.443.443 0 0 0-.15-.12.709.709 0 0 0-.22-.06 2.13 2.13 0 0 0-.27-.02h-.25v.82zM247.86 168.8c0-.29.04-.55.12-.78.08-.23.19-.43.34-.59.15-.16.34-.28.56-.37.22-.09.48-.13.78-.13.3 0 .56.04.78.13.22.09.41.21.56.37.15.16.27.36.34.59.08.23.12.49.12.78 0 .29-.04.54-.12.77-.08.23-.19.43-.35.59-.15.16-.34.29-.57.37-.23.09-.48.13-.78.13-.3 0-.56-.04-.78-.13-.22-.09-.41-.21-.56-.37-.15-.16-.27-.36-.35-.59a3.07 3.07 0 0 1-.09-.77zm.99 0c0 .15.02.29.05.43.03.14.08.26.14.37.06.11.15.19.25.25s.23.1.37.1.27-.03.37-.1c.1-.06.19-.15.25-.25.07-.11.11-.23.14-.37.03-.14.05-.28.05-.43 0-.15-.02-.3-.05-.44-.03-.14-.08-.26-.14-.37a.747.747 0 0 0-.25-.25c-.1-.06-.23-.09-.37-.09s-.27.03-.37.09c-.1.06-.19.15-.25.25-.07.1-.11.23-.14.37-.04.14-.05.28-.05.44zM252.26 167h1.31c.31 0 .6.03.86.08s.49.15.67.29c.19.14.33.32.44.55.1.23.16.52.16.87 0 .34-.05.62-.16.85-.11.23-.25.42-.44.56-.19.14-.41.25-.67.31-.26.06-.54.1-.85.1h-1.31V167zm.96 2.89h.37c.36 0 .64-.09.83-.27.19-.18.29-.45.29-.81 0-.36-.1-.63-.29-.81-.2-.18-.47-.27-.82-.27h-.37v2.16zM259.63 169.23c0 .25-.04.46-.11.64-.08.18-.18.33-.32.44-.14.12-.31.2-.5.26s-.41.08-.64.08c-.23 0-.45-.03-.64-.08-.19-.06-.36-.14-.5-.26a1.09 1.09 0 0 1-.32-.44c-.08-.18-.11-.39-.11-.64V167h.96v2.07c0 .12.01.23.03.34.02.1.05.2.1.28.05.08.11.14.19.19.08.05.18.07.3.07s.23-.02.3-.07c.08-.05.14-.11.19-.19.05-.08.08-.17.1-.28.02-.1.03-.22.03-.34V167h.96v2.23zM263.5 170.51c-.14.03-.29.07-.45.1-.16.03-.37.05-.61.05s-.48-.03-.73-.1a2.01 2.01 0 0 1-.66-.31c-.2-.14-.36-.33-.48-.57-.13-.24-.19-.52-.19-.86 0-.31.05-.59.15-.82.1-.24.25-.43.43-.59.18-.16.4-.27.65-.35.25-.08.53-.12.82-.12.19 0 .37.02.54.05.18.04.35.08.53.13l-.08.78a1.857 1.857 0 0 0-.94-.25 1.11 1.11 0 0 0-.81.33c-.1.1-.17.23-.23.37-.05.14-.08.3-.08.47 0 .18.03.33.09.47a1.014 1.014 0 0 0 .63.58c.15.05.31.08.48.08.16 0 .31-.02.47-.05.15-.04.3-.08.43-.13l.04.74zM264.82 167.71h-.89V167h2.73v.71h-.89v2.89h-.96v-2.89z"/></g><g><path class="st2" d="M237.88 129.33v10.33h3.22v-3.73h2.32l.82-2.26h-3.14v-2.09h3.9l.82-2.25zM246.8 129.33h3.22v10.33h-3.22zM252.23 129.33v10.33h3.22v-3.73h2.31l.82-2.26h-3.13v-2.09h3.89l.82-2.25zM269.37 139.66h-3.25l-.42-1.39h-3.63l-.4 1.39h-3.17l3.76-10.33h3.34l3.77 10.33zm-4.2-3.37l-1.29-4.3-1.24 4.3h2.53z"/><path class="st1" d="M269.34 132.43c-.21 0-.42-.04-.6-.12-.19-.08-.35-.19-.49-.33s-.25-.3-.33-.49a1.53 1.53 0 0 1-.12-.6c0-.21.04-.42.12-.6.08-.19.19-.35.33-.49s.3-.25.49-.33c.19-.08.39-.12.6-.12.21 0 .42.04.6.12.19.08.35.19.49.33s.25.3.33.49c.08.19.12.39.12.6 0 .21-.04.42-.12.6-.08.19-.19.35-.33.49s-.3.25-.49.33c-.18.08-.39.12-.6.12zm0-.3c.16 0 .32-.03.46-.09s.27-.15.37-.26c.11-.11.19-.24.25-.4.06-.15.09-.32.09-.5s-.03-.35-.09-.5c-.06-.15-.15-.29-.25-.4-.11-.11-.23-.2-.37-.26-.14-.06-.29-.09-.46-.09-.16 0-.32.03-.46.09s-.27.15-.37.26c-.11.11-.19.24-.25.4-.06.15-.09.32-.09.5s.03.35.09.5c.06.15.15.29.25.4.11.11.23.2.37.26.14.06.3.09.46.09zm-.6-2.14h.65c.21 0 .37.04.48.12.11.08.17.21.17.4 0 .15-.04.26-.12.34-.08.07-.19.12-.34.13l.47.77h-.33l-.46-.76h-.2v.76h-.33v-1.76zm.33.75h.29c.05 0 .09 0 .14-.01.04-.01.08-.02.11-.03.03-.02.06-.04.08-.08.02-.03.03-.08.03-.14 0-.05-.01-.09-.03-.12a.178.178 0 0 0-.08-.07.202.202 0 0 0-.11-.03c-.04-.01-.08-.01-.13-.01h-.29v.49z"/></g></g></svg>