<svg width="477" height="100" viewBox="0 0 477 100" fill="none" xmlns="http://www.w3.org/2000/svg">
<path d="M407.013 18.9755C404.697 20.6264 400.294 22.8845 394.618 21.4993C384.785 19.0704 381.976 10.6074 381.976 10.6074C381.976 10.6074 379.148 19.0704 369.315 21.4993C363.639 22.9034 359.216 20.6454 356.92 18.9755H355.154V64.6492C355.154 65.8067 355.439 68.0837 357.318 70.3607C359.634 73.1691 363.563 74.9907 368.992 75.7687C373.32 76.3949 376.509 77.7611 378.768 79.9243C380.438 81.5182 381.995 84.2696 381.995 84.2696C381.995 84.2696 383.627 81.4613 385.222 79.9243C387.481 77.7421 390.67 76.3949 394.998 75.7687C400.427 74.9907 404.356 73.1691 406.672 70.3607C408.551 68.0837 408.836 65.8067 408.836 64.6492V18.9755H407.013Z" fill="white"/>
<path d="M407.164 20.759C407.164 20.759 401.792 24.9525 394.219 23.055C385.373 20.8538 381.956 14.2314 381.956 14.2314C381.956 14.2314 378.52 20.8538 369.694 23.055C362.12 24.9525 356.748 20.759 356.748 20.759V64.6489C356.748 66.148 357.374 72.4667 369.2 74.1745C373.87 74.8576 377.344 76.3567 379.849 78.7665C380.76 79.6394 381.444 80.5123 381.975 81.3092C382.488 80.5123 383.171 79.6204 384.082 78.7665C386.588 76.3567 390.08 74.8576 394.731 74.1745C406.557 72.4667 407.183 66.129 407.183 64.6489V20.759H407.164Z" fill="#013369"/>
<path d="M381.956 76.8692C381.956 76.8692 385.373 72.6377 394.295 71.2714C404.507 69.6965 404.203 64.8957 404.203 64.6491V41.6699H359.69V64.6491C359.69 64.8957 359.387 69.6965 369.599 71.2714C378.521 72.6377 381.956 76.8692 381.956 76.8692Z" fill="white"/>
<path d="M371.573 58.4628V47.533L370.188 46.7551V43.9277H376.433V46.7551L375.123 47.533V69.8291L371.782 68.8234L366.961 54.5729V63.9657L368.498 65.1422V68.0454L361.798 66.3376V63.8708L363.335 63.2636V47.533L361.76 46.7551V43.9277H366.828L371.573 58.4628Z" fill="#D50A0A"/>
<path d="M383.077 68.4628L384.425 70.0567V72.903L377.781 70.4173V68.0074L379.243 67.4002V47.533L377.781 46.793V43.9277H389.322V49.6962H386.779L386.019 47.3243H383.077V54.0036H385.279L386.152 52.7323H387.918V58.6716H386.152L385.317 57.4761H383.077V68.4628Z" fill="#D50A0A"/>
<path d="M390.424 69.4685V66.6222L392.075 65.275V47.533L390.652 46.793V43.9277H397.314V46.793L396.005 47.533V64.1934L398.871 63.4154L399.421 59.0511H402.155V66.3376L390.424 69.4685Z" fill="#D50A0A"/>
<path d="M360.868 36.9643L358.855 35.4463H361.323L362.139 33.1123L362.956 35.4463H365.423L363.411 36.9643L364.151 39.3362L362.158 37.932L360.165 39.3362L360.868 36.9643Z" fill="white"/>
<path d="M369.58 36.9643L367.568 35.4463H370.036L370.852 33.1123L371.668 35.4463H374.136L372.124 36.9643L372.864 39.3362L370.852 37.932L368.859 39.3362L369.58 36.9643Z" fill="white"/>
<path d="M360.868 29.0893L358.855 27.5713H361.323L362.139 25.2373L362.956 27.5713H365.423L363.411 29.0893L364.151 31.4612L362.158 30.057L360.165 31.4612L360.868 29.0893Z" fill="white"/>
<path d="M369.58 29.0893L367.568 27.5713H370.036L370.852 25.2373L371.668 27.5713H374.136L372.124 29.0893L372.864 31.4612L370.852 30.057L368.859 31.4612L369.58 29.0893Z" fill="white"/>
<path d="M403.787 39.3176L401.794 37.9135L399.782 39.3176L400.522 36.9457L398.51 35.4277H400.977L401.794 33.0938L402.61 35.4277H405.077L403.065 36.9457L403.787 39.3176Z" fill="white"/>
<path d="M395.055 39.3176L393.062 37.9135L391.069 39.3176L391.809 36.9457L389.797 35.4277H392.265L393.081 33.0938L393.897 35.4277H396.346L394.334 36.9457L395.055 39.3176Z" fill="white"/>
<path d="M403.787 31.4427L401.794 30.0385L399.782 31.4427L400.522 29.0707L398.51 27.5527H400.977L401.794 25.2188L402.61 27.5527H405.077L403.065 29.0707L403.787 31.4427Z" fill="white"/>
<path d="M395.055 31.4427L393.062 30.0385L391.069 31.4427L391.809 29.0707L389.797 27.5527H392.265L393.081 25.2188L393.897 27.5527H396.346L394.334 29.0707L395.055 31.4427Z" fill="white"/>
<path d="M387.499 22.7514C387.499 22.7514 386.455 23.3017 384.994 24.7249C385.316 24.9146 385.696 25.1613 385.905 25.351C385.677 25.5408 385.468 25.7495 385.259 25.9583C384.31 25.1803 383.323 24.7818 382.564 24.592C382.811 24.4023 383.095 24.2315 383.361 24.0607C383.76 24.1746 384.177 24.3264 384.177 24.3264C385.81 23.074 387.234 22.5427 387.234 22.5427C387.234 22.5427 387.063 22.4668 386.626 22.4668C380.172 22.5427 374.212 27.3624 375.332 35.6167C375.446 36.4896 375.787 38.0835 376.224 38.7856C376.376 37.4194 376.888 34.3833 378.407 31.1195C377.875 30.9298 377.439 30.8539 377.439 30.8539C377.591 30.5313 377.799 30.1139 377.799 30.1139C378.938 30.3226 379.944 30.797 380.799 31.4991C380.59 31.8406 380.438 32.0493 380.343 32.2201C380.039 31.9734 379.736 31.7837 379.394 31.5939C377.666 34.592 376.869 37.4383 376.546 38.9184C376.565 39.0133 376.755 39.0512 376.907 39.0512C383.988 38.1404 387.309 34.5161 388.316 30.6072C388.98 28.0455 388.752 25.351 387.879 23.1689C387.822 22.9981 387.708 22.7325 387.499 22.7514ZM381.406 30.5503C380.476 29.7723 379.413 29.3169 378.369 29.1082C378.369 29.1082 378.692 28.5769 378.881 28.3112C380.172 28.5579 381.216 29.1651 381.956 29.7913C381.748 30.0569 381.577 30.3226 381.406 30.5503ZM382.564 28.9184C381.71 28.1973 380.666 27.666 379.489 27.4383C379.66 27.2106 379.887 26.964 380.077 26.7362C380.969 26.888 382.127 27.3624 383.133 28.1973C382.944 28.4251 382.754 28.6907 382.564 28.9184ZM383.874 27.3624C382.981 26.6224 381.975 26.148 380.912 25.9203C381.178 25.6736 381.444 25.4649 381.672 25.2751C383.001 25.5977 383.912 26.186 384.519 26.6983C384.272 26.926 384.063 27.1347 383.874 27.3624Z" fill="white"/>
<path d="M112.051 18.6523H130.577L134.431 47.9692L138.474 18.6523H155.975V81.3279H142.612V47.1153L136.689 81.3089H131.147L125.224 47.1153V81.3089H112.051V18.6523V18.6523Z" fill="white"/>
<path d="M180.88 72.1248H173.724L172.699 81.3089H159.24L168.181 18.6523H187.277L197.053 81.3279H182L180.88 72.1248ZM175.147 59.7529H179.475L177.311 40.7207L175.147 59.7529Z" fill="white"/>
<path d="M200.336 18.6523H222.526C231.182 18.6523 236.535 22.4474 236.535 32.4664V66.9256C236.535 76.7738 231.732 81.3279 222.621 81.3279H200.336V18.6523ZM215.673 69.2596H217.837C220.096 69.2596 220.761 68.0831 220.761 65.4645V33.8895C220.761 31.2709 220.191 30.2652 218.027 30.2652H215.673V69.2596V69.2596Z" fill="white"/>
<path d="M239.801 18.6523H261.991C270.647 18.6523 276 22.4474 276 32.4664V66.9256C276 76.7738 271.197 81.3279 262.086 81.3279H239.801V18.6523ZM255.138 69.2596H257.302C259.561 69.2596 260.225 68.0831 260.225 65.4645V33.8895C260.225 31.2709 259.656 30.2652 257.492 30.2652H255.138V69.2596V69.2596Z" fill="white"/>
<path d="M308.933 18.6523V31.6315H294.621V42.3336H305.63V55.6353H294.621V68.1021H308.914V81.3279H279.283V18.6523H308.933Z" fill="white"/>
<path d="M327.287 18.6523L335.279 48.9749V18.6523H348.547V81.3279H334.918L325.693 48.6523V81.3279H312.234V18.6523H327.287Z" fill="white"/>
<path d="M429.811 31.6131V40.1141H415.404V30.2659C415.404 23.9471 419.447 17.875 430.4 17.875H433.665C444.428 17.875 450.179 22.505 450.179 30.93V34.2128C450.179 40.5315 449.799 43.8143 443.934 50.1331C441.922 52.4101 439.606 54.8579 437.025 57.4575C427.989 66.9832 428.274 67.9889 428.274 69.2412H436.246H450.654V81.2906H414.246V73.0553C414.246 66.5657 414.626 63.5297 423.756 51.746C425.768 48.9756 427.989 45.9395 429.811 43.6625C433.171 38.8617 433.949 37.2678 433.949 34.9908V31.6131C433.949 30.0192 433.285 29.2602 431.842 29.2602C430.286 29.2602 429.811 30.0192 429.811 31.6131Z" fill="white"/>
<path d="M453.557 37.3435V25.7116C460.865 25.7116 463.162 22.7704 463.541 18.6338H476.999V81.3093H461.244V37.3435H453.557Z" fill="white"/>
<path d="M50.0177 0C22.4368 0 0 22.4288 0 50C0 77.5712 22.4368 100 50.0177 100C77.5986 100 100.035 77.5712 100.035 50C100.016 22.4288 77.5797 0 50.0177 0ZM50.0177 93.055C26.2332 93.055 6.94743 73.7761 6.94743 50C6.94743 26.2239 26.2332 6.94497 50.0177 6.94497C73.8022 6.94497 93.088 26.2239 93.088 50C93.088 73.7761 73.8022 93.055 50.0177 93.055Z" fill="white"/>
<path d="M31.3209 23.1306H57.0226L53.0744 29.3735L27.3727 29.3925L31.3209 23.1306ZM49.9423 54.383H42.4255H17.3691L25.2847 41.8782H19.4761L23.4244 35.6354H47.6455L43.6783 41.8782H32.8395L28.8343 48.1401H46.3168L62.2997 22.9219L82.1928 54.383H74.6949L70.7467 48.1401H58.9968L62.945 41.8782H66.7984L62.3186 34.7815L49.9423 54.383Z" fill="white"/>
<path d="M84.1849 58.2726H83.6725V59.3542H83.4069V58.2726H82.8945V58.0449H84.1849V58.2726Z" fill="white"/>
<path d="M85.9304 59.3542H85.7027V58.5383C85.7027 58.5003 85.7027 58.4624 85.7027 58.4055C85.6837 58.4624 85.6647 58.5003 85.6458 58.5383L85.2283 59.1834H85.1904L84.7729 58.5383C84.7539 58.5003 84.716 58.4434 84.697 58.4055C84.697 58.4624 84.716 58.5003 84.716 58.5383V59.3542H84.4883V58.0449H84.716L85.2283 58.8419L85.7406 58.0449H85.9304V59.3542V59.3542Z" fill="white"/>
<path d="M26.1002 68.2344C26.1002 69.0314 25.8155 69.7145 25.265 70.2648C24.7145 70.8341 24.0312 71.1187 23.2339 71.1187H19.8361C19.0389 71.1187 18.3555 70.853 17.824 70.3028C17.2736 69.7714 17.0078 69.1073 17.0078 68.2724V66.9251H19.0958L19.3996 68.1585C19.5324 68.6709 19.8931 68.9365 20.4625 68.9365H22.7784C23.0631 68.9365 23.2909 68.8417 23.4807 68.6139C23.6515 68.4052 23.7464 68.1396 23.7464 67.817V66.3369C23.7464 65.6158 23.4237 65.2363 22.7973 65.2363H19.9121C19.1338 65.2363 18.4315 64.9707 17.881 64.4014C17.3305 63.8322 17.0458 63.168 17.0458 62.3711V60.4166C17.0458 59.6386 17.3305 58.9555 17.881 58.4052C18.4504 57.836 19.1338 57.5703 19.9121 57.5703H23.2529C24.0312 57.5703 24.7145 57.836 25.265 58.3673C25.8155 58.8986 26.0812 59.5627 26.0812 60.3787V61.5931H24.0122L23.6895 60.4925C23.5187 59.9612 23.158 59.7145 22.6265 59.7145H20.3676C20.0829 59.7145 19.8361 59.8284 19.6653 60.0371C19.4755 60.2458 19.3996 60.5115 19.3996 60.8341V61.9726C19.3996 62.6747 19.7222 63.0352 20.3676 63.0352H23.2529C24.0312 63.0352 24.7145 63.3198 25.265 63.8891C25.8345 64.4584 26.1002 65.1225 26.1002 65.9195V68.2344Z" fill="white"/>
<path d="M34.5473 59.771H31.3013V63.9646H34.5473C34.832 63.9646 35.0598 63.8507 35.2306 63.661C35.4015 63.4522 35.4964 63.1866 35.4964 62.864V60.8906C35.4964 60.568 35.4015 60.3023 35.2306 60.0936C35.0598 59.8849 34.832 59.771 34.5473 59.771ZM37.8881 63.2815C37.8881 64.0784 37.6034 64.7426 37.0529 65.3118C36.4835 65.8621 35.8001 66.1467 35.0029 66.1467H31.2824V71.0993H28.8906V57.5889H35.0029C35.8001 57.5889 36.4835 57.8735 37.0529 58.4238C37.6034 58.9741 37.8881 59.6572 37.8881 60.4352V63.2815V63.2815Z" fill="white"/>
<path d="M57.7626 59.771H54.6306V63.642H57.7626C58.0284 63.642 58.2751 63.5471 58.446 63.3384C58.6168 63.1297 58.7117 62.864 58.7117 62.5414V60.8716C58.7117 60.549 58.6358 60.2834 58.446 60.0746C58.2751 59.8849 58.0473 59.771 57.7626 59.771ZM59.1103 71.0993L56.9084 65.8052H54.6496V71.0993H52.2578V57.5889H58.2372C59.0344 57.5889 59.7178 57.8735 60.2682 58.4238C60.8187 58.9741 61.1035 59.6572 61.1035 60.4352V62.7881C61.1035 63.3953 60.9326 63.9646 60.5909 64.4579C60.2303 64.9513 59.7937 65.2928 59.2812 65.5205L61.6539 71.0993H59.1103Z" fill="white"/>
<path d="M71.8857 59.7716H68.431V71.0999H66.0393V59.7716H62.6035V57.6084H71.8857V59.7716Z" fill="white"/>
<path d="M82.7252 68.2344C82.7252 69.0314 82.4405 69.7145 81.89 70.2648C81.3205 70.8341 80.6562 71.1187 79.8399 71.1187H76.4611C75.6639 71.1187 74.9805 70.853 74.449 70.3027C73.9175 69.7714 73.6328 69.1073 73.6328 68.2724V66.9251H75.7208L76.0435 68.1585C76.1954 68.6709 76.5371 68.9365 77.1065 68.9365H79.4033C79.6881 68.9365 79.9348 68.8416 80.1057 68.6139C80.2765 68.4052 80.3714 68.1396 80.3714 67.817V66.3369C80.3714 65.6158 80.0487 65.2363 79.4033 65.2363H76.4991C75.7019 65.2363 75.0185 64.9707 74.468 64.4014C73.9175 63.8322 73.6328 63.168 73.6328 62.3711V60.4166C73.6328 59.6386 73.9175 58.9555 74.468 58.4052C75.0185 57.836 75.7019 57.5703 76.4991 57.5703H79.8399C80.6372 57.5703 81.3015 57.836 81.852 58.3673C82.4025 58.8986 82.6683 59.5627 82.6683 60.3787V61.5931H80.5992L80.2955 60.5305C80.1247 59.9992 79.783 59.7525 79.2515 59.7525H76.9926C76.7079 59.7525 76.4611 59.8663 76.2903 60.0751C76.1195 60.2838 76.0245 60.5494 76.0245 60.872V62.0105C76.0245 62.7126 76.3472 63.0732 76.9926 63.0732H79.8589C80.6562 63.0732 81.3205 63.3578 81.871 63.927C82.4595 64.4963 82.7252 65.1604 82.7252 65.9574V68.2344V68.2344Z" fill="white"/>
<path d="M49.3334 68.1961C49.3334 69.012 49.0677 69.6951 48.4792 70.2454C47.9098 70.8147 47.2454 71.0993 46.4482 71.0993H43.2212C42.424 71.0993 41.7406 70.8147 41.1711 70.2454C40.6207 69.6951 40.3359 69.012 40.3359 68.1961V60.4352C40.3359 59.6572 40.6207 58.9741 41.1711 58.4238C41.7406 57.8545 42.405 57.5889 43.2212 57.5889H46.4482C47.2454 57.5889 47.9098 57.8735 48.4792 58.4238C49.0487 58.9741 49.3334 59.6572 49.3334 60.4352V68.1961V68.1961ZM45.9926 59.771H43.6958C43.3921 59.771 43.1643 59.8659 42.9934 60.0746C42.8226 60.2834 42.7467 60.549 42.7467 60.8716V67.7976C42.7467 68.1202 42.8226 68.3668 42.9934 68.5756C43.1643 68.8033 43.411 68.8982 43.6958 68.8982H45.9926C46.2583 68.8982 46.5051 68.7843 46.6759 68.5756C46.8658 68.3668 46.9417 68.1012 46.9417 67.7976V60.8716C46.9417 60.549 46.8468 60.2834 46.6759 60.0746C46.5051 59.8849 46.2773 59.771 45.9926 59.771Z" fill="white"/>
</svg>
