<svg fill="none" height="158" viewBox="0 0 280 158" width="280" xmlns="http://www.w3.org/2000/svg" xmlns:xlink="http://www.w3.org/1999/xlink"><clipPath id="a"><path d="m0 0h280v158h-280z"/></clipPath><g clip-path="url(#a)" fill="#fff"><path clip-rule="evenodd" d="m229.916 65.9987h20.128v-28.1679zm40.028-60.31005v60.31005h9.658v20.3155h-9.628v15.2488h-19.93v-15.2488h-36.045c1.642-.8734 3.181-1.9286 4.586-3.1458 5.193-4.5325 7.937-10.8901 7.937-18.3883 0-8.741-3.551-14.066-8.088-17.524l32.856-41.56745zm-48.91 16.80955h-.794v-2.7196h-1.011v-.6844h2.822v.6844h-1.017zm3.4-.8105-.951-1.4948.006 2.3053h-.734v-3.422h.818l.903 1.4408.896-1.4408h.795v3.422h-.728v-2.3053l-.945 1.4948zm-167.7319 5.8233c0 5.6612 6.0657 7.5342 13.0881 9.6955v.024c10.7472 3.3079 22.9266 7.06 22.9266 24.2417 0 8.1946-3.0508 14.9424-8.8276 19.511-5.2653 4.1724-12.7752 6.4717-21.1997 6.4717-2.7143-.0011-5.4237-.2301-8.0995-.6844-6.9021-1.3027-14.0268-4.6887-22.6017-11.7487l9.7604-14.0419c.0805.0766.1673.1596.2602.2485 2.5711 2.4592 9.8264 9.399 19.8562 9.399 4.3988 0 11.3731-1.9511 11.3731-7.7504 0-5.5471-6.0717-7.5103-13.1061-9.7495l-.0036-.0012c-10.7343-3.4336-22.899-7.3248-22.899-24.0664 0-15.6089 14.6647-24.01362 28.5049-24.01362 8.651.0804 17.0533 2.89704 23.9977 8.04452l.668.5043-9.8747 12.4991-.6499-.5223c-3.9174-3.2058-7.5279-5.199-13.5454-5.199-3.8873 0-9.628 2.2693-9.628 7.1381zm138.0899 10.2658c0 3.2779 3.568 4.5326 9.393 6.3336h-.048c8.141 2.5034 19.256 5.9253 19.256 20.6396 0 13.4176-9.905 22.0865-25.274 22.0865-5.955.0685-11.838-1.2991-17.15-3.9862l-.156-.0721.8 3.506h-18.949l-3.063-23.9415-4.513 23.9415h-16.849l-4.266-23.7494-3.659 23.7494h-18.161l12.487-74.2079h15.41l6.896 34.5075 6.313-27.2374h15.73l10.031 53.9465 6.36-8.0926.602.7204c2.738 3.1758 6.697 4.8507 11.433 4.8507 2.479 0 7.6-1.2006 7.6-4.9047 0-3.2239-3.58-4.5266-9.417-6.3997-8.112-2.5814-19.208-6.1294-19.208-20.4835 0-13.2915 12.414-20.4956 24.1-20.4956 7.654.0553 15.06 2.7082 21.001 7.5222l.602.4863-9.628 12.2169-.602-.5343c-3.544-3.0857-6.198-4.6526-10.867-4.6526-2.534 0-6.204 1.5189-6.204 4.2504zm-83.427 48.5074v-66.9258h-19.0694v28.1319c2.1543 3.53 3.5022 8.0505 3.5022 13.9579.0837 4.9973-1.1223 9.932-3.5022 14.3301v10.5059zm10.091-71.6145c-1.445 1.154-3.228 1.8072-5.078 1.8611h.012c-.778.0285-1.554-.1032-2.278-.3868-.725-.2836-1.383-.7131-1.934-1.2617s-.983-1.2045-1.269-1.9269-.419-1.4958-.392-2.2719c0-3.37393 2.407-5.84133 6.017-5.84133 2.227 0 3.935 1.0566 5.344 3.25385l-7.221 4.64058c.517.4528 1.183.6987 1.871.6904 1.153-.1035 2.251-.5394 3.159-1.2547zm-3.592-6.65774c-.382-.22104-.816-.33898-1.258-.3422-.361-.01262-.721.04913-1.057.18142-.336.13228-.641.33226-.896.58744-.256.25518-.455.56008-.587.89571-.132.33562-.193.69477-.18 1.05497v.1741zm-14.31 8.39874h-3.261l-.018-15.4107h2.954v5.22895c.384-.44809.862-.80743 1.399-1.05312s1.121-.37184 1.712-.36968c2.01 0 3.37 1.28473 3.37 3.46996v8.13459h-3.285v-7.12001c0-1.07461-.367-1.5909-1.204-1.5909-1.023 0-1.667.69038-1.667 1.95709zm-11.1862 0h3.6466l.006-11.65858h3.5203v-3.43995h-10.0733l-.9929 3.43394h3.8933zm-52.6194 33.9188-9.5225-.03-15.2995 36.7328 12.3494-37.1419-7.322-.9954-7.3197-1.005 1.9337 39.0949-4.88617-39.4907-9.180653-2.526 9.520623.0294 15.3001-36.73344-12.3488 37.14194 7.3221.996 7.3196 1.0056-1.9336-39.09488 4.8861 39.49068zm-25.3127 38.9674 25.8143-38.899-14.4357-44.3979-25.8143 38.899z" fill-rule="evenodd"/><path d="m180.828 129.097c-.23-.104-.478-.171-.738-.201-.26-.024-.49-.037-.677-.037h-1.034v3.499h1.034c.187 0 .411-.031.677-.085.266-.055.508-.153.738-.293.229-.14.429-.329.592-.579.163-.244.242-.561.242-.933 0-.371-.079-.676-.242-.889-.163-.214-.357-.378-.592-.482z"/><path d="m130.48 134.536h2.776l-1.385-4.407z"/><path d="m160.164 129.097c-.23-.104-.478-.171-.738-.201-.26-.024-.49-.037-.677-.037h-1.034v3.212h1.034c.187 0 .411-.012.677-.036.26-.025.508-.092.738-.201.229-.11.429-.268.592-.482.163-.213.242-.512.242-.89s-.079-.676-.242-.89c-.163-.213-.357-.377-.592-.481z"/><path d="m0 103 18.7672 56 262.2328-5.278v-42.348zm62.0756 36.441h-6.7475v-13.226h2.8115v10.49h4.7039l-.7679 2.743zm4.982 0h-2.8114v-13.226h2.8114zm10.8891-10.489h-3.277v10.489h-2.8114v-10.489h-3.4705l.7497-2.743h8.8092zm10.5022 0h-3.2771v10.489h-2.8114v-10.489h-3.4705l.7497-2.743h8.8093zm8.1441 10.489h-6.7475v-13.226h2.8115v10.49h4.7039l-.7679 2.743zm9.65 0h-7.4976v-13.226h7.2126l.75 2.646h-5.157v2.553h3.561v2.646h-3.561v2.742h5.435l-.749 2.646zm16.953-.225c-.756.329-1.566.494-2.425.494-.858 0-1.747-.171-2.551-.512-.798-.342-1.499-.817-2.092-1.427-.592-.609-1.064-1.34-1.409-2.182-.344-.841-.514-1.767-.514-2.779s.17-1.853.514-2.694c.345-.835.81-1.566 1.409-2.194s1.288-1.115 2.092-1.475c.798-.359 1.651-.536 2.551-.536.901 0 1.669.164 2.425.493.756.33 1.421.781 1.995 1.36l-1.965 1.816c-.326-.28-.689-.494-1.088-.64-.399-.152-.816-.226-1.258-.226-.514 0-.997.11-1.451.33-.453.219-.852.518-1.191.895-.338.378-.604.811-.804 1.305-.2.493-.302.999-.302 1.53 0 .579.102 1.115.302 1.609.2.493.472.92.804 1.286.339.365.732.652 1.191.859.454.207.937.311 1.451.311.411 0 .804-.067 1.173-.201s.702-.317 1.004-.555l2.158 1.774c-.586.579-1.257 1.03-2.013 1.359zm11.596.225-.822-2.645h-4.196l-.822 2.645h-3.017l4.553-13.226h2.775l4.553 13.226h-3.018zm15.479 0-1.071-6.704-1.856 6.704h-2.944l-1.856-6.704-1.052 6.704h-2.866l2.231-13.226h2.696l2.322 8.503 2.304-8.503h2.714l2.249 13.226h-2.884zm13.222-7.179c-.266.518-.622.95-1.07 1.304-.441.353-.949.616-1.511.792-.563.177-1.131.262-1.705.262h-1.5v4.821h-2.811v-13.226h4.123c.575 0 1.155.068 1.736.202.58.134 1.106.359 1.572.688.471.329.846.762 1.136 1.305.284.542.429 1.225.429 2.06 0 .682-.133 1.28-.405 1.792zm9.396 7.179h-7.497v-13.226h7.213l.75 2.646h-5.158v2.553h3.561v2.646h-3.561v2.742h5.436l-.75 2.646zm9.571 0-3.222-5.199h-.865v5.199h-2.811v-13.226h4.123c.574 0 1.155.068 1.735.202.581.134 1.107.359 1.572.688.472.329.847.762 1.137 1.305.284.542.429 1.225.429 2.06 0 .426-.066.816-.199 1.164-.133.347-.315.652-.545.926-.229.275-.501.506-.816.707-.314.201-.641.372-.991.512l3.863 5.669h-3.41zm13.302-2.114c-.303.579-.684 1.054-1.155 1.414-.466.365-.992.627-1.572.792-.581.164-1.155.244-1.717.244-.786 0-1.476-.08-2.062-.244-.586-.165-1.082-.348-1.481-.549-.46-.225-.859-.499-1.179-.81l1.759-2.268c.302.293.599.506.901.653.302.146.58.243.834.304.254.055.478.086.678.086h.423c.084 0 .23-.013.423-.037s.393-.085.593-.177c.199-.097.374-.225.532-.39.157-.164.235-.39.235-.682 0-.293-.048-.5-.151-.671-.103-.17-.26-.317-.49-.433-.223-.121-.513-.243-.87-.365-.357-.128-.792-.287-1.3-.494-.502-.189-.955-.384-1.36-.585-.406-.201-.756-.439-1.04-.719-.291-.275-.508-.61-.665-.994-.158-.384-.236-.859-.236-1.426s.121-1.097.363-1.585c.241-.493.58-.92 1.003-1.292s.931-.664 1.512-.877c.58-.214 1.215-.323 1.904-.323s1.288.079 1.808.237c.52.159.961.329 1.324.518.411.226.768.482 1.07.756l-1.65 2.097c-.375-.415-.804-.707-1.282-.878-.484-.171-.931-.238-1.348-.201-.418.037-.774.171-1.071.408-.296.238-.441.543-.441.933 0 .25.073.463.218.64s.338.329.58.451c.242.128.526.238.853.341.326.104.677.207 1.052.323.925.281 1.62.622 2.092 1.042.471.415.81.817 1.021 1.207.236.463.357.945.357 1.439 0 .828-.151 1.535-.447 2.115zm15.46 2.114-4.444-6.082v6.082h-2.812v-13.226h2.812v6.37l4.347-6.37h3.374l-4.759 6.687 4.892 6.539zm7.545 0h-2.811v-13.226h2.811zm10.889-10.489h-3.277v10.489h-2.811v-10.489h-3.471l.75-2.743h8.809z"/></g></svg>