<svg width="280" height="148" viewBox="0 0 280 148" fill="none" xmlns="http://www.w3.org/2000/svg">
<g id="TS4_Game-Box_EP-12-LOGO">
<g id="Page 1">
<path id="Exclude" fill-rule="evenodd" clip-rule="evenodd" d="M268 109H230L241.201 141.107L268 143V109ZM257.3 119.509C257.088 118.127 256.215 117.263 254.856 117.01C254.696 116.98 254.536 116.956 254.363 116.93C254.279 116.918 254.193 116.905 254.102 116.89C254.682 116.114 254.85 115.294 254.732 114.391C254.694 114.114 254.601 113.987 254.42 113.987C254.345 113.987 254.258 114.006 254.152 114.05C253.429 114.334 252.836 114.77 252.412 115.458C252.341 115.329 252.275 115.201 252.21 115.075C252.066 114.796 251.928 114.53 251.751 114.29C251.733 114.265 251.708 114.24 251.677 114.221C251.621 114.183 251.564 114.164 251.502 114.164C251.309 114.164 251.134 114.36 251.215 114.581C251.222 114.606 251.234 114.625 251.246 114.644C251.727 115.395 251.939 116.215 252.013 117.187C251.853 117.146 251.712 117.111 251.582 117.079L251.582 117.079L251.582 117.079L251.582 117.079C251.469 117.05 251.363 117.024 251.259 116.998C250.997 116.935 250.735 116.909 250.48 116.909C250.074 116.909 249.688 116.985 249.326 117.124C249.12 117.206 248.927 117.307 248.746 117.427L252.743 122.766L254.9 125.65C255.031 125.581 255.156 125.499 255.274 125.391C255.392 125.29 255.511 125.17 255.629 125.032C256.957 123.441 257.624 121.611 257.3 119.503V119.509ZM247.443 119.497C247.581 118.601 248.067 117.881 248.74 117.433L252.737 122.779L251.003 125.789C250.916 125.802 250.823 125.808 250.735 125.808C250.13 125.808 249.538 125.543 249.127 125.051C247.78 123.46 247.113 121.611 247.443 119.497ZM243.272 130.598C242.923 131.097 242.992 132.542 243.279 133.097V133.091L246.496 133.64L252.213 134.618C252.425 134.656 252.643 134.637 252.849 134.568L259.702 132.077L260.143 132.668L260.148 132.666L260.149 132.668L253.036 135.47C252.718 135.603 252.256 135.54 251.926 135.47L246.028 134.454L243.378 134C243.004 133.918 242.78 133.772 242.63 133.179C242.294 132.132 242.362 130.005 243.048 129.456C242.132 128.825 241.982 127.259 242.923 126.489C243.06 126.376 248.254 124.703 248.254 124.703C248.404 124.918 248.566 125.126 248.74 125.335C249.237 125.932 249.964 126.273 250.734 126.275L249.657 128.149L249.663 128.15L249.657 128.162L248.416 127.954L243.06 127.057C242.655 127.386 242.668 128.471 243.011 128.686L244.582 128.951L248.775 129.669L247.799 131.362L247.808 131.363L247.805 131.368L243.272 130.598ZM258.346 130.279L252.942 132.031C252.674 132.125 252.437 132.151 252.207 132.106L247.808 131.363L248.784 129.67L248.775 129.669L248.778 129.664L252.207 130.251V130.245C252.419 130.282 252.637 130.264 252.843 130.194L257.194 128.724L257.202 128.734L257.194 128.736L258.346 130.279ZM258.346 130.279L258.354 130.289L258.603 130.207L262.581 128.919C262.868 128.768 262.737 128.351 262.556 128.32V128.313L261.253 128.036L262.226 127.657C262.581 127.525 262.469 126.957 262.201 127.039L260.025 127.777L257.506 128.629L257.202 128.734L258.354 130.276L258.346 130.279ZM249.663 128.15L250.741 126.275L250.734 126.275L250.741 126.262C251.122 126.262 251.49 126.187 251.833 126.022C252.045 125.922 252.219 125.877 252.394 125.877C252.556 125.877 252.724 125.922 252.911 126.004C253.36 126.206 253.771 126.306 254.164 126.306C254.532 126.306 254.869 126.218 255.193 126.048C255.318 125.985 255.442 125.903 255.561 125.808C255.735 125.675 255.904 125.511 256.066 125.316C256.59 124.685 257.001 124.035 257.307 123.366L262.319 124.489C262.413 124.508 262.475 124.577 262.506 124.666C262.568 124.849 262.463 125.051 262.282 125.114L256.82 127.089L256.521 127.196L256.153 127.329L252.88 128.515C252.656 128.597 252.419 128.623 252.188 128.578L252.194 128.572L249.663 128.15ZM260.148 132.666L260.28 132.611L262.394 131.778C263.005 131.551 262.643 131.027 262.369 131.103L259.863 132.012L259.701 132.075L259.702 132.077L259.707 132.075L260.148 132.666ZM253.086 125.6C252.836 125.486 252.606 125.429 252.375 125.429C252.126 125.429 251.882 125.492 251.614 125.619C251.421 125.713 251.215 125.77 251.01 125.795L252.743 122.785L254.9 125.669C254.657 125.795 254.401 125.858 254.127 125.858C253.803 125.858 253.46 125.77 253.086 125.6Z" fill="white"/>
<g id="Asset 1 1">
<path id="Exclude_2" fill-rule="evenodd" clip-rule="evenodd" d="M21 103L230.941 109.027L242 141.245L35.6537 146L21 103ZM102.388 123.418C102.388 122.165 104.524 121.895 105.738 123.21V123.205L107.071 121.541C107.071 121.541 105.892 120.344 103.675 120.344C101.459 120.344 99.8065 121.794 99.8065 123.576C99.8065 125.358 100.855 125.914 102.479 126.527C102.791 126.648 103.067 126.747 103.308 126.834C104.35 127.209 104.752 127.353 104.752 128.084C104.752 128.983 103.584 129.101 103.311 129.101C103.29 129.101 103.266 129.101 103.238 129.102C102.876 129.109 101.936 129.126 101.02 128.28L99.5957 130.079C99.5957 130.079 100.883 131.349 103.419 131.349C105.254 131.349 107.379 130.366 107.379 127.73C107.379 127.73 107.562 125.678 104.57 124.812C104.479 124.785 104.388 124.758 104.3 124.732C103.229 124.415 102.388 124.166 102.388 123.418ZM82.5638 130.32V124.919H78.1193L77.5609 126.864H80.2903V128.853C79.7718 129.095 79.1849 129.23 78.5752 129.23C76.541 129.23 74.8886 127.763 74.8886 125.846C74.8886 123.39 77.937 121.13 81.0025 123.48L82.3986 121.805C81.3672 120.922 79.8344 120.383 78.4669 120.383C75.1621 120.383 72.6094 122.822 72.6094 125.846C72.6094 128.87 74.8886 131.31 78.4669 131.31C80.182 131.31 82.1991 130.573 82.5638 130.32ZM66.5698 120.607V131.085H64.2963V126.712H60.2735V131.085H58V120.607H60.2735V124.767H64.2963V120.607H66.5698ZM70.9747 131.085H68.7012V120.607H70.9747V131.085ZM93.1284 120.607V131.085H90.8549V126.712H86.8321V131.085H84.5586V120.607H86.8321V124.767H90.8549V120.607H93.1284ZM117.475 129.832L115.732 128.427C115.248 128.798 114.638 129.023 113.971 129.023C112.302 129.023 110.934 127.634 110.934 125.807C110.934 124.121 112.302 122.592 113.971 122.592C114.683 122.592 115.35 122.845 115.869 123.278L117.464 121.839C116.541 120.929 115.282 120.372 113.886 120.372C110.957 120.372 108.575 122.812 108.575 125.83C108.575 129.034 110.957 131.293 113.886 131.293C115.279 131.293 116.536 130.739 117.475 129.832ZM127.647 131.085V120.607H125.373V124.767H121.351V120.607H119.077V131.085H121.351V126.712H125.373V131.085H127.647ZM140.513 125.818C140.513 128.842 137.995 131.281 134.901 131.281C131.807 131.281 129.288 128.842 129.288 125.818C129.288 122.794 131.79 120.354 134.901 120.354C138.012 120.354 140.513 122.794 140.513 125.818ZM138.16 125.818C138.16 123.991 136.69 122.524 134.901 122.524C133.111 122.524 131.641 123.991 131.641 125.818C131.641 127.645 133.1 129.112 134.901 129.112C136.701 129.112 138.16 127.645 138.16 125.818ZM147.271 131.281C150.365 131.281 152.883 128.842 152.883 125.818C152.883 122.794 150.382 120.354 147.271 120.354C144.16 120.354 141.658 122.794 141.658 125.818C141.658 128.842 144.177 131.281 147.271 131.281ZM147.271 122.524C149.06 122.524 150.53 123.991 150.53 125.818C150.53 127.645 149.071 129.112 147.271 129.112C145.47 129.112 144.011 127.645 144.011 125.818C144.011 123.991 145.482 122.524 147.271 122.524ZM160.558 128.915L159.937 131.085H154.473V120.607H156.746V128.915H160.558ZM170.814 131.085L175.413 120.607H172.94L171.151 124.694L168.695 120.607H166.022L170.085 127.116L168.342 131.085H170.814ZM183.379 128.988L182.77 131.085H176.701V120.607H182.542L183.151 122.704H178.98V124.722H181.864V126.818H178.98V128.988H183.379ZM186.633 131.085L187.3 128.988H190.696L191.362 131.085H193.807L190.12 120.607H187.875L184.188 131.085H186.633ZM188.998 123.705L190.12 127.189H187.875L188.998 123.705ZM197.271 126.97V131.085H194.997V120.607H198.336C200.216 120.607 202.279 121.355 202.279 123.974C202.279 125.335 201.367 126.161 200.216 126.594L203.345 131.085H200.581L197.971 126.97H197.271ZM197.271 125.475H198.102C198.724 125.475 199.926 125.177 199.926 123.98C199.926 122.783 198.729 122.71 198.102 122.71H197.271V125.475ZM207.009 123.418C207.009 122.165 209.146 121.895 210.359 123.21V123.205L211.693 121.541C211.693 121.541 210.513 120.344 208.297 120.344C206.08 120.344 204.428 121.794 204.428 123.576C204.428 125.358 205.476 125.914 207.1 126.527C207.413 126.648 207.688 126.747 207.929 126.834C208.971 127.209 209.374 127.353 209.374 128.084C209.374 128.983 208.205 129.101 207.932 129.101C207.911 129.101 207.887 129.101 207.859 129.102C207.497 129.109 206.557 129.126 205.641 128.28L204.217 130.079C204.217 130.079 205.505 131.349 208.04 131.349C209.875 131.349 212 130.366 212 127.73C212 127.73 212.183 125.678 209.191 124.812C209.1 124.785 209.01 124.758 208.921 124.732C207.85 124.415 207.009 124.166 207.009 123.418Z" fill="white"/>
</g>
</g>
<path id="THE SIMS 4" fill-rule="evenodd" clip-rule="evenodd" d="M31.941 50.3193L41.3737 50.349L32.279 47.8469L27.4388 8.72824L29.3543 47.4547L22.1036 46.4586L14.8505 45.472L27.083 8.68004L11.927 45.0674L2.49609 45.0382L11.5903 47.5404L16.4304 86.659L14.5149 47.9325L21.7656 48.9281L29.0187 49.9141L16.7856 86.706L31.941 50.3193ZM41.8708 50.4169L16.2997 88.9494L2 44.9698L27.5711 6.43729L41.8708 50.4169ZM96.7497 5.7149H100.234V2.30585L90.2678 2.30943L89.2812 5.71728H93.1378L93.1413 17.2993L96.7533 17.2928L96.7497 5.7149ZM100.984 2H103.909L103.912 7.18646C104.742 6.26711 105.774 5.77441 106.993 5.77441C108.979 5.77441 110.326 7.05198 110.326 9.21975L110.329 17.288H107.078L107.072 10.2254C107.072 9.15786 106.691 8.64612 105.865 8.64612C104.85 8.64612 104.211 9.32983 104.213 10.586V17.2916H100.988L100.984 2ZM117.132 8.61874C115.592 8.61874 114.444 9.72792 114.444 11.3179L114.441 11.4893L118.377 8.95554C117.993 8.74013 117.584 8.61874 117.132 8.61874ZM116.919 17.4053C113.568 17.4053 111.106 14.9923 111.104 11.6059C111.104 8.25755 113.471 5.8107 117.066 5.80832C119.269 5.80832 120.962 6.86215 122.354 9.03766L115.212 13.6422C115.764 14.1081 116.373 14.3259 117.069 14.3259C117.967 14.3259 118.999 13.8962 120.192 13.0852L121.946 15.5618C120.3 16.7751 118.634 17.4023 116.919 17.4053ZM93.0801 20.2145V48.1224C95.2181 51.6236 96.5474 56.1085 96.5474 61.9739C96.5474 67.3104 95.3597 72.1029 93.0801 76.1891V86.6138H111.957V20.2145H93.0801ZM203.829 44.771C211.859 47.2554 222.861 50.6501 222.861 65.2473C222.861 78.5568 213.034 87.1595 197.818 87.1595C191.589 87.1595 185.759 85.7772 180.843 83.203L180.689 83.1351L181.486 86.6138H162.728L159.699 62.8606L155.237 86.6138H138.555L134.334 63.0486L130.711 86.6138H112.738L125.098 12.9817L140.348 12.9858L147.174 47.2238L153.421 20.1984H169.012L178.939 73.722L185.234 65.6966L185.85 66.4077C188.57 69.5561 192.492 71.2216 197.176 71.2216C199.631 71.2216 204.701 70.0286 204.701 66.3559C204.701 63.1593 201.157 61.8627 195.377 60.0079C187.352 57.4438 176.366 53.9265 176.366 39.684C176.366 26.4738 188.652 19.3475 200.219 19.3475C207.643 19.3475 215.222 22.0639 221.008 26.8142L221.596 27.295L212.048 39.4138L211.431 38.8824C207.921 35.8251 205.295 34.2708 200.671 34.2708C198.167 34.2708 194.532 35.7739 194.532 38.4861C194.532 41.7387 198.066 42.9936 203.829 44.771ZM70.805 37.9226C81.4451 41.2019 93.4979 44.9222 93.4979 61.9739C93.4979 70.1017 90.4768 76.7978 84.7619 81.3274C79.5523 85.4659 72.1004 87.748 63.7799 87.748C61.0367 87.748 58.3572 87.5111 55.7621 87.0678C48.9304 85.7748 41.8796 82.4187 33.3906 75.4132L43.0531 61.4854C45.341 63.6621 52.6792 71.0532 62.964 71.0532C67.318 71.0532 74.2182 69.1152 74.2182 63.3664C74.2182 57.836 68.207 55.9146 61.2473 53.6891C50.6239 50.2836 38.5771 46.4283 38.5771 29.8121C38.5771 14.3515 53.1195 6.01183 66.795 6.01183C75.1275 6.01183 83.7813 8.92461 90.5446 13.9938L91.2075 14.4949L81.4314 26.8987L80.7888 26.3757C76.9239 23.1945 73.3203 21.2207 67.3805 21.2207C63.5323 21.2207 57.8543 23.4706 57.8543 28.3036C57.8543 33.9191 63.8566 35.7739 70.805 37.9226ZM222.934 23.3094H222.207L222.209 19.9283H223.022L223.911 21.3582L224.799 19.9301L225.588 19.9313V23.3094L224.863 23.3105V21.0297L223.931 22.5108L223.87 22.5072L222.932 21.0244L222.934 23.3094ZM219.717 20.609L218.713 20.6078V19.9289H221.501L221.498 20.6078L220.489 20.612L220.487 23.3094H219.719L219.717 20.609ZM278.472 66.4844V86.6138H268.915V101.738H249.192V86.6138H213.514C215.161 85.7266 216.683 84.6864 218.052 83.4904C223.193 78.9918 225.91 72.6855 225.91 65.2473C225.91 56.5774 222.395 51.2892 217.902 47.8588L250.427 6.62116H268.915V66.4844H278.472ZM249.221 38.5391L229.299 66.4844H249.221V38.5391Z" fill="white"/>
</g>
</svg>
