<svg width="280" height="158" viewBox="0 0 280 158" fill="none" xmlns="http://www.w3.org/2000/svg">
<g id="TS4-KIT-12_Game-Box_LOGO">
<path id="Union" fill-rule="evenodd" clip-rule="evenodd" d="M229.916 65.9987H250.044V37.8308L229.916 65.9987ZM269.944 5.68865V65.9987H279.602V86.3142H269.974V101.563H250.044V86.3142H213.999C215.641 85.4408 217.18 84.3856 218.585 83.1684C223.778 78.6359 226.522 72.2783 226.522 64.7801C226.522 56.0391 222.971 50.7141 218.434 47.2561L251.29 5.68865H269.944ZM221.034 22.4982H220.24V19.7786H219.229V19.0942H222.051V19.7786H221.034V22.4982ZM224.434 21.6877L223.483 20.1929L223.489 22.4982H222.755V19.0762H223.573L224.476 20.517L225.372 19.0762H226.167V22.4982H225.439V20.1929L224.494 21.6877H224.434ZM56.7021 27.511C56.7021 33.1722 62.7678 35.0452 69.7902 37.2065V37.2305C80.5374 40.5384 92.7168 44.2905 92.7168 61.4722C92.7168 69.6668 89.666 76.4146 83.8892 80.9832C78.6239 85.1556 71.114 87.4549 62.6895 87.4549C59.9752 87.4538 57.2658 87.2248 54.59 86.7705C47.6879 85.4678 40.5632 82.0818 31.9883 75.0218L41.7487 60.9799C41.8292 61.0565 41.916 61.1395 42.0089 61.2284C44.58 63.6876 51.8353 70.6274 61.8651 70.6274C66.2639 70.6274 73.2382 68.6763 73.2382 62.877C73.2382 57.3299 67.1665 55.3667 60.1321 53.1275L60.1285 53.1263C49.3942 49.6927 37.2295 45.8015 37.2295 29.0599C37.2295 13.451 51.8942 5.04628 65.7344 5.04628C74.3854 5.12668 82.7877 7.94332 89.7321 13.0908L90.4001 13.5951L80.5254 26.0942L79.8755 25.5719C75.9581 22.3661 72.3476 20.3729 66.3301 20.3729C62.4428 20.3729 56.7021 22.6422 56.7021 27.511ZM194.792 37.7768C194.792 41.0547 198.36 42.3094 204.185 44.1104H204.137C212.278 46.6138 223.393 50.0357 223.393 64.75C223.393 78.1676 213.488 86.8365 198.119 86.8365C192.164 86.905 186.281 85.5374 180.969 82.8503L180.813 82.7782L181.613 86.2842H162.664L159.601 62.3427L155.088 86.2842H138.239L133.973 62.5348L130.314 86.2842H112.153L124.64 12.0763H140.05L146.946 46.5838L153.259 19.3464H168.989L179.02 73.2929L185.38 65.2003L185.982 65.9207C188.72 69.0965 192.679 70.7714 197.415 70.7714C199.894 70.7714 205.015 69.5708 205.015 65.8667C205.015 62.6428 201.435 61.3401 195.598 59.467C187.486 56.8856 176.39 53.3376 176.39 38.9835C176.39 25.692 188.804 18.4879 200.49 18.4879C208.144 18.5432 215.55 21.1961 221.491 26.0101L222.093 26.4964L212.465 38.7133L211.863 38.179C208.319 35.0933 205.665 33.5264 200.996 33.5264C198.462 33.5264 194.792 35.0453 194.792 37.7768ZM111.365 86.2842V19.3584H92.2956V47.4903C94.4499 51.0203 95.7978 55.5408 95.7978 61.4482C95.8815 66.4455 94.6755 71.3802 92.2956 75.7783V86.2842H111.365ZM121.456 14.6697C120.011 15.8237 118.228 16.4769 116.378 16.5308H116.39C115.612 16.5593 114.836 16.4276 114.112 16.144C113.387 15.8604 112.729 15.4309 112.178 14.8823C111.627 14.3337 111.195 13.6778 110.909 12.9554C110.623 12.233 110.49 11.4596 110.517 10.6835C110.517 7.30957 112.924 4.84217 116.534 4.84217C118.761 4.84217 120.469 5.89877 121.878 8.09602L114.657 12.7366C115.174 13.1894 115.84 13.4353 116.528 13.427C117.681 13.3235 118.779 12.8876 119.687 12.1723L121.456 14.6697ZM117.864 8.01196C117.482 7.79092 117.048 7.67298 116.606 7.66976C116.245 7.65714 115.885 7.71889 115.549 7.85118C115.213 7.98346 114.908 8.18344 114.653 8.43862C114.397 8.6938 114.198 8.9987 114.066 9.33433C113.934 9.66995 113.873 10.0291 113.886 10.3893V10.5634L117.864 8.01196ZM103.554 16.4107H100.293L100.275 1H103.229V6.22895C103.613 5.78086 104.091 5.42152 104.628 5.17583C105.165 4.93014 105.749 4.80399 106.34 4.80615C108.35 4.80615 109.71 6.09088 109.71 8.27611V16.4107H106.425V9.29069C106.425 8.21608 106.058 7.69979 105.221 7.69979C104.198 7.69979 103.554 8.39017 103.554 9.65688V16.4107ZM92.3678 16.4107H96.0144L96.0204 4.75212H99.5407V1.31217H89.4674L88.4745 4.74611H92.3678V16.4107ZM39.7484 50.3295L30.2259 50.2995L14.9264 87.0323L27.2758 49.8904L19.9538 48.895L12.6341 47.89L14.5678 86.9849L9.68163 47.4942L0.500977 44.9682L10.0216 44.9976L25.3217 8.26416L12.9729 45.4061L20.295 46.4021L27.6146 47.4077L25.681 8.31282L30.5671 47.8035L39.7484 50.3295ZM14.4357 89.2969L40.25 50.3979L25.8143 6L0 44.899L14.4357 89.2969Z" fill="white"/>
<g id="Frame" clip-path="url(#clip0_3406_44374)">
<path id="Vector" d="M100.24 133.17H103L101.62 128.82L100.24 133.17Z" fill="white"/>
<path id="Vector_2" d="M77.58 133.17H80.34L78.96 128.82L77.58 133.17Z" fill="white"/>
<path id="Vector_3" d="M40.02 133.17H42.79L41.43 128.82L40.02 133.17Z" fill="white"/>
<path id="Vector_4" d="M53.79 127.799C53.5603 127.692 53.3129 127.628 53.0601 127.609C52.7901 127.609 52.57 127.609 52.38 127.609H51.38V131.059H52.38C52.6086 131.053 52.8361 131.026 53.0601 130.979C53.3161 130.919 53.562 130.821 53.79 130.689C54.0312 130.548 54.2364 130.353 54.39 130.119C54.5634 129.841 54.6471 129.517 54.63 129.189C54.6521 128.877 54.5674 128.567 54.39 128.309C54.2347 128.093 54.0287 127.918 53.79 127.799V127.799Z" fill="white"/>
<path id="Vector_5" d="M149.65 127.799C149.417 127.691 149.166 127.626 148.91 127.609C148.65 127.609 148.43 127.609 148.24 127.609H147.24V131.059H148.24C148.465 131.053 148.69 131.026 148.91 130.979C149.169 130.919 149.419 130.821 149.65 130.689C149.891 130.548 150.096 130.353 150.25 130.119C150.423 129.841 150.507 129.517 150.49 129.189C150.512 128.877 150.427 128.567 150.25 128.309C150.095 128.093 149.889 127.918 149.65 127.799Z" fill="white"/>
<path id="Vector_6" d="M229.82 127.799C229.587 127.691 229.336 127.626 229.08 127.609C228.82 127.609 228.6 127.609 228.41 127.609H227.41V131.059H228.41C228.636 131.058 228.86 131.031 229.08 130.979C229.339 130.919 229.589 130.821 229.82 130.689C230.061 130.548 230.267 130.353 230.42 130.119C230.594 129.841 230.677 129.517 230.66 129.189C230.682 128.877 230.598 128.567 230.42 128.309C230.268 128.09 230.061 127.915 229.82 127.799V127.799Z" fill="white"/>
<path id="Vector_7" d="M0 102L18.7001 157.36L280 152.14V110.28L0 102ZM32.77 137.8C32.0068 138.12 31.1879 138.287 30.3601 138.29C29.4877 138.293 28.6237 138.12 27.8201 137.78C27.0353 137.456 26.3243 136.976 25.7301 136.37C25.126 135.749 24.6502 135.015 24.3301 134.21C23.9815 133.339 23.8082 132.408 23.8201 131.47C23.8163 129.678 24.5 127.953 25.7301 126.65C26.3275 126.035 27.0369 125.539 27.8201 125.19C28.6088 124.846 29.4598 124.669 30.3201 124.669C31.1803 124.669 32.0314 124.846 32.8201 125.19C33.5685 125.505 34.2479 125.964 34.8201 126.54L32.8201 128.34C32.4975 128.072 32.1326 127.859 31.7401 127.71C31.3399 127.563 30.9166 127.488 30.4901 127.49C29.9893 127.49 29.4944 127.599 29.04 127.81C28.5845 128.023 28.1765 128.326 27.8401 128.7C27.498 129.08 27.2239 129.517 27.03 129.99C26.8309 130.468 26.729 130.982 26.7301 131.5C26.7161 132.561 27.1139 133.586 27.8401 134.36C28.1773 134.723 28.5858 135.012 29.04 135.21C29.8671 135.581 30.8048 135.62 31.66 135.32C32.0217 135.194 32.3596 135.008 32.66 134.77L34.8101 136.5C34.2164 137.056 33.5246 137.497 32.77 137.8V137.8ZM44.3201 138.03L43.5 135.44H39.3101L38.4901 138.06H35.4901L40.03 124.98H42.79L47.3301 138.06L44.3201 138.03ZM55.42 138.03L52.2101 132.89H51.3601V138.03H48.5601V124.95H52.66C53.2424 124.952 53.8227 125.019 54.39 125.15C54.9529 125.272 55.4864 125.503 55.9601 125.83C56.4349 126.163 56.8225 126.605 57.0901 127.12C57.3961 127.741 57.5437 128.428 57.52 129.12C57.5383 129.878 57.2746 130.615 56.78 131.19C56.5439 131.46 56.2714 131.696 55.9701 131.89C55.6538 132.089 55.3189 132.256 54.9701 132.39L58.8201 138L55.42 138.03ZM71.79 138.03H68.7301L62.92 129.21V138.03H60.1101V124.95H62.91L68.9801 133.95V124.95H71.79V138.03ZM81.8601 138.03L81.03 135.44H76.8501L76.03 138.06H73.03L77.5701 124.98H80.3101L84.8501 138.06L81.8601 138.03ZM88.8601 138.03L84.3101 124.95H87.3101L90.2201 134.16L93.14 124.95H96.14L91.6001 138.03H88.8601ZM104.49 138.03L103.66 135.44H99.4801L98.66 138.06H95.66L100.2 124.98H102.97L107.5 138.06L104.49 138.03ZM115.49 138.03H108.76V124.95H111.56V135.32H116.31L115.49 138.03ZM132.35 135.95C132.073 136.495 131.681 136.973 131.2 137.35C130.736 137.713 130.207 137.981 129.64 138.14C129.083 138.294 128.508 138.375 127.93 138.38C127.236 138.391 126.543 138.31 125.87 138.14C125.364 138.003 124.872 137.819 124.4 137.59C123.965 137.391 123.566 137.12 123.22 136.79L124.97 134.55C125.237 134.809 125.54 135.028 125.87 135.2C126.134 135.329 126.413 135.426 126.7 135.49C126.923 135.545 127.151 135.575 127.38 135.58H127.79H128.22C128.428 135.549 128.63 135.489 128.82 135.4C129.02 135.31 129.2 135.18 129.35 135.02C129.428 134.928 129.489 134.823 129.53 134.71C129.571 134.595 129.588 134.472 129.58 134.35C129.58 134.112 129.511 133.879 129.38 133.68C129.264 133.492 129.098 133.34 128.9 133.24C128.619 133.1 128.328 132.979 128.03 132.88L126.73 132.39C126.268 132.219 125.817 132.019 125.38 131.79C125.013 131.605 124.676 131.366 124.38 131.08C124.091 130.798 123.866 130.457 123.72 130.08C123.551 129.63 123.469 129.151 123.48 128.67C123.481 128.125 123.608 127.588 123.85 127.1C124.092 126.609 124.433 126.174 124.85 125.82C125.291 125.441 125.8 125.149 126.35 124.96C126.959 124.739 127.603 124.631 128.25 124.64C128.861 124.631 129.47 124.709 130.06 124.87C130.511 125 130.95 125.171 131.37 125.38C131.756 125.586 132.115 125.838 132.44 126.13L130.8 128.23C130.47 127.87 130.063 127.588 129.61 127.404C129.156 127.221 128.668 127.141 128.18 127.17C127.793 127.2 127.422 127.338 127.11 127.57C126.971 127.681 126.858 127.821 126.78 127.98C126.704 128.139 126.666 128.314 126.67 128.49C126.661 128.723 126.74 128.951 126.89 129.13C127.056 129.321 127.261 129.474 127.49 129.58C127.763 129.715 128.048 129.825 128.34 129.91L129.39 130.23C130.146 130.412 130.855 130.753 131.47 131.23C131.868 131.572 132.206 131.977 132.47 132.43C132.702 132.867 132.822 133.355 132.82 133.85C132.841 134.577 132.683 135.298 132.36 135.95H132.35ZM143 127.66H139.73V138.03H136.93V127.66H133.47L134.22 124.95H143V127.66ZM151.31 138.03L148.1 132.89H147.24V138.03H144.44V124.95H148.55C149.132 124.952 149.713 125.019 150.28 125.15C150.843 125.272 151.376 125.503 151.85 125.83C152.325 126.161 152.709 126.604 152.97 127.12C153.279 127.74 153.43 128.427 153.41 129.12C153.424 129.877 153.161 130.613 152.67 131.19C152.433 131.462 152.156 131.698 151.85 131.89C151.535 132.091 151.2 132.259 150.85 132.39L154.7 138L151.31 138.03ZM163.46 138.03H155.99V124.98H163.16L163.91 127.6H158.78V130.12H162.31V132.73H158.77V135.43H164.2L163.46 138.03ZM173.6 138.03H166.13V124.98H173.31L174.06 127.6H168.92V130.12H172.47V132.73H168.92V135.43H174.31L173.6 138.03ZM184.79 127.63H181.53V138.03H178.72V127.66H175.27L176.01 124.95H184.79V127.63ZM197.62 138H195.09L193.51 131.43L191.96 138.06H189.44L185.83 124.98H188.78L190.78 132.17L192.25 124.98H194.79L196.27 132.17L198.27 124.98H201.22L197.62 138ZM210.15 138H202.68V124.95H209.87L210.62 127.57H205.46V130.09H209V132.7H205.46V135.43H210.87L210.15 138ZM220.4 138L219.56 135.41H215.31L214.49 138.03H211.49L216.03 124.95H218.79L223.33 138.03L220.4 138ZM231.49 138L228.27 132.86H227.41V138H224.61V124.95H228.72C229.302 124.952 229.883 125.019 230.45 125.15C231.013 125.272 231.546 125.503 232.02 125.83C232.495 126.163 232.883 126.605 233.15 127.12C233.452 127.743 233.599 128.429 233.58 129.12C233.585 129.512 233.518 129.902 233.38 130.27C233.258 130.607 233.075 130.919 232.84 131.19C232.604 131.46 232.331 131.696 232.03 131.89C231.714 132.089 231.379 132.256 231.03 132.39L234.88 138H231.49ZM249.4 138L244.97 132V138H242.17V124.95H244.97V131.23L249.31 124.95H252.68L247.93 131.58L252.8 138.03L249.4 138ZM256.91 138H254.13V124.95H256.94L256.91 138ZM267.76 127.63H264.5V138.03H261.69V127.66H258.24L258.98 124.95H267.76V127.63Z" fill="white"/>
<path id="Vector_8" d="M216.07 133.17H218.83L217.44 128.82L216.07 133.17Z" fill="white"/>
</g>
</g>
<defs>
<clipPath id="clip0_3406_44374">
<rect width="280" height="55.36" fill="white" transform="translate(0 102)"/>
</clipPath>
</defs>
</svg>
