<svg width="280" height="158" viewBox="0 0 280 158" fill="none" xmlns="http://www.w3.org/2000/svg">
<g id="TS4-KIT-16_Game-Box_LOGO">
<path id="Union" fill-rule="evenodd" clip-rule="evenodd" d="M229.916 65.9987H250.044V37.8308L229.916 65.9987ZM269.944 5.68865V65.9987H279.602V86.3142H269.974V101.563H250.044V86.3142H213.999C215.641 85.4408 217.18 84.3856 218.585 83.1684C223.778 78.6359 226.522 72.2783 226.522 64.7801C226.522 56.0391 222.971 50.7141 218.434 47.2561L251.29 5.68865H269.944ZM221.034 22.4982H220.24V19.7786H219.229V19.0942H222.051V19.7786H221.034V22.4982ZM224.434 21.6877L223.483 20.1929L223.489 22.4982H222.755V19.0762H223.573L224.476 20.517L225.372 19.0762H226.167V22.4982H225.439V20.1929L224.494 21.6877H224.434ZM56.7021 27.511C56.7021 33.1722 62.7678 35.0452 69.7902 37.2065V37.2305C80.5374 40.5384 92.7168 44.2905 92.7168 61.4722C92.7168 69.6668 89.666 76.4146 83.8892 80.9832C78.6239 85.1556 71.114 87.4549 62.6895 87.4549C59.9752 87.4538 57.2658 87.2248 54.59 86.7705C47.6879 85.4678 40.5632 82.0818 31.9883 75.0218L41.7487 60.9799C41.8292 61.0565 41.916 61.1395 42.0089 61.2284C44.58 63.6876 51.8353 70.6274 61.8651 70.6274C66.2639 70.6274 73.2382 68.6763 73.2382 62.877C73.2382 57.3299 67.1665 55.3667 60.1321 53.1275L60.1285 53.1263C49.3942 49.6927 37.2295 45.8015 37.2295 29.0599C37.2295 13.451 51.8942 5.04628 65.7344 5.04628C74.3854 5.12668 82.7877 7.94332 89.7321 13.0908L90.4001 13.5951L80.5254 26.0942L79.8755 25.5719C75.9581 22.3661 72.3476 20.3729 66.3301 20.3729C62.4428 20.3729 56.7021 22.6422 56.7021 27.511ZM194.792 37.7768C194.792 41.0547 198.36 42.3094 204.185 44.1104H204.137C212.278 46.6138 223.393 50.0357 223.393 64.75C223.393 78.1676 213.488 86.8365 198.119 86.8365C192.164 86.905 186.281 85.5374 180.969 82.8503L180.813 82.7782L181.613 86.2842H162.664L159.601 62.3427L155.088 86.2842H138.239L133.973 62.5348L130.314 86.2842H112.153L124.64 12.0763H140.05L146.946 46.5838L153.259 19.3464H168.989L179.02 73.2929L185.38 65.2003L185.982 65.9207C188.72 69.0965 192.679 70.7714 197.415 70.7714C199.894 70.7714 205.015 69.5708 205.015 65.8667C205.015 62.6428 201.435 61.3401 195.598 59.467C187.486 56.8856 176.39 53.3376 176.39 38.9835C176.39 25.692 188.804 18.4879 200.49 18.4879C208.144 18.5432 215.55 21.1961 221.491 26.0101L222.093 26.4964L212.465 38.7133L211.863 38.179C208.319 35.0933 205.665 33.5264 200.996 33.5264C198.462 33.5264 194.792 35.0453 194.792 37.7768ZM111.365 86.2842V19.3584H92.2956V47.4903C94.4499 51.0203 95.7978 55.5408 95.7978 61.4482C95.8815 66.4455 94.6755 71.3802 92.2956 75.7783V86.2842H111.365ZM121.456 14.6697C120.011 15.8237 118.228 16.4769 116.378 16.5308H116.39C115.612 16.5593 114.836 16.4276 114.112 16.144C113.387 15.8604 112.729 15.4309 112.178 14.8823C111.627 14.3337 111.195 13.6778 110.909 12.9554C110.623 12.233 110.49 11.4596 110.517 10.6835C110.517 7.30957 112.924 4.84217 116.534 4.84217C118.761 4.84217 120.469 5.89877 121.878 8.09602L114.657 12.7366C115.174 13.1894 115.84 13.4353 116.528 13.427C117.681 13.3235 118.779 12.8876 119.687 12.1723L121.456 14.6697ZM117.864 8.01196C117.482 7.79092 117.048 7.67298 116.606 7.66976C116.245 7.65714 115.885 7.71889 115.549 7.85118C115.213 7.98346 114.908 8.18344 114.653 8.43862C114.397 8.6938 114.198 8.9987 114.066 9.33433C113.934 9.66995 113.873 10.0291 113.886 10.3893V10.5634L117.864 8.01196ZM103.554 16.4107H100.293L100.275 1H103.229V6.22895C103.613 5.78086 104.091 5.42152 104.628 5.17583C105.165 4.93014 105.749 4.80399 106.34 4.80615C108.35 4.80615 109.71 6.09088 109.71 8.27611V16.4107H106.425V9.29069C106.425 8.21608 106.058 7.69979 105.221 7.69979C104.198 7.69979 103.554 8.39017 103.554 9.65688V16.4107ZM92.3678 16.4107H96.0144L96.0204 4.75212H99.5407V1.31217H89.4674L88.4745 4.74611H92.3678V16.4107ZM39.7484 50.3295L30.2259 50.2995L14.9264 87.0323L27.2758 49.8904L19.9538 48.895L12.6341 47.89L14.5678 86.9849L9.68163 47.4942L0.500977 44.9682L10.0216 44.9976L25.3217 8.26416L12.9729 45.4061L20.295 46.4021L27.6146 47.4077L25.681 8.31282L30.5671 47.8035L39.7484 50.3295ZM14.4357 89.2969L40.25 50.3979L25.8143 6L0 44.899L14.4357 89.2969Z" fill="white"/>
<g id="Frame">
<path id="Subtract" fill-rule="evenodd" clip-rule="evenodd" d="M0 99.8137L280 108.092V149.951L18.7004 155.168L0 99.8137ZM85.2309 128.553H88.7794V131.167H85.2309V135.836H82.4294V122.763H89.2071L89.9903 125.474H85.2248V128.559L85.2309 128.553ZM91.4312 135.836H94.2326V122.763H91.4312V135.836ZM100.498 130.705H99.6362V135.844H96.8347V122.771H100.944C103.257 122.771 105.799 123.705 105.799 126.976C105.799 128.675 104.679 129.705 103.257 130.248L107.107 135.85H103.709L100.498 130.711V130.705ZM99.6362 128.838H100.666C101.432 128.838 102.908 128.464 102.908 126.97C102.908 125.476 101.432 125.38 100.666 125.38H99.6362V128.838ZM111.258 126.277C111.258 124.71 113.89 124.373 115.384 126.018H115.39L117.035 123.945C117.035 123.945 115.577 122.451 112.848 122.451C110.119 122.451 108.083 124.265 108.083 126.488C108.083 128.711 109.372 129.404 111.372 130.169C111.75 130.316 112.084 130.437 112.376 130.543L112.377 130.543C113.676 131.014 114.174 131.194 114.174 132.109C114.174 133.229 112.734 133.38 112.396 133.38C112.372 133.38 112.343 133.38 112.31 133.381C111.869 133.389 110.71 133.41 109.577 132.35L107.824 134.591C107.824 134.591 109.408 136.175 112.529 136.175C114.788 136.175 117.403 134.946 117.403 131.657C117.403 131.657 117.626 129.096 113.945 128.012C113.836 127.979 113.729 127.947 113.623 127.915L113.622 127.915C112.301 127.52 111.258 127.208 111.258 126.277ZM127.614 125.474H124.348V135.843H121.547V125.474H118.089L118.836 122.763H127.614V125.474ZM141.459 128.553H137.911L137.905 128.559V125.474H142.67L141.887 122.763H135.109V135.836H137.911V131.167H141.459V128.553ZM146.911 135.836H144.11V122.763H146.911V135.836ZM154.454 125.474H157.72V122.763H148.942L148.195 125.474H151.653V135.843H154.454V125.474ZM166.256 126.018C164.762 124.373 162.129 124.71 162.129 126.277C162.129 127.208 163.172 127.52 164.493 127.915C164.599 127.947 164.707 127.979 164.816 128.012C168.497 129.096 168.274 131.657 168.274 131.657C168.274 134.946 165.659 136.175 163.4 136.175C160.279 136.175 158.695 134.591 158.695 134.591L160.448 132.35C161.581 133.41 162.74 133.389 163.181 133.381C163.214 133.38 163.243 133.38 163.267 133.38C163.605 133.38 165.045 133.229 165.045 132.109C165.045 131.194 164.547 131.014 163.248 130.543L163.248 130.543C162.955 130.437 162.621 130.316 162.243 130.169C160.243 129.404 158.954 128.711 158.954 126.488C158.954 124.265 160.99 122.451 163.719 122.451C166.448 122.451 167.906 123.945 167.906 123.945L166.262 126.018H166.256ZM186.621 135.836H186.632L186.626 135.843L186.621 135.836ZM186.621 135.836H183.234L178.806 129.824V135.836H176.004V122.763H178.806V129.059L183.137 122.763H186.499L181.752 129.378L186.621 135.836ZM190.752 135.836H187.951V122.763H190.752V135.836ZM198.302 125.474H201.567V122.763H192.789L192.042 125.474H195.5V135.843H198.302V125.474Z" fill="white"/>
</g>
</g>
</svg>
