<svg width="280" height="148" viewBox="0 0 280 148" fill="none" xmlns="http://www.w3.org/2000/svg">
<g id="TS4-GP11_Game-Box_LOGO">
<path id="Vector" d="M115.229 123.875C115.414 124.304 115.509 124.767 115.509 125.234C115.509 125.702 115.414 126.164 115.229 126.594C115.047 127 114.786 127.366 114.462 127.671C114.129 127.978 113.741 128.22 113.319 128.385C112.881 128.552 112.415 128.637 111.945 128.635H111.118V121.822H111.945C112.415 121.819 112.882 121.906 113.319 122.078C113.744 122.238 114.132 122.481 114.462 122.792C114.789 123.096 115.05 123.465 115.229 123.875V123.875ZM103.532 122.81C103.2 122.501 102.812 122.259 102.389 122.096C101.95 121.923 101.481 121.836 101.009 121.84H100.188V128.652H101.009C101.942 128.666 102.845 128.321 103.532 127.689C103.855 127.382 104.115 127.017 104.299 126.612C104.48 126.181 104.573 125.719 104.573 125.252C104.573 124.785 104.48 124.323 104.299 123.892C104.118 123.484 103.857 123.116 103.532 122.81V122.81ZM188.842 122.119C188.646 122.026 188.434 121.97 188.217 121.953C188.02 121.93 187.821 121.918 187.622 121.917H186.754V124.85H187.622C187.823 124.848 188.022 124.824 188.217 124.779C188.438 124.733 188.649 124.65 188.842 124.535C189.042 124.413 189.212 124.248 189.342 124.053C189.487 123.818 189.56 123.544 189.55 123.268C189.565 123.004 189.492 122.742 189.342 122.524C189.216 122.341 189.043 122.196 188.842 122.102V122.119ZM268.5 109.101V143.527L242.035 141.611L35.6547 146.407L21 103.02L230.974 109.101H268.5V109.101ZM59.3058 130.777L57.4018 119.686H55.1051L53.1595 126.826L51.19 119.686H48.9112L47.0251 130.777H49.4467L50.3392 125.148L51.904 130.777H54.4268L55.9916 125.148L56.896 130.777H59.3058ZM68.8257 119.686H66.2434L64.3632 124L61.7928 119.674H59.0023L63.2506 126.564L61.4299 130.765H64.0122L68.8257 119.686ZM87.5978 119.686H85.0988L83.409 125.785L82.1357 119.686H80.0116L78.7324 125.785L77.0366 119.686H74.5317L77.6316 130.777H79.7676L81.0826 125.148L82.3975 130.777H84.5395L87.5978 119.686ZM96.0765 128.557H91.4831V126.261H94.4938V124.041H91.4831V121.899H95.8385L95.2078 119.686H89.0912V130.777H95.4339L96.0765 128.557ZM107.09 125.231C107.095 124.491 106.948 123.758 106.655 123.077C106.377 122.411 105.973 121.805 105.465 121.292C104.954 120.782 104.348 120.378 103.68 120.102C103 119.81 102.267 119.662 101.527 119.668H97.8019V130.759H101.527C102.267 130.761 102.999 130.613 103.68 130.324C105.023 129.76 106.091 128.692 106.655 127.349C106.939 126.679 107.082 125.959 107.078 125.231H107.09ZM118.026 125.231C118.03 124.491 117.88 123.757 117.586 123.077C117.02 121.735 115.953 120.667 114.611 120.102C113.928 119.811 113.193 119.663 112.451 119.668H108.732V130.759H112.451C113.193 130.761 113.927 130.613 114.611 130.324C115.276 130.045 115.882 129.641 116.396 129.134C116.905 128.623 117.31 128.017 117.586 127.349C117.87 126.68 118.016 125.959 118.014 125.231H118.026ZM122.096 119.686H119.716V130.777H122.096V119.686ZM134.186 119.686H131.806V127.272L126.659 119.686H124.279V130.777H126.659V123.297L131.586 130.777H134.156L134.186 119.686ZM146.24 124.249H141.6L141.005 126.308H143.855V128.403C143.296 128.664 142.686 128.798 142.07 128.795C141.557 128.797 141.048 128.702 140.57 128.516C140.119 128.343 139.703 128.089 139.344 127.766C138.987 127.446 138.702 127.053 138.508 126.614C138.314 126.175 138.216 125.699 138.22 125.219C138.219 124.788 138.304 124.362 138.47 123.964C138.812 123.149 139.429 122.48 140.213 122.072C140.623 121.861 141.069 121.732 141.528 121.691C142.033 121.652 142.54 121.713 143.022 121.869C143.596 122.056 144.132 122.344 144.604 122.72L146.062 120.935C145.781 120.699 145.478 120.49 145.158 120.311C144.831 120.127 144.491 119.97 144.14 119.841C143.788 119.705 143.423 119.603 143.051 119.537C142.69 119.468 142.324 119.434 141.957 119.436C141.13 119.428 140.309 119.581 139.541 119.888C138.821 120.17 138.162 120.588 137.601 121.12C137.053 121.641 136.614 122.266 136.31 122.958C135.997 123.671 135.837 124.441 135.84 125.219C135.835 125.992 135.981 126.758 136.268 127.474C136.546 128.166 136.966 128.792 137.5 129.313C138.052 129.849 138.705 130.27 139.422 130.55C140.23 130.861 141.091 131.014 141.957 131.003C142.418 131.002 142.878 130.958 143.331 130.872C143.768 130.796 144.201 130.699 144.628 130.58C144.978 130.487 145.322 130.372 145.657 130.235C145.863 130.158 146.062 130.065 146.252 129.955L146.24 124.249ZM160.978 127.224C160.974 126.809 160.87 126.401 160.675 126.034C160.448 125.648 160.156 125.304 159.812 125.017C159.286 124.603 158.677 124.307 158.027 124.148L157.141 123.881C156.895 123.802 156.654 123.706 156.421 123.595C156.232 123.503 156.064 123.373 155.927 123.214C155.806 123.06 155.742 122.869 155.748 122.673C155.744 122.522 155.775 122.372 155.839 122.236C155.903 122.099 155.998 121.98 156.117 121.887C156.382 121.693 156.695 121.576 157.022 121.548C157.41 121.522 157.8 121.579 158.164 121.715C158.582 121.865 158.955 122.119 159.247 122.453L160.645 120.668C160.369 120.423 160.066 120.211 159.741 120.037C159.383 119.857 159.008 119.712 158.622 119.603C158.126 119.459 157.61 119.39 157.093 119.4C156.546 119.393 156.001 119.486 155.487 119.674C155.019 119.838 154.586 120.086 154.207 120.406C153.859 120.712 153.572 121.081 153.363 121.495C153.155 121.908 153.049 122.365 153.053 122.827C153.043 123.233 153.11 123.637 153.25 124.017C153.379 124.329 153.571 124.611 153.815 124.844C154.077 125.086 154.374 125.286 154.695 125.439C155.069 125.622 155.453 125.785 155.844 125.927C156.278 126.1 156.641 126.237 156.944 126.338C157.197 126.424 157.444 126.528 157.682 126.647C157.851 126.73 157.993 126.857 158.093 127.016C158.183 127.188 158.226 127.381 158.218 127.575C158.227 127.683 158.215 127.791 158.181 127.893C158.147 127.996 158.093 128.09 158.021 128.17C157.891 128.305 157.738 128.416 157.569 128.498C157.411 128.571 157.242 128.622 157.069 128.646C156.909 128.646 156.79 128.676 156.712 128.676H156.355C156.165 128.673 155.975 128.649 155.79 128.605C155.546 128.548 155.308 128.464 155.082 128.355C154.801 128.213 154.545 128.028 154.321 127.808L152.833 129.706C153.127 129.986 153.465 130.217 153.833 130.39C154.233 130.582 154.652 130.736 155.082 130.848C155.651 130.995 156.238 131.065 156.825 131.056C157.315 131.053 157.801 130.983 158.271 130.848C158.756 130.717 159.209 130.491 159.604 130.182C160.012 129.861 160.345 129.454 160.58 128.992C160.849 128.442 160.982 127.836 160.967 127.224H160.978ZM169.993 119.686H162.537L161.901 121.983H164.834V130.777H167.214V121.983H169.987L169.993 119.686ZM182.737 125.19C182.741 124.414 182.585 123.647 182.279 122.934C181.981 122.246 181.553 121.622 181.018 121.096C180.479 120.569 179.845 120.15 179.15 119.858C177.722 119.254 176.114 119.238 174.675 119.814C173.236 120.39 172.084 121.512 171.468 122.934C171.166 123.649 171.01 124.417 171.01 125.193C171.01 125.968 171.166 126.736 171.468 127.451C171.766 128.137 172.192 128.761 172.724 129.289C173.557 130.1 174.61 130.649 175.752 130.867C176.894 131.086 178.075 130.966 179.15 130.521C180.554 129.945 181.677 128.843 182.279 127.451C182.586 126.736 182.742 125.967 182.737 125.19V125.19ZM193.114 130.771L189.854 126.011C190.145 125.892 190.425 125.748 190.693 125.582C190.95 125.418 191.183 125.218 191.383 124.987C191.799 124.501 192.022 123.878 192.007 123.238C192.027 122.64 191.903 122.046 191.645 121.507C191.414 121.076 191.084 120.706 190.681 120.43C190.282 120.145 189.831 119.943 189.354 119.835C188.872 119.724 188.379 119.668 187.884 119.668H184.403V130.759H186.783V126.397H187.509L190.234 130.759L193.114 130.771ZM196.869 119.68H194.489V130.771H196.869V119.68ZM206.032 128.551H201.432V126.261H204.443V124.041H201.432V121.899H205.794L205.157 119.686H199.058V130.777H205.395L206.032 128.551ZM215.474 127.218C215.47 126.803 215.366 126.395 215.171 126.028C214.944 125.642 214.652 125.298 214.308 125.011C213.781 124.599 213.172 124.303 212.523 124.142L211.636 123.875C211.39 123.797 211.149 123.701 210.916 123.589C210.728 123.497 210.56 123.367 210.423 123.208C210.301 123.054 210.238 122.863 210.244 122.667C210.239 122.516 210.27 122.366 210.335 122.23C210.399 122.093 210.494 121.974 210.613 121.881C210.878 121.687 211.19 121.57 211.517 121.542C211.906 121.517 212.295 121.573 212.66 121.709C213.078 121.859 213.45 122.113 213.743 122.447L215.135 120.662C214.862 120.416 214.56 120.204 214.236 120.031C213.878 119.851 213.504 119.706 213.118 119.597C212.621 119.453 212.106 119.385 211.589 119.394C211.041 119.387 210.497 119.48 209.982 119.668C209.515 119.832 209.082 120.08 208.703 120.4C208.353 120.704 208.066 121.074 207.858 121.489C207.651 121.902 207.544 122.359 207.549 122.821C207.539 123.227 207.605 123.631 207.745 124.011C207.881 124.327 208.084 124.609 208.34 124.838C208.601 125.078 208.896 125.278 209.215 125.433C209.56 125.6 209.947 125.767 210.369 125.921C210.791 126.076 211.166 126.231 211.47 126.332C211.721 126.417 211.966 126.52 212.202 126.641C212.372 126.723 212.516 126.851 212.618 127.01C212.709 127.182 212.752 127.375 212.743 127.57C212.753 127.677 212.74 127.785 212.706 127.887C212.673 127.99 212.618 128.084 212.547 128.165C212.416 128.299 212.263 128.41 212.095 128.492C211.936 128.565 211.768 128.615 211.595 128.64L211.238 128.67H210.881C210.68 128.668 210.481 128.644 210.286 128.599C210.043 128.542 209.808 128.458 209.584 128.349C209.303 128.207 209.046 128.022 208.822 127.802L207.34 129.712C207.633 129.991 207.969 130.222 208.334 130.396C208.737 130.587 209.158 130.741 209.59 130.854C210.159 131.001 210.745 131.071 211.333 131.062C211.822 131.059 212.309 130.989 212.779 130.854C213.263 130.722 213.716 130.495 214.112 130.187C214.519 129.866 214.852 129.46 215.087 128.997C215.358 128.446 215.49 127.838 215.474 127.224V127.218ZM250.537 116.901C250.533 117.385 250.69 117.856 250.983 118.24C251.562 118.944 252.231 119.57 252.971 120.102C252.987 120.111 253.006 120.116 253.024 120.116C253.043 120.116 253.061 120.111 253.078 120.102C253.506 119.757 253.94 119.4 254.339 119.025L254.726 118.651C255.204 118.201 255.484 117.581 255.505 116.925C255.52 116.667 255.45 116.411 255.306 116.197C255.162 115.982 254.952 115.82 254.708 115.735C254.469 115.637 254.204 115.619 253.954 115.684C253.704 115.75 253.482 115.895 253.322 116.098L253.018 116.449L252.953 116.372C252.806 116.194 252.647 116.027 252.477 115.872C252.306 115.736 252.099 115.655 251.882 115.64C251.63 115.626 251.38 115.686 251.162 115.812C250.966 115.918 250.803 116.077 250.693 116.27C250.582 116.464 250.528 116.685 250.537 116.907V116.901ZM255.535 122.81C255.535 122.652 255.472 122.5 255.361 122.389C255.249 122.277 255.098 122.215 254.94 122.215H251.132C250.974 122.215 250.823 122.277 250.711 122.389C250.6 122.5 250.537 122.652 250.537 122.81V124.321C250.537 124.479 250.6 124.63 250.711 124.742C250.823 124.853 250.974 124.916 251.132 124.916H254.94C255.098 124.916 255.249 124.853 255.361 124.742C255.472 124.63 255.535 124.479 255.535 124.321V122.81ZM249.787 125.451C249.63 125.451 249.478 125.514 249.367 125.626C249.255 125.737 249.192 125.889 249.192 126.046V128.123C249.192 128.281 249.255 128.432 249.367 128.544C249.478 128.655 249.63 128.718 249.787 128.718H256.291C256.449 128.718 256.6 128.655 256.711 128.544C256.823 128.432 256.886 128.281 256.886 128.123V126.023C256.886 125.865 256.823 125.713 256.711 125.602C256.6 125.49 256.449 125.428 256.291 125.428H249.77L249.787 125.451ZM247.556 133.71C247.467 133.627 247.324 133.466 247.211 133.341C246.661 132.707 246.212 131.993 245.878 131.223C245.396 130.122 245.148 128.932 245.152 127.73C245.151 127.002 245.241 126.276 245.42 125.57C245.456 125.433 245.492 125.297 245.533 125.166C245.605 124.94 245.682 124.714 245.771 124.499C246.16 123.517 246.733 122.618 247.461 121.852C248.413 120.828 249.627 120.085 250.971 119.704L251.275 119.62C250.966 119.337 250.683 119.026 250.43 118.692C250.241 118.439 250.092 118.158 249.99 117.859C249.958 117.768 249.932 117.674 249.912 117.58C249.639 117.675 249.371 117.782 249.109 117.901C247.897 118.442 246.805 119.219 245.896 120.186C244.485 121.687 243.529 123.559 243.141 125.582C243.003 126.29 242.933 127.009 242.933 127.73C242.928 129.277 243.248 130.808 243.873 132.222C244.099 132.739 244.365 133.236 244.67 133.71H247.556ZM255.006 133.71L254.922 133.531C254.854 133.346 254.731 133.185 254.57 133.071C254.408 132.958 254.216 132.896 254.018 132.895C253.375 132.895 252.715 132.895 252.06 132.895C251.863 132.898 251.672 132.961 251.511 133.075C251.349 133.188 251.226 133.347 251.156 133.531L251.073 133.71H255.006ZM253.697 132.52V130.907H252.382V132.52H253.697ZM257.766 129.253H248.294V130.485H257.748L257.766 129.253ZM263.121 127.73C263.126 126.303 262.856 124.889 262.324 123.565C261.824 122.307 261.089 121.156 260.158 120.174C259.249 119.207 258.157 118.43 256.945 117.889C256.675 117.77 256.408 117.663 256.142 117.568C256.094 117.774 256.022 117.973 255.928 118.163C255.751 118.526 255.516 118.858 255.232 119.144C255.083 119.293 254.934 119.442 254.768 119.591C255.22 119.701 255.662 119.85 256.088 120.037C257.033 120.462 257.884 121.068 258.593 121.822C259.321 122.588 259.895 123.487 260.283 124.47C260.686 125.499 260.888 126.595 260.878 127.7V127.784C260.866 128.979 260.611 130.159 260.128 131.253C259.826 131.923 259.438 132.551 258.974 133.121C258.819 133.317 258.652 133.504 258.474 133.68H261.36C261.915 132.813 262.344 131.872 262.633 130.884C262.699 130.675 262.752 130.467 262.8 130.289C263.009 129.446 263.119 128.581 263.127 127.712L263.121 127.73ZM179.269 122.744C178.959 122.428 178.591 122.176 178.186 122C177.767 121.824 177.317 121.733 176.862 121.733C176.407 121.733 175.957 121.824 175.538 122C175.133 122.175 174.767 122.427 174.461 122.744C174.149 123.063 173.901 123.439 173.729 123.851C173.372 124.724 173.372 125.703 173.729 126.576C173.901 126.989 174.149 127.367 174.461 127.689C174.773 128.012 175.148 128.268 175.562 128.442C175.976 128.616 176.422 128.704 176.871 128.7C177.323 128.702 177.77 128.611 178.186 128.432C178.591 128.257 178.959 128.004 179.269 127.689C179.582 127.367 179.833 126.99 180.006 126.576C180.364 125.703 180.364 124.724 180.006 123.851C179.837 123.433 179.588 123.051 179.275 122.726L179.269 122.744Z" fill="white"/>
<path id="THE SIMS 4" fill-rule="evenodd" clip-rule="evenodd" d="M31.941 50.3193L41.3737 50.349L32.279 47.8469L27.4388 8.72824L29.3543 47.4547L22.1036 46.4586L14.8505 45.472L27.083 8.68004L11.927 45.0674L2.49609 45.0382L11.5903 47.5404L16.4304 86.659L14.5149 47.9325L21.7656 48.9281L29.0187 49.9141L16.7856 86.706L31.941 50.3193ZM41.8708 50.4169L16.2997 88.9494L2 44.9698L27.5711 6.43729L41.8708 50.4169ZM96.7497 5.7149H100.234V2.30585L90.2678 2.30943L89.2812 5.71728H93.1378L93.1413 17.2993L96.7533 17.2928L96.7497 5.7149ZM100.984 2H103.909L103.912 7.18646C104.742 6.26711 105.774 5.77441 106.993 5.77441C108.979 5.77441 110.326 7.05198 110.326 9.21975L110.329 17.288H107.078L107.072 10.2254C107.072 9.15786 106.691 8.64612 105.865 8.64612C104.85 8.64612 104.211 9.32983 104.213 10.586V17.2916H100.988L100.984 2ZM117.132 8.61874C115.592 8.61874 114.444 9.72792 114.444 11.3179L114.441 11.4893L118.377 8.95554C117.993 8.74013 117.584 8.61874 117.132 8.61874ZM116.919 17.4053C113.568 17.4053 111.106 14.9923 111.104 11.6059C111.104 8.25755 113.471 5.8107 117.066 5.80832C119.269 5.80832 120.962 6.86215 122.354 9.03766L115.212 13.6422C115.764 14.1081 116.373 14.3259 117.069 14.3259C117.967 14.3259 118.999 13.8962 120.192 13.0852L121.946 15.5618C120.3 16.7751 118.634 17.4023 116.919 17.4053ZM93.0801 20.2145V48.1224C95.2181 51.6236 96.5474 56.1085 96.5474 61.9739C96.5474 67.3104 95.3597 72.1029 93.0801 76.1891V86.6138H111.957V20.2145H93.0801ZM203.829 44.771C211.859 47.2554 222.861 50.6501 222.861 65.2473C222.861 78.5568 213.034 87.1595 197.818 87.1595C191.589 87.1595 185.759 85.7772 180.843 83.203L180.689 83.1351L181.486 86.6138H162.728L159.699 62.8606L155.237 86.6138H138.555L134.334 63.0486L130.711 86.6138H112.738L125.098 12.9817L140.348 12.9858L147.174 47.2238L153.421 20.1984H169.012L178.939 73.722L185.234 65.6966L185.85 66.4077C188.57 69.5561 192.492 71.2216 197.176 71.2216C199.631 71.2216 204.701 70.0286 204.701 66.3559C204.701 63.1593 201.157 61.8627 195.377 60.0079C187.352 57.4438 176.366 53.9265 176.366 39.684C176.366 26.4738 188.652 19.3475 200.219 19.3475C207.643 19.3475 215.222 22.0639 221.008 26.8142L221.596 27.295L212.048 39.4138L211.431 38.8824C207.921 35.8251 205.295 34.2708 200.671 34.2708C198.167 34.2708 194.532 35.7739 194.532 38.4861C194.532 41.7387 198.066 42.9936 203.829 44.771ZM70.805 37.9226C81.4451 41.2019 93.4979 44.9222 93.4979 61.9739C93.4979 70.1017 90.4768 76.7978 84.7619 81.3274C79.5523 85.4659 72.1004 87.748 63.7799 87.748C61.0367 87.748 58.3572 87.5111 55.7621 87.0678C48.9304 85.7748 41.8796 82.4187 33.3906 75.4132L43.0531 61.4854C45.341 63.6621 52.6792 71.0532 62.964 71.0532C67.318 71.0532 74.2182 69.1152 74.2182 63.3664C74.2182 57.836 68.207 55.9146 61.2473 53.6891C50.6239 50.2836 38.5771 46.4283 38.5771 29.8121C38.5771 14.3515 53.1195 6.01183 66.795 6.01183C75.1275 6.01183 83.7813 8.92461 90.5446 13.9938L91.2075 14.4949L81.4314 26.8987L80.7888 26.3757C76.9239 23.1945 73.3203 21.2207 67.3805 21.2207C63.5323 21.2207 57.8543 23.4706 57.8543 28.3036C57.8543 33.9191 63.8566 35.7739 70.805 37.9226ZM222.934 23.3094H222.207L222.209 19.9283H223.022L223.911 21.3582L224.799 19.9301L225.588 19.9313V23.3094L224.863 23.3105V21.0297L223.931 22.5108L223.87 22.5072L222.932 21.0244L222.934 23.3094ZM219.717 20.609L218.713 20.6078V19.9289H221.501L221.498 20.6078L220.489 20.612L220.487 23.3094H219.719L219.717 20.609ZM278.472 66.4844V86.6138H268.915V101.738H249.192V86.6138H213.514C215.161 85.7266 216.683 84.6864 218.052 83.4904C223.193 78.9918 225.91 72.6855 225.91 65.2473C225.91 56.5774 222.395 51.2892 217.902 47.8588L250.427 6.62116H268.915V66.4844H278.472ZM249.221 38.5391L229.299 66.4844H249.221V38.5391Z" fill="white"/>
</g>
</svg>
