<svg width="280" height="158" viewBox="0 0 280 158" fill="none" xmlns="http://www.w3.org/2000/svg">
<g id="TS4-KIT-13_Game-Box_LOGO" clip-path="url(#clip0_3406_47450)">
<path id="Union" fill-rule="evenodd" clip-rule="evenodd" d="M229.916 65.9987H250.044V37.8308L229.916 65.9987ZM269.944 5.68865V65.9987H279.602V86.3142H269.974V101.563H250.044V86.3142H213.999C215.641 85.4408 217.18 84.3856 218.585 83.1684C223.778 78.6359 226.522 72.2783 226.522 64.7801C226.522 56.0391 222.971 50.7141 218.434 47.2561L251.29 5.68865H269.944ZM221.034 22.4982H220.24V19.7786H219.229V19.0942H222.051V19.7786H221.034V22.4982ZM224.434 21.6877L223.483 20.1929L223.489 22.4982H222.755V19.0762H223.573L224.476 20.517L225.372 19.0762H226.167V22.4982H225.439V20.1929L224.494 21.6877H224.434ZM56.7021 27.511C56.7021 33.1722 62.7678 35.0452 69.7902 37.2065V37.2305C80.5374 40.5384 92.7168 44.2905 92.7168 61.4722C92.7168 69.6668 89.666 76.4146 83.8892 80.9832C78.6239 85.1556 71.114 87.4549 62.6895 87.4549C59.9752 87.4538 57.2658 87.2248 54.59 86.7705C47.6879 85.4678 40.5632 82.0818 31.9883 75.0218L41.7487 60.9799C41.8292 61.0565 41.916 61.1395 42.0089 61.2284C44.58 63.6876 51.8353 70.6274 61.8651 70.6274C66.2639 70.6274 73.2382 68.6763 73.2382 62.877C73.2382 57.3299 67.1665 55.3667 60.1321 53.1275L60.1285 53.1263C49.3942 49.6927 37.2295 45.8015 37.2295 29.0599C37.2295 13.451 51.8942 5.04628 65.7344 5.04628C74.3854 5.12668 82.7877 7.94332 89.7321 13.0908L90.4001 13.5951L80.5254 26.0942L79.8755 25.5719C75.9581 22.3661 72.3476 20.3729 66.3301 20.3729C62.4428 20.3729 56.7021 22.6422 56.7021 27.511ZM194.792 37.7768C194.792 41.0547 198.36 42.3094 204.185 44.1104H204.137C212.278 46.6138 223.393 50.0357 223.393 64.75C223.393 78.1676 213.488 86.8365 198.119 86.8365C192.164 86.905 186.281 85.5374 180.969 82.8503L180.813 82.7782L181.613 86.2842H162.664L159.601 62.3427L155.088 86.2842H138.239L133.973 62.5348L130.314 86.2842H112.153L124.64 12.0763H140.05L146.946 46.5838L153.259 19.3464H168.989L179.02 73.2929L185.38 65.2003L185.982 65.9207C188.72 69.0965 192.679 70.7714 197.415 70.7714C199.894 70.7714 205.015 69.5708 205.015 65.8667C205.015 62.6428 201.435 61.3401 195.598 59.467C187.486 56.8856 176.39 53.3376 176.39 38.9835C176.39 25.692 188.804 18.4879 200.49 18.4879C208.144 18.5432 215.55 21.1961 221.491 26.0101L222.093 26.4964L212.465 38.7133L211.863 38.179C208.319 35.0933 205.665 33.5264 200.996 33.5264C198.462 33.5264 194.792 35.0453 194.792 37.7768ZM111.365 86.2842V19.3584H92.2956V47.4903C94.4499 51.0203 95.7978 55.5408 95.7978 61.4482C95.8815 66.4455 94.6755 71.3802 92.2956 75.7783V86.2842H111.365ZM121.456 14.6697C120.011 15.8237 118.228 16.4769 116.378 16.5308H116.39C115.612 16.5593 114.836 16.4276 114.112 16.144C113.387 15.8604 112.729 15.4309 112.178 14.8823C111.627 14.3337 111.195 13.6778 110.909 12.9554C110.623 12.233 110.49 11.4596 110.517 10.6835C110.517 7.30957 112.924 4.84217 116.534 4.84217C118.761 4.84217 120.469 5.89877 121.878 8.09602L114.657 12.7366C115.174 13.1894 115.84 13.4353 116.528 13.427C117.681 13.3235 118.779 12.8876 119.687 12.1723L121.456 14.6697ZM117.864 8.01196C117.482 7.79092 117.048 7.67298 116.606 7.66976C116.245 7.65714 115.885 7.71889 115.549 7.85118C115.213 7.98346 114.908 8.18344 114.653 8.43862C114.397 8.6938 114.198 8.9987 114.066 9.33433C113.934 9.66995 113.873 10.0291 113.886 10.3893V10.5634L117.864 8.01196ZM103.554 16.4107H100.293L100.275 1H103.229V6.22895C103.613 5.78086 104.091 5.42152 104.628 5.17583C105.165 4.93014 105.749 4.80399 106.34 4.80615C108.35 4.80615 109.71 6.09088 109.71 8.27611V16.4107H106.425V9.29069C106.425 8.21608 106.058 7.69979 105.221 7.69979C104.198 7.69979 103.554 8.39017 103.554 9.65688V16.4107ZM92.3678 16.4107H96.0144L96.0204 4.75212H99.5407V1.31217H89.4674L88.4745 4.74611H92.3678V16.4107ZM39.7484 50.3295L30.2259 50.2995L14.9264 87.0323L27.2758 49.8904L19.9538 48.895L12.6341 47.89L14.5678 86.9849L9.68163 47.4942L0.500977 44.9682L10.0216 44.9976L25.3217 8.26416L12.9729 45.4061L20.295 46.4021L27.6146 47.4077L25.681 8.31282L30.5671 47.8035L39.7484 50.3295ZM14.4357 89.2969L40.25 50.3979L25.8143 6L0 44.899L14.4357 89.2969Z" fill="white"/>
<g id="Frame" clip-path="url(#clip1_3406_47450)">
<path id="Vector" d="M127.261 128.93C126.889 128.559 126.452 128.261 125.971 128.05C125.483 127.839 124.957 127.73 124.426 127.73C123.894 127.73 123.368 127.839 122.881 128.05C122.392 128.252 121.953 128.556 121.591 128.94C121.222 129.317 120.93 129.762 120.731 130.25C120.311 131.279 120.311 132.432 120.731 133.46C120.933 133.944 121.224 134.385 121.591 134.76C121.948 135.139 122.38 135.439 122.861 135.64C123.353 135.852 123.885 135.958 124.421 135.95C124.954 135.959 125.482 135.853 125.971 135.64C126.452 135.43 126.889 135.131 127.261 134.76C127.629 134.383 127.921 133.939 128.121 133.45C128.333 132.942 128.443 132.396 128.443 131.845C128.443 131.294 128.333 130.749 128.121 130.24C127.921 129.752 127.629 129.307 127.261 128.93V128.93Z" fill="white"/>
<path id="Vector_2" d="M84.7595 128.93C84.301 128.455 83.7296 128.102 83.0984 127.907C82.4673 127.711 81.7968 127.678 81.1494 127.81C80.3854 127.974 79.6885 128.365 79.1494 128.93C78.7808 129.307 78.4887 129.752 78.2893 130.24C77.8697 131.269 77.8697 132.421 78.2893 133.45C78.4887 133.938 78.7808 134.383 79.1494 134.76C79.5152 135.142 79.9547 135.445 80.4412 135.651C80.9277 135.857 81.4511 135.962 81.9795 135.96V135.96C82.5156 135.969 83.0472 135.863 83.5393 135.65C84.0158 135.442 84.4472 135.143 84.8093 134.77C85.181 134.394 85.4765 133.949 85.6795 133.46C85.8921 132.952 86.0015 132.406 86.0015 131.855C86.0015 131.304 85.8921 130.759 85.6795 130.25C85.4628 129.754 85.1502 129.305 84.7595 128.93Z" fill="white"/>
<path id="Vector_3" d="M95.9902 128.19C95.7589 128.087 95.5123 128.023 95.2603 128C94.9903 128 94.7701 128 94.5801 128H93.5801V131.45H94.5801C94.809 131.449 95.0373 131.422 95.2603 131.37C95.5196 131.32 95.7672 131.222 95.9902 131.08C96.2346 130.939 96.4431 130.744 96.6001 130.51C96.7686 130.234 96.8521 129.914 96.8401 129.59C96.8568 129.279 96.7727 128.97 96.6001 128.71C96.4445 128.487 96.2346 128.308 95.9902 128.19V128.19Z" fill="white"/>
<path id="Vector_4" d="M48.2007 129.001C47.8079 128.641 47.3495 128.359 46.8506 128.171C46.3317 127.967 45.7783 127.865 45.2207 127.871H44.2207V135.871H45.2207C45.7779 135.872 46.3303 135.771 46.8506 135.571C47.3488 135.377 47.8067 135.093 48.2007 134.731C48.5826 134.372 48.8885 133.941 49.1006 133.461C49.4282 132.711 49.5176 131.878 49.3567 131.075C49.1957 130.272 48.7923 129.538 48.2007 128.971V129.001Z" fill="white"/>
<path id="Vector_5" d="M197.141 133.571H199.911L198.531 129.211L197.141 133.571Z" fill="white"/>
<path id="Vector_6" d="M0 103L18.7 158.35L280 153.13V111.27L0 103ZM57.8298 121.64H60.71L58.2998 124.4H56.03L57.8298 121.64ZM51.8298 134.38C51.5024 135.16 51.0271 135.87 50.4299 136.47C49.8351 137.066 49.1281 137.538 48.3499 137.86C47.5495 138.211 46.6837 138.388 45.8098 138.38H41.4199V125.35H45.8098C46.6826 125.343 47.5474 125.517 48.3499 125.86C49.1272 126.188 49.8337 126.663 50.4299 127.26C51.0246 127.858 51.4997 128.564 51.8298 129.34C52.1731 130.143 52.3501 131.007 52.3501 131.88C52.3501 132.753 52.1731 133.617 51.8298 134.42V134.38ZM61.7 138.38H54.23V125.38H61.4299L62.1799 127.99H57.03V130.51H60.5798V133.13H57.03V135.84H62.45L61.7 138.38ZM72.47 138.12C71.7082 138.445 70.8881 138.612 70.0598 138.61C69.187 138.617 68.3225 138.443 67.52 138.1C66.7369 137.778 66.0287 137.298 65.4399 136.69C64.8305 136.081 64.3479 135.357 64.02 134.56C63.6714 133.689 63.4981 132.758 63.51 131.82C63.4983 130.908 63.6718 130.003 64.02 129.16C64.3462 128.355 64.821 127.619 65.4199 126.99C66.0154 126.373 66.7253 125.877 67.51 125.53C68.3062 125.176 69.1684 124.995 70.0398 125C70.8683 124.995 71.6891 125.162 72.45 125.49C73.1986 125.8 73.8784 126.256 74.45 126.83L72.45 128.64C71.7947 128.095 70.9721 127.791 70.1199 127.78C69.6145 127.779 69.1155 127.891 68.6599 128.11C68.2038 128.322 67.7957 128.625 67.46 129C67.1215 129.379 66.8478 129.812 66.6499 130.28C66.4588 130.764 66.3604 131.28 66.3599 131.8C66.3431 132.86 66.7374 133.885 67.46 134.66C67.7999 135.02 68.2077 135.309 68.6599 135.51C69.1203 135.712 69.6171 135.817 70.1199 135.82C70.9022 135.811 71.6607 135.548 72.28 135.07L74.4399 136.78C73.8851 137.369 73.2234 137.848 72.49 138.19L72.47 138.12ZM88.28 134.44C87.9308 135.249 87.428 135.982 86.7998 136.6C86.164 137.224 85.4136 137.72 84.5898 138.06C82.8668 138.77 80.933 138.77 79.21 138.06C78.1709 137.637 77.2534 136.962 76.5398 136.096C75.8262 135.231 75.3387 134.201 75.1216 133.101C74.9044 132 74.9643 130.863 75.2957 129.791C75.627 128.719 76.2196 127.746 77.02 126.96C78.3226 125.675 80.08 124.956 81.9099 124.96C82.8303 124.949 83.7429 125.13 84.5898 125.49C85.4136 125.83 86.164 126.326 86.7998 126.95C87.7678 127.907 88.4263 129.132 88.6902 130.468C88.954 131.803 88.8113 133.187 88.28 134.44V134.44ZM97.5798 138.35L94.3899 133.21H93.53V138.35H90.73V125.35H94.9099C95.4886 125.348 96.0656 125.412 96.6299 125.54C97.1937 125.668 97.7293 125.899 98.21 126.22C98.6822 126.553 99.0664 126.996 99.3298 127.51C99.6339 128.132 99.785 128.818 99.77 129.51C99.782 130.264 99.519 130.996 99.03 131.57C98.7926 131.842 98.5163 132.078 98.21 132.27C97.8931 132.47 97.5583 132.641 97.21 132.78L101.05 138.38L97.5798 138.35ZM116.91 128.05H113.63V138.42H110.88V128.05H107.43L108.18 125.35H116.91V128.05ZM130.82 134.51C130.109 136.148 128.789 137.446 127.14 138.13C125.466 138.833 123.584 138.848 121.899 138.173C120.214 137.497 118.864 136.185 118.14 134.52C117.514 133.048 117.427 131.403 117.895 129.873C118.364 128.344 119.357 127.029 120.7 126.16C121.831 125.419 123.157 125.029 124.51 125.04V125.04C125.434 125.03 126.349 125.21 127.2 125.57C128.021 125.91 128.768 126.406 129.4 127.03C130.368 127.987 131.026 129.212 131.29 130.548C131.554 131.883 131.411 133.267 130.88 134.52L130.82 134.51ZM147.63 128.05H144.37V138.42H141.55V128.05H138.09L138.84 125.35H147.63V128.05ZM159.57 138.42H156.77V132.96H151.85V138.42H149.05V125.35H151.85V130.53H156.79V125.35H159.57V138.42ZM169.69 138.42H162.22V125.38H169.41L170.16 127.99H165.02V130.51H168.57V133.13H165.02V135.84H170.43L169.69 138.42ZM188.94 138.42L187.88 131.79L186.03 138.42H183.09L181.24 131.79L180.24 138.42H177.38L179.6 125.35H182.29L184.61 133.78L186.9 125.35H189.61L191.86 138.42H188.94ZM201.47 138.42L200.65 135.84H196.46L195.64 138.45H192.64L197.18 125.38H199.91L204.45 138.45L201.47 138.42ZM214.75 138.42L211.75 133.82L208.75 138.42H205.34L210.09 131.53L205.81 125.35H209.21L211.75 129.14L214.27 125.35H217.67L213.42 131.53L218.16 138.42H214.75ZM232.85 138.42L228.42 132.42V138.42H225.62V125.35H228.42V131.64L232.75 125.35H236.11L231.37 131.98L236.25 138.44L232.85 138.42ZM240.36 138.42H237.56V125.35H240.36V138.42ZM251.21 128.05H247.91V138.42H245.11V128.05H241.65L242.39 125.35H251.17L251.21 128.05Z" fill="white"/>
</g>
</g>
<defs>
<clipPath id="clip0_3406_47450">
<rect width="280" height="158" fill="white"/>
</clipPath>
<clipPath id="clip1_3406_47450">
<rect width="280" height="55.36" fill="white" transform="translate(0 103)"/>
</clipPath>
</defs>
</svg>
