<svg width="64" height="64" viewBox="0 0 64 64" fill="none" xmlns="http://www.w3.org/2000/svg">
<mask id="mask0" mask-type="alpha" maskUnits="userSpaceOnUse" x="0" y="0" width="64" height="64">
<rect width="64" height="64" fill="#C4C4C4"/>
</mask>
<g mask="url(#mask0)">
<path d="M26.1235 18.1047C26.3144 18.4228 26.5052 18.7408 26.7597 18.9953C27.0778 19.4406 27.5231 19.8223 27.9684 20.204C28.0956 20.3312 28.2228 20.3948 28.3501 20.4584L28.4137 20.3948C31.7216 17.0868 35.0932 13.7152 38.4012 10.4073C37.7651 9.51666 37.0017 8.75328 36.0475 8.18075C33.0576 11.107 26.5052 17.723 26.1235 18.1047ZM40.5641 9.77112C41.9 8.75328 43.554 8.11713 45.3352 7.9899C45.3989 7.9899 45.3989 7.9899 45.4625 7.9899C45.4625 7.9899 45.4625 7.9899 45.5261 7.9899C45.5897 7.9899 45.5897 7.9899 45.6533 7.9899C49.0885 8.11713 52.2693 10.4073 53.2235 13.7789C54.1141 17.0868 52.9054 20.7129 50.0428 22.685C47.2437 24.5934 43.3632 24.5298 40.6914 22.4305C40.1188 21.9852 39.6099 21.4763 39.1646 20.9037C37.5106 22.6213 35.2205 23.7028 32.8031 23.7664C30.1313 23.83 27.5231 22.8122 25.6146 20.9037C25.1057 21.5399 24.4695 22.176 23.7698 22.6213C20.9707 24.5298 17.0902 24.4662 14.4184 22.3669C11.7466 20.3312 10.4743 16.5779 11.6193 13.3972C12.828 10.2164 15.6907 8.11713 19.0623 7.92629C19.1259 7.92629 19.1259 7.92629 19.1895 7.92629C19.1895 7.92629 19.1895 7.92629 19.2531 7.92629C19.3167 7.92629 19.3167 7.92629 19.3803 7.92629C21.1616 7.9899 22.8156 8.62605 24.2151 9.64389C25.9327 6.90845 28.9226 5.19084 32.2306 5C32.2942 5 32.3578 5 32.3578 5H32.4214H32.485C35.6658 5.06361 38.6557 6.7176 40.3097 9.45305C40.4369 9.58028 40.5005 9.70751 40.5641 9.77112ZM30.2585 21.349C32.3578 21.9852 34.7116 21.6671 36.5564 20.3312C37.1289 19.9495 37.5742 19.5042 38.0195 18.9953C38.274 18.6136 38.5285 18.2319 38.7829 17.8502C39.2282 17.0232 39.4827 16.1326 39.6099 15.242C39.7371 14.415 39.6735 13.5244 39.4827 12.6338C39.4827 12.5066 39.4191 12.3793 39.3554 12.2521C38.7829 12.8246 32.7395 18.8681 30.2585 21.349ZM34.0118 7.35375C33.5029 7.22652 32.9303 7.16291 32.3578 7.16291C29.6224 7.22652 26.9505 8.88051 25.8055 11.3615C25.7418 11.5523 25.6782 11.6796 25.6146 11.8704C25.4874 12.1249 25.4238 12.4429 25.3602 12.6974C25.1057 13.8425 25.1057 14.9875 25.3602 16.069C25.6146 15.7509 31.7216 9.64389 34.0118 7.35375ZM24.2151 19.1861C22.9428 16.9596 22.6247 14.2878 23.3245 11.8704C22.243 10.8526 20.8435 10.2164 19.2531 10.2164C18.9987 10.2164 18.8078 10.2164 18.5534 10.28C15.4362 10.8526 13.0825 13.5244 13.4005 16.7051C13.7186 19.8223 16.5177 22.2396 19.6348 21.9852C21.5433 21.7943 23.2609 20.7129 24.2151 19.1861Z" fill="url(#paint0_linear)"/>
<path d="M27.5231 56.0189C28.4137 55.1283 41.582 41.96 44.89 38.652C44.9536 38.5884 44.9536 38.5884 45.0172 38.5248C44.5083 37.507 43.9994 36.5527 43.3632 35.5985C41.4548 37.507 24.6604 54.3013 23.6426 55.3191C24.9149 55.6372 26.2508 55.8281 27.5231 56.0189ZM27.7776 58.1818C26.3144 57.991 24.7877 57.7365 23.3881 57.4184C20.6527 56.7187 17.6628 55.4464 16.3269 52.9654C14.991 52.8382 13.655 52.6473 12.3827 52.3929C8.94753 51.6295 5.13064 49.8483 5.00341 45.8405C4.93979 42.0236 5.76679 38.1431 7.48439 34.7079C8.88392 31.9725 10.856 29.4915 13.4006 27.7739C15.0546 26.6288 17.0266 25.6746 19.1259 25.6746C21.2252 25.611 23.4517 26.438 25.1057 27.6466C25.3602 27.8375 25.6783 28.0919 25.9327 28.2828C27.7139 27.1377 29.686 26.3107 31.7853 26.1199C33.0576 26.0563 34.2663 26.1835 35.475 26.5652C36.6837 26.9469 37.8923 27.5194 38.9738 28.2192C39.1646 28.0919 39.4191 27.9011 39.6099 27.7739C41.2639 26.6288 43.236 25.6746 45.3353 25.6746C47.4346 25.611 49.6611 26.438 51.3151 27.6466C53.8597 29.4915 55.959 31.8452 57.4221 34.6443C59.1397 38.0159 59.9667 41.7055 59.9667 45.5224V45.7769C59.9667 46.5403 59.7759 47.24 59.5214 47.8762C59.267 48.5123 58.8217 49.5302 58.2491 49.9755C55.6409 52.1384 52.0785 52.7109 48.8341 53.029C48.7705 53.029 48.7069 53.029 48.6433 53.029C48.2616 53.7924 47.8163 54.5558 47.1801 55.0647C45.9078 56.0825 44.3811 56.7823 42.7907 57.2276C40.3097 57.9274 37.6379 58.309 35.0297 58.4363C34.5207 58.4363 34.0118 58.4999 33.5029 58.4999C31.5945 58.4363 29.686 58.3727 27.7776 58.1818ZM18.4898 42.787C18.7442 42.5325 18.9987 42.2781 19.2532 42.0236C22.1794 39.0973 31.9125 29.3642 33.1212 28.1556C32.0398 28.1556 30.8947 28.2192 29.7496 28.6009C29.0499 28.8553 28.3501 29.1734 27.7139 29.5551C27.3959 29.7459 27.0778 29.9368 26.8233 30.1276C26.5053 30.3185 26.2508 30.5729 25.9327 30.7638C22.1158 33.7537 19.6348 38.2703 18.4898 42.787ZM30.1949 56.2098C31.7217 56.2734 33.1848 56.337 34.7116 56.2734C35.9839 55.0011 44.6991 46.2858 46.862 44.1229C46.6076 42.9142 46.2895 41.7055 45.9078 40.5605C45.2081 41.2602 44.5083 41.96 43.8721 42.5961C41.4548 44.8863 31.8489 54.5558 30.1949 56.2098ZM42.2182 33.9445C41.582 33.1175 40.8186 32.3541 40.0552 31.6544C40.0552 31.6544 39.9916 31.6544 39.9916 31.5908C38.4649 33.1175 19.9529 51.6295 19.6348 51.9476C19.3804 52.202 19.1259 52.4565 18.8715 52.7109C18.9351 52.8382 19.0623 52.9018 19.1895 53.029C19.6348 53.4743 20.1438 53.856 20.7799 54.1741C21.0344 54.3013 21.3525 54.4285 21.6705 54.5558C22.1158 53.9832 39.2919 36.8072 42.2182 33.9445ZM47.371 49.5938C47.371 48.576 47.3074 47.5581 47.1801 46.5403C45.7806 48.0034 38.8466 54.8738 37.8287 55.9553C38.5921 55.8281 39.3555 55.7008 40.1189 55.5736C41.582 55.2555 43.1088 54.9375 44.3811 54.2377C44.8264 53.9832 45.3353 53.7288 45.717 53.4107C45.8442 53.2835 45.9714 53.1562 46.0987 53.029C46.2895 52.8382 46.4167 52.5837 46.544 52.3292C46.6076 52.202 46.6712 52.0748 46.7348 51.9476C46.9257 51.6295 47.0529 51.2478 47.1801 50.8661C47.3074 50.4844 47.371 50.0391 47.371 49.5938ZM38.3376 30.3821L38.2104 30.2549C37.8923 30.064 37.5743 29.8732 37.2562 29.6823C36.62 29.3006 35.9839 29.0462 35.3477 28.7917C34.5844 29.5551 21.5433 42.5962 17.8536 46.3494C17.7264 47.5581 17.5992 48.7668 17.7264 49.9119C17.7264 50.2299 17.79 50.6116 17.9172 50.9297C20.0802 48.6396 37.7015 31.0182 38.3376 30.3821ZM22.4975 31.0182C23.0064 30.5093 23.579 30.0004 24.1515 29.4915C23.0064 28.6645 21.6705 28.0283 20.271 27.8375C18.617 27.583 16.963 28.0919 15.4999 28.9189C13.2734 30.2548 11.4285 32.1633 10.0926 34.3262C8.18416 37.4433 7.22993 41.0694 7.1027 44.7591C7.1027 45.7133 7.1027 46.7311 7.67524 47.5581C8.18416 48.3215 8.88392 48.8304 9.6473 49.2121C10.9832 49.8483 12.51 50.2299 14.0367 50.4844C14.5457 50.548 15.0546 50.6753 15.6271 50.7389C15.3726 49.0213 15.5635 47.1764 15.8179 45.4588C15.8816 45.2044 15.8816 45.0135 15.9452 44.7591C16.2633 42.9142 16.7086 41.133 17.3447 39.3518C18.4898 36.2347 20.2074 33.372 22.4975 31.0182Z" fill="url(#paint1_linear)"/>
</g>
<defs>
<linearGradient id="paint0_linear" x1="53.5113" y1="24.1198" x2="40.9774" y2="5.30324" gradientUnits="userSpaceOnUse">
<stop stop-color="#FF4747"/>
<stop offset="1" stop-color="#0D1042"/>
</linearGradient>
<linearGradient id="paint1_linear" x1="59.9668" y1="58.5978" x2="36.7554" y2="32.3124" gradientUnits="userSpaceOnUse">
<stop stop-color="#FF4747"/>
<stop offset="1" stop-color="#0D1042"/>
</linearGradient>
</defs>
</svg>
