<svg xmlns="http://www.w3.org/2000/svg" viewBox="0 0 459.44 98.81"><defs><style>.cls-1{fill:#fff;}</style></defs><g id="Layer_2" data-name="Layer 2"><g id="Layer_1-2" data-name="Layer 1"><path class="cls-1" d="M54.37,16.23v5.69a.43.43,0,0,1-.48.49H52.07c-.19,0-.29.08-.29.24V42.1a.26.26,0,0,0,.29.3h1.82a.43.43,0,0,1,.48.49v5.68a.43.43,0,0,1-.48.49H42.12a.43.43,0,0,1-.48-.49V42.89a.43.43,0,0,1,.48-.49h1.62a.27.27,0,0,0,.3-.3V31.33h-.25L38.35,43.87a.92.92,0,0,1-.93.64H33.65a.92.92,0,0,1-.93-.64L27.33,31.33h-.25V42.1a.27.27,0,0,0,.3.3H28.9a.43.43,0,0,1,.49.49v5.68a.43.43,0,0,1-.49.49H17.23a.43.43,0,0,1-.49-.49V42.89a.43.43,0,0,1,.49-.49h1.82a.26.26,0,0,0,.29-.3V22.7a.25.25,0,0,0-.29-.29H17.23a.44.44,0,0,1-.49-.49V16.23a.44.44,0,0,1,.49-.49H27a.81.81,0,0,1,.84.49l7.74,17.45h.19L43.4,16.23a.86.86,0,0,1,.83-.49h9.66A.43.43,0,0,1,54.37,16.23Z"/><path class="cls-1" d="M86.31,16.23v8.33a.43.43,0,0,1-.49.49H79.6a.43.43,0,0,1-.49-.49V22.8a.27.27,0,0,0-.3-.3H72.59a.27.27,0,0,0-.3.3v5.73a.27.27,0,0,0,.3.3h3.77a.27.27,0,0,0,.3-.3V27.45a.43.43,0,0,1,.48-.49H83a.44.44,0,0,1,.49.49V37a.43.43,0,0,1-.49.49H77.14a.43.43,0,0,1-.48-.49V35.93c0-.2-.1-.29-.3-.29H72.59c-.2,0-.3.09-.3.29V42a.26.26,0,0,0,.3.29h6.22a.26.26,0,0,0,.3-.29V40.1a.43.43,0,0,1,.49-.49h6.22a.43.43,0,0,1,.49.49v8.47a.43.43,0,0,1-.49.49H61.71a.43.43,0,0,1-.49-.49V42.89a.43.43,0,0,1,.49-.49h1.81a.27.27,0,0,0,.3-.3V22.7c0-.2-.1-.29-.3-.29H61.71a.43.43,0,0,1-.49-.49V16.23a.43.43,0,0,1,.49-.49H85.82A.44.44,0,0,1,86.31,16.23Z"/><path class="cls-1" d="M116.28,17.65a10.36,10.36,0,0,1,4.31,5.69,18.84,18.84,0,0,1,.76,3.6,49.9,49.9,0,0,1,.22,5.46,50,50,0,0,1-.22,5.47,19.17,19.17,0,0,1-.76,3.6,10.34,10.34,0,0,1-4.31,5.68,13.84,13.84,0,0,1-7.54,1.91H93.64a.43.43,0,0,1-.49-.49V42.89a.43.43,0,0,1,.49-.49h1.82a.26.26,0,0,0,.29-.3V22.7a.25.25,0,0,0-.29-.29H93.64a.44.44,0,0,1-.49-.49V16.23a.44.44,0,0,1,.49-.49h15.1A13.93,13.93,0,0,1,116.28,17.65Zm-12,6V41.12a.26.26,0,0,0,.29.3H107a7.6,7.6,0,0,0,3.63-.71,4.14,4.14,0,0,0,1.86-2.43,7.07,7.07,0,0,0,.39-2c.07-.8.1-2.1.1-3.9s0-3.09-.1-3.89a7.22,7.22,0,0,0-.39-2,4.15,4.15,0,0,0-1.86-2.42,7.49,7.49,0,0,0-3.63-.71h-2.4A.25.25,0,0,0,104.28,23.68Z"/><path class="cls-1" d="M147.07,16.23l8.28,25.87c.07.2.18.3.35.3h1.52a.43.43,0,0,1,.49.49v5.68a.43.43,0,0,1-.49.49H145.46a.43.43,0,0,1-.49-.49V42.89a.43.43,0,0,1,.49-.49h1.22c.2,0,.26-.1.2-.3l-.79-2.64h-9.26l-.73,2.6v.09c0,.17.1.25.29.25h1.13a.43.43,0,0,1,.49.49v5.68a.43.43,0,0,1-.49.49H125.71a.43.43,0,0,1-.49-.49V42.89a.43.43,0,0,1,.49-.49h1.57a.32.32,0,0,0,.34-.3l8.48-25.87a.62.62,0,0,1,.63-.49h9.71A.61.61,0,0,1,147.07,16.23ZM138.84,32.6h5.29l-2.55-9.07h-.14Z"/><path class="cls-1" d="M177.36,16.23v5.69a.44.44,0,0,1-.49.49h-1.82a.25.25,0,0,0-.29.29v19a.26.26,0,0,0,.29.3h6.13a.26.26,0,0,0,.29-.3V39.21a.43.43,0,0,1,.49-.49h6.52a.44.44,0,0,1,.49.49v9.36a.43.43,0,0,1-.49.49H164.13a.43.43,0,0,1-.49-.49V42.89a.43.43,0,0,1,.49-.49h1.81a.26.26,0,0,0,.29-.3V22.7a.25.25,0,0,0-.29-.29h-1.81a.43.43,0,0,1-.49-.49V16.23a.43.43,0,0,1,.49-.49h12.74A.44.44,0,0,1,177.36,16.23Z"/><path class="cls-1" d="M226,17.26a10.87,10.87,0,0,1,4.6,6.08,18.26,18.26,0,0,1,.79,3.7c.13,1.22.19,3,.19,5.36s-.06,4.14-.19,5.37a18.41,18.41,0,0,1-.79,3.7,10.85,10.85,0,0,1-4.6,6.07,15.62,15.62,0,0,1-15.68,0,10.86,10.86,0,0,1-4.61-6.07,20,20,0,0,1-.78-3.78c-.13-1.24-.2-3-.2-5.29s.07-4,.2-5.29a19.92,19.92,0,0,1,.78-3.77,10.88,10.88,0,0,1,4.61-6.08,15.62,15.62,0,0,1,15.68,0Zm-10.56,6.35a3.9,3.9,0,0,0-1.54,2.18,8.6,8.6,0,0,0-.4,2.2c-.06.92-.1,2.39-.1,4.41s0,3.5.1,4.41a8.69,8.69,0,0,0,.4,2.21,3.94,3.94,0,0,0,1.54,2.18,5.25,5.25,0,0,0,5.44,0A4,4,0,0,0,222.46,39a8.31,8.31,0,0,0,.39-2.21c.07-.91.1-2.38.1-4.41s0-3.49-.1-4.41a8.23,8.23,0,0,0-.39-2.2,4,4,0,0,0-1.54-2.18,5.25,5.25,0,0,0-5.44,0Z"/><path class="cls-1" d="M260.78,16.23V25a.43.43,0,0,1-.49.48h-6.23a.43.43,0,0,1-.49-.48V23c0-.2-.09-.3-.29-.3h-6.22a.27.27,0,0,0-.3.3V29a.27.27,0,0,0,.3.3h3.77a.26.26,0,0,0,.29-.3V27.94a.44.44,0,0,1,.49-.49h5.88a.43.43,0,0,1,.49.49V37.5a.43.43,0,0,1-.49.49h-5.88a.43.43,0,0,1-.49-.49V36.42a.25.25,0,0,0-.29-.29h-3.77c-.2,0-.3.09-.3.29V42.1a.27.27,0,0,0,.3.3h2.35a.43.43,0,0,1,.49.49v5.68a.43.43,0,0,1-.49.49H236.18a.43.43,0,0,1-.49-.49V42.89a.43.43,0,0,1,.49-.49H238c.2,0,.29-.1.29-.3V22.7c0-.2-.09-.29-.29-.29h-1.81a.43.43,0,0,1-.49-.49V16.23a.43.43,0,0,1,.49-.49h24.11A.44.44,0,0,1,260.78,16.23Z"/><path class="cls-1" d="M312.22,16.23v5.69a.43.43,0,0,1-.49.49h-1.81a.25.25,0,0,0-.29.29V42.1a.26.26,0,0,0,.29.3h1.81a.43.43,0,0,1,.49.49v5.68a.43.43,0,0,1-.49.49H299a.43.43,0,0,1-.49-.49V42.89a.43.43,0,0,1,.49-.49h1.82a.26.26,0,0,0,.29-.3V36.22a.26.26,0,0,0-.29-.29H292a.26.26,0,0,0-.3.29V42.1a.27.27,0,0,0,.3.3h1.81a.43.43,0,0,1,.49.49v5.68a.43.43,0,0,1-.49.49H281.11a.43.43,0,0,1-.49-.49V42.89a.43.43,0,0,1,.49-.49h1.81a.27.27,0,0,0,.3-.3V22.7c0-.2-.1-.29-.3-.29h-1.81a.43.43,0,0,1-.49-.49V16.23a.43.43,0,0,1,.49-.49h12.74a.44.44,0,0,1,.49.49v5.69a.44.44,0,0,1-.49.49H292c-.2,0-.3.09-.3.29v5.39c0,.2.1.29.3.29h8.77a.25.25,0,0,0,.29-.29V22.7a.25.25,0,0,0-.29-.29H299a.44.44,0,0,1-.49-.49V16.23a.44.44,0,0,1,.49-.49h12.74A.43.43,0,0,1,312.22,16.23Z"/><path class="cls-1" d="M337.55,17.26a10.88,10.88,0,0,1,4.61,6.08,18.93,18.93,0,0,1,.78,3.7c.13,1.22.2,3,.2,5.36s-.07,4.14-.2,5.37a19.09,19.09,0,0,1-.78,3.7,10.86,10.86,0,0,1-4.61,6.07,15.62,15.62,0,0,1-15.68,0,10.85,10.85,0,0,1-4.6-6.07,20.06,20.06,0,0,1-.79-3.78c-.13-1.24-.19-3-.19-5.29s.06-4,.19-5.29a20,20,0,0,1,.79-3.77,10.87,10.87,0,0,1,4.6-6.08,15.62,15.62,0,0,1,15.68,0ZM327,23.61a4,4,0,0,0-1.54,2.18,8.23,8.23,0,0,0-.39,2.2c-.07.92-.1,2.39-.1,4.41s0,3.5.1,4.41a8.31,8.31,0,0,0,.39,2.21A4,4,0,0,0,327,41.2a5.25,5.25,0,0,0,5.44,0A4,4,0,0,0,334,39a9.21,9.21,0,0,0,.39-2.21c.06-.91.1-2.38.1-4.41s0-3.49-.1-4.41a9.11,9.11,0,0,0-.39-2.2,4,4,0,0,0-1.55-2.18,5.25,5.25,0,0,0-5.44,0Z"/><path class="cls-1" d="M378.76,16.23v5.69a.44.44,0,0,1-.49.49h-1.81c-.2,0-.3.09-.3.29V48.57a.43.43,0,0,1-.49.49h-7.15a.93.93,0,0,1-.84-.49l-9.89-18.81h-.25V42.1a.27.27,0,0,0,.3.3h1.81a.43.43,0,0,1,.49.49v5.68a.43.43,0,0,1-.49.49h-12a.43.43,0,0,1-.49-.49V42.89a.43.43,0,0,1,.49-.49h1.82a.26.26,0,0,0,.29-.3V22.7a.25.25,0,0,0-.29-.29h-1.82a.44.44,0,0,1-.49-.49V16.23a.44.44,0,0,1,.49-.49h9.75a.81.81,0,0,1,.84.49l9.89,18.82h.25V22.7a.25.25,0,0,0-.29-.29h-1.82a.44.44,0,0,1-.49-.49V16.23a.44.44,0,0,1,.49-.49h12A.44.44,0,0,1,378.76,16.23Z"/><path class="cls-1" d="M404.09,17.26a10.87,10.87,0,0,1,4.6,6.08,18.26,18.26,0,0,1,.79,3.7c.13,1.22.19,3,.19,5.36s-.06,4.14-.19,5.37a18.41,18.41,0,0,1-.79,3.7,10.85,10.85,0,0,1-4.6,6.07,15.62,15.62,0,0,1-15.68,0,10.86,10.86,0,0,1-4.61-6.07,20,20,0,0,1-.78-3.78c-.13-1.24-.2-3-.2-5.29s.07-4,.2-5.29a19.92,19.92,0,0,1,.78-3.77,10.88,10.88,0,0,1,4.61-6.08,15.62,15.62,0,0,1,15.68,0Zm-10.56,6.35A4,4,0,0,0,392,25.79a9.11,9.11,0,0,0-.39,2.2c-.06.92-.1,2.39-.1,4.41s0,3.5.1,4.41A9.21,9.21,0,0,0,392,39a4,4,0,0,0,1.55,2.18,5.25,5.25,0,0,0,5.44,0A4,4,0,0,0,400.51,39a8.31,8.31,0,0,0,.39-2.21c.07-.91.1-2.38.1-4.41s0-3.49-.1-4.41a8.23,8.23,0,0,0-.39-2.2A4,4,0,0,0,399,23.61a5.25,5.25,0,0,0-5.44,0Z"/><path class="cls-1" d="M438.92,18.51A9.59,9.59,0,0,1,442,26a9.59,9.59,0,0,1-5.58,9.07l3,7a.48.48,0,0,0,.44.3h2.31a.43.43,0,0,1,.49.49v5.68a.43.43,0,0,1-.49.49h-8.48a.87.87,0,0,1-.46-.1.6.6,0,0,1-.27-.39l-5-12.25h-2.84q-.3,0-.3.39V42.1a.27.27,0,0,0,.3.3h1.66a.43.43,0,0,1,.49.49v5.68a.43.43,0,0,1-.49.49H414.23a.43.43,0,0,1-.49-.49V42.89a.43.43,0,0,1,.49-.49H416a.27.27,0,0,0,.3-.3V22.7c0-.2-.1-.29-.3-.29h-1.81a.43.43,0,0,1-.49-.49V16.23a.43.43,0,0,1,.49-.49h15.83C433.91,15.74,436.87,16.67,438.92,18.51ZM424.86,23v6.41a.27.27,0,0,0,.3.3h4.36a4.08,4.08,0,0,0,2.89-1,3.34,3.34,0,0,0,1-2.57,3.28,3.28,0,0,0-1-2.55,4.17,4.17,0,0,0-2.89-.93h-4.36A.27.27,0,0,0,424.86,23Z"/><path class="cls-1" d="M459.44,64.81H0V0H459.44Zm-453-6.48H453V6.48H6.48Z"/><path class="cls-1" d="M58.78,81.74l6.08,16.75H62.05l-1.67-4.55H54.55l-1.73,4.55H50l6.37-16.75Zm.64,9.55-1.88-5.18-2,5.18Z"/><path class="cls-1" d="M83.54,88.93A4.37,4.37,0,0,1,86,93.16a4.71,4.71,0,0,1-2.6,4.55,8.32,8.32,0,0,1-3.61.78H75.26V81.74H80a4.19,4.19,0,0,1,2.39.68,4.09,4.09,0,0,1,1.51,1.7,5.16,5.16,0,0,1,.47,2.17v0A4.65,4.65,0,0,1,83.54,88.93Zm-2.3-1.34a2.17,2.17,0,0,0,.46-1.26v0a2.72,2.72,0,0,0,0-.28,2,2,0,0,0-.11-.46,1.71,1.71,0,0,0-.27-.54,1.38,1.38,0,0,0-.52-.41,1.77,1.77,0,0,0-.82-.18H77.91v3.73h2A2,2,0,0,0,81.24,87.59Zm-1.42,8.25a6,6,0,0,0,1.74-.22,3.5,3.5,0,0,0,1.06-.5,1.88,1.88,0,0,0,.53-.72,2.65,2.65,0,0,0,.22-.67c0-.15,0-.34,0-.57s0-.37,0-.5a2.11,2.11,0,0,0-.21-.59,1.62,1.62,0,0,0-.52-.64,3.35,3.35,0,0,0-1-.44,6.39,6.39,0,0,0-1.7-.2h-2v5Z"/><path class="cls-1" d="M104.65,81.56a8.64,8.64,0,1,1-6.1,2.53A8.31,8.31,0,0,1,104.65,81.56Zm0,14.61h.26a6,6,0,0,0,0-12h-.61a5.72,5.72,0,0,0-4,1.9,5.81,5.81,0,0,0-1.64,4.08,5.75,5.75,0,0,0,1.74,4.21A5.85,5.85,0,0,0,104.65,96.17Z"/><path class="cls-1" d="M134.21,81.74h2.84l-6.37,16.75h-2.49L122,81.74h2.84l4.63,12.54Z"/><path class="cls-1" d="M149.77,95.84h7.8v2.65H147.12V81.74h9.93v2.68h-7.28v3.75h5v2.65h-5Z"/><path class="cls-1" d="M193.36,81.74l6.08,16.75h-2.81L195,93.94h-5.83l-1.73,4.55h-2.82L191,81.74Zm.65,9.55-1.89-5.18-2,5.18Z"/><path class="cls-1" d="M220.86,81.8h2.62V98.49h-2.62l-9.58-12.4v12.4h-2.64V81.8h2.66l9.56,12.37Z"/><path class="cls-1" d="M239.17,81.74a8.78,8.78,0,0,1,6.36,2.36A8,8,0,0,1,248,90.17a8.56,8.56,0,0,1-.5,2.94,7.26,7.26,0,0,1-1.35,2.34,8.71,8.71,0,0,1-2,1.67,9.07,9.07,0,0,1-2.4,1,9.94,9.94,0,0,1-2.61.34H234V81.74Zm0,14.1a7.31,7.31,0,0,0,2.23-.34,6.82,6.82,0,0,0,2-1,4.72,4.72,0,0,0,1.45-1.8,5.81,5.81,0,0,0,.54-2.54,5.41,5.41,0,0,0-1.7-4.16,6.31,6.31,0,0,0-4.47-1.58h-2.54V95.84Z"/><path class="cls-1" d="M285.19,88.93a4.37,4.37,0,0,1,2.49,4.23,4.71,4.71,0,0,1-2.6,4.55,8.33,8.33,0,0,1-3.62.78h-4.54V81.74h4.7a4.16,4.16,0,0,1,2.39.68,4.09,4.09,0,0,1,1.51,1.7,5.16,5.16,0,0,1,.47,2.17v0A4.65,4.65,0,0,1,285.19,88.93Zm-2.29-1.34a2.23,2.23,0,0,0,.45-1.26v0a2.72,2.72,0,0,0,0-.28,2,2,0,0,0-.11-.46A1.71,1.71,0,0,0,283,85a1.38,1.38,0,0,0-.52-.41,1.77,1.77,0,0,0-.82-.18h-2.06v3.73h2A2.1,2.1,0,0,0,282.9,87.59Zm-1.44,8.25a6,6,0,0,0,1.75-.22,3.5,3.5,0,0,0,1.06-.5,1.78,1.78,0,0,0,.53-.72,2.65,2.65,0,0,0,.22-.67c0-.15,0-.34,0-.57s0-.37,0-.5a2.11,2.11,0,0,0-.21-.59,1.62,1.62,0,0,0-.52-.64,3.35,3.35,0,0,0-1-.44,6.39,6.39,0,0,0-1.7-.2h-2v5Z"/><path class="cls-1" d="M300.58,95.84h7.8v2.65H297.93V81.74h9.93v2.68h-7.28v3.75h5v2.65h-5Z"/><path class="cls-1" d="M328.42,81.74h3.19l-5.42,8.1v8.65h-2.65V89.84l-5.39-8.1h3.21l3.51,5.37Z"/><path class="cls-1" d="M348.58,81.56a8.62,8.62,0,1,1-6.1,2.53A8.31,8.31,0,0,1,348.58,81.56Zm0,14.61h.26a6,6,0,0,0,0-12h-.61a5.74,5.74,0,0,0-4,1.9,5.81,5.81,0,0,0-1.64,4.08,5.72,5.72,0,0,0,1.75,4.21A5.82,5.82,0,0,0,348.58,96.17Z"/><path class="cls-1" d="M378.81,81.8h2.63V98.49h-2.63l-9.57-12.4v12.4h-2.65V81.8h2.67l9.55,12.37Z"/><path class="cls-1" d="M397.12,81.74a8.78,8.78,0,0,1,6.36,2.36,8,8,0,0,1,2.46,6.07,8.33,8.33,0,0,1-.5,2.94,7.26,7.26,0,0,1-1.35,2.34,8.66,8.66,0,0,1-2,1.67,9,9,0,0,1-2.41,1,9.89,9.89,0,0,1-2.61.34h-5.14V81.74Zm0,14.1a7.31,7.31,0,0,0,2.23-.34,6.7,6.7,0,0,0,2-1,4.84,4.84,0,0,0,1.46-1.8,5.81,5.81,0,0,0,.54-2.54A5.45,5.45,0,0,0,401.6,86a6.35,6.35,0,0,0-4.48-1.58h-2.53V95.84Z"/><path class="cls-1" d="M443.41,16.32v2.76h-.65V16.32H441.7v-.58h2.78v.58Z"/><path class="cls-1" d="M447.38,19.08V17.13l-.64,1.27h-.44l-.64-1.27v1.95H445V15.74h.64l.87,1.8.87-1.8H448v3.34Z"/></g></g></svg>