<?xml version="1.0" encoding="UTF-8"?>
<svg width="450px" height="105px" viewBox="0 0 450 105" version="1.1" xmlns="http://www.w3.org/2000/svg" xmlns:xlink="http://www.w3.org/1999/xlink">
    <title>sws-light-logo-gamebox</title>
    <defs>
        <polygon id="path-1" points="0 0.291858163 45.4633007 0.291858163 45.4633007 41.7598843 0 41.7598843"></polygon>
        <polygon id="path-3" points="0.457034118 0.202070438 22.9142282 0.202070438 22.9142282 18.6751005 0.457034118 18.6751005"></polygon>
        <polygon id="path-5" points="0.100009412 0.202070438 22.8034447 0.202070438 22.8034447 18.6751005 0.100009412 18.6751005"></polygon>
    </defs>
    <g id="Reveal" stroke="none" stroke-width="1" fill="none" fill-rule="evenodd">
        <g id="sws-light-logo-gamebox" transform="translate(0.000000, 0.500000)">
            <path d="M446.500855,55.0960253 C445.688133,50.486964 440.798468,48.6770848 435.702423,47.4561761 C429.886447,46.0109975 424.893325,45.423599 424.485898,43.2076235 C424.454967,42.9823056 424.436836,42.7108761 424.510962,42.4394466 C424.585088,42.1680171 424.751472,41.8965876 424.904524,41.6712697 C425.881497,40.450885 428.07542,39.9981532 430.192018,39.9981532 C430.571715,39.9541376 430.927414,39.9981532 431.191389,40.0442648 C431.55882,40.0442648 431.914519,40.0888044 432.212624,40.1789316 C432.270219,40.134916 432.304349,40.1789316 432.350744,40.1789316 C432.660581,40.2234711 432.957086,40.3156943 433.208795,40.4042495 C433.916994,40.675679 434.463075,41.0377596 434.845438,41.4904914 C434.992624,41.6251582 435.127012,41.8059365 435.203271,42.0333504 C435.291796,42.2141287 435.369122,42.4394466 435.400052,42.6642405 C435.475245,42.8916544 435.45978,43.1169723 435.477911,43.3884018 C435.465646,43.4350374 435.498709,43.479053 435.486444,43.5251645 C435.470445,43.7504825 435.384587,44.0659275 435.636296,44.1565787 C435.97973,44.2472299 436.623935,44.2472299 436.719926,44.2472299 L436.994033,44.2472299 L437.424391,44.2472299 L437.990737,44.2472299 L438.670139,44.2472299 L439.442865,44.2472299 L440.285984,44.2472299 L441.179232,44.2472299 L442.100743,44.2472299 L443.028655,44.2472299 L443.9427,44.2472299 L444.82155,44.2472299 L445.642804,44.2472299 L446.385133,44.2472299 L447.027738,44.2472299 L447.549821,44.2472299 L447.928452,44.2472299 C448.152964,44.2472299 448.375876,44.2456579 448.609987,44.1890664 C448.799835,44.1424308 448.99075,44.0643555 449.161934,43.9485526 C449.37738,43.803406 449.554429,43.6011438 449.671752,43.3842099 C449.806672,43.1374081 449.855201,42.8706946 449.896263,42.6197009 C449.904796,42.5667774 449.912795,42.5143779 449.920261,42.4614544 C449.92826,42.4095789 449.935193,42.3571794 449.943192,42.3047799 C449.96239,41.8965876 450.026918,41.4904914 449.987455,41.1284108 C450.006653,40.7223145 449.933593,40.3156943 449.848268,39.9541376 C448.822233,34.4380408 442.354053,31.5 432.693111,31.5 C423.169757,31.5 415.16999,34.3473896 411.289828,39.6360726 C410.405113,40.8569813 409.783306,42.1240015 409.351881,43.7064669 C408.90819,45.3329478 408.777536,46.825286 409.018046,48.1342258 C409.759308,51.6612371 412.160145,53.6497987 418.274759,55.1861525 C423.884888,56.5438239 430.429861,57.175238 430.890084,59.7066586 C430.986608,60.0241996 430.946612,60.3401687 430.86022,60.6577098 C430.774362,60.9736788 430.65384,61.2451083 430.359468,61.6517285 C429.487552,62.8254777 427.287229,63.6402901 424.204325,63.6402901 C424.066738,63.6402901 423.929151,63.6402901 423.802763,63.5962745 C423.388403,63.5962745 423.020438,63.5962745 422.665272,63.549639 C422.354902,63.5056234 422.045598,63.4589878 421.78109,63.4149722 C421.47232,63.3683366 421.174748,63.2782095 420.923039,63.1875583 C420.203108,62.9627644 419.657027,62.6001598 419.286929,62.1039364 C419.152008,61.922634 419.017088,61.7418557 418.929097,61.5610774 C418.840038,61.3797751 418.763779,61.1549811 418.733915,60.9275673 C418.714717,60.6577098 418.672054,60.4774554 418.653923,60.2055019 C418.620859,60.1593904 418.632592,60.1148508 418.645924,60.0687392 C418.636325,59.9340725 418.698185,59.7066586 418.608594,59.5279762 C418.621393,59.4813407 418.57553,59.4813407 418.495538,59.4352291 C418.290224,59.3466739 417.92226,59.3466739 417.646553,59.3466739 L405.546912,59.3466739 C405.546912,59.3466739 405.040827,59.3466739 404.653131,59.7532941 C404.466482,59.9340725 404.325162,60.1148508 404.275567,60.2961531 C404.143313,60.6115982 404.103317,60.9275673 404.050522,61.2891239 C403.99826,61.6517285 404.004126,61.9666496 404.008926,62.2847147 C403.974796,62.9182248 404.044656,63.5056234 404.115049,64.0924979 C405.205078,69.8779283 411.575134,72.5 421.650436,72.5 C431.679875,72.5 439.892955,69.8779283 443.927768,64.3639274 C444.978868,62.8721132 445.753727,61.3797751 446.245946,59.5719918 C446.714168,57.8548597 446.76643,56.31641 446.500855,55.0960253" id="Fill-1" fill="#FFFFFF"></path>
            <path d="M82.8757085,53.6240307 C80.573428,59.5558207 75.0244914,62.0845226 69.343374,61.8639471 C63.0485983,61.6190979 59.8757298,57.9368605 61.961425,51.448355 C63.9117544,45.3814757 69.1082091,42.4290368 75.0866004,42.4253389 C82.0263544,42.4205938 85.506052,46.5175974 82.8757085,53.6240307 M98.7161628,43.1076492 C97.3210987,35.3700959 89.388662,31.5 78.1230414,31.5 C66.7199315,31.5 56.6189876,35.5057128 50.8746995,43.5635755 C49.1006111,46.0685312 47.7315584,48.9360116 46.8726491,52.1211628 C45.9399521,55.5822971 45.7716738,58.5869775 46.2876564,61.0898224 C47.7703102,69.0099573 55.5450855,72.7887624 66.9476645,72.7887624 C67.9095581,72.7887624 68.825268,72.7887624 69.7202749,72.6979994 L71.4035886,77.5 L83.7930109,77.5 C84.5409734,77.5 85.2061239,76.664663 84.9449475,76.0535952 L82.3507015,70.0131005 C86.8841291,68.1455972 90.7253331,65.2781168 93.6083595,61.5462763 C95.6611422,58.858739 97.1947572,55.717914 98.1640826,52.1211628 C99.0845702,48.7069931 99.2071957,45.7038957 98.7161628,43.1076492" id="Fill-3" fill="#FFFFFF"></path>
            <path d="M138.242954,32.5 L132.922464,52.2493986 C131.201771,58.6349758 127.664168,61.5544291 121.472966,61.5544291 C115.23658,61.5544291 113.225649,58.6349758 114.945811,52.2493986 L120.266301,32.5 L106.508724,32.5 L100.966569,53.0715192 C97.5756804,65.6586878 103.024279,72.5 118.615774,72.5 C134.02441,72.5 143.029747,65.7966772 146.458377,53.0715192 L152,32.5 L138.242954,32.5 Z" id="Fill-5" fill="#FFFFFF"></path>
            <path d="M166.565798,55.7061528 L176.317884,41.6634415 L176.454237,41.6634415 L178.783282,55.7061528 L166.565798,55.7061528 Z M188.232129,32.5 L169.383921,32.5 L141,71.5 L155.624445,71.5 L160.16882,64.961928 L180.287895,64.961928 L181.421357,71.5 L196,71.5 L188.232129,32.5 Z" id="Fill-7" fill="#FFFFFF"></path>
            <path d="M234.439203,56.396253 C232.372779,59.2068234 229.224294,60.7711572 224.440836,60.7711572 L215.511855,60.7711572 L220.150088,43.2758102 L229.079596,43.2758102 C233.771694,43.2758102 236.17557,44.5188444 236.773898,47.4190798 C237.002562,48.6151467 236.894303,50.2269816 236.430638,51.9759826 C235.990737,53.6353186 235.290487,55.2450186 234.439203,56.396253 M251.785443,43.5522772 C250.565022,35.9531695 243.872512,32.5 232.847533,32.5 L209.339515,32.5 L199,71.5 L222.508019,71.5 C233.532469,71.5 241.886885,67.9993294 247.28029,60.5421913 C249.021409,58.0998878 250.32474,55.2450186 251.191868,51.9759826 C252.045793,48.7544477 252.186265,45.9913784 251.785443,43.5522772" id="Fill-9" fill="#FFFFFF"></path>
            <path d="M282.618052,48.5228131 C281.313519,50.3193152 279.136463,50.9170818 276.431749,50.9170818 L270.197623,50.9170818 L272.616987,41.8481087 L278.851113,41.8481087 C281.555827,41.8481087 283.327973,42.7671748 283.662209,44.6090431 C283.767954,45.0696436 283.71269,45.6225777 283.503327,46.4050115 C283.294496,47.1874453 282.982046,48.0168464 282.618052,48.5228131 L282.618052,48.5228131 Z M283.821623,58.0998878 C288.718271,57.2710204 292.379465,55.06302 294.742503,51.6995155 C295.881777,50.1821491 296.826036,48.0168464 297.415865,45.8072449 C298.005164,43.5971097 298.153949,41.6634415 297.83778,40.098574 C296.948784,35.3548692 292.484678,32.5 285.150068,32.5 L261.404381,32.5 L251,71.5 L264.706895,71.5 L268.133751,58.6533556 L276.946123,71.5 L293.678684,71.5 L283.821623,58.0998878 Z" id="Fill-11" fill="#FFFFFF"></path>
            <path d="M333.364287,56.4531727 C330.920391,59.8879609 326.960675,61.6517285 321.968289,61.6517285 C317.159075,61.6517285 314.04036,59.9786121 313.369789,56.5438239 C313.139363,55.3674548 313.22272,53.8777366 313.751,51.9331906 C314.290962,49.9441051 314.97109,48.4517669 315.898103,47.2313822 C318.421109,43.8411336 322.307556,42.3487955 327.071109,42.3487955 C331.835193,42.3487955 334.993197,43.7064669 335.697749,47.1852706 C335.962155,48.4056553 335.910654,49.9441051 335.358481,51.9772062 C334.842412,53.8777366 334.19998,55.232788 333.364287,56.4531727 M350.750831,43.0263212 C349.309872,35.3429804 341.376104,31.5 330.154252,31.5 C318.703566,31.5 308.600395,35.4776471 302.855143,43.479053 C301.080756,45.9664579 299.711474,48.8138475 298.852951,51.9772062 C297.919567,55.4140904 297.797452,58.3977187 298.267329,60.8830277 C299.750232,68.7476708 307.526313,72.5 318.930807,72.5 C330.060807,72.5 339.791261,68.8849575 345.59651,61.3357595 C347.649106,58.6675762 349.183509,55.5482331 350.152998,51.9772062 C351.073109,48.5864336 351.195755,45.6043773 350.750831,43.0263212" id="Fill-13" fill="#FFFFFF"></path>
            <polygon id="Fill-15" fill="#FFFFFF" points="393.482976 32.5 387.295175 55.7061528 375.428939 32.5 360.399754 32.5 350 71.5 363.517556 71.5 369.497149 49.0762809 381.158364 71.5 396.600777 71.5 407 32.5"></polygon>
            <g id="Group-19" transform="translate(0.000000, 30.500000)">
                <mask id="mask-2" fill="white">
                    <use xlink:href="#path-1"></use>
                </mask>
                <g id="Clip-18"></g>
                <path d="M42.0050598,24.1572385 C41.2012951,19.4955635 36.3692198,17.665024 31.3321186,16.4301783 C25.5845421,14.9685026 20.6496904,14.3743988 20.2464904,12.1331273 C20.216448,11.9052374 20.198528,11.6307094 20.2717892,11.3561815 C20.3445233,11.0816536 20.5089656,10.8071257 20.6607586,10.5792357 C21.6263304,9.34491998 23.7946504,8.88702012 25.8860198,8.88702012 C26.2612856,8.84250208 26.6133609,8.88702012 26.873728,8.93365807 C27.2373986,8.93365807 27.5889468,8.97870609 27.8830456,9.06986208 C27.9404951,9.02534404 27.9742268,9.06986208 28.0195539,9.06986208 C28.3257751,9.1149101 28.6188198,9.208186 28.8681186,9.29775206 C29.5680527,9.57227998 30.1072339,9.93849387 30.4856621,10.3963937 C30.6306033,10.5325977 30.7639492,10.7154397 30.8387915,10.9454496 C30.9268104,11.1282915 31.0027068,11.3561815 31.0332762,11.5835415 C31.1075915,11.8135514 31.0928339,12.0414414 31.1107539,12.3159693 C31.0981045,12.3631372 31.1313092,12.4076553 31.1186598,12.4542932 C31.1033751,12.6821832 31.0185186,13.0012292 31.2667633,13.0929151 C31.6067162,13.1846011 32.2428762,13.1846011 32.3377468,13.1846011 L32.6086551,13.1846011 L33.0345186,13.1846011 L33.5942551,13.1846011 L34.265728,13.1846011 L35.0289092,13.1846011 L35.8627162,13.1846011 L36.7455398,13.1846011 L37.6557704,13.1846011 L38.5733798,13.1846011 L39.4767586,13.1846011 L40.3448245,13.1846011 L41.1564951,13.1846011 L41.8901609,13.1846011 L42.5257939,13.1846011 L43.0412574,13.1846011 L43.4159962,13.1846011 C43.6373609,13.1846011 43.8576715,13.1830112 44.0895774,13.1257737 C44.2766833,13.0786058 44.4653704,12.9996392 44.6350833,12.8825144 C44.8480151,12.7357108 45.0224715,12.5311398 45.1389515,12.3117295 C45.2717704,12.0621105 45.3202598,11.7923523 45.3603162,11.5384935 C45.3687492,11.4849659 45.3771821,11.4319682 45.3845609,11.3784405 C45.3919398,11.3259728 45.3993186,11.2729752 45.4066974,11.2199775 C45.4256715,10.8071257 45.4899727,10.3963937 45.4509704,10.0301798 C45.4699445,9.61944791 45.3972104,9.208186 45.313408,8.84250208 C44.2988198,3.26343746 37.9061233,0.291858163 28.3584527,0.291858163 C18.9462362,0.291858163 11.0398268,3.1717515 7.20441976,8.52080623 C6.33002918,9.75565192 5.71547859,11.0371356 5.289088,12.6376652 C4.85057506,14.2827128 4.72197271,15.7920864 4.95967624,17.1159682 C5.69176094,20.6832413 8.06510682,22.6945028 14.1078362,24.2483945 C19.6530221,25.6215641 26.1216151,26.260186 26.5759398,28.8205034 C26.6718645,29.1416693 26.6323351,29.4612452 26.5464245,29.7824111 C26.461568,30.101987 26.3429798,30.3765149 26.0515162,30.7877769 C25.1897751,31.9749246 23.0156574,32.7990384 19.9687304,32.7990384 C19.8322221,32.7990384 19.6962409,32.7990384 19.5718551,32.7545204 C19.1618033,32.7545204 18.7986598,32.7545204 18.4476386,32.7073524 C18.1408904,32.6628344 17.8346692,32.6156665 17.5737751,32.5711484 C17.2680809,32.5239805 16.9739821,32.4328245 16.7257374,32.3411385 C16.0136809,32.1137785 15.4744998,31.7470347 15.1081939,31.2451467 C14.974848,31.0617748 14.8415021,30.8789328 14.7545374,30.6960909 C14.6665186,30.512719 14.5916762,30.285359 14.5616339,30.0553491 C14.5431868,29.7824111 14.5010221,29.6000991 14.4831021,29.3250412 C14.4498974,29.2784032 14.4620198,29.2333552 14.4746692,29.1867173 C14.4651821,29.0505133 14.5263209,28.8205034 14.4383021,28.6397813 C14.4509515,28.5926134 14.4050974,28.5926134 14.3265656,28.5459755 C14.123648,28.4564094 13.7599774,28.4564094 13.4869609,28.4564094 L1.52905035,28.4564094 C1.52905035,28.4564094 1.02834447,28.4564094 0.645699765,28.8676713 C0.461229176,29.0505133 0.321558588,29.2333552 0.272542118,29.4167272 C0.141831529,29.7357731 0.102302118,30.0553491 0.0501232941,30.421033 C-0.00152847059,30.7877769 0.00374211765,31.1062928 0.00901270588,31.4279887 C-0.0252461176,32.0687305 0.0443256471,32.6628344 0.113370353,33.2564083 C1.19120565,39.1078809 7.48639624,41.7598843 17.4441186,41.7598843 C27.3570409,41.7598843 35.4742739,39.1078809 39.4614739,33.5309362 C40.5003068,32.0220926 41.2661233,30.512719 41.7531256,28.6842994 C42.2158833,26.9475658 42.267008,25.3915542 42.0050598,24.1572385" id="Fill-17" fill="#FFFFFF" mask="url(#mask-2)"></path>
            </g>
            <polygon id="Fill-20" fill="#FFFFFF" points="237.603078 86.5 237.603078 85.6329847 238 85.6329847 238 85.5 237 85.5 237 85.6329847 237.39319 85.6329847 237.39319 86.5"></polygon>
            <polygon id="Fill-22" fill="#FFFFFF" points="240 86.5 240 85.5 239.540423 85.5 239.007716 86.2598058 238.462932 85.5 238 85.5 238 86.5 238.30057 86.5 238.30057 85.6647366 238.309963 85.6647366 238.907078 86.5 239.094264 86.5 239.691379 85.6647366 239.700101 85.6647366 239.700101 86.5"></polygon>
            <polygon id="Fill-24" fill="#FFFFFF" points="204 85.5 199.846165 92.5 6 92.5 10.1538351 85.5"></polygon>
            <polygon id="Fill-26" fill="#FFFFFF" points="443 85.5 438.846154 92.5 249.153317 92.5 245 85.5"></polygon>
            <polygon id="Fill-28" fill="#FFFFFF" points="233.428377 85.5 224.175547 99.8993798 213.681418 99.8993798 215.997551 96.2992765 223.083694 96.2992765 225.394508 92.7043412 210.536158 92.7043412 208.222684 96.2992765 211.621629 96.2992765 207 103.5 226.215126 103.5 233.428377 92.2914095 236.009363 96.2992765 233.870331 96.2992765 231.556325 99.8993798 238.319646 99.8993798 240.63046 103.5 245 103.5"></polygon>
            <polygon id="Fill-30" fill="#FFFFFF" points="230 85.5 215.253105 85.5 213 89.5 227.75771 89.5"></polygon>
            <path d="M444,12.5 L439.83023,19.5 L304,19.5 C304.20971,19.3181168 304.424728,19.1267779 304.62966,18.9115217 C305.132432,18.3992451 306.762858,16.4858562 306.762858,13.3943981 C306.762858,13.0790226 306.744276,12.7820024 306.717199,12.5 L444,12.5 Z" id="Fill-32" fill="#FFFFFF"></path>
            <path d="M201.07671,8.28091167 L196.739577,8.28091167 L196.734734,5.87712663 L200.720484,5.87712663 C201.174107,5.87712663 202.085658,6.09778971 202.085658,7.1182897 C202.085658,8.13825539 201.07671,8.28091167 201.07671,8.28091167 L201.07671,8.28091167 Z M206.645029,12.7759202 C205.492945,12.7668373 205.413843,12.3164281 205.413843,12.2565873 C205.413843,12.1417142 205.557518,12.0679818 205.557518,12.0679818 C205.992845,11.866019 206.87211,11.1858637 206.87211,11.1858637 C208.746871,9.75609516 208.969109,7.79363629 208.969109,6.74107871 C208.969109,5.68852113 208.807139,3.82276933 206.886101,2.19103793 C204.969368,0.555032198 202.530134,0.5 202.530134,0.5 L189,0.5 L189.004843,19.5 L196.65617,19.5 L196.65617,14.0630325 L200.720484,18.0707657 C202.118483,19.4540508 204.418886,19.5 204.418886,19.5 L216,19.5 L216,12.7759202 L206.645029,12.7759202 Z" id="Fill-34" fill="#FFFFFF"></path>
            <path d="M281.812747,8.28091167 L277.564686,8.28091167 L277.564686,5.87712663 L281.464183,5.87712663 C281.903311,5.87712663 282.795783,6.09778971 282.795783,7.1182897 C282.795783,8.13825539 281.812747,8.28091167 281.812747,8.28091167 M301.637207,6.6630719 L311,6.6630719 L311,0.5 L298.960844,0.5 C297.828273,0.5 296.252363,1.08344816 295.341989,1.75879475 C294.431615,2.43467563 293.118444,3.97450859 293.118444,6.09778971 C293.118444,8.21679649 294.404235,9.86669385 294.404235,9.86669385 C295.060821,10.6798881 296.71887,12.3896263 296.71887,12.3896263 C296.755201,12.4313011 296.777842,12.4815247 296.777842,12.5413655 C296.777842,12.6701302 296.677801,12.7759202 296.550907,12.7759202 L287.270779,12.7759202 C286.142947,12.7668373 286.061335,12.3164281 286.061335,12.2565873 C286.061335,12.1417142 286.206131,12.0637074 286.206131,12.0637074 C286.627883,11.866019 287.48771,11.1858637 287.48771,11.1858637 C289.322674,9.75609516 289.544344,7.78936194 289.544344,6.74107871 C289.544344,5.68852113 289.385858,3.81796069 287.506139,2.18676359 C285.626419,0.555032198 283.239649,0.509082984 283.239649,0.509082984 L270,0.509082984 L270,19.5 L277.487286,19.5 L277.487286,14.0630325 L281.468922,18.0659571 C282.832113,19.4492421 285.092516,19.5 285.092516,19.5 L299.60374,19.4951914 C302.076861,19.4951914 303.454269,18.1439639 303.829686,17.7672872 C304.210369,17.3900762 305.460356,15.9795422 305.460356,13.6350637 C305.460356,11.2959281 304.396235,10.0964399 303.942891,9.5493237 C303.535355,9.05296533 301.918901,7.33895279 301.5835,6.98044206 C301.542431,6.95265881 301.515578,6.90190096 301.515578,6.84686876 C301.515578,6.75977897 301.560859,6.68604651 301.637207,6.6630719" id="Fill-36" fill="#FFFFFF"></path>
            <path d="M231.279537,19.5 C231.279537,19.4973282 233.54872,12.1980623 233.54872,12.1980623 L235.757003,19.5 L242.203389,19.5 C242.203389,19.5 248,0.521374132 248,0.502671766 L240.774095,0.502671766 C240.774095,0.505343533 239.223001,5.66826504 239.223001,5.67040245 L237.606242,0.502671766 L229.717852,0.5 L228.275319,5.67040245 L226.726873,0.5 L219,0.5 L224.891403,19.5 L231.279537,19.5 Z" id="Fill-38" fill="#FFFFFF"></path>
            <g id="Group-42" transform="translate(244.000000, 0.500000)">
                <mask id="mask-4" fill="white">
                    <use xlink:href="#path-3"></use>
                </mask>
                <g id="Clip-41"></g>
                <path d="M10.1496047,10.9803206 L11.7983106,5.85479613 L13.4416635,10.9803206 L10.1496047,10.9803206 Z M16.9505165,0.202018492 L6.27728706,0.206693643 C6.27728706,0.206693643 0.457034118,18.6434134 0.457034118,18.6751005 L7.58501059,18.6751005 L8.45486353,16.0029917 L15.0025812,15.9983165 L15.89224,18.6751005 L22.9142282,18.6751005 L16.9505165,0.202018492 Z" id="Fill-40" fill="#FFFFFF" mask="url(#mask-4)"></path>
            </g>
            <g id="Group-45" transform="translate(165.000000, 0.500000)">
                <mask id="mask-6" fill="white">
                    <use xlink:href="#path-5"></use>
                </mask>
                <g id="Clip-44"></g>
                <path d="M9.89909176,10.9803206 L11.5659153,5.85064044 L13.2278682,10.9803206 L9.89909176,10.9803206 Z M16.7704094,0.202018492 L5.98855059,0.202018492 C5.98855059,0.202018492 0.100009412,18.6392577 0.100009412,18.6751005 L7.30631529,18.6704254 L8.18572706,16.0029917 L14.8151388,16.0029917 L15.7042918,18.6751005 L22.8034447,18.6751005 L16.7704094,0.202018492 Z" id="Fill-43" fill="#FFFFFF" mask="url(#mask-6)"></path>
            </g>
            <path d="M168,0.5 L168,6.69548957 L159.790646,6.69548957 L159.790646,19.5 L153.027546,19.5 L153.027546,6.66343288 L144.236414,6.66343288 C144.163493,6.68640684 144.11805,6.76441145 144.11805,6.84722457 C144.11805,6.90225522 144.140772,6.95301164 144.181459,6.98506833 C144.522283,7.33876047 146.145554,9.04417637 146.554542,9.53571228 C147.008973,10.0870873 148.076887,11.300433 148.076887,13.6400371 C148.076887,15.9791069 146.818218,17.394944 146.440934,17.7716101 C146.06365,18.1482762 144.681862,19.5 142.1957,19.5 L6,19.5 L10.1501202,12.7761093 C32.6682475,12.7761093 139.113494,12.7851921 139.131988,12.7851921 C139.258806,12.7851921 139.363431,12.679405 139.363431,12.5549182 C139.363431,12.4956133 139.335954,12.4405826 139.300022,12.4037175 C139.300022,12.4037175 137.640819,10.6844103 136.977138,9.86643046 C136.977138,9.86643046 135.686236,8.21657949 135.686236,6.09816658 C135.686236,3.97441089 137.008843,2.4351555 137.918234,1.75929363 C138.831852,1.08396603 140.42289,0.5 141.549985,0.5 L168,0.5 Z" id="Fill-46" fill="#FFFFFF"></path>
            <polygon id="Fill-48" fill="#FFFFFF" points="313.602893 1.5 313.602893 0.632660688 314 0.632660688 314 0.5 313 0.5 313 0.632660688 313.393374 0.632660688 313.393374 1.5"></polygon>
            <polygon id="Fill-50" fill="#FFFFFF" points="316 1.5 316 0.5 315.540268 0.5 315.008054 1.25971599 314.462416 0.5 314 0.5 314 1.5 314.3 1.5 314.3 0.664424514 314.309396 0.664424514 314.906711 1.5 315.09396 1.5 315.691275 0.664424514 315.7 0.664424514 315.7 1.5"></polygon>
            <polygon id="Fill-52" fill="#FFFFFF" points="204 85.5 199.94402 92.5 194 92.5 194 85.5"></polygon>
        </g>
    </g>
</svg>