<svg width="322" height="190" viewBox="0 0 322 190" fill="none" xmlns="http://www.w3.org/2000/svg">
<path d="M251.235 96.41C249.745 97.5247 248.026 98.2963 246.202 98.6697C244.378 99.0431 242.495 99.0091 240.685 98.57C238.274 97.9877 236.038 96.8344 234.165 95.2072C232.293 93.58 230.839 91.5266 229.925 89.22C229.009 91.5241 227.552 93.5742 225.678 95.1979C223.804 96.8215 221.567 97.9712 219.155 98.55C217.348 98.9889 215.466 99.0229 213.644 98.6495C211.822 98.2761 210.105 97.5045 208.615 96.39H207.105V135.52C207.133 137.312 207.78 139.04 208.935 140.41C210.935 142.81 214.245 144.41 218.865 145.05C222.545 145.59 225.265 146.74 227.175 148.6C228.233 149.733 229.156 150.985 229.925 152.33C230.702 150.989 231.624 149.738 232.675 148.6C234.595 146.74 237.305 145.6 240.985 145.05C245.595 144.38 248.985 142.81 250.905 140.41C252.067 139.043 252.717 137.314 252.745 135.52V96.41H251.235Z" fill="white"/>
<path d="M251.376 97.94C249.792 99.0397 247.99 99.7873 246.093 100.132C244.195 100.477 242.246 100.412 240.376 99.94C238.222 99.4406 236.189 98.5154 234.398 97.2188C232.607 95.9222 231.093 94.2804 229.946 92.39C228.797 94.2811 227.282 95.9232 225.489 97.2199C223.696 98.5165 221.662 99.4413 219.506 99.94C217.636 100.413 215.686 100.479 213.789 100.134C211.891 99.7892 210.09 99.0409 208.506 97.94V135.52C208.506 136.8 209.036 142.22 219.096 143.68C223.096 144.26 226.026 145.55 228.156 147.61C228.837 148.266 229.441 148.997 229.956 149.79C230.464 148.992 231.069 148.26 231.756 147.61C233.886 145.55 236.846 144.26 240.816 143.68C250.876 142.22 251.406 136.8 251.406 135.52L251.376 97.94Z" fill="#013369"/>
<path d="M229.925 145.97C229.925 145.97 232.845 142.35 240.435 141.18C249.115 139.83 248.855 135.72 248.855 135.51V115.83H210.995V135.51C210.995 135.72 210.735 139.83 219.415 141.18C227.005 142.35 229.925 145.97 229.925 145.97Z" fill="white"/>
<path d="M221.095 130.22V120.86L219.925 120.2V117.77H225.245V120.22L224.135 120.88V139.97L221.295 139.11L217.185 126.92V134.92L218.485 135.92V138.4L212.785 136.94V134.82L214.085 134.31V120.86L212.745 120.2V117.77H217.065L221.095 130.22Z" fill="#D50A0A"/>
<path d="M230.885 138.78L232.025 140.15V142.58L226.375 140.45V138.39L227.625 137.88V120.88L226.375 120.24V117.79H236.195V122.73H234.035L233.385 120.73H230.885V126.45H232.765L233.505 125.36H234.995V130.44H233.505L232.785 129.44H230.885V138.78Z" fill="#D50A0A"/>
<path d="M237.125 139.64V137.22L238.525 136.06V120.86L237.315 120.22V117.77H242.975V120.22L241.865 120.86V135.11L244.295 134.45L244.765 130.72H247.085V136.96L237.125 139.64Z" fill="#D50A0A"/>
<path d="M211.976 111.81L210.266 110.51H212.316L213.006 108.51L213.696 110.51H215.796L214.076 111.81L214.706 113.81L213.006 112.61L211.306 113.81L211.976 111.81Z" fill="white"/>
<path d="M219.405 111.81L217.695 110.51H219.785L220.475 108.51L221.165 110.51H223.315L221.595 111.81L222.225 113.81L220.525 112.61L218.825 113.81L219.405 111.81Z" fill="white"/>
<path d="M211.976 105.06L210.266 103.76H212.316L213.006 101.76L213.696 103.76H215.796L214.076 105.06L214.706 107.06L213.006 105.85L211.306 107.06L211.976 105.06Z" fill="white"/>
<path d="M219.405 105.06L217.695 103.76H219.785L220.475 101.76L221.165 103.76H223.315L221.595 105.06L222.225 107.06L220.525 105.85L218.825 107.06L219.405 105.06Z" fill="white"/>
<path d="M248.506 113.83L246.806 112.63L245.096 113.83L245.736 111.83L244.016 110.53H246.116L246.806 108.53L247.486 110.53H249.586L247.866 111.83L248.506 113.83Z" fill="white"/>
<path d="M241.075 113.83L239.365 112.63L237.665 113.83L238.295 111.83L236.585 110.53H238.685L239.365 108.53L240.065 110.53H242.155L240.445 111.83L241.075 113.83Z" fill="white"/>
<path d="M248.506 107.09L246.806 105.88L245.096 107.09L245.736 105.09L244.016 103.79H246.116L246.806 101.79L247.486 103.79H249.586L247.866 105.09L248.506 107.09Z" fill="white"/>
<path d="M241.075 107.09L239.365 105.88L237.665 107.09L238.295 105.09L236.585 103.79H238.685L239.365 101.79L240.065 103.79H242.155L240.445 105.09L241.075 107.09Z" fill="white"/>
<path d="M234.646 99.65C233.864 100.117 233.148 100.685 232.516 101.34C232.787 101.494 233.045 101.671 233.286 101.87L232.736 102.39C232.07 101.833 231.287 101.433 230.446 101.22C230.656 101.06 230.886 100.91 231.116 100.76C231.349 100.825 231.58 100.901 231.806 100.99C232.601 100.367 233.475 99.8527 234.406 99.46C234.242 99.4034 234.068 99.383 233.896 99.4C228.396 99.46 223.336 103.59 224.296 110.65C224.392 111.589 224.645 112.505 225.046 113.36C225.313 111.088 225.941 108.874 226.906 106.8C226.638 106.704 226.364 106.628 226.086 106.57C226.216 106.29 226.396 105.93 226.396 105.93C227.334 106.102 228.215 106.508 228.956 107.11C228.776 107.4 228.656 107.58 228.576 107.73C228.32 107.53 228.049 107.349 227.766 107.19C226.659 109.155 225.844 111.27 225.346 113.47C225.346 113.56 225.516 113.59 225.646 113.58C231.646 112.79 234.486 109.7 235.346 106.35C235.893 104.24 235.763 102.012 234.976 99.98C234.916 99.86 234.816 99.63 234.646 99.65ZM229.466 106.32C228.718 105.695 227.823 105.272 226.866 105.09L227.296 104.41C228.26 104.598 229.159 105.032 229.906 105.67L229.466 106.32ZM230.466 104.92C229.716 104.284 228.818 103.848 227.856 103.65C228.006 103.45 228.186 103.24 228.356 103.05C229.313 103.242 230.207 103.672 230.956 104.3C230.776 104.51 230.606 104.72 230.456 104.92H230.466ZM231.566 103.59C230.836 102.979 229.967 102.556 229.036 102.36C229.256 102.15 229.486 101.97 229.686 101.8C230.575 102.017 231.402 102.434 232.106 103.02C231.906 103.22 231.726 103.4 231.556 103.59H231.566Z" fill="white"/>
<path d="M0.31543 96.13H16.0754L19.3154 121.22L22.7654 96.13H37.6854V149.78H26.3154V120.5L21.3154 149.78H16.5554L11.5554 120.5V149.78H0.31543V96.13Z" fill="white"/>
<path d="M58.8658 141.92H52.7858L51.9058 149.78H40.4658L48.0658 96.13H64.3158L72.6358 149.78H59.8258L58.8658 141.92ZM53.9858 131.32H57.6658L55.8258 115.02L53.9858 131.32Z" fill="white"/>
<path d="M75.4155 96.13H94.3155C101.676 96.13 106.236 99.37 106.236 107.95V137.45C106.236 145.88 102.156 149.78 94.3955 149.78H75.3955L75.4155 96.13ZM88.4655 139.47H90.3155C92.2355 139.47 92.7955 138.47 92.7955 136.22V109.22C92.7955 106.98 92.3155 106.12 90.4755 106.12H88.4755L88.4655 139.47Z" fill="white"/>
<path d="M108.985 96.13H127.875C135.235 96.13 139.795 99.37 139.795 107.95V137.45C139.795 145.88 135.715 149.78 127.955 149.78H108.955L108.985 96.13ZM121.985 139.47H123.825C125.745 139.47 126.305 138.47 126.305 136.22V109.22C126.305 106.98 125.825 106.12 123.985 106.12H121.985V139.47Z" fill="white"/>
<path d="M167.806 96.13V107.22H155.636V116.38H165.006V127.77H155.636V138.45H167.806V149.77H142.596V96.13H167.806Z" fill="white"/>
<path d="M183.415 96.13L190.215 122.13V96.13H201.505V149.78H189.895L182.055 121.78V149.78H170.615V96.13H183.415Z" fill="white"/>
<path d="M270.645 107.22V114.5H258.385V106.06C258.385 100.65 261.815 95.46 271.135 95.46H273.915C283.065 95.46 287.915 99.46 287.915 106.64V109.45C287.915 114.86 287.595 117.67 282.605 123.08C280.895 125.03 278.925 127.08 276.725 129.36C269.035 137.51 269.285 138.36 269.285 139.45H288.285V149.77H257.285V142.7C257.285 137.15 257.605 134.55 265.375 124.45C267.085 122.07 268.965 119.45 270.525 117.53C273.385 113.42 274.035 112.05 274.035 110.1V107.22C274.035 105.85 273.465 105.22 272.235 105.22C271.005 105.22 270.645 105.86 270.645 107.22Z" fill="white"/>
<path d="M304.016 107.22V114.5H291.756V106.06C291.756 100.65 295.186 95.46 304.506 95.46H307.316C316.466 95.46 321.316 99.46 321.316 106.64V109.45C321.316 114.86 320.996 117.67 316.006 123.08C314.296 125.03 312.326 127.08 310.126 129.36C302.436 137.51 302.686 138.36 302.686 139.45H321.686V149.77H290.686V142.7C290.686 137.15 291.016 134.55 298.786 124.45C300.496 122.07 302.376 119.45 303.936 117.53C306.796 113.42 307.446 112.05 307.446 110.1V107.22C307.446 105.85 306.876 105.22 305.646 105.22C304.416 105.22 304.016 105.86 304.016 107.22Z" fill="white"/>
<path d="M161.035 85.82C184.529 85.82 203.575 66.6578 203.575 43.02C203.575 19.3822 184.529 0.220001 161.035 0.220001C137.541 0.220001 118.495 19.3822 118.495 43.02C118.495 66.6578 137.541 85.82 161.035 85.82Z" fill="white"/>
<path d="M189.015 49.91H190.095V50.1H189.665V51.03H189.445V50.1H189.015V49.91ZM138.315 54.22H135.815C135.265 54.22 134.995 53.92 134.995 53.31V52.31C134.983 52.0593 135.065 51.813 135.225 51.62C135.295 51.5314 135.385 51.4606 135.488 51.4137C135.59 51.3667 135.703 51.3449 135.815 51.35H137.735C137.941 51.3355 138.145 51.3951 138.31 51.518C138.475 51.641 138.59 51.8191 138.635 52.02L138.905 52.96H140.665V51.96C140.674 51.6414 140.617 51.3243 140.499 51.0285C140.38 50.7326 140.202 50.4643 139.975 50.24C139.752 50.0156 139.485 49.8389 139.191 49.7203C138.897 49.6017 138.582 49.5438 138.265 49.55H135.425C135.104 49.5487 134.786 49.6108 134.489 49.7329C134.191 49.8549 133.921 50.0344 133.694 50.2611C133.466 50.4878 133.285 50.7573 133.162 51.0539C133.039 51.3506 132.975 51.6687 132.975 51.99V53.66C132.973 53.983 133.034 54.3032 133.156 54.6022C133.278 54.9012 133.459 55.173 133.686 55.4018C133.914 55.6307 134.185 55.812 134.484 55.9353C134.782 56.0585 135.102 56.1213 135.425 56.12H137.875C138.415 56.12 138.685 56.44 138.685 57.06V58.32C138.698 58.566 138.62 58.8082 138.465 59C138.394 59.0869 138.304 59.1563 138.202 59.2031C138.099 59.2499 137.988 59.2728 137.875 59.27H135.925C135.718 59.2915 135.509 59.2348 135.341 59.1109C135.173 58.987 135.057 58.8049 135.015 58.6L134.755 57.54H132.975V58.69C132.967 59.0092 133.024 59.3267 133.142 59.6234C133.26 59.92 133.437 60.1896 133.662 60.4159C133.888 60.6421 134.157 60.8203 134.453 60.9396C134.749 61.0589 135.066 61.1169 135.385 61.11H138.315C138.638 61.1145 138.957 61.0529 139.255 60.9291C139.552 60.8052 139.821 60.6218 140.045 60.39C140.273 60.1622 140.453 59.8906 140.573 59.5915C140.693 59.2925 140.752 58.9722 140.745 58.65V56.65C140.751 56.3286 140.69 56.0094 140.568 55.712C140.446 55.4146 140.265 55.1451 140.035 54.92C139.812 54.6916 139.544 54.5117 139.248 54.3913C138.952 54.2708 138.635 54.2125 138.315 54.22ZM150.065 50.22C150.293 50.4421 150.474 50.7082 150.596 51.0021C150.718 51.2961 150.779 51.6117 150.775 51.93V54.36C150.78 54.6829 150.72 55.0034 150.598 55.3024C150.476 55.6014 150.295 55.8727 150.065 56.1C149.838 56.3293 149.566 56.511 149.268 56.6346C148.969 56.7582 148.649 56.8212 148.325 56.82H145.155V61.06H143.155V49.53H148.315C148.951 49.5258 149.562 49.7739 150.015 50.22H150.065ZM148.745 52.31C148.756 52.0627 148.674 51.8204 148.515 51.63C148.444 51.5444 148.353 51.4764 148.251 51.4313C148.148 51.3863 148.037 51.3653 147.925 51.37H145.155V54.95H147.925C148.038 54.9528 148.149 54.9299 148.252 54.8831C148.354 54.8363 148.444 54.7669 148.515 54.68C148.674 54.4896 148.756 54.2473 148.745 54V52.31ZM168.965 56.31L170.965 61.09H168.805L166.935 56.57H165.005V61.09H163.005V49.53H168.085C168.731 49.5326 169.35 49.7888 169.808 50.2434C170.266 50.698 170.528 51.3145 170.535 51.96V53.96C170.537 54.4657 170.387 54.9603 170.105 55.38C169.807 55.7989 169.394 56.122 168.915 56.31H168.965ZM168.475 52.31C168.488 52.064 168.41 51.8218 168.255 51.63C168.186 51.5446 168.097 51.4766 167.996 51.4315C167.895 51.3863 167.786 51.3653 167.675 51.37H165.015V54.67H167.675C167.785 54.6744 167.893 54.6542 167.994 54.611C168.094 54.5677 168.184 54.5024 168.255 54.42C168.41 54.2282 168.488 53.986 168.475 53.74V52.31ZM171.795 51.37H174.715V61.06H176.715V51.4H179.715V49.53H171.815L171.795 51.37ZM186.405 54.22H183.965C183.415 54.22 183.145 53.92 183.145 53.31V52.31C183.13 52.0606 183.208 51.8144 183.365 51.62C183.438 51.5318 183.53 51.4615 183.634 51.4147C183.738 51.3678 183.851 51.3457 183.965 51.35H185.895C186.099 51.3379 186.3 51.3987 186.464 51.5214C186.627 51.6442 186.741 51.8209 186.785 52.02L187.055 52.96H188.815V51.96C188.824 51.6414 188.767 51.3243 188.649 51.0285C188.53 50.7326 188.352 50.4643 188.125 50.24C187.9 50.0149 187.632 49.8377 187.336 49.7191C187.04 49.6005 186.724 49.543 186.405 49.55H183.565C183.245 49.5451 182.926 49.6065 182.63 49.7304C182.334 49.8543 182.067 50.038 181.845 50.27C181.616 50.4935 181.434 50.761 181.31 51.0566C181.186 51.3521 181.123 51.6696 181.125 51.99V53.66C181.122 53.9835 181.185 54.3043 181.308 54.6032C181.432 54.9022 181.615 55.1731 181.845 55.4C182.067 55.632 182.334 55.8157 182.63 55.9396C182.926 56.0635 183.245 56.1249 183.565 56.12H186.015C186.565 56.12 186.835 56.44 186.835 57.06V58.32C186.848 58.566 186.77 58.8082 186.615 59C186.543 59.0882 186.451 59.1585 186.347 59.2054C186.243 59.2522 186.129 59.2743 186.015 59.27H184.075C183.867 59.2874 183.66 59.2293 183.491 59.1063C183.322 58.9833 183.203 58.8036 183.155 58.6L182.895 57.54H181.125V58.69C181.117 59.0092 181.174 59.3267 181.292 59.6234C181.41 59.92 181.587 60.1896 181.812 60.4159C182.038 60.6421 182.307 60.8203 182.603 60.9396C182.899 61.0589 183.216 61.1169 183.535 61.11H186.405C186.729 61.1152 187.051 61.0541 187.35 60.9302C187.649 60.8064 187.92 60.6225 188.145 60.39C188.375 60.1627 188.556 59.8914 188.678 59.5924C188.8 59.2934 188.86 58.9729 188.855 58.65V56.65C188.859 56.3269 188.796 56.0066 188.671 55.7089C188.545 55.4113 188.359 55.1427 188.125 54.92C187.903 54.6902 187.635 54.5092 187.339 54.3887C187.043 54.2682 186.725 54.2107 186.405 54.22V54.22ZM191.405 49.92L190.975 50.6L190.535 49.92H190.315V51.04H190.505V50.35C190.505 50.35 190.505 50.27 190.505 50.23L190.575 50.34L190.935 50.9L191.295 50.35L191.345 50.23C191.341 50.2699 191.341 50.3101 191.345 50.35V51.04H191.545V49.91L191.405 49.92ZM159.735 50.22C159.971 50.4397 160.157 50.7063 160.283 51.0025C160.409 51.2988 160.471 51.6182 160.465 51.94V58.59C160.465 59.2443 160.207 59.8721 159.746 60.3366C159.285 60.8011 158.66 61.0647 158.005 61.07H155.315C154.991 61.07 154.669 61.0057 154.369 60.8809C154.07 60.756 153.797 60.573 153.569 60.3424C153.34 60.1119 153.159 59.8383 153.037 59.5375C152.914 59.2368 152.853 58.9147 152.855 58.59V51.96C152.851 51.6408 152.913 51.3241 153.037 51.0299C153.161 50.7357 153.344 50.4702 153.575 50.25C153.801 50.0175 154.072 49.8336 154.371 49.7098C154.67 49.5859 154.992 49.5248 155.315 49.53H158.055C158.367 49.5284 158.676 49.5885 158.964 49.7069C159.253 49.8254 159.515 49.9997 159.735 50.22V50.22ZM158.435 52.32C158.443 52.0714 158.357 51.8289 158.195 51.64C158.126 51.5546 158.037 51.4866 157.936 51.4415C157.835 51.3963 157.726 51.3753 157.615 51.38H155.615C155.502 51.3737 155.389 51.3939 155.285 51.4391C155.18 51.4842 155.088 51.553 155.015 51.64C154.868 51.8355 154.79 52.075 154.795 52.32V58.25C154.79 58.4919 154.868 58.7283 155.015 58.92C155.085 59.0125 155.176 59.087 155.28 59.1375C155.385 59.1879 155.5 59.2128 155.615 59.21H157.615C157.728 59.2112 157.84 59.1855 157.94 59.1351C158.041 59.0847 158.129 59.0109 158.195 58.92C158.355 58.7337 158.44 58.4952 158.435 58.25V52.32ZM167.005 20.01H145.135L141.785 25.36H163.645L167.005 20.01ZM175.285 36.01H172.005L168.645 41.37H178.645L182.005 46.72H188.395L171.475 19.84L157.875 41.43H143.015L146.425 36.08H155.655L159.025 30.72H138.425L135.065 36.08H140.005L133.315 46.78H161.005L171.515 29.99L175.285 36.01Z" fill="black"/>
<path d="M1.31543 157.69H13.1954L18.6254 178.14L24.0454 157.69H35.9854L36.9254 189.28H27.6254V170.28L22.6254 189.28H14.0954L9.09543 170.28V189.28H0.31543L1.31543 157.69Z" fill="white"/>
<path d="M40.4658 173.46C40.4658 163.37 46.6258 157.2 56.5758 157.2C66.5258 157.2 72.6958 163.37 72.6958 173.46C72.6958 183.55 66.5258 189.78 56.5758 189.78C46.6258 189.78 40.4658 183.56 40.4658 173.46ZM62.9958 173.36C62.9958 168.64 61.0558 164.96 56.5758 164.96C52.0958 164.96 50.1658 168.64 50.1658 173.36C50.1658 178.08 52.1058 181.82 56.5758 181.82C61.0458 181.82 62.9958 178.09 62.9958 173.36V173.36Z" fill="white"/>
<path d="M103.536 180.03C103.607 181.478 103.284 182.919 102.601 184.197C101.918 185.476 100.9 186.545 99.6556 187.29C97.5156 188.64 94.2856 189.29 90.5556 189.29H76.7256V157.69H90.0556C93.0556 157.69 96.5256 158.14 98.5156 159.39C99.6214 160.065 100.524 161.026 101.128 162.172C101.732 163.318 102.014 164.606 101.946 165.9C101.932 167.433 101.406 168.918 100.451 170.118C99.4957 171.317 98.1668 172.163 96.6756 172.52C100.906 173.27 103.536 176.3 103.536 180.03ZM86.1256 169.93H89.5656C90.2888 169.962 90.9992 169.731 91.5656 169.28C91.8583 169.037 92.0916 168.731 92.2476 168.384C92.4036 168.038 92.4782 167.66 92.4656 167.28C92.4786 166.919 92.4087 166.561 92.2614 166.231C92.114 165.902 91.8931 165.611 91.6156 165.38C91.0548 164.915 90.3439 164.669 89.6156 164.69H86.1256V169.93ZM93.8356 179.28C93.8617 178.624 93.672 177.978 93.2956 177.44C92.5956 176.55 91.2956 176.2 89.6056 176.2H86.1256V182.37H89.6056C91.3056 182.37 92.6056 182.02 93.2956 181.12C93.6776 180.585 93.8678 179.937 93.8356 179.28V179.28Z" fill="white"/>
<path d="M107.315 157.69H116.815V189.28H107.315V157.69Z" fill="white"/>
<path d="M122.495 157.69H131.995V181.69H143.885V189.3H122.495V157.69Z" fill="white"/>
<path d="M147.466 157.69H169.806V165.06H156.966V169.43H168.856V176.9H156.966V181.72H170.246V189.28H147.466V157.69Z" fill="white"/>
</svg>
