<svg xmlns="http://www.w3.org/2000/svg" viewBox="0 0 306.22 211.66"><defs><style>.cls-1{fill:#fff;}</style></defs><title>Asset 1</title><g id="Layer_2" data-name="Layer 2"><g id="Layer_1-2" data-name="Layer 1"><path class="cls-1" d="M4.59,109.52c-2.35-4.15-4.58-9-4.58-9A347.18,347.18,0,0,1,49.71,83.45s1.72,6.94,2.68,13.45c-4.47,1-10.26,2.35-16.26,3.84,2.51,10.87,5.43,24,6.78,31.2-5.2,2.15-11.11,4.2-11.11,4.21-3.06-7.72-7.75-19.92-11.73-31.15C14.09,106.66,8.62,108.31,4.59,109.52Z"/><path class="cls-1" d="M67.37,116.89c-1.09,3.65-2.06,7-2.81,9.71,0,0-5.73,1.39-12.41,2.39,1.64-15.59,6.1-36.51,9.33-48.18,10-3.1,19.83-5.08,19.83-5.08,7.26,10.14,19.48,31.8,24,40.94,0,0-5.59,2-11.5,3.59-1.62-2.35-3.46-5.08-5.49-7.89C83.64,113.3,75.89,114.94,67.37,116.89ZM82.73,104.3c-2.75-3.82-5.5-7.63-7.85-11-1.3,3.93-2.81,8.41-4.24,12.95C75.52,105.26,79.91,104.66,82.73,104.3Z"/><path class="cls-1" d="M121.3,118.18s-5.47.25-11.16.46c-2.49-12-5-27.13-7.71-42.6,17.37-7.92,47.3-9.24,50,6.28,2.36,13.35-13.86,20.12-31.09,21.4C121.36,108.92,121.35,113.88,121.3,118.18ZM138.4,85.39c-.72-2.84-8.73-4.48-17.47-2,0,3.17.13,6.5.19,10C132.53,92.42,139.29,89,138.4,85.39Z"/><path class="cls-1" d="M170.52,117.21s-5.46-.41-11.13-.9c-1-12.17-1.71-27.54-2.48-43.22,18.16-5.76,48.07-3.45,48.83,12.29.72,13.54-16.23,18.29-33.47,17.48C171.7,108,171.09,112.94,170.52,117.21Zm21-30.48c-.36-2.9-8.13-5.5-17.1-4.12-.36,3.15-.66,6.47-1,9.91C184.77,93,191.91,90.38,191.47,86.73Z"/><path class="cls-1" d="M246.62,98.78c-1,4.41-2.36,8.2-2.36,8.2-6-.66-14-1.53-20.75-2.1-.37,1.81-.8,3.55-1.16,5.3a250.7,250.7,0,0,1,25.29,5.31c-1.34,4.89-2.85,8.82-2.85,8.82-8.9-1.28-25.76-3.61-35.66-4.38C209.4,108.3,210.59,89,212,74.63c10.71,1,33,5.64,43.7,8.85a91.59,91.59,0,0,1-3.18,8.93c-8.12-1.38-17.31-2.72-25.57-3.8l-1.22,6C232.66,95.6,240,97.07,246.62,98.78Z"/><path class="cls-1" d="M285,131.66c-9,1.22-21.67-.69-32.36-4.31,1.68-11.06,4.87-30.59,7.12-42.17,9,0,21.92,2.57,30.68,7.15,11.54,6,18.07,14.94,15.06,24.86C303,125.8,294.41,130.35,285,131.66Zm6.34-18.23c1.29-5.91-6.11-11.9-17.28-13.59-2.23,7-4.63,14.48-6.83,21C281.17,123.61,289.86,120.14,291.33,113.42Z"/><path class="cls-1" d="M199,166.77c-4.49,21.35-17.28,36.58-39.39,35.66-26-.75-41.37-29.93-32.48-78.2a124.36,124.36,0,0,1,24.63,1c-6.93,31.22-5.57,58.11,10.62,58.85,13.24.84,19-20.15,11.78-53.67a142.72,142.72,0,0,1,23.49.19C200.57,139.44,201.58,154.11,199,166.77Z"/><path class="cls-1" d="M205.11,148.13c-.05-8.1.46-17.14.47-17.14,19.73.89,52.27,6.28,77.19,14.47,0,0-3.85,11.55-8.25,21.85-6.34-2.27-14.6-5.07-23.23-7.69-5.64,18.13-12.53,40-16.5,51.79-7.56-.84-15.8-2.24-15.8-2.23,2.1-14,5.49-36,9-56C219.19,151,211.08,149.35,205.11,148.13Z"/><path class="cls-1" d="M64.4,157.81h0v0Z"/><path class="cls-1" d="M64.4,157.81v.29h-.32c.2.37.35.78.55,1.14C65.67,159,64.79,158.2,64.4,157.81Z"/><path class="cls-1" d="M63,165a1.71,1.71,0,0,1,0,.29c.31,0,.55-.08,1.12-.06,0-.11,0-.22,0-.33A1.79,1.79,0,0,1,63,165Z"/><path class="cls-1" d="M64.08,158.1h0Z"/><path class="cls-1" d="M68.15,157.48c.7.32.3.86.13,1.5.39.45,1.17-.13,1.18-.64a2.78,2.78,0,0,0,1.79-.3.56.56,0,0,1-.37-.3,2.81,2.81,0,0,1,.33-.64c-.83.23-1.9-.27-2.41.4-.43-.13-.55-.55-1-.68-.41.14-.45.66-.52,1.15C67.87,158.09,67.86,157.63,68.15,157.48Z"/><path class="cls-1" d="M81.84,144.22h0Z"/><path class="cls-1" d="M64.06,158.07h0v0Z"/><path class="cls-1" d="M82.49,188s0,0,0,.06l.08-.07Z"/><path class="cls-1" d="M83.35,186.54c-.49.25-.44,1.06-.79,1.46.57-.06.77-.5,1.27-.62C83.7,187.06,83.63,186.7,83.35,186.54Z"/><path class="cls-1" d="M81.13,143.82a1,1,0,0,0-.81.11l.72.15C81,144,81.11,143.93,81.13,143.82Z"/><path class="cls-1" d="M89.3,155.25c.07.52-.76.11-.84.48a3,3,0,0,1,1.81,1c2.44.32,3.12,2.32,5.43,2.77.62.65.77,1.76,2,1.87.91,2.11,2.34,3.72,3.38,5.72a10.62,10.62,0,0,0,.42,3.83,6.12,6.12,0,0,0-.37,1.82c.69-.07-.23.5.66.34-.07-2.12.84-5.23-.7-6.83.1-.69-.27-.93-.3-1.5-.19,0-.47,0-.5-.18-.16-1.36-1.19-1.89-1.43-3.18-.64,0-1-.29-1-.85-.7,0-.78-.66-1.48-.7-.32-1.27-2-1.22-2.61-2.21-1.67,0-2.1-1.24-3.63-1.4C90.26,155.52,89.43,155.72,89.3,155.25Z"/><path class="cls-1" d="M95.91,154.8a1.57,1.57,0,0,1,0,.25,1.8,1.8,0,0,1,.7.2A3.26,3.26,0,0,0,95.91,154.8Z"/><path class="cls-1" d="M68,160.6a5.39,5.39,0,0,1-.59.52c0,.09.06.18.1.26A4.88,4.88,0,0,1,68,160.6Z"/><path class="cls-1" d="M120.86,158.72c-1.79-21.32-21.47-31.66-42.52-27.55-34.95,7.05-44.12,37.48-37.11,56.26,6.67,18.47,24.38,27.51,42.57,23.13C109.73,204.33,122.53,180,120.86,158.72ZM101.31,157c-.92,0-1.13-.66-1.3-1.36-2.61-.37-2.64-3.22-5.25-3.6-.66-1.54-3.17-1.3-3.76-2.9-1.72.39-2-1.52-4.13-1.25-.25-1.2-1.37-.54-2.64-.72,0-.73-1-.59-.8-1.51,2.11.09,4.14.26,4.78,1.76,1.15,0,2.07.29,2.47,1,2.08,0,3.12,2.12,5.43,2.44,1.2,1.45,3.11,2.23,3.74,4.23.21.24.78.12,1,.35C100.7,156.3,101.34,156.33,101.31,157Zm-5.63-9.42c1.17.08,1,1.39,2.13,1.54.57,1.94,2.23,3.37,2.56,5-.76-.3-.57-1.52-1.63-1.52-.13-1-.9-1.42-1.79-1.7a3.25,3.25,0,0,0-1.29-1.69,4.34,4.34,0,0,0-1.12-2c-.11-.08-.41.07-.5,0s-.07-.4-.15-.5c-.31-.36-1.27-.39-.81-.85-1.15-.36-2.29-.73-2.62-1.88A8.68,8.68,0,0,1,95.68,147.6ZM76.3,143.68a7.38,7.38,0,0,1,3.22.08,1.14,1.14,0,0,0-.22-.14,3.5,3.5,0,0,1,2-.62c.79,0,1.73.53,2.65.39-.45.41.22.33.66.35-.12-.12.73-.58,0-.67.21-.46.83,0,1.16.19a6,6,0,0,0,.82.68c.4.16.86,0,1.16.19.46.27,1,1.25,2.14,1,.51.93,1.7,1,2.46,1.55s1,1.43,2,1.37c0,.69.73.61.47,1.5a1.8,1.8,0,0,1-2-1.2c-.63.12-.79-.22-1.33-.2-.32-1.42-2.41-1.16-2.94-2.38a2.52,2.52,0,0,1-2.14-1c-1.5-.13-2.53-.27-3.84-.44-.33.33.45.4.15,1.15-.61-.14-2-.11-1.65-.7-1.46.2-2-.46-3.32-.4-.36.07-.31-.24-.32-.5C77.15,143.82,75.82,143.95,76.3,143.68Zm4.94,3a5.75,5.75,0,0,0,4.3,1.25c0,.68.72.61.47,1.5-.28-.06-.31.12-.34.32a6.09,6.09,0,0,0-4.14-.75c.27-.6-.66-.86-.31-1-.76-.5-1.6-1.14-2.65-.55a3.28,3.28,0,0,0-2.31-.54c-.45.11-.32-.35-.49-.51-.75.38-2,0-2.82-.06C75.08,144.87,78.44,146.69,81.24,146.65Zm-7.66.67c.06.35-.12.44-.18.66.69-.28,1.14-.81,2-.46.06.35-.12.44-.18.66a.83.83,0,0,0,.84-.64c1,.36,1.8-.09,2.82.22-.36.55,1.1.51,1.82.54,0,.22,0,.44,0,.66a13.75,13.75,0,0,1-5.31-.6c-.19.14.1.46-.67.32,0,.16,0,.33,0,.49a1.67,1.67,0,0,0,1.32.36c-.19.2-.15.34.16.34-.1.15-.47.24-.17.33,0,.36-.59.06-.84.15.1.15.2.3,0,.33,0,.39.72.17.82.51a1.48,1.48,0,0,1-2.5.45,3.3,3.3,0,0,1,1.69-1.3c0-.11,0-.22,0-.33-1,.94-2.34-.6-3,.44-1.17-.19-.93-1.42.2-1.49.14-.62-.19-.8-.14-1.33A1.85,1.85,0,0,1,73.59,147.32Zm-4.09,4.91a2.13,2.13,0,0,1,.53-1.48c.89.35,1.65,0,2.66,0,.25,1.64-1.12,1.35-2,1C71.42,152.16,70.11,152.22,69.5,152.23Zm2.42-4.77c-.09.93-.8,1.21-1.85,1.13C70.53,148,70.79,147.29,71.92,147.45Zm-2.7,1.77c.43-.09.59.08.49.51.51-.15.72-.61,1.5-.47,0,.44,0,1-.19,1.16-.87-.38-1.22.15-2.16.12C69,149.71,68.82,149.53,69.23,149.23Zm-1.52,1c.67.07.67.76,1.48.69,0,.44,0,.89,0,1.33-.38.1-1,.31-1.33,0a2.59,2.59,0,0,1,.36-1.33C68.14,150.55,67.44,150.84,67.71,150.2Zm-2.21,2.45c.55,0,.83-.27,1.5-.14.22-.53-.53-.13-.32-.67.58-.11.7.2,1,.35,0,.48-.69.74.15.83,0,.42-.31.57-.51.82-.5-.3-1.1-.75-1.82-.37C65.49,153.2,65.5,152.92,65.5,152.64Zm-6.15,20.61h.5c0,.5,0,1,0,1.49-1.09.16-.85,1.72-1.54,2.29C57.76,175.18,59,174.68,59.36,173.26Zm2,.54c.57-.12.19.68.82.51-.49.35-.51,1.16-1.19,1.31.18,1.82-1.07,2.16-1.23,3.63-.54.19-.12-.54-.66-.35A17.7,17.7,0,0,1,61.34,173.8Zm-.29-2.17c-.06.56-.22,1-.85,1A.71.71,0,0,1,61.05,171.63Zm-1.59,13.1c-.67-.23-.42-1.34-.46-2.17l.67,0C59.78,183.47,59.43,183.91,59.46,184.72Zm-.94-2.85c-.62-1,.77-1.34,0-2,.54-.09.77.13,1.16.19C59.91,181.29,59.09,181.46,58.52,181.88Zm1.89,5.19c-1.11-.32-.3-1.5.21-2C61.1,185.65,60.35,186.38,60.41,187.07Zm-.27-2.83c.45-1.33,1-2.76.75-4,.21-.4.9-.3,1-.81-.56-2.17.84-2.9.92-4.64a3.61,3.61,0,0,1,1-.48c-.68-1.59,1.43-1.65,1.23-3.3.42.45.18-.38.83-.15,0,.44,0,.89,0,1.33-.63.08-.61.84-1.18,1,0,2.07-1.69,2.42-1.59,4.62-.63.07-.48,1-.53,1.65-.34.33-.76,1.46-.37,2-.83.49-.65,2-1.06,3A1.44,1.44,0,0,1,60.13,184.24Zm1.77,2.69c-.26-2.45.86-4.69,1.79-6.44a1.1,1.1,0,0,0-.15-.84c0-.61.6-.62.85-1,.26-.63-.74,0-.49-.68.38-1.17,1.17-.85,1-2.47a.45.45,0,0,0,.5-.32H66c-.34,1.35-.54,2.83-1.4,3.63-.73,3.82-2,7.05-2.55,11.08C60.8,189.63,61.56,187.6,61.91,186.93ZM66,173.56c.8-.71.46-1.66.88-2.48,0-.06.44-.23.5-.32s0-.49.18-.66c.33-.44,1.37-.84,1-2.14,1.23.45,1.4-1.41,2.53-1.61,0-.27,0-.55,0-.83a8.1,8.1,0,0,1,1.43-.55c.07-.53-.19-.72-.15-1.22,1.84-.17,2.28-1.81,4.36-1.74a11.86,11.86,0,0,1-.7,1.65c-1.37.07-1.71.83-2.47,1.21a4.77,4.77,0,0,1,.54,0c-.6.57-.75,1.6-2,1.45,0,.27.8,1,0,1,.14.3.67.22.48.84-1.33.37-.92,2.54-2.55,2.61,0,.91-.24,3-1.56,3.13-.59-1.21.71-1.54.55-2.82,1.28-.46.73-1.81,1.87-2.29,0-.69.23-.64,0-1.16a5.49,5.49,0,0,0-1.88,2.62h-.66c-.05,1.81-1.49,2.18-1.58,4-.4-.07-.36.3-.83.15C65.63,173.76,66.78,173.59,66,173.56Zm4.43-10a11.15,11.15,0,0,1,1.71-2.13c1,.19,0,1.42.14,1.5a8,8,0,0,0-1.51.8C70.76,163.56,70.56,163.58,70.43,163.54Zm10.88-3.77c0,.14-.17.16-.17.33,1,0,1.29.72,2.48.55-.17.6.44.22.66.35.8.47,1.47,1.63,2.3,1.38.38.93,2,.65,1.78,2.19a1.2,1.2,0,0,0-.7.14c.69.28,1.7.38,1.6.84.83-.12.78.49,1.31,1a11.73,11.73,0,0,1,1,1,10.32,10.32,0,0,1,.81,1.35c.16.48-.31,1.28.47,1.5,0,.46-.53.46-.68.82.3,1.28.5,4.31-.77,5,0,1.51-.58,1.53-.88,2.64-.51,0-.75.35-1.17.47a1.64,1.64,0,0,1-1,1.64c-.52.07-.37-.51-1-.35.08-.56.45-.2.18-.83,1.42-.11,1.3-1.81,2.54-2.11.09-.52-.29-.59-.15-1.16.65-.86,1.66-1.33,1.56-3-1.53.32-1,2.84-2.72,2.94a10.49,10.49,0,0,1-3.08,4.43c-.66.2-.39-.62-.83-.18-.27.58.56.11.49.51-.47.47-.17,1.75-1.36,1.47-.44-.88.14-2.31.87-2,0-.33,0-.67,0-1,1.35-.6,1.39-2.28,2.88-2.77,0-.62.2-.47,0-1,.4.08.37-.3.84-.15.19-1.72,1.5-2.28,2.39-3.28-.21-.83.26-2.31-1-2.18a1.52,1.52,0,0,1,.2-1.49c.57-.11.26.62.65.68.2-1-.89-2.08-1.95-2.37-.31-1.07-1.54-1.17-2.28-2,.18-.48.51-.53.51-.81-.27-.63-1.12-.24-.88-1.32-.26.07-.15.52-.67.32.49-.64-1.88-.47-1.31-1.19-1-.24-3.52-.37-3.3-1.06-1,0-2-.45-2.83-.06-.52-.21-.28-1.14-1.14-1-.2.1.07,1.12.14,1.5-.32.07-.42.35-.84.32s.1-1.19-.31-1.34a1.79,1.79,0,0,0-.68,1c-.66,0-1,.35-1.5.47a.9.9,0,0,1-.81-1c1.41.17,1.24-1.31,2.85-.94.18,0,.12-.33.34-.32C78,159.82,79.45,159.16,81.31,159.77Zm-2.43-3.2-.83,0c-.12-.69.27-.85.85-.82C78.9,156,78.89,156.29,78.88,156.57Zm.19-1c.54,0,.7.31,1.33.2.11.43.49,1.11.14,1.49A11.74,11.74,0,0,0,79,156.9C79.68,156.2,79.31,156.44,79.07,155.57ZM95,177.3c0-.72,0-1.34.69-1.31.2-1.31,0-3,.74-3.81a7.54,7.54,0,0,1-.27-3c-.61-.5-.59-2.43-1.77-2.86,0-.22,0-.44,0-.66-1.53-.33-1.33-2.31-3.45-2.07-.22-.66-1-.75-1.64-1a3.92,3.92,0,0,0-1.13-1.85c-.35.14-.5.5-1,.48-.61-.72-.88-1.76-2.46-1.54a10.74,10.74,0,0,0-2.31-.88,1.09,1.09,0,0,0-.15-.83c-.08.7-1.18.54-1.5.14,0-.23,0-.47.18-.49,2.8-.51,4.35,1.57,6.94,1.8.37.84,1.5,1,2,1.7,1,.22,1.85,0,2.48.55.37.29.51,1,.8,1.34.61.68,1.54.84,1.79,1.86,0,.43.61.28.82.52a1.91,1.91,0,0,0,1.13,1.85c.19,1.18-.21,1.93.61,2.5,0,2.06.22,4.12-1.1,5.13C97.16,175.73,96.45,178.21,95,177.3Zm-2.65-.22c.48,0,1.09-.07,1.32.19.05,1-.68,1.1-1,1.64-.46,0-.46-.54-.82-.68C91.87,177.71,92.49,177.8,92.35,177.08Zm1.17-8.62a12.93,12.93,0,0,0-3.42-3.56c1.15-2,2.25.73,3.64.9.16.72.23,1.52,1,1.68-.05,1.24.48,2.68.42,4,0,.79-.46,1.59-.54,2.31-.13,1.09.36,2.46-1,2.47-.55,0-.39-.71-.82-.84.89-.88.38-3.23,1.41-4C93.44,170.92,93.52,169.65,93.52,168.46Zm-.26,12.63c0-.19.31-.14.5-.16.17,1.2-.42,1.59-.38,2.65a1.35,1.35,0,0,1-1.16,0c0-.53.28-1.12.37-2C92.89,181.57,93.58,181.16,93.26,181.09Zm.34-.33a3,3,0,0,1,1.23-3.13c.12.38.54.46.48,1a6.79,6.79,0,0,0-.87,2.15Zm-6.19,2c-.52.36-1.31.45-1.19,1.48-.76.42-1.1,2-2.35.95.19-.2.15-.34-.16-.34.14-.52,1.24-.86,1-1.64.31.33.67-.16,1.16-.14-.27-.36.18-1.07.69-1.15,0-.16-.2-.13-.33-.17-.15-.31,1-.08.34-.32.15,0,.66-.59,1.17-.15C87.85,182,87.28,182,87.42,182.79Zm-4.15,7.9c0,.58-.41.7-.69,1-.82-.17-.48-.7-1.65-.7.2-.53-.42-.85-1-.85.07-.89.41-1.49,1.52-1.3,0,.13-.17.16-.17.33H82c0-.28.52-.4.52-1.1a.59.59,0,0,1-.17.11c-.37-.24-.83-.39-.64-1.18.52,0,.56-.43,1.17-.31-.57-.71.63-.72.53-1.48.58,0,.41.69,1,.68a9.11,9.11,0,0,1,0,2.33C83.5,188.59,81.84,190,83.27,190.69Zm-2.87,2.43a2.06,2.06,0,0,1,1.5-.3c-.41.91-.29,1.37-1.53,1.46C80.67,194,80.23,193.73,80.39,193.12Zm3.26-13.23c-.55,0-.65.46-1.34.3.17,1.59-1.17,1.61-1.55,2.63a1.4,1.4,0,0,1-1-.19c.27-2,1.68-2.36,2.72-2.94,0-1.38,1.82-1.82,1.55-2.46.29-.47,1.28-.4.85-1.15.64-.12.5.5,1,.52.26,1.4-1.09,1.13-1.21,2.14-.48.06-.53.58-1.17.47A1,1,0,0,1,83.65,179.9Zm-6.28-1.63c0,.43-1,.55-1.67.3,0-.33,0-.66,0-1,1.22-.13,2.71-1.24,3.83-.42,0,.11,0,.22,0,.33A2.56,2.56,0,0,1,77.37,178.27Zm1.31.86c0,.28,0,.56,0,.83-.28.27-1,.12-1.5.13,0,.32-.5.62-1.34.48,0-.33,0-.67,0-1C77.08,179.72,77.58,179.11,78.68,179.13Zm-3.83.09a.74.74,0,0,0,.66.34c0,.45,0,.89,0,1.33-.76,0-1.69.1-2-.37a1.26,1.26,0,0,0,.14,1.17c-.31.16-.66,1.25-1.51.8,0-1,.88-1.87,1.38-2.63.11-.17.09-.67-.24-.71.39-.18.38-1,.78-1.44s1-.26.69-1.48c.23-.16.34-.44.68-.49.06-.38-.48-.2-.49-.51.25-.88.24-2,1-2.31-.4-.56.13-1,.42-1.45h-.63c.27-.25.11-.29-.07-.37,0,.25-.38.41-.69.81-.07.09.07.43,0,.5s-.31-.05-.33,0,.27.33.16.5-.66.34-.84.64.13.69,0,.83-.32,0-.33,0c-.16.53.16,1.33,0,2,0-.13-.64.31-.35.83-.47,0-.46.53-.84.65.27.94-.44,1.62-.23,3-.7-.27,0,.92-.68.65-.09.41.09.94,0,1.33,0,.12-.52.2-.68.48s.23.89-.51.66a3.56,3.56,0,0,1-.71,2.48c-.92.14-.37-2,0-1.5.31-1.33.17-2.53,1.23-3.3,0-.24-.49-.07-.49-.34a4.92,4.92,0,0,0,.9-3.3c1.1-.33.21-2.73,1.39-3-.14-1.28.72-1.52.56-2.82,1,0,.71-1.41,1.69-1.46,0-.39,0-.77,0-1.16l1.33,0c0,.08,0,.16,0,.24,1-.69,2.54-1.13,2.23.68-.52.52-1.89,0-1.87.76.83,0,.38.54,1.1.52,0,2.22,1.07,2.92,1.75,3.86,1-1.14,1.45-2,3.21-2.43.13-1.17.56-1.19.21-2.16a9.14,9.14,0,0,0-2.47-.88c0-.33,0-.66,0-1,1.43-.42,1.91.24,3.31.4-.11,1.17-.14,1.3.46,1.84,0,.36-.15.52-.51.49.18.16,0,.61.49.51-.26.86-.69,1.54-1.86,1.46q0,.66,0,1.33c-1.32.32-2.23,1.07-4,.91-.12-.6-.78-.66-1.14-1a1.81,1.81,0,0,0-.8-1.68c-.22.06-.27.29-.51.33.69,1.22.88,3.07-.57,3.64C75.68,178,75.19,178.86,74.86,179.22Zm-6.56,12.33c-.19,0-.3,0-.33.16-.42,0-.4-.38-.65-.51a2.84,2.84,0,0,1,.68-1C68.65,190.13,68.17,191.13,68.29,191.55Zm-.11-2.67c-.12-1,.41-1.26.7-1.81.27,0,.28.16.49.18C69.36,188.2,69.18,189,68.18,188.89Zm7-23.29a5.14,5.14,0,0,0,2.51-.94c2.07.16,3.89-.31,6.14.29.2.22.06.26,0,.5l1.16,0a1.44,1.44,0,0,1,.15,1c.34,0,.17-.62.51-.66a13.8,13.8,0,0,1,3.28,2.06c-.24.91-.17,1.42.8,1.51a10,10,0,0,0-.23,2.82c-.95.09-.78,1.34-1,2.14l-1.16,0c.32,1-.11,2-1.2,2-.42-.32-.07-.36-.49-.68.46-.93,1.48-1.28,1.21-2.13,1.46-.43.75-1.53,1.88-2.46a2.55,2.55,0,0,0-.81-1.18c-.05-.29.14-.31.34-.33-.09-.16-.46-.26-.16-.33,0-.29-.28-.38-.66-.35,0-1.29-2.28-1.25-2.12-2.21-1.6-.23-2-.67-3.81-.57.45-.42-.29-.27-.49-.51-.34,0-.34.44-.51.66-.71-.3-1.55.21-1.81-.7-.49.14-.19.25-.18.66-1.32,0-1.61,1-3,.94C75.62,166.32,74.87,166.44,75.13,165.59Zm6.95-2.81c.57.26,2.05.36,2.32.55,0,0-.09.25,0,.33s.79.4.48,1a3.61,3.61,0,0,1-1.5.14c-.18-.26-.54-.35-.49-.84-.54-.22-.14.53-.67.32-1.27-1.47-3.64-.24-5.3-.94,0-.33,0-.66,0-1a11.25,11.25,0,0,1,5.15.1S82,162.77,82.08,162.78Zm-1.19,13.9c.51-.4.75-.2,1.5-.14-.07-.26-.52-.15-.32-.67.59-.47,1.14-.15,1.84-.3-1.07-.33.18-1.27,0-1.49.27-.52,1,.23,1.16-.14s-.47-.19-.49-.51c.23-1.22.9-1.92,1.23-3.13-.67-1.42-2.93-1.32-3.94-2.41a3.42,3.42,0,0,1-3,.1c.06.26.51.15.32.67-1.16-.19-1.24.75-2.51.45-.48-2.24,2-2,3.36-1.59.79-1.26,4.65-.58,5.13.93.76-.19.64.47,1.32.36-.32.69.74.88.79,1.68,0,.44-.35.42-.67.48.33.6.28.84.13,1.66-1-.07-.62,1.39-1.69,1.3.15,2.35-2.36,2.85-3.07,3.76C81.76,177.9,81,177.19,80.89,176.68Zm.8,1.51a2.44,2.44,0,0,1-1.85,1,1.63,1.63,0,0,1,0-1.33C80.56,177.18,81.18,177.79,81.69,178.19Zm-.53-7a.8.8,0,0,1,1,.52,1.41,1.41,0,0,1-2,1c0-.41,0-.81-.31-.84-.14,0-.17.16-.34.16-.09.68.69.53.47,1.34-2.91.38-.29-3.74,1.2-1.47C81.58,171.84,80.93,171.58,81.17,171.2Zm-1,8.78c.18,1-.7,1.15-1.35.81C78.63,179.87,79.42,180,80.16,180Zm-11.85-5.56c0,.58,0,1.28-.53,1.32s-.17-1-.14-1.33Zm-4,18.36c-.15.32-.1-.18-.33-.17-1.18-.26-.36-1.9-.27-3,.07-.89-.31-2.22.55-2.82a14.53,14.53,0,0,1,.58-3.81c.09-.3.42-.52.51-.82.33-1-.21-2.53.89-3.14,0-.18-.33-.12-.33-.34.76-.73.16-2.32,1.72-2.46.19,2.46-1.45,4.5-1.8,6.78a13.68,13.68,0,0,1-.22,2.65c-.09.31-.27.18-.34.33a17,17,0,0,0-.57,3.31C64.46,190.37,63.71,191.5,64.28,192.8Zm1.46,1.53c-.88-.42-.77-1.89-.12-2.5C66.75,192.24,66.39,193.63,65.75,194.32Zm-.09-3.66c0-.54.65-.34.68-.82a8.9,8.9,0,0,1,.24-3.65c.09-.34.24-.23.34-.49s-.06-.59,0-1c.19-1,1-2,1.22-2.8.27-1.15-.09-2.27.4-3.32,0,0,.33,0,.33,0,.17-.58,0-1.25.2-1.82.4-1.38,1.46-2.5,1.41-4,.13,0,.16.17.33.17.34-2,2.13-2.53,2.25-4.77.57-.09.59-.74,1-1a3.13,3.13,0,0,1,1,.52c.07.73-.52.34-.19,1a15.1,15.1,0,0,0-3.6,5.41.46.46,0,0,0,.49.34c-1.1.38-1.21,1.8-1.39,3.13-1,.73-.77,1.87-.9,3.64a2.7,2.7,0,0,0-.89,2.81c-1,1-.45,3-1.56,3.46.91,1.07-.56,2.27-.41,3.65C66,191.31,65.93,190.89,65.65,190.66ZM67.12,192h.67c.06.35-.12.44-.18.66C67.17,192.74,67.06,192.46,67.12,192Zm1.63,1.53c.14,1.11-.48,1.42-.55,2.32a4.38,4.38,0,0,1-1-.69,1.94,1.94,0,0,0,.36-1.49c.35-.09.48-.4,1-.31.12-.77,0-1.52,1.19-1.47C69.55,192.58,69.6,193.53,68.75,193.55Zm.71-2.31c-.05-.68.08-1.16.69-1.15A1.09,1.09,0,0,1,69.46,191.24Zm.74-3.81c.42.45.25-.32.67-.32a2.59,2.59,0,0,1,1.55-2.62c-.25-1.56.93-1.64,2.19-1.62.37,0-.21-.42,0-.83,1.32.43,1.68-.48,3-.11-1-.64,1.23-2.08,1.34-.64-.69,1.51-2.7,1.17-3.38,2.76-.76.06-1.87-.25-2.16.29s.36.3.66.34a3.72,3.72,0,0,1-.19,1.32c2.48-.61,2.81-3.07,5.54-3,.36,1.4-1.5,1.37-1.37,2-.24.27-1.36.49-1,.81-1.88.77-1.89,2.17-3.71,2.59.32-.86,0-1.34.54-2-.71-.08-.67-.87-1-1.35-.94-.07-.23,1.57-1.2,1.47.39,1-.41,1.12-.69,1.48-.1.13.05.51,0,.67a3.32,3.32,0,0,0-.68.81C69.64,189.32,70.37,188.39,70.2,187.44Zm2.62,2.21s-.31-.05-.33,0c-.29.53-.24,1.31-.53,1.65,0,.06-.29-.06-.33,0-.26.28-.48.88-1,.65a1.49,1.49,0,0,1,1-2c-.59-1,.86-2.42,1.69-1.13.17.45-.37.19-.5.32S72.9,189.58,72.82,189.65Zm-1.44,5.45c-.39,0-.49.28-1,.15-.07-1,.19-1.72,1-1.81.26-1.52,3-1.87,3.08-4.09.75,0,.46-1,1.18-1a.78.78,0,0,1-.15-.5c.49-.15,1.24-.93,1.66-.13.72-.22-.17-.37,0-1,.62-.09,1-1.31,1.68-.8,1.24-.86,2.1-2.1,3.38-2.92-.47-.48.26-.45.35-.82.62,0,.6.62,1.15.69-.44.55-1,1.72-2.2,1.95-.23.16.06.27-.34.49.7,1.32-.5,2.55-1.55,2.79,0-.19,0-.29-.16-.33.32-.57.43-1.36,1-1.64-.51-.21.1-.48-.49-.51,0,.41-.92.58-.86,1.48-1.38.53-2.38.85-2.71,2.44-.39,0-.63.25-1.17.14-.32,0,.18.56,0,1-.48.2-1.06,1.1-2,1.29.41.3.17.22.15.83-.15-.6-.67.56-.17.16C72.48,193.58,71.17,193.45,71.38,195.1Zm7.92-5.49c-.82,0-1,.68-1.19,1.3-.51.11-.6-.18-1-.19-.32-.58.58-.72.18-.83.56-.07,1.05-.82,1.34-.64,0-.5-.07-1.1.52-1,0-.14-.06-.16-.16-.17.2-.49.47.28.66.35C79.8,189.11,79.07,188.86,79.3,189.61Zm-6.47,7.68c-.51.11-.6-.18-1-.18.09-1.66,1.76-1.67,1.89-3.29,1.6.24,1-1.71,2.19-1.45-.44-.75,0-1.2,1-1.31-.1.36.31.24.32.51-.42.67-.34.86-1.19,1.14a.75.75,0,0,1,.15.5c-.65-.06-.52.7-1.18.64.27.34,0,.21,0,.67A6.92,6.92,0,0,0,72.83,197.29Zm3.32-.1c0,.36-.59.07-.83.15,0-.39-.28-.5-.14-1a2.43,2.43,0,0,0,1.2-1.8l1,0C77.23,195.91,76.19,196.23,76.16,197.19Zm2.66.05c-.39,0-.49.28-1,.15,0-.67.25-1,.85-1A1.07,1.07,0,0,1,78.81,197.24Zm-.6-3-.83,0c0-.16.21-.12.34-.16,0-.2-.3-.15-.5-.18,0-.28.29-.42,0-.49,1.33.14,1.15-1.29,2-1.62a.75.75,0,0,1-.15-.5c.52.09.38-.5,1-.31.11.85-.69.86-.36,1.49-.72-.24-.37.64-1,.47C79.11,193.74,78.25,193.43,78.21,194.24Zm1.29,1.85h-.67c0-.45,0-.89,0-1.33a4.19,4.19,0,0,1,1.67-.13C80.52,195.5,79.55,195.76,79.5,196.1Zm3,.23c-.59.11-.8-.07-1.33.3.25-.62-.45-.33-.32-.84.77-.32,1.47-1.27,2.18-1.12C83.63,195.37,82.2,195.39,82.49,196.32ZM84.36,194c-.48,0-1.09.07-1.33-.19.08-.6,0-1.39.53-1.49-.1-.17-.38-.18-.32-.5.64.14-.18-.9.68-.82a2,2,0,0,1-.47-1.5c1.52-.14,1.92-.33,1.54-2h.5a1.08,1.08,0,0,1-.15-.83c.6-.26.65-.7,1.51-1,.37-1,.18-2.13,1.53-1.63,0,1.46-1.54,1.33-1.39,3-1.41.16-1.24,2.53-2.21,2.61C84.54,191.42,84.84,192.71,84.36,194Zm2.2-1.95c-.31,1.15-.44,2.49-1.72,2.63.18-1.3.79-.86.55-2.32.73-1.44,1.32-1.26,1.39-3.13a5.61,5.61,0,0,0,1.56-3.12c.54-.46,1.38-.71,1-1.64.42-.18.57-.65,1.18-.64.14-.62-.19-.8-.14-1.33.5-.27,1-.49.86-1.48-.73-.2-.83.26-1.33.3,0,.44,0,.89,0,1.33-.58.13-.8.64-1.18,1-.4.06-.36-.31-.83-.19a51,51,0,0,1,3.42-4.58H92c.1.66.08,1.45.63,1.68,0,.17,0,.33,0,.5-1.34,2.59-2.63,4.29-3.63,7.07-.69.07-.52,1-1.35,1,.28.17.42.47.31,1-.51-.14-.21.57-.84.32C87.29,191,87.13,191.87,86.57,192.08Zm1.13,1.52c.2-.52-.25-.41-.32-.67.39-.73,1.13-1.09,1.21-2.14.67.14.58-.53,1.34-.3C89.34,191.69,89.31,193.48,87.69,193.6Zm2.9-3.6c-.44,0-.95,0-1.16-.19-.15-1.34.82-1.52.88-2.64.32-.06.31-.47.84-.31,0-.43-.71-.19-.48-.84.39,0,.5-.28,1-.15-.08-1-.18-1.7.87-1.81.44.62-.21,1.28,0,2.16-.73.14-.92.85-.87,1.81C91.1,188.5,90.42,188.81,90.59,190Zm5.23-3.72c-.46-.33.25-.86.19-1.33h.66C96.61,185.64,96,185.77,95.82,186.29Zm1.2-1.64c-.54,0-.47-.52-.82-.68a7.56,7.56,0,0,1,.87-1.81c-.17-.68-.18-2.22.38-2.66,0-.18-.33-.11-.32-.34-.71.22-.49,1.42-1.2,1.64.05.85,0,1.53-.54,1.82.35,2.24-1.68,3.45-1.78,5.78-1.33.32-1,2.37-2.38,2.61-.4-.44.18-.81,0-1.5a5.85,5.85,0,0,0,2.26-4.94c.85-.36.72-1.74,1.7-2-1-1.74.76-3.05.93-4.63.79-.22.4.7,1.15.52.35,0,.06-.73.35-.82h.66c0,1.39.27,4.45-.77,5.3A1.41,1.41,0,0,1,97,184.65Zm.82-7.63c.12-3,.77-7.13,0-10,0-.42-.61-.28-.82-.51a2.36,2.36,0,0,0-1.62-2c-.58-2.21-2.88-2.77-4.23-4.24-.13-.53.16-.63.35-.82H92c.18.85,1.4.72,1.46,1.69,2.75.8,3.35,3.5,4.88,4.92.34.65.2,1.77.79,2.18,0,3.51.72,5.41-.17,8.47C98.35,176.54,98.5,177.2,97.83,177Zm1.76,3.19c-.41-1.22,0-3,.25-4.15.51-.11.49.3,1,.19C101,178.27,100.4,179,99.6,180.21Zm3.77-14c.22-1.25-.93-2-1.11-2.35a2.21,2.21,0,0,1-.31-1.17c-1.44-1.6-2.17-3.89-4.56-4.58-.2-.62,0-1.58-.8-1.68-.61.29.29.46.15.84-1.15.49-1.48-.89-2.64-.89,0-.16,0-.33,0-.5-1.53.06-1.72-1.17-3.3-1.06.5,1.13,1.74,1,2.63,1.55,0,0-.24.26-.17.33.3.29.91.19,1.65.53,0,0,0,.3,0,.33.76.49,1.54.4,2.64.72,0,.85.57,1.19,1.13,1.52.91,1.78,2.64,3.11,3.23,4.72.11.73-.33-.14-.34.33.74.66,1.75,1.87,1.26,3.18.83.29.37,1.55.29,2.33l-.67,0c.75,1.16.22,2.32-.24,3.49-.29.05-.31-.14-.33-.34-.59.4-.72.75-.53,1.65-.28.27-1,.11-1.5.13a1.23,1.23,0,0,1,.53-1.32c-.15-.94-.72-2.87.07-3.66a6.79,6.79,0,0,1-.76-3.34,8.61,8.61,0,0,1-1.77-2.86c-1.15-1.18-2.18-2.47-3.25-3.72a2,2,0,0,1-2.13-1.7c-.58.52-1.82-.75-2.64-1-.31,0-.11.56-.34.65.55.5,1.62.63,1.13,1.69-.24,0-.47,0-.5.15-.65-1.11-2.23-1.33-3.11-2.22-1.94.46-2.23-.9-4.47-.75.11-.54-.1-.77-.15-1.16.61,0,1.74,0,1.32.52,1,.12,2.28.5,2.48.88.36.19.54-.25.33-.16,1.24-.54,1.8.37,2.81.55-.31-.63-1.37-.53-1.47-1.36a2.44,2.44,0,0,1-2.47-.88,16.46,16.46,0,0,0-2.82-.06.74.74,0,0,0-.66-.35c0-.3.19-.83-.32-.67s.21.43,0,.83c-1.59.23-2.77-.39-4.16.25-.39-.07-.71-.18-.82-.52-.38,1-2.65,0-3,.94-1.24-.39-1.24.35-2.34.45.07.11.21.16.28.27a.87.87,0,0,1,1.45.13,4.92,4.92,0,0,1,4.33-.41c-.12.38-.44.56-.68.82.38.73,1.57-.13,2.15.54-.07,1.12-2.06.54-2.83.44-.37,0,.21.42,0,.83a6.25,6.25,0,0,0-1.83.13c.15.53-1.93.71-1.85,1.13-.58.52-.07-.59-.32-.67a2,2,0,0,0-1.2,2,7.89,7.89,0,0,0-2.88,2.76c1,.58.71-.81,1.35-1.3.15.29.52.37.82.52.09,1.17-.64,1.48-1.53,1.63-.39,1.51-2.09,1.67-2.39,3.27h-.55c-.1.13-.19.27-.28.4a10,10,0,0,1-.21,1.42l-.76,0a2.43,2.43,0,0,1-.83.61c-.2,1.21-.53,2.27-1.71,2.46.39-1.35.52-3,1.73-3.46,0-.33,0-.66,0-1a7,7,0,0,0,.76-.42v0h0a1.07,1.07,0,0,0,.41-1c.48-.06.55.28.74.5,0-1.81,1.69-1.93,2.06-3.41-1.14-.05-.81,1.42-1.86,1.46-.15-.68,0-.67,0-1.49,1-.22,1.57-.86,2.51-1.12h0c-.43.14-1,.44-1.41.11,0-.49.51-1.16-.14-1.33s-.22.79-.68.82c-.87-.31.28-1.57-.29-2.17.83-.1,1.43-.43,1.36-1.47-2.47-.1-1.6,2.41-1.75,4.29a5,5,0,0,0-.41.53,3,3,0,0,1,.31.34c-.63,1.82-3.15,1.7-3.4,3.92l-.93,0,0,.09c.3,1-.78,1.35-1.06,2.21h-.67a3.45,3.45,0,0,1,.91-1.89c.12-.87,1.4-1.67,1.27-2.92a3,3,0,0,1-1-.52c0-.77.67-.89,1.19-1.14,0-.33,0-.52.34-.49-.7-.38,0-.76,0-1.33-.6-.17-.09.81-.84.48,0-.47.32-.69.35-1.16.6,0,.79.32,1.32.36.51.79,0,1.69.28,2.5.79.1.82-.61,1.18-1a1.34,1.34,0,0,0-.81-1,1.74,1.74,0,0,0,.7-1.81c-.79,0-.67.88-1.67.63,0-.73,1.09-1.39.21-2,.24-.71,1-.89.87-2a1.87,1.87,0,0,1,.57.68c0-.1,0-.2,0-.31h.29l0,0c-.13-.54.44-.34.51-.66s-.54-.13-.49-.51c-.05-1,1.07-.81,1-1.81,1.12.16,2.23-.44,3.16.06a.39.39,0,0,0,.18-.66c.49-.14,1.11-.75,1.67-.3,0-.38.86-.63,1-1.31a2.66,2.66,0,0,1,.47,0,1.64,1.64,0,0,0,.78-.6,2.13,2.13,0,0,1,1.31.86c.38-.84,2.43,0,2.19-1.45.55-.17,2-.26,1.65.37.91.44.66-.59,1.83-.3-.45.42.28.27.49.51-.31,2.08-3.13-.37-3.68,1.42a22.53,22.53,0,0,0-3.61.17c-.25.62-1.16.65-1.8.35a1,1,0,0,0-.52,1.15c-.65.51-2.3,0-2.67.78-.62.06-.58-.53-1-.68-.13,0-.17.16-.33.16,0,.76,1.18.39,1.31,1,.54.11.77-.1,1.16-.14s.31.24.33.5c1.77-.41,2.12-2.31,4.36-2.24.42,0,.4.38.66.51,1.71-.81,4.11-.92,6.34-1.2.43,0,.58.32.82.52.54-.62,2.48-.22,2.65.55.84.11,0-.59.67-.49.55-.1.26.35.15.5,1.27-.15,2.38.6,3.32.23-.06-.32-.64-.15-.48-.68,1.06-.53,1.33.68,2.48.55.32-.86-1-.67-1.31-.69,0,0,0-.33,0-.33-1.21-.28-3-.05-4.32-.25a4.47,4.47,0,0,0-2.32-.38,3.61,3.61,0,0,1-.13-1.49c.39.39,1.64-.06,1.82.53,1.49-.83,3.09.45,5,.27.17.5.72.63,1.32.72-.27-.18-.52-.38-.74-.51-.54-.34-1-.23-1.15-.85-.87.47-1.62-.61-2.65-.05-.3-.31-.76-.47-1-.85a5.21,5.21,0,0,1-2.16,0,5.17,5.17,0,0,1-.66-.35c-.46,0-.7.35-1.17.31-1-.08-2.09-.4-3.15-.56-.17-1.16,1.54-1.21,1.84-.46.11-.69,2.25-.6,1.83,0,.88.24.78-.54,1.67-.3.43,0,.2.13.16.34a15.55,15.55,0,0,1,4,.74s-.22.26-.17.33l1.83,0c.56.38.92,1,2,.87.23.71,1,.92,1.47,1.36a.86.86,0,0,1-.84.43.51.51,0,0,1,.07.35c1.16-.32,2.1.45,3,.89.51-.19-.17-.57,0-1l.34.1a.63.63,0,0,1-.09-.39c-1.22-.08-1.33-1.22-2.63-1.22.15-.9-.93-.63-1.65-.7-.75-1.24-2.53-1.48-3.94-2.08.44-.43-.27-.13-.15-.67,0-.71,1-.42,1.67-.46.18.69,1,.74,1.13,1.52,2.65.11,3.65,1.81,5.94,2.28.72.88,1.25,2,2.61,2.22,1,2.31,3.84,2.77,4,5.81a3.41,3.41,0,0,0,1.23,1.41c0,.84.28,1,.3,1.5C104.15,163.52,104.13,165.82,103.37,166.17Zm-39,1.41c0-.33,0-.67,0-1,.47,0,.34-.55,1-.31A1.87,1.87,0,0,1,64.37,167.58Z"/><path class="cls-1" d="M71.95,158.89c-.71-.25-1.47-.18-1.52.64,1.09-.35,2.33-.56,2.78-1.58a.81.81,0,0,0-.84-.13C72.28,158.23,72.22,158.68,71.95,158.89Z"/><path class="cls-1" d="M68.77,159.65a5.13,5.13,0,0,1-.55.72.85.85,0,0,1,.26.81,1.23,1.23,0,0,1,1.67-.3c-.1-.56.21-.7.19-1.18C69.87,158.86,69.35,160.1,68.77,159.65Z"/><path class="cls-1" d="M68.14,162.52a3.76,3.76,0,0,0,.17.58A.67.67,0,0,0,68.14,162.52Z"/><path class="cls-1" d="M110.75,17.34c-3.9-7.16-14.33-6.53-21-3.9-7.53,3.27-17.87,7.26-19.59,16.51-1.18,6.89,3.81,11.52,8.43,15.24,1.27,1.18,3,1.18,4.17,2.63,6.71,5.17,15.15,7,20.86,13.51-1.81,1.45-4.53,1.63-7,1.9a5.55,5.55,0,0,0-3,0L80.55,63c-2.45,0-5.35-2.18-7.44.18a3.85,3.85,0,0,0,.91,3.9c4.08,2.18,8.8,1.81,13.06,3.08,7,.18,16.23,1.54,20.22-5.44,1.45-2.36.64-5.17-1.09-7.17-6.53-4.9-14.06-8.16-20.86-12.88-4-4.17-12.24-7.8-9.61-15.24.91-4.9,6.35-6.35,10-8.43l6.35-2c4.17-.91,9.88-2.08,13.69,0,3.08.45,1.72,5,4.62,4.53C112.11,22.14,110.66,19.42,110.75,17.34Z"/><path class="cls-1" d="M235.54,30.4c-1.63-2.72-6.17-3.36-8.71-1.09-1.9,1.63-4,2.63-5.71,4.81A10.1,10.1,0,0,0,220,45c2.45,3,6.08,4.63,7.44,8.25a15.87,15.87,0,0,1-2.63,2.36c-2.54,2-8,.63-7.8,5.26.27.54.82,1.27,1.45,1.27,5.17,0,9.61-2.72,12.7-7,4-6.35-4.9-8.8-7.25-13.24-.27-1.81.54-3.63,1.36-5.26,1.54-2.18,4-4.08,7-3.9,1.27.54.63,1.9.63,2.81a2.08,2.08,0,0,0,2.18.91C236.9,35,235.36,32.39,235.54,30.4Z"/><path class="cls-1" d="M178.76,15.44c-2.54,1.72-5.17,3.63-8.53,3.54-1.27-.82-3.17-.64-3.9-2.45,0-.73-.18-1.54.63-1.9,3.54.09,6.35-1.63,8.53-4.35a8.82,8.82,0,0,0-.91-8.71c-1.09-.54-2-1.72-3.45-1.54-5.35,1.36-7.44,7-9,11.7-.45,3.72,1.36,6.53,3.54,9.16,2.72,2,7,.91,10,.27,1.72-1.63,5.44-2.63,4.81-5.44ZM167.6,7.82c1.27-1.36,1.81-3.45,3.72-4.08,2.18-.18,2.54,2,2,3.63-.73,3-3.45,3.27-5.9,4C165.88,10.27,167.6,9,167.6,7.82Z"/><path class="cls-1" d="M178.68,36.66c1.63-1.54,6-.09,5.26-3.63-.54-3.08-3.9-2.45-5.89-1.81-3.27,1.63-6.8,3.54-8.25,7.25-1.36,4.44,1.81,7.89,4.53,10.88.54.82,1.91,2.17.45,3-2.27-.27-3.81,1.36-6.08,1.09a2.23,2.23,0,0,0-1.09,3.08c0,1.63,1.9,1.63,3,2.18,3.27-.27,7.35-.82,9.43-3.72,3.81-6.26-5.8-9.34-5.26-15.05C175.77,38.74,176.59,36.38,178.68,36.66Z"/><path class="cls-1" d="M159.62,2.2c-.18-.91-1.54-2.27-2.45-1.09.45,3.45-.72,6.8-.64,10.43-.91,1.54-2.9.63-4.35.91-1-2.72,0-6.26,0-9.43-.27-.82-1.45-1.45-2-.82-1.54,3.17.82,9-3.26,10.88.18.82-.36,1.81.45,2.36,1.91.18,1.18,2.27,1.36,3.54.36,1.54-.18,4.44,2.18,4.35,2-1.45-.27-3.45.63-5.26-.82-3.08,2.72-2.09,4.35-2.36,1.45,1.45-.09,3.45.45,5.44.09,1.18,1.45,1.36,2.54,1.27.27-2.18.45-5,.73-7.44.09-.73,1.63-1.18,1.09-1.9C157.72,10.27,160,5.82,159.62,2.2Z"/><path class="cls-1" d="M214.86,41c-1-2.18-1.27-4.72-2.9-6.71-.91-.09-1.9-1.27-2.81-.18-1.54,5.08,4.81,9.43,1.36,14.51-2.27.63-2.54-2.36-4.17-3.45-1.45-.27-3.45-2.54-4.53-.45-.73,4.45-.54,8.34-.91,12.88,3.45,1,2.63-3.9,5.26-5,2.18.63,3,3.08,5.8,2.18C216.49,51.35,214.23,45.72,214.86,41Z"/><path class="cls-1" d="M146.92,7.82c-1.63-2.27-3.81.64-6.08,0-1.36-.54-.18-1.72-.18-2.63a2.37,2.37,0,0,0-1.72-1.72,3.93,3.93,0,0,0-1.81,3.27C135,11.44,128.7,4.64,127.61,10c1.81,2.36,5.17,1.81,8.07,2.18,1.54,2.9.54,6.53.82,10.25l.45.64c.72.54,1.54.09,2.18-.45l.45-9.52c.82-1.72,2.9-1.27,4.35-1.72C145.29,10.72,147.11,9.63,146.92,7.82Z"/><path class="cls-1" d="M118.19,43.64c-.63-2.18-.36-4.72-2-6.53-.63-.36-.91-.18-1.72-.18-1.27,4.9-.27,9.16-.82,14.33-1,3-2.18,7.35.18,10.07,1.81.36,2.81-.55,3.45-2C116.37,53.89,119.09,49.08,118.19,43.64Z"/><path class="cls-1" d="M143.4,38.2C139,37.11,139,43,137.32,45.63l-.64.45c-2.09-2.72-2-6.26-4.53-8.71-1.09-1-2.36,0-3.54,0-4.35,5.44-3.17,12.51-4.35,19.32.82,1.18,2,2.54,3.54,1.72,2.27-2.18.82-5.71,1.72-8.43.54-1.81-.54-4.9,1.72-5.44,1.72,2.72,1.27,7.53,5.26,8.25,2.18-.82,3.81-3.63,4.72-5.44l.73.64c.91,4.63-2.18,8.43.64,12.24a3.73,3.73,0,0,0,2.36-1.36,37.91,37.91,0,0,0,0-12C144.12,43.91,145.85,40.55,143.4,38.2Z"/><path class="cls-1" d="M166.71,38.65a12,12,0,0,0-5.17-5.44c-1.9-.72-3.63.27-5.26.91-1.72,3-3.81,6-3.27,10-.18,2.18-2.54,1.63-3.72,2.81a6.52,6.52,0,0,0,.64,3.54c3.54-.09,1.54,4.35,3.72,5.62a2.45,2.45,0,0,0,2.81-1.27c-2.45-9.16,9.16-2,11.16-7.89C168,44.18,167.88,41,166.71,38.65Zm-5.9,7c-1.54,0-2.54.54-3.45-.91.18-2.72.09-5.8,2.63-7.34,2.9.36,3.72,3.63,4.53,5.81C164.8,45.36,162.17,45,160.81,45.63Z"/><path class="cls-1" d="M194.18,42.82A5,5,0,0,1,190.65,41c-1.54-1.09-2.36,1-3.45,1.81.54,3.9-3.54,5.44-3.27,9.34.73,2.45.82,5.08,3.72,6.26a15.25,15.25,0,0,0,6.71-.36,7.08,7.08,0,0,0,3.9-4.63C198.81,49.35,197.81,45,194.18,42.82Zm-2.9,11.25c-1.36.18-2.72.27-2.81-1.45.09-2.27.54-4.63,2.45-5.71,1.81-.73,3.26,1.09,3.63,2.45C193.73,51,193.91,54,191.28,54.07Z"/><path class="cls-1" d="M233.19,61.36h-.54V59.21h-.79v-.46H234v.46h-.79Z"/><path class="cls-1" d="M236.79,61.36h-.51V59.18h0l-.49,2.18h-.53l-.48-2.18h0v2.18h-.51v-2.6h.8l.47,2.05h0l.46-2.05h.79Z"/></g></g></svg>